<?xml version="1.0" encoding="UTF-8"?>
<svg id="a" xmlns="http://www.w3.org/2000/svg" viewBox="0 0 1366 1555"><svg y="-200"><path d="M829.27436,538.82127c1.99043-4.01833,4.34167-7.90445,5.87473-12.09038,1.69592-4.63061-1.05084-12.36507-4.40472-12.90757-5.34037-.86381-7.05819,3.8915-9.61943,7.13157-.60568,.76613-.76164,1.8961-1.09404,2.86907-3.71667,10.88037-10.7165,18.83515-21.08273,23.85321-1.13049,.54724-2.03969,1.55202-4.32143,3.33922,3.53834,.18277,5.5199,.39465,7.49835,.3688,9.79268-.12788,17.56113-5.12301,25.12982-10.57089-4.59252,9.99105-11.94241,17.07702-22.06816,21.37644-1.21764-1.46105-2.23226-2.67857-3.97502-4.76972-.17999,2.62668-.37885,4.00787-.35354,5.38492,.44789,24.41338,.76217,48.83077,1.44561,73.23771,.50261,17.95103,2.86825,35.90622-1.84348,53.70086-3.38177,12.77196-2.96548,25.70432-1.5508,38.7798,1.53359,14.17361,2.62384,28.43766,2.9748,42.68533,.38992,15.83247-6.65357,36.69786-14.39467,46.01299-14.75306-33.9906-39.71903-47.49507-64.99549-51.20168-30.83751-4.52198-59.13637,3.16801-84.64466,20.81998-14.40138,9.96584-25.97638,22.46694-31.36998,39.64452-1.31359,4.18358-3.36237,3.97011-6.33156,1.94208-13.9874-9.55376-28.32311-18.6376-41.89664-28.74619-14.24117-10.60587-25.37491-24.14021-33.44048-40.02249,8.41335-6.98659,9.16775-14.06877,2.20289-22.4326-6.01433-7.22235-13.72605-12.01253-23.0968-13.38333-6.05654-.88602-12.22732-.90626-18.27571,3.98823,2.31054,1.36269,4.15323,2.16585,5.65666,3.38701,5.42161,4.40342,10.92332,8.74408,15.96335,13.56019,1.55269,1.48368,2.54275,4.46422,2.3966,6.66684-.76592,11.54587-1.85693,23.07582-3.16116,34.57438-.21114,1.86165-2.05954,3.53749-3.15112,5.29922-1.46474-1.5328-3.88184-2.88791-4.20734-4.63327-.82235-4.40933-1.0502-9.00667-.88824-13.50606,.31174-8.66327-3.40208-14.38109-11.05519-18.36932-4.67668-2.43709-9.36919-5.48783-12.91826-9.31679-8.35147-9.01023-9.05214-21.69827-2.66715-32.18293,6.19424-10.17143,16.96368-15.26127,28.77346-11.71408,6.75494,2.02872,12.68916,6.79154,18.76244,10.1944-2.21502-8.8894-8.22646-15.79108-17.17743-20.68656-2.16621-1.18485-4.61059-3.57638-5.106-5.81607-2.66605-12.05309-5.61266-24.14514-6.87328-36.38751-2.79379-27.13193,2.71221-53.41306,9.50625-78.86816,13.63754,1.02566,26.76519,2.01295,40.54039,3.04896,.32853,.95883,1.02447,2.65181,1.49191,4.4057,5.45742,20.47567,2.72054,39.69376-8.81728,57.58641-5.37515,8.33571-10.97902,16.55256-15.83804,25.18451-4.88611,8.67994-7.15016,18.12477-4.20976,28.08053,1.49384,5.05801,5.23548,7.2764,10.45072,6.67942,4.84238-.55437,8.27508-3.02436,8.51998-8.18357,.60439-12.73201,5.62714-23.87269,11.64021-34.79869,8.57003-15.57223,13.59252-32.14325,10.49199-50.03855-1.74428-10.0675-5.00017-19.87305-7.68623-30.22512,4.66842-.84854,10.39332-1.53477,15.92929-2.95693,23.3794-6.00604,46.61375-12.59836,70.07159-18.27119,22.68559-5.48612,45.38451-6.84604,67.27087,3.85815,.45418,.22215,1.14231-.03434,1.72131-.06754-5.42229-3.90837-11.12627-7.22504-17.22048-9.4919-21.8399-8.12364-44.29972-7.38798-66.70134-3.20269-24.33509,4.54662-48.43135,10.43315-72.83185,14.54839-17.62574,2.9727-35.25356,.94538-51.22052-7.81125-5.80599-3.18423-10.98243-8.03347-15.42001-13.03409-3.53781-3.98668-1.68088-5.8636,3.3288-7.04303,3.32667-.78319,7.18184-3.26709,8.86295-6.12854,2.25473-3.83783-.40397-7.50863-4.05387-9.83644-5.07175-3.23468-6.65198-7.99398-5.09819-13.43655,1.54572-5.41445,5.41316-8.44241,11.34677-8.91282,8.83616-.70056,12.02842-6.5341,7.71154-14.06593-2.58648-4.51266-3.84686-8.72171,.09534-13.03333,3.81951-4.17748,8.35208-5.15951,13.4466-2.67709,4.72696,2.30337,8.10236,.71224,11.45617-2.90409,1.37471-1.48235,3.97153-2.12443,6.12562-2.50137,1.87951-.32892,3.91806,.25137,6.60416,.49509,0-4.60594,.06271-8.47754-.01679-12.34623-.08749-4.25791,2.04071-6.27913,6.12312-5.69368,11.00741,1.57866,21.99098,3.32925,32.97049,5.09534,11.18993,1.79986,22.41325,5.48536,33.53426,5.17736,22.04039-.61043,44.03951-3.20572,66.01992-5.34789,20.20824-1.96944,40.4211-4.20898,60.45254,.80646,27.36859,6.85253,47.0574,22.00369,52.42906,51.30076,1.9714,10.75161,2.93183,21.69308,4.21874,32.56389,.56422,4.76612,2.7482,7.75651,7.76883,7.86404,5.46746,.11708,7.42583-3.66534,7.20014-8.1366-.51777-10.25379-.96005-20.59029-2.64529-30.69088-4.4483-26.66141-17.65056-47.35441-42.60258-59.53546-18.08004-8.82636-37.29822-12.56652-57.17482-11.31023-20.38997,1.28878-40.70916,3.79489-61.03252,6.01476-23.00464,2.51282-45.59239,2.2602-68.18037-4.43613-11.50823-3.41165-23.97867-3.93384-36.08319-4.85307-8.4955-.64522-14.41437,4.27459-17.75048,12.00916-3.95319,9.1651-3.88006,9.19668-14.06356,8.84911-15.33513-.5234-26.5412,8.98586-27.92247,23.82948-.26112,2.80626-.03736,5.65775-.03736,8.43312-15.41675,7.88876-21.69954,22.72836-15.79609,37.9086,.53705,1.38111-.49314,3.87153-1.5475,5.28607-4.59456,6.16425-6.2823,13.24373-2.88833,19.8187,3.40841,6.60297,8.24522,12.77976,13.59172,17.97365,4.44515,4.31814,10.53795,6.93921,15.71618,10.1958-22.18385,37.32929-27.1224,77.27931-19.02788,119.18383,.95077,4.92194,.05241,7.10015-3.9685,9.84258-13.73719,9.3697-20.10044,26.92836-16.34269,43.15373,3.65623,15.78691,13.49207,26.64151,27.3066,34.07118,.4593,32.01002,5.63544,38.64987,31.50708,40.80572,11.43646,28.67425,34.86672,47.76441,55.27208,69.93435-9.27666,13.89874-18.99007,27.65405-33.23695,37.5309-3.97642,2.75661-7.28998,3.24253-11.79739,.50532-3.20159-1.94435-7.85178-3.10085-11.49167-2.47893-39.56575,6.76038-78.57728,15.65357-115.51548,31.98887-34.46119,15.2399-64.77935,36.03774-86.66244,67.21685-7.94693,11.32285-13.62221,24.24096-20.61445,36.94059-4.9687-.96145-11.19516-2.46787-17.50947-3.33145-19.03317-2.60318-38.23953-4.19442-57.11216-7.6392-16.16723-2.95113-32.21952-7.13608-47.85845-12.2075-15.2647-4.95021-23.90587,.19232-24.04956,16.21052-.00475,.52822-.17686,1.05499-.3778,2.1814-2.54446-2.46309-4.84188-4.45065-6.86144-6.68913-4.84827-5.37366-9.26765-11.17298-14.44717-16.19467-3.16536-3.06886-7.15426-5.69341-11.25149-7.28852-4.74846-1.84853-10.70321-1.83458-13.51849,2.84417-2.02437,3.3642-2.69087,8.91745-1.40295,12.59791,2.19017,6.25885,6.39612,11.81195,10.03341,18.14645-4.47703,4.68413-3.88122,11.00393-1.31314,17.11716,2.2267,5.30066,4.91248,10.51892,8.13604,15.27098,14.41755,21.25321,34.54502,35.38702,58.00258,44.94086,9.15339,3.72799,18.7205,6.44867,28.12734,9.54254,12.32605,4.05418,24.60042,8.29644,37.05195,11.92611,7.382,2.15183,15.0624,3.27967,22.6393,4.87448-9.84528,34.87935-16.33176,78.43122-16.54519,108.24703-.05447,7.61047,1.96672,13.3922,9.44102,15.29372-2.32885,15.93519-5.34887,31.3831-6.67055,46.97504-1.62126,19.12647-1.1286,38.43443-2.81148,57.55287-2.15263,24.45488-2.1877,48.74238,1.44545,73.01867,2.70624,18.08262,6.96952,35.63961,16.71463,51.46837,6.88756,11.18731,16.21039,19.5005,28.75944,23.3049,19.66221,5.96078,39.20613,13.59536,60.55604,7.89459,2.721,9.25501,9.76816,13.10444,17.86393,13.47013,15.4623,.69893,30.98681,.42254,46.47499,.07717,66.39441-1.47989,132.77988-4.1049,199.17838-4.45558,69.92157-.36918,139.85554,1.28461,209.78117,2.26008,17.16531,.23955,34.34532,.90103,51.46985,2.078,12.4385,.85479,14.6725-.72152,14.41089-13.48499-.02539-1.23867-.2651-2.47234-.2995-3.71146-.6657-23.97351-2.29319-47.97159-1.70365-71.91493,.63554-25.81651,3.14297-51.59921,5.32097-77.35553,.4679-5.53324,1.91835-11.57225,4.78918-16.22113,25.05441-40.57246,50.26873-81.05214,75.9783-121.21161,18.49579-28.89136,37.90222-57.19832,56.63689-85.93928,1.68122-2.5793,2.42111-6.62894,1.8359-9.65473-1.28509-6.64448-.69306-12.65127,2.526-18.55982,6.87835-12.62489,18.61356-18.96379,31.14354-24.2806,14.15398-6.00589,27.86188-12.5929,38.07274-24.76258,1.88471-2.24621,4.87974-3.90818,7.69146-4.95582,5.85518-2.18155,9.81852,1.04552,8.34268,7.05512-1.41476,5.76043-3.47597,11.48954-6.14968,16.77876-2.92986,5.79606-6.88601,11.07291-10.44133,16.64883-5.44222-.72455-11.06337-1.47284-16.68452-2.22119,11.4952,8.16848,26.32601,12.35373,42.50869,12.80493,30.44313,.84888,59.09181-5.40982,85.24791-21.68197,5.785-3.59882,12.09648-6.3508,18.16545-9.49266-7.84151,16.56074-21.39322,25.18906-37.68715,30.09546-6.42645,1.93518-12.95914,3.51664-19.44349,5.25912,29.21427,1.06697,57.49812-1.55857,83.14813-17.15794-8.82968,7.64822-18.18886,14.00722-27.52312,20.40267-3.05089,2.09043-6.00068,4.32906-9.06332,6.40144-2.52994,1.71193-4.96477,3.89264-7.78338,4.78033-5.68307,1.78978-11.59864,2.84129-17.41828,4.19731,.10822,.56415,.21637,1.12822,.32451,1.69237,20.34458,1.81495,40.35858-.67755,60.46117-4.88881-8.04613,4.01385-16.14327,8.37013-24.75976,10.03293-26.94685,5.19992-54.1165,9.23234-81.14876,14.00615-23.24761,4.1055-45.37155,11.19003-64.01892,26.48542-17.51907,14.36987-28.91022,33.27901-38.90911,53.15915-19.91851,39.60245-34.52099,81.35748-48.91732,123.13268-19.49662,56.57512-39.88303,112.6155-76.61975,160.93428-2.35041,3.09137-2.20073,6.31358,.79802,8.81291,3.36927,2.80816,5.826,.42467,7.72541-2.19792,8.4778-11.70536,17.49747-23.0834,25.1355-35.32032,24.75036-39.65369,41.89899-82.88164,57.31631-126.75424,14.38073-40.92284,28.88187-81.70801,47.23042-121.11791,18.10504-38.88691,45.96109-64.62171,89.10811-71.87688,23.40759-3.93593,46.91197-7.33643,70.24234-11.67891,21.20671-3.94715,40.88104-11.90784,57.28994-26.38771,3.10962-2.74395,5.81137-6.65615,7.06805-10.55599,.89169-2.76715-.09989-7.08893-1.91282-9.42861-1.10404-1.42508-5.59069-1.13883-8.16178-.34226-7.27183,2.25303-14.3395,5.16527-21.7238,7.90559,9.75729-10.15452,19.03478-19.79516,28.29287-29.45422,2.69144-2.80778,5.37364-6.56708,2.4224-9.66702-1.68153-1.76613-6.74353-1.9323-9.45377-.81173-10.46967,4.32875-20.62347,9.42762-30.8582,14.31635-5.2692,2.51669-10.46103,5.19537-15.68772,7.80097,1.95056-4.00256,4.60313-6.90214,6.81037-10.10859,2.33714-3.39513,4.51317-6.96013,6.24532-10.68987,.9577-2.06208,.86229-4.61348,1.24167-6.94437-2.53275-.32832-5.42472-1.60914-7.53344-.81325-7.49078,2.82673-15.13487,5.65885-21.96752,9.7482-31.65819,18.94742-65.62428,24.58519-102.61466,19.18098,2.1451-3.07644,4.3569-5.35517,5.52036-8.08153,3.7735-8.8427,8.1899-17.60292,10.41245-26.86233,2.24484-9.35227-5.0708-15.79859-14.54139-13.34285-4.71317,1.22207-9.5726,4.16948-12.98014,7.68143-8.09774,8.34564-17.53233,14.1464-27.9842,19.01155-10.43435,4.85697-21.0171,9.97016-30.21615,16.75882-10.94159,8.07494-16.97509,19.47101-15.25786,33.99545,.3615,3.05855-.53929,6.87515-2.21225,9.46878-12.77309,19.80145-25.88812,39.38216-38.88274,59.04079-5.0542,7.64618-10.07218,15.31623-16.10052,24.4874-.41068-5.11001-.60522-8.36429-.94338-11.60341-2.2528-21.58054-3.55532-43.31596-7.00249-64.70502-8.7019-53.99377-28.48756-104.18625-54.73589-151.93474-11.09513-20.18329-23.43018-39.53839-40.44725-55.40323-19.37581-18.06367-41.56054-28.29832-68.77581-24.20601-1.35156,.20324-2.89576,.15502-4.16425-.29769-5.61357-2.0034-11.33817-3.82752-16.6843-6.41562-6.86198-3.32175-13.39991-7.31316-21.01467-11.53586,20.6656-12.85754,31.89419-30.62603,40.11432-50.73677,1.24371-3.04286,2.81664-5.95502,4.30468-8.89349,8.00445-15.80594,16.484-31.39045,23.93802-47.45141,10.15857-21.88809,9.17245-45.09126,6.07708-68.26343-2.01036-15.04962-3.36578-29.87638,1.29987-44.81336,1.67819-5.3723,2.25075-11.60022,1.42734-17.15574-3.51106-23.68803-7.65447-47.28425-11.72422-70.88681-2.69243-15.61442-5.65177-31.18274-8.56079-47.1514,2.72342-.12178,4.9747-.1385,7.20992-.33684,10.28695-.91293,19.1696-4.93475,26.18058-12.55553,3.18935-3.46672,5.55598-7.71823,2.43642-12.3269-3.24051-4.78738-7.57914-2.62111-11.62631-.90717Zm-166.95202,157.17965c-3.50651-11.45975-8.01438-15.86795-14.77435-14.64907-5.68746,1.02543-8.35458,7.07195-8.2024,18.91012-10.7677,4.22217-21.36946,9.01266-29.6744,18.15881,2.40103,.91672,4.76319,1.47056,6.7391,.83076,19.07798-6.17759,37.97164-13.59475,58.51918-6.44617,.72072,.25077,1.78171,.24614,2.41581-.11318,1.86637-1.05757,4.64253-2.0429,5.11627-3.63573,.58772-1.97634-.01675-5.43962-1.45705-6.64372-2.71872-2.27267-6.29109-3.71935-9.72068-4.88494-2.87499-.97729-6.05176-1.06598-8.96147-1.52689Zm-59.04478-21.71366c1.4206,3.10115,1.87175,5.88672,3.10451,6.29168,1.34474,.44172,3.61231-1.05333,5.13006-2.17472,4.61847-3.41226,8.57087-8.36823,13.69631-10.3097,8.82786-3.34388,18.24737-5.48282,27.60247-6.97014,8.47621-1.3476,14.37731-5.87042,13.42015-12.26315-.9671-6.45905-7.90411-9.95841-16.19063-7.92674-4.59039,1.12549-9.07067,2.69346-13.62113,3.9899-9.47722,2.70021-18.40205,6.60574-24.56366,14.55848-3.52891,4.55466-5.86776,10.03187-8.57807,14.80439Zm120.33945,91.39572l.28806-1.15877c2.0678,0,4.15667,.19308,6.19992-.03108,14.48569-1.58844,22.6433-13.91572,17.97613-27.05844-3.74342-10.54159-16.08036-18.19656-27.10418-16.54937-1.53223,.22901-2.85976,1.82958-4.2821,2.7952,1.16884,1.23003,2.14404,2.77776,3.54251,3.63126,4.3782,2.67194,9.21755,4.67602,13.30457,7.71152,3.83679,2.84963,5.83206,7.22409,4.01753,12.10865-1.83257,4.93285-6.14915,6.98811-10.98031,6.08033-6.83311-1.284-13.54633-3.32106-20.2043-5.38041-3.97017-1.22798-7.11496-.76602-8.65014,3.24859-1.4863,3.88665,.01402,7.1357,4.00412,8.39317,7.23023,2.27858,14.58527,4.16137,21.88817,6.20935Zm-149.54542-245.70926c11.49963,.08771,20.22548-.47072,27.30107-6.37374,1.85189-1.545,2.37197-4.6872,3.50367-7.09586-2.07603-.96088-4.08059-2.16805-6.25244-2.79865-1.52321-.44225-3.30773-.3166-4.91908-.07221-21.32638,3.23464-42.29671,2.1845-62.89802-4.66567-1.48248-.49297-3.59734,.91691-5.41816,1.44213,.89453,1.49387,1.46588,3.38213,2.7332,4.42108,14.15629,11.60629,31.09136,14.44886,45.94976,15.1429Zm163.09508,130.11003c4.07877,0,7.21575-.3782,10.2308,.06815,10.67755,1.58071,19.21992,6.93443,25.97482,15.31464,4.22958,5.24745,9.25718,6.31305,13.33633,3.03793,4.33962-3.48427,4.75788-9.2773-.32982-13.96696-5.35984-4.94058-11.36007-9.58605-17.85344-12.79644-8.37314-4.13984-17.66413-3.92183-26.57254-.9547-5.88602,1.96057-6.94649,4.90624-4.78615,9.29739Zm18.63797,46.69463c-3.97949,2.3982-8.03173,4.4649-11.55863,7.20764-.98377,.76496-.67214,3.56933-.38378,5.34546,.07533,.46401,2.41005,1.05022,3.50924,.77868,6.82962-1.68684,13.52124-4.37909,20.43022-5.10607,3.34145-.35151,7.45478,2.31095,10.49627,4.57831,3.44687,2.56967,7.8065,2.44573,9.80867-1.49861,2.22839-4.38993,.41515-8.20108-3.38116-9.95455-7.29927-3.37132-14.6456-6.25635-18.04866-14.4403-.40121-.96486-1.89001-1.54841-2.96343-2.15039-5.23821-2.93764-10.1729-.11583-9.94615,5.97405,.11216,3.01375,1.28085,5.98815,2.03741,9.26577Zm-20.43234-191.41654c-.76263,.78076-1.52533,1.56157-2.28796,2.34233,1.94344,1.09384,4.44383,1.74369,5.73172,3.36014,4.95977,6.22489,9.88612,12.53711,14.09865,19.27145,2.11062,3.37417,2.18595,7.98151,4.10165,11.53499,1.0112,1.87567,4.34341,4.06048,6.00546,3.6407,2.22635-.56229,4.18221-3.30211,5.5944-5.52615,.72595-1.14342,.20386-3.22665-.06608-4.83275-2.3232-13.8243-18.75597-28.54166-33.17784-29.79072Zm-187.80243-31.40633c.10227,1.40082-.02069,2.09467,.23168,2.60151,.35452,.71189,.89688,1.39661,1.51544,1.9008,13.83359,11.2752,29.26819,16.6746,47.06479,11.99695,2.41456-.63457,4.24424-3.4953,6.34471-5.32538-2.46905-1.3022-4.84753-3.47783-7.4239-3.74512-8.18387-.84903-16.53223-.37414-24.64418-1.57711-7.61927-1.12985-15.0188-3.74186-23.08854-5.85166Zm144.21615,35.73691c-.2601,.61316-.52011,1.22631-.78021,1.83947,7.96352,5.753,16.56365,10.81949,23.71225,17.45139,7.20272,6.68208,12.81492,15.05542,19.4907,22.35202,1.22787,1.34207,4.20692,1.08107,6.37772,1.55997,.09117-2.20562,1.17073-5.31404,.11421-6.47126-7.20325-7.88944-14.12662-16.33795-22.5763-22.69702-7.85295-5.90995-17.48792-9.4507-26.33837-14.03458Zm51.71865-41.03772c9.15593,11.74994,17.02738,22.03773,25.20121,32.07927,.91026,1.11822,4.05118,1.6741,5.22676,.95921,1.11306-.67687,1.81119-3.64665,1.30184-5.13067-4.48619-13.07075-13.85515-21.71806-26.04356-27.56501-1.08077-.51844-2.56821-.18868-5.68625-.34279Zm-176.44077-10.27737c8.18929,6.87561,16.00746,9.13061,24.69822,8.03355,1.69755-.21427,3.16483-2.25379,4.73829-3.45149-1.61067-.90698-3.12952-2.3175-4.84841-2.63111-6.42-1.17132-12.89776-2.04441-19.37365-2.87472-1.19514-.15324-2.48231,.41148-5.21445,.92377Z" style="fill:#fff;"/><path d="M829.27429,538.82123c4.04724-1.7139,8.38588-3.88017,11.62638,.90721,3.11955,4.60867,.75293,8.86017-2.43642,12.3269-7.01098,7.62078-15.89363,11.6426-26.18058,12.55553-2.23521,.19835-4.48649,.21506-7.20992,.33684,2.90902,15.96866,5.86836,31.53699,8.56079,47.1514,4.06975,23.60256,8.21316,47.19878,11.72422,70.88681,.82341,5.55552,.25085,11.78344-1.42734,17.15574-4.66565,14.93698-3.31023,29.76373-1.29987,44.81336,3.09538,23.17217,4.0815,46.37534-6.07708,68.26343-7.45402,16.06095-15.93357,31.64546-23.93802,47.45141-1.48805,2.93847-3.06097,5.85064-4.30468,8.89349-8.22013,20.11074-19.44872,37.87922-40.11432,50.73677,7.61476,4.2227,14.15269,8.21412,21.01467,11.53586,5.34613,2.58809,11.07072,4.41222,16.6843,6.41562,1.2685,.45271,2.8127,.50093,4.16425,.29769,27.21528-4.09231,49.4,6.14234,68.77581,24.20601,17.01707,15.86484,29.35212,35.21995,40.44725,55.40323,26.24833,47.74849,46.03399,97.94097,54.73589,151.93474,3.44717,21.38906,4.7497,43.12447,7.00249,64.70502,.33815,3.23912,.5327,6.4934,.94338,11.60341,6.02835-9.17117,11.04632-16.84122,16.10052-24.4874,12.99461-19.65863,26.10965-39.23934,38.88274-59.04079,1.67296-2.59363,2.57375-6.41024,2.21225-9.46878-1.71722-14.52444,4.31628-25.92052,15.25786-33.99545,9.19905-6.78866,19.7818-11.90185,30.21615-16.75882,10.45186-4.86516,19.88646-10.66591,27.9842-19.01155,3.40754-3.51194,8.26697-6.45936,12.98014-7.68143,9.47059-2.45574,16.78623,3.99058,14.54139,13.34285-2.22256,9.25941-6.63895,18.01963-10.41245,26.86233-1.16346,2.72636-3.37525,5.00509-5.52036,8.08153,36.99038,5.40421,70.95646-.23356,102.61466-19.18098,6.83266-4.08936,14.47675-6.92147,21.96752-9.7482,2.10873-.79589,5.0007,.48493,7.53337,.81325-.37931,2.33088-.28389,4.88229-1.24159,6.94437-1.73215,3.72973-3.90817,7.29474-6.24532,10.68987-2.20725,3.20644-4.85981,6.10603-6.81037,10.10859,5.22669-2.60561,10.41852-5.28429,15.68772-7.80097,10.23474-4.88873,20.38853-9.9876,30.8582-14.31635,2.71024-1.12057,7.77224-.9544,9.45377,.81173,2.95123,3.09994,.26904,6.85924-2.4224,9.66702-9.25809,9.65906-18.53558,19.29969-28.29287,29.45422,7.3843-2.74031,14.45196-5.65255,21.7238-7.90559,2.57109-.79657,7.05774-1.08281,8.16178,.34226,1.81294,2.33968,2.80451,6.66146,1.91282,9.42861-1.25667,3.89984-3.95842,7.81204-7.06805,10.55599-16.40889,14.47987-36.08322,22.44056-57.28994,26.38771-23.33037,4.34247-46.83474,7.74298-70.24234,11.67891-43.14703,7.25517-71.00307,32.98996-89.10811,71.87688-18.34854,39.4099-32.84969,80.19507-47.23042,121.11791-15.41732,43.8726-32.56595,87.10055-57.31631,126.75424-7.63803,12.23692-16.6577,23.61495-25.1355,35.32032-1.89941,2.62259-4.35614,5.00608-7.72541,2.19792-2.99875-2.49933-3.14843-5.72154-.79802-8.81291,36.73672-48.31878,57.12313-104.35916,76.61975-160.93428,14.39634-41.7752,28.99881-83.53024,48.91732-123.13268,9.99889-19.88014,21.39004-38.78928,38.90911-53.15915,18.64736-15.29539,40.77131-22.37992,64.01892-26.48542,27.03226-4.77381,54.20191-8.80624,81.14876-14.00615,8.61649-1.66281,16.71363-6.01908,24.75976-10.03293-20.1026,4.21125-40.1166,6.70376-60.46117,4.88881-.10815-.56415-.21629-1.12822-.32451-1.69237,5.81963-1.35602,11.73521-2.40752,17.41828-4.19731,2.81861-.88769,5.25344-3.0684,7.78338-4.78033,3.06264-2.07239,6.01243-4.31101,9.06332-6.40144,9.33425-6.39545,18.69344-12.75444,27.52312-20.40267-25.65001,15.59937-53.93386,18.22491-83.14813,17.15794,6.48435-1.74248,13.01704-3.32394,19.44349-5.25912,16.29393-4.9064,29.84564-13.53472,37.68715-30.09546-6.06897,3.14186-12.38045,5.89384-18.16545,9.49266-26.1561,16.27215-54.80478,22.53085-85.24791,21.68197-16.18267-.4512-31.01349-4.63645-42.50869-12.80493,5.62115,.74836,11.2423,1.49664,16.68452,2.22119,3.55532-5.57591,7.51147-10.85277,10.44133-16.64883,2.67371-5.28922,4.73492-11.01833,6.14968-16.77876,1.47584-6.0096-2.4875-9.23666-8.34268-7.05512-2.81171,1.04764-5.80675,2.70961-7.69146,4.95582-10.21086,12.16968-23.91877,18.75669-38.07274,24.76258-12.52997,5.31681-24.26518,11.65571-31.14354,24.2806-3.21906,5.90855-3.81109,11.91535-2.526,18.55982,.58521,3.0258-.15468,7.07543-1.8359,9.65473-18.73467,28.74096-38.1411,57.04792-56.63689,85.93928-25.70957,40.15947-50.92389,80.63915-75.9783,121.21161-2.87082,4.64888-4.32128,10.6879-4.78918,16.22113-2.178,25.75632-4.68543,51.53902-5.32097,77.35553-.58953,23.94334,1.03796,47.94142,1.70365,71.91493,.03441,1.23913,.27412,2.47279,.2995,3.71146,.26161,12.76347-1.97239,14.33978-14.41089,13.48499-17.12453-1.17696-34.30454-1.83845-51.46985-2.078-69.92563-.97547-139.85959-2.62926-209.78117-2.26008-66.3985,.35068-132.78397,2.97569-199.17838,4.45558-15.48818,.34537-31.01269,.62176-46.47499-.07717-8.09577-.36569-15.14294-4.21512-17.86393-13.47013-21.34991,5.70077-40.89383-1.93381-60.55604-7.89459-12.54905-3.8044-21.87188-12.1176-28.75944-23.3049-9.74511-15.82876-14.00839-33.38574-16.71463-51.46837-3.63315-24.27628-3.59808-48.56378-1.44545-73.01867,1.68289-19.11844,1.19023-38.42639,2.81148-57.55287,1.32168-15.59194,4.3417-31.03985,6.67055-46.97504-7.47429-1.90152-9.49549-7.68325-9.44102-15.29372,.21343-29.81581,6.69992-73.36768,16.54519-108.24703-7.57691-1.59481-15.2573-2.72265-22.6393-4.87448-12.45153-3.62967-24.7259-7.87193-37.05195-11.92611-9.40684-3.09387-18.97394-5.81455-28.12734-9.54254-23.45757-9.55384-43.58504-23.68765-58.00258-44.94086-3.22356-4.75205-5.90934-9.97032-8.13604-15.27098-2.56808-6.11323-3.16389-12.43303,1.31314-17.11716-3.63729-6.33451-7.84324-11.8876-10.03341-18.14645-1.28792-3.68046-.62142-9.23371,1.40295-12.59791,2.81527-4.67875,8.77002-4.6927,13.51849-2.84417,4.09723,1.59511,8.08613,4.21967,11.25149,7.28852,5.17952,5.0217,9.5989,10.82101,14.44717,16.19467,2.01956,2.23848,4.31698,4.22604,6.86144,6.68913,.20094-1.1264,.37305-1.65318,.3778-2.1814,.14369-16.0182,8.78487-21.16073,24.04956-16.21052,15.63893,5.07143,31.69122,9.25637,47.85845,12.2075,18.87264,3.44478,38.07899,5.03602,57.11216,7.6392,6.3143,.86358,12.54077,2.37,17.50947,3.33145,6.99224-12.69964,12.66752-25.61775,20.61445-36.94059,21.8831-31.17911,52.20125-51.97695,86.66244-67.21685,36.9382-16.3353,75.94973-25.22848,115.51548-31.98887,3.63989-.62191,8.29008,.53458,11.49167,2.47893,4.50741,2.73721,7.82097,2.25129,11.79739-.50532,14.24689-9.87685,23.9603-23.63216,33.23695-37.5309-20.40536-22.16994-43.83561-41.2601-55.27208-69.93435-25.87164-2.15585-31.04778-8.7957-31.50708-40.80572-13.81453-7.42968-23.65037-18.28427-27.3066-34.07118-3.75774-16.22538,2.6055-33.78403,16.34269-43.15373,4.02091-2.74244,4.91927-4.92065,3.9685-9.84258-8.09452-41.90453-3.15597-81.85454,19.02788-119.18383-5.17822-3.25659-11.27102-5.87766-15.71618-10.1958-5.34651-5.19389-10.18332-11.37068-13.59172-17.97365-3.39397-6.57496-1.70623-13.65445,2.88833-19.8187,1.05436-1.41454,2.08455-3.90496,1.5475-5.28607-5.90345-15.18024,.37934-30.01984,15.79609-37.9086,0-2.77537-.22376-5.62686,.03736-8.43312,1.38126-14.84362,12.58734-24.35288,27.92247-23.82948,10.18351,.34757,10.11037,.316,14.06356-8.84911,3.33611-7.73457,9.25498-12.65438,17.75048-12.00916,12.10451,.91922,24.57495,1.44141,36.08319,4.85307,22.58798,6.69633,45.17572,6.94895,68.18037,4.43613,20.32336-2.21987,40.64255-4.72598,61.03252-6.01476,19.8766-1.2563,39.09478,2.48386,57.17482,11.31023,24.95202,12.18105,38.15429,32.87405,42.60258,59.53546,1.68524,10.10059,2.12752,20.43708,2.64529,30.69088,.22569,4.47127-1.73268,8.25369-7.20014,8.1366-5.02063-.10753-7.20461-3.09793-7.76883-7.86404-1.28691-10.87082-2.24734-21.81228-4.21874-32.56389-5.37167-29.29707-25.06047-44.44824-52.42906-51.30076-20.03143-5.01544-40.2443-2.7759-60.45254-.80646-21.9804,2.14217-43.97953,4.73746-66.01992,5.34789-11.12101,.308-22.34433-3.3775-33.53426-5.17736-10.97952-1.76609-21.96309-3.51668-32.97049-5.09534-4.08241-.58545-6.21061,1.43577-6.12312,5.69368,.0795,3.86869,.01679,7.74029,.01679,12.34623-2.6861-.24372-4.72465-.82401-6.60416-.49509-2.15408,.37695-4.75091,1.01902-6.12562,2.50137-3.3538,3.61633-6.72921,5.20746-11.45617,2.90409-5.09452-2.48242-9.62709-1.50039-13.4466,2.67709-3.9422,4.31162-2.68182,8.52068-.09534,13.03333,4.31689,7.53182,1.12462,13.36537-7.71154,14.06593-5.93361,.47041-9.80105,3.49837-11.34677,8.91282-1.55379,5.44257,.02645,10.20187,5.09819,13.43655,3.6499,2.32781,6.3086,5.99861,4.05387,9.83644-1.68111,2.86145-5.53627,5.34535-8.86295,6.12854-5.00968,1.17943-6.86661,3.05635-3.3288,7.04303,4.43757,5.00062,9.61402,9.84986,15.42001,13.03409,15.96695,8.75662,33.59478,10.78394,51.22052,7.81125,24.4005-4.11525,48.49675-10.00178,72.83185-14.54839,22.40162-4.18529,44.86144-4.92095,66.70134,3.20269,6.0942,2.26687,11.79819,5.58353,17.22048,9.4919-.579,.0332-1.26713,.28969-1.72131,.06754-21.88635-10.70419-44.58528-9.34427-67.27087-3.85815-23.45784,5.67283-46.69219,12.26515-70.07159,18.27119-5.53597,1.42216-11.26087,2.10839-15.92929,2.95693,2.68606,10.35207,5.94195,20.15763,7.68623,30.22512,3.10053,17.89531-1.92195,34.46632-10.49199,50.03855-6.01308,10.926-11.03583,22.06669-11.64021,34.79869-.2449,5.15921-3.6776,7.6292-8.51998,8.18357-5.21524,.59697-8.95688-1.62142-10.45072-6.67942-2.9404-9.95576-.67635-19.40059,4.20976-28.08053,4.85902-8.63196,10.46289-16.84881,15.83804-25.18451,11.53783-17.89265,14.2747-37.11074,8.81728-57.58641-.46744-1.75389-1.16338-3.44686-1.49191-4.4057-13.7752-1.036-26.90285-2.0233-40.54039-3.04896-6.79404,25.4551-12.30004,51.73623-9.50625,78.86816,1.26061,12.24237,4.20722,24.33443,6.87328,36.38751,.49541,2.23969,2.93979,4.63122,5.106,5.81607,8.95097,4.89548,14.96242,11.79717,17.17743,20.68656-6.07329-3.40286-12.00751-8.16568-18.76244-10.1944-11.80978-3.54719-22.57922,1.54265-28.77346,11.71408-6.38499,10.48466-5.68432,23.1727,2.66715,32.18293,3.54907,3.82896,8.24158,6.8797,12.91826,9.31679,7.65311,3.98823,11.36693,9.70606,11.05519,18.36932-.16195,4.49939,.0659,9.09673,.88824,13.50606,.3255,1.74536,2.7426,3.10047,4.20734,4.63327,1.09157-1.76173,2.93998-3.43758,3.15112-5.29922,1.30423-11.49857,2.39523-23.02851,3.16116-34.57438,.14615-2.20262-.84391-5.18316-2.3966-6.66684-5.04003-4.81611-10.54174-9.15676-15.96335-13.56019-1.50343-1.22116-3.34611-2.02432-5.65666-3.38701,6.04839-4.89449,12.21918-4.87425,18.27571-3.98823,9.37075,1.3708,17.08247,6.16099,23.0968,13.38333,6.96486,8.36383,6.21046,15.44601-2.20289,22.4326,8.06557,15.88228,19.19931,29.41662,33.44048,40.02249,13.57354,10.10859,27.90924,19.19243,41.89664,28.74619,2.96919,2.02804,5.01798,2.24151,6.33156-1.94208,5.39361-17.17758,16.96861-29.67868,31.36998-39.64452,25.50829-17.65197,53.80715-25.34196,84.64466-20.81998,25.27646,3.70661,50.24243,17.21108,64.99549,51.20168,7.74109-9.31512,14.78459-30.18051,14.39467-46.01299-.35096-14.24767-1.44121-28.51172-2.9748-42.68533-1.41469-13.07548-1.83097-26.00784,1.5508-38.7798,4.71173-17.79464,2.34609-35.74983,1.84348-53.70086-.68343-24.40693-.99771-48.82433-1.44561-73.23771-.02531-1.37705,.17355-2.75824,.35354-5.38492,1.74276,2.09115,2.75737,3.30867,3.97502,4.76972,10.12576-4.29942,17.47565-11.38539,22.06816-21.3764l2.01938-1.99309ZM160.23375,1091.17204c-.59342,.69006-1.18684,1.38013-1.78027,2.07011,1.51802,3.32531,2.72399,6.84059,4.6112,9.94105,6.26565,10.29378,15.1778,17.93829,25.33173,24.18334,25.84407,15.89509,55.41791,20.8362,84.12098,28.16233,8.07432,2.06094,14.2556,5.23024,18.75678,12.48556,3.5585,5.73587,2.36043,11.49174,1.95382,17.28605-.9674,13.78594-.59126,27.96326-3.83415,41.23008-6.59795,26.99219-14.46142,53.74126-23.1935,80.13026-14.38774,43.48084-25.86713,87.18379-20.39846,133.64592,2.40096,20.3988,5.39044,40.5808,15.09434,59.07141,5.96641,11.36894,14.1489,20.42564,26.85528,24.2452,9.67279,2.90747,19.34258,6.05994,29.23382,7.95206,16.20859,3.10062,30.80076-.41345,40.13895-15.14393,5.92058-9.33946,11.50153-19.25216,15.09606-29.6479,16.84754-48.72358,19.51257-99.11854,15.8205-150.0784-3.30788-45.65662-12.70572-90.37522-20.93366-135.285-5.46261-29.81581-10.02602-59.79604-15.11774-89.68122-.39867-2.33983-1.44417-4.74121-2.77174-6.72362-10.67115-15.93534-25.30909-27.06367-42.70937-34.75958-22.68492-10.03331-46.99256-12.47275-71.23925-15.03878-25.91725-2.74281-51.79474-5.48942-76.18599-15.66456-3.57246-1.49042-7.68029-3.30241-10.60799,1.096-2.77188,4.16425-2.11531,8.82094,1.22464,11.97387,3.97229,3.74982,8.51399,7.77944,13.54044,9.35894,13.72905,4.31427,27.87493,7.2864,41.76993,11.10271,2.16058,.59341,3.87055,2.82832,5.7889,4.30419-2.14889,.8773-4.495,2.8193-6.41548,2.46347-15.26533-2.82908-30.64735-5.38488-45.57144-9.54118-6.91344-1.92532-13.48706-6.50189-19.14324-11.17427-8.24085-6.80754-15.48405-14.81811-23.21455-22.25135-3.54869-3.41218-6.88946-7.22591-10.97445-9.84235-4.05447-2.59696-8.33864-.28276-8.34264,3.61724-.00461,4.49833,10.62422,18.9503,14.83818,20.60757,4.37744,1.72156,8.65956,3.70927,12.89684,5.75944,13.1804,6.37711,26.2085,13.08132,39.50994,19.19212,10.76779,4.94672,21.84526,9.21893,32.78537,13.79041l-.49581,1.68699c-6.48005-1.36208-12.96009-2.72424-21.01427-4.41722,5.93062,3.82116,10.64146,6.62386,15.10394,9.77815,10.48591,7.41224,22.04971,11.86342,34.68355,14.12797,4.96925,.89072,9.86831,3.01761,14.34465,5.42688,1.97406,1.0625,2.81497,4.23142,4.17034,6.44405-2.55944,1.04377-3.54674,.96562-4.50034,.74305-22.39455-5.22713-44.37986-11.29192-63.30985-25.40367-4.56419-3.40248-10.57202-4.86743-15.91598-7.22341Zm346.51623-152.88573c11.22392,12.88771,21.92967,26.27483,33.76954,38.56898,34.71431,36.04654,74.56949,65.92602,115.26081,94.76333,3.1576,2.23764,5.03109,1.29848,7.4954-.56832,42.74885-32.38321,77.76547-71.58282,104.30762-118.26116,.85789-1.50869,1.50927-3.13481,1.94094-4.04205-7.0926-3.88855-13.85894-7.01289-19.96345-11.1212-5.33521-3.59071-9.33729-10.24981-15.00883-11.95257-5.82289-1.74832-12.96036,1.51529-19.51443,1.46798-37.25729-.26881-72.90581-8.39916-107.16795-22.84855-10.19976-4.30161-20.33848-8.74802-30.40073-13.08306-30.38818,37.17567-44.13508,46.18605-70.71891,47.07662Zm202.71805-145.67058c-21.55426-.15828-38.0231,1.77636-53.07604,10.35708-11.78758,6.71952-21.13585,15.84354-27.15833,28.0966-3.52955,7.18118-2.88496,14.7038,1.5381,17.53409,16.06127,10.27741,33.50849,15.97939,52.73895,14.57659,2.78253-.20301,5.92149-2.31057,7.968-4.43193,4.56955-4.73682,8.14223-10.46745,12.87305-15.00945,6.96831-6.69011,15.34987-6.93057,23.09316-1.15233,4.79024,3.57456,9.08394,7.80893,13.79089,11.50448,1.70994,1.34268,3.93137,2.7106,5.98924,2.82643,17.90111,1.0083,28.63762-13.48575,22.33713-30.09356-1.60392-4.22793-3.63701-8.3348-5.86374-12.27649-6.17825-10.93692-15.45566-17.61407-28.0352-19.15551-10.23655-1.25429-20.51312-2.18193-26.19521-2.77602Zm180.05774,572.8518c17.59107-29.37773,35.00093-58.45284,52.4108-87.52779-.22736-.53064-.45479-1.06128-.68214-1.59178-14.05311,4.47438-28.13357,8.86749-42.11096,13.56686-1.21204,.40753-2.34063,2.77526-2.50327,4.33717-2.45582,23.57947-4.74348,47.17638-7.11443,71.21554ZM158.83667,1082.72748c-13.90604-7.31991-28.04939-14.80045-42.24214-22.18601-1.60916-.83728-3.46562-1.28741-5.2606-1.66197-4.98526-1.04036-6.71677,1.62354-5.55331,5.92204,1.06405,3.9313,2.64174,7.85646,4.71061,11.36037,10.82201,18.32846,26.3828,31.54714,45.23889,41.06573,2.88738,1.4576,5.88024,2.70612,9.20091,4.22338-4.72849-7.58212-9.45382-14.12312-13.07989-21.22554-4.98255-9.75927-2.86172-14.10319,6.98553-17.49801Zm86.61658,256.26828c.35731,.05685,.7146,.11356,1.07189,.17041,6.19903-18.71576,12.39807-37.43167,18.67931-56.39561-4.61974-1.22487-8.71611-2.31117-13.67998-3.62747-2.06797,20.38698-4.0696,40.11975-6.07122,59.85267Z"/><path d="M662.32234,696.00092c2.9097,.4609,6.08647,.54959,8.96147,1.52689,3.42959,1.16559,7.00196,2.61228,9.72068,4.88494,1.4403,1.2041,2.04476,4.66738,1.45705,6.64372-.47373,1.59284-3.2499,2.57816-5.11627,3.63573-.6341,.35932-1.69509,.36394-2.41581,.11318-20.54753-7.14859-39.4412,.26858-58.51918,6.44617-1.97591,.6398-4.33807,.08596-6.7391-.83076,8.30494-9.14615,18.9067-13.93664,29.6744-18.15881-.15218-11.83818,2.51494-17.8847,8.2024-18.91012,6.75998-1.21889,11.26784,3.18931,14.77435,14.64907Z"/><path d="M603.27756,674.28726c2.71031-4.77252,5.04916-10.24974,8.57807-14.80439,6.16161-7.95274,15.08644-11.85827,24.56366-14.55848,4.55046-1.29644,9.03073-2.86441,13.62113-3.9899,8.28652-2.03168,15.22353,1.46768,16.19063,7.92674,.95717,6.39272-4.94393,10.91554-13.42015,12.26315-9.3551,1.48731-18.77461,3.62626-27.60247,6.97014-5.12544,1.94147-9.07783,6.89744-13.69631,10.3097-1.51775,1.1214-3.78533,2.61645-5.13006,2.17472-1.23276-.40496-1.68391-3.19053-3.10451-6.29168Z"/><path d="M723.617,765.68298c-7.3029-2.04798-14.65795-3.93077-21.88817-6.20935-3.9901-1.25747-5.49042-4.50652-4.00412-8.39317,1.53518-4.01461,4.67997-4.47657,8.65014-3.24859,6.65797,2.05935,13.37119,4.09641,20.2043,5.38041,4.83116,.90778,9.14775-1.14748,10.98031-6.08033,1.81453-4.88456-.18075-9.25903-4.01753-12.10865-4.08703-3.0355-8.92638-5.03959-13.30457-7.71152-1.39847-.8535-2.37367-2.40123-3.54251-3.63119,1.42234-.96569,2.74987-2.56626,4.2821-2.79527,11.02381-1.64719,23.36076,6.00778,27.10418,16.54937,4.66717,13.14272-3.49045,25.47-17.97613,27.05844-2.04325,.22416-4.13212,.03108-6.19992,.03108l-.28806,1.15877Z"/><path d="M574.07159,519.97373c-14.8584-.69404-31.79347-3.53662-45.94976-15.1429-1.26732-1.03896-1.83867-2.92721-2.7332-4.42108,1.82082-.52522,3.93568-1.9351,5.41816-1.44213,20.6013,6.85018,41.57164,7.90032,62.89802,4.66567,1.61135-.2444,3.39587-.37005,4.91908,.07221,2.17186,.63059,4.17642,1.83777,6.25244,2.79865-1.1317,2.40866-1.65178,5.55086-3.50367,7.09586-7.07559,5.90302-15.80144,6.46144-27.30107,6.37374Z"/><path d="M737.16667,650.08375c-2.16034-4.39114-1.09987-7.33681,4.78615-9.29739,8.90842-2.96712,18.1994-3.18514,26.57254,.9547,6.49336,3.21039,12.49359,7.85586,17.85344,12.79644,5.0877,4.68967,4.66944,10.48269,.32982,13.96696-4.07915,3.27512-9.10675,2.20952-13.33633-3.03793-6.7549-8.38021-15.29727-13.73393-25.97482-15.31464-3.01504-.44635-6.15203-.06815-10.2308-.06815Z"/><path d="M755.80463,696.77839c-.75657-3.27763-1.92525-6.25203-2.03741-9.26577-.22675-6.08988,4.70794-8.91168,9.94615-5.97405,1.07342,.60198,2.56223,1.18553,2.96343,2.15039,3.40307,8.18395,10.74939,11.06897,18.04866,14.4403,3.79632,1.75347,5.60956,5.56462,3.38116,9.95455-2.00217,3.94434-6.3618,4.06828-9.80867,1.49861-3.04149-2.26736-7.15482-4.92982-10.49627-4.57831-6.90897,.72698-13.60059,3.41923-20.43022,5.10607-1.09919,.27154-3.43391-.31467-3.50924-.77868-.28836-1.77614-.59999-4.58051,.38378-5.34546,3.5269-2.74274,7.57914-4.80944,11.55863-7.20764Z"/><path d="M829.27429,538.82127c-.67313,.66433-1.34625,1.32869-2.01938,1.99305-7.56868,5.44784-15.33714,10.44297-25.12982,10.57085-1.97845,.02585-3.96001-.18603-7.49835-.3688,2.28175-1.7872,3.19094-2.79197,4.32143-3.33922,10.36622-5.01806,17.36606-12.97284,21.08273-23.85321,.33239-.97297,.48836-2.10294,1.09404-2.86907,2.56124-3.24006,4.27907-7.99538,9.61943-7.13157,3.35388,.54251,6.10065,8.27696,4.40472,12.90757-1.53306,4.18593-3.8843,8.07206-5.8748,12.09038Z"/><path d="M735.3723,505.36184c14.42188,1.24906,30.85464,15.96642,33.17784,29.79072,.26995,1.6061,.79203,3.68933,.06608,4.83275-1.41218,2.22404-3.36805,4.96386-5.5944,5.52615-1.66205,.41978-4.99425-1.76503-6.00546-3.6407-1.9157-3.55348-1.99103-8.16083-4.10165-11.53499-4.21253-6.73434-9.13888-13.04656-14.09865-19.27145-1.2879-1.61645-3.78828-2.2663-5.73172-3.36014,.76263-.78076,1.52533-1.56157,2.28796-2.34233Z"/><path d="M547.56987,473.95551c8.06974,2.1098,15.46927,4.72181,23.08854,5.85166,8.11195,1.20297,16.46031,.72808,24.64418,1.57711,2.57636,.26729,4.95485,2.44293,7.4239,3.74512-2.10047,1.83007-3.93015,4.6908-6.34471,5.32538-17.7966,4.67765-33.23119-.72175-47.06479-11.99695-.61856-.50419-1.16092-1.1889-1.51544-1.9008-.25237-.50684-.1294-1.20069-.23168-2.60151Z"/><path d="M691.78602,509.69242c8.85044,4.58388,18.48541,8.12463,26.33837,14.03458,8.44969,6.35907,15.37306,14.80758,22.5763,22.69702,1.05652,1.15722-.02304,4.26564-.11421,6.47126-2.1708-.4789-5.14984-.2179-6.37772-1.55997-6.67578-7.2966-12.28799-15.66995-19.4907-22.35202-7.1486-6.63189-15.74873-11.69839-23.71225-17.45139,.2601-.61316,.52011-1.22631,.78021-1.83947Z"/><path d="M743.50467,468.65469c3.11804,.15411,4.60548-.17564,5.68625,.34279,12.18841,5.84696,21.55737,14.49427,26.04356,27.56501,.50935,1.48402-.18878,4.4538-1.30184,5.13067-1.17558,.71489-4.31651,.159-5.22676-.95921-8.17383-10.04154-16.04527-20.32933-25.20121-32.07927Z"/><path d="M567.0639,458.37733c2.73214-.5123,4.01931-1.07701,5.21445-.92377,6.4759,.8303,12.95365,1.7034,19.37365,2.87472,1.71889,.31361,3.23774,1.72413,4.84841,2.63111-1.57346,1.1977-3.04074,3.23722-4.73829,3.45149-8.69076,1.09707-16.50893-1.15794-24.69822-8.03355Z"/><path d="M160.23375,1091.17204c5.34397,2.35598,11.35179,3.82093,15.91598,7.22341,18.92999,14.11175,40.9153,20.17654,63.30985,25.40367,.95361,.22257,1.9409,.30072,4.50034-.74305-1.35536-2.21263-2.19628-5.38155-4.17034-6.44405-4.47634-2.40927-9.37541-4.53616-14.34465-5.42688-12.63384-2.26455-24.19764-6.71573-34.68355-14.12797-4.46249-3.15429-9.17332-5.95699-15.10394-9.77815,8.05418,1.69298,14.53423,3.05514,21.01427,4.41722l.49581-1.68699c-10.94011-4.57148-22.01758-8.84369-32.78537-13.79041-13.30144-6.1108-26.32954-12.81501-39.50994-19.19212-4.23728-2.05017-8.5194-4.03789-12.89684-5.75944-4.21396-1.65727-14.84279-16.10924-14.83818-20.60757,.004-3.89999,4.28817-6.2142,8.34264-3.61724,4.08499,2.61645,7.42576,6.43017,10.97445,9.84235,7.7305,7.43324,14.9737,15.44382,23.21455,22.25135,5.65617,4.67238,12.22979,9.24895,19.14324,11.17427,14.92409,4.15629,30.30611,6.7121,45.57144,9.54118,1.92048,.35583,4.26658-1.58617,6.41548-2.46347-1.91835-1.47587-3.62832-3.71078-5.7889-4.30419-13.895-3.8163-28.04088-6.78843-41.76993-11.10271-5.02644-1.57949-9.56815-5.60912-13.54044-9.35894-3.33996-3.15293-3.99652-7.80962-1.22464-11.97387,2.9277-4.39842,7.03552-2.58643,10.60799-1.096,24.39125,10.17514,50.26875,12.92175,76.18599,15.66456,24.24669,2.56603,48.55433,5.00547,71.23925,15.03878,17.40028,7.69591,32.03822,18.82424,42.70937,34.75958,1.32757,1.9824,2.37307,4.38379,2.77174,6.72362,5.09171,29.88517,9.65513,59.86541,15.11774,89.68122,8.22794,44.90978,17.62578,89.62838,20.93366,135.285,3.69207,50.95986,1.02704,101.35482-15.8205,150.0784-3.59454,10.39574-9.17548,20.30844-15.09606,29.6479-9.3382,14.73048-23.93036,18.24455-40.13895,15.14393-9.89124-1.89212-19.56103-5.04459-29.23382-7.95206-12.70638-3.81956-20.88887-12.87626-26.85528-24.2452-9.7039-18.49061-12.69338-38.67261-15.09434-59.07141-5.46867-46.46214,6.01073-90.16509,20.39846-133.64592,8.73208-26.389,16.59555-53.13807,23.1935-80.13026,3.24289-13.26682,2.86675-27.44414,3.83415-41.23008,.40661-5.79431,1.60468-11.55019-1.95382-17.28605-4.50118-7.25532-10.68246-10.42462-18.75678-12.48556-28.70308-7.32612-58.27691-12.26724-84.12098-28.16233-10.15393-6.24505-19.06608-13.88956-25.33173-24.18334-1.88721-3.10047-3.09318-6.61575-4.6112-9.94105,.59344-.68999,1.18686-1.38005,1.78027-2.07011Zm104.31352,12.02671c1.06367,.1507,1.50945,.3531,1.85602,.24311,19.00808-6.03636,37.35056-5.57955,54.90725,5.01897,2.21521,1.33729,5.42127,1.0324,8.95722,1.61922-6.54285-16.82409-47.25073-20.3631-65.72049-6.88129Z" style="fill:#fff;"/><path d="M506.74998,938.28632c26.58383-.89057,40.33073-9.90095,70.71891-47.07662,10.06225,4.33505,20.20096,8.78145,30.40073,13.08306,34.26214,14.44939,69.91066,22.57974,107.16795,22.84855,6.55407,.0473,13.69153-3.2163,19.51443-1.46798,5.67155,1.70276,9.67362,8.36186,15.00883,11.95257,6.10451,4.10831,12.87085,7.23266,19.96345,11.1212-.43167,.90725-1.08305,2.53336-1.94094,4.04205-26.54215,46.67834-61.55877,85.87795-104.30762,118.26116-2.46431,1.8668-4.3378,2.80596-7.4954,.56832-40.69132-28.83731-80.54649-58.71679-115.26081-94.76333-11.83987-12.29415-22.54561-25.68127-33.76954-38.56898Z" style="fill:#fff;"/><path d="M709.46803,792.61573c5.68208,.59409,15.95865,1.52173,26.19521,2.77602,12.57953,1.54144,21.85695,8.21859,28.0352,19.15551,2.22673,3.94169,4.25982,8.04856,5.86374,12.27649,6.30049,16.60782-4.43602,31.10186-22.33713,30.09356-2.05788-.11583-4.2793-1.48375-5.98924-2.82643-4.70695-3.69555-9.00065-7.92992-13.79089-11.50448-7.74329-5.77824-16.12485-5.53778-23.09316,1.15233-4.73082,4.542-8.3035,10.27263-12.87305,15.00945-2.04651,2.12136-5.18546,4.22892-7.968,4.43193-19.23046,1.40279-36.67769-4.29919-52.73895-14.57659-4.42306-2.83029-5.06765-10.35291-1.5381-17.53409,6.02247-12.25306,15.37075-21.37708,27.15833-28.0966,15.05294-8.58071,31.52178-10.51536,53.07604-10.35708Zm11.58402,4.66617c-14.13025-1.52529-34.12304,11.48303-38.10957,24.6306-.29912,.98624-.58279,1.99666-.69821,3.01572-.68502,6.05342,1.33807,11.01106,6.3859,14.46986,4.13068,2.83045,8.74987,3.06287,12.83531,.30618,4.68043-3.158,7.67281-7.28481,5.25223-13.63554-.58143-1.52537,.48131-4.01014,1.40491-5.72017,4.17365-7.72759,8.56882-15.33549,12.92944-23.06665Z" style="fill:#fff;"/><path d="M889.52576,1365.46754c2.37094-24.03916,4.6586-47.63607,7.11443-71.21554,.16264-1.56191,1.29123-3.92963,2.50327-4.33717,13.9774-4.69937,28.05786-9.09248,42.11096-13.56686,.22736,.53049,.45479,1.06113,.68214,1.59178-17.40987,29.07496-34.81973,58.15007-52.4108,87.52779Z" style="fill:#fff;"/><path d="M158.83667,1082.72748c-9.84725,3.39482-11.96808,7.73874-6.98553,17.49801,3.62606,7.10242,8.35139,13.64342,13.07989,21.22554-3.32067-1.51726-6.31353-2.76578-9.20091-4.22338-18.85609-9.51859-34.41689-22.73727-45.23889-41.06573-2.06886-3.50391-3.64656-7.42907-4.71061-11.36037-1.16346-4.29851,.56806-6.96241,5.55331-5.92204,1.79499,.37456,3.65144,.82469,5.2606,1.66197,14.19275,7.38556,28.3361,14.8661,42.24214,22.18601Z" style="fill:#fff;"/><path d="M245.45325,1338.99576c2.00162-19.73292,4.00325-39.46569,6.07122-59.85267,4.96386,1.3163,9.06023,2.4026,13.67998,3.62747-6.28124,18.96395-12.48027,37.67985-18.67931,56.39561-.35729-.05685-.71458-.11356-1.07189-.17041Z" style="fill:#fff;"/><path d="M264.54727,1103.19875c18.46976-13.4818,59.17764-9.9428,65.72049,6.88129-3.53596-.58681-6.74202-.28192-8.95722-1.61922-17.55668-10.59852-35.89916-11.05533-54.90725-5.01897-.34657,.10999-.79235-.09241-1.85602-.24311Z"/><path d="M721.05205,797.2819c-4.36061,7.73116-8.75578,15.33905-12.92944,23.06665-.9236,1.71003-1.98633,4.1948-1.40491,5.72017,2.42058,6.35073-.5718,10.47753-5.25223,13.63554-4.08544,2.75669-8.70463,2.52427-12.83531-.30618-5.04783-3.4588-7.07092-8.41644-6.3859-14.46986,.11542-1.01906,.39909-2.02948,.69821-3.01572,3.98654-13.14757,23.97932-26.15589,38.10957-24.6306Z"/></svg></svg>