<?xml version="1.0" encoding="UTF-8"?><svg id="a" xmlns="http://www.w3.org/2000/svg" viewBox="0 0 1366 1555"><svg y="-200"><path d="M492.2481,889.11693c-1.29324,.81717-2.22037,1.60232-3.28887,2.04882-21.63333,9.03973-43.13506,18.41878-64.96549,26.95633-29.10043,11.38058-59.00425,20.72209-86.64975,35.689-37.50072,20.30247-64.22593,50.17873-81.12253,89.24255-16.5297,38.21553-29.37002,77.70213-40.06984,117.83512-11.85711,44.47364-22.52062,89.2665-33.58555,133.94968-1.52417,6.155-1.05987,13.14077-3.81232,18.57937-4.93985,9.76074-.03438,19.98091,10.83097,21.9653,3.15344,.57605,6.31448,1.11041,8.37892,1.47239,0,25.23142-.56185,49.76637,.14454,74.26477,.85189,29.54465,9.25889,56.72102,27.91928,80.30918,15.81745,19.9942,35.75536,30.79647,61.6319,28.55903,10.79087-.9332,21.50074-2.80352,32.77602-4.31882-.25491,1.59099-.69431,3.53564-.85614,5.50326-.38454,4.67566-1.01885,9.38577-.73207,14.03122,.09712,1.57346,2.5588,4.05836,4.11707,4.20189,1.73305,.15954,4.45418-1.45215,5.32384-3.06126,1.18366-2.19015,1.32605-5.10412,1.36536-7.71577,.06181-4.11381-.15164-8.25406-.59179-12.34611-.37785-3.51253,1.1686-4.91814,4.27709-6.25653,14.53113-6.25653,29.25441-12.19383,43.30113-19.42661,64.03202-32.97,127.85364-66.34882,191.78466-99.51552,2.29577-1.19109,4.89237-2.12353,7.44059-2.44275,6.38357-.7995,11.9414-2.75171,15.72332-8.39093,.864-1.28853,2.19548-2.43414,3.56454-3.18393,6.68059-3.65937,13.39685-7.2633,20.22288-10.63925,1.44103-.71263,3.62911-.99861,5.07621-.44447,12.87023,4.92826,25.69591,9.98086,38.44372,15.21853,9.32075,3.82948,18.34631,8.41858,27.7808,11.92189,22.02424,8.17807,43.67301,17.37786,68.43243,13.26556,12.99438-2.15828,26.52373-.97051,39.79466-1.63178,8.32672-.41501,16.62202-1.45819,25.00182-2.22596,.12959,1.1018,.33009,1.71245,.25042,2.28412-5.10227,36.58496-4.85955,73.17052,.20382,109.72269,1.38167,9.97361,2.90108,19.98166,5.35971,29.7205,.75993,3.01005,4.88168,7.33763,7.3829,7.28369,4.97812-.10726,4.65875-5.42138,4.45757-9.27307-.20782-3.97799-1.04584-7.9232-1.59342-11.77958,5.11624-.57469,9.63785-.82745,14.06182-1.62316,19.45015-3.49968,34.40965-15.08422,48.997-27.38138,11.15432-9.4033,19.32834-20.64806,19.87713-35.61429,.85244-23.24929,.90206-46.52835,1.28629-69.79472,.02568-1.55488,.00332-3.11051,.00332-4.88445,30.09586-3.39091,59.75025-6.70522,89.39784-10.07982,32.53312-3.70288,65.09357-7.19395,97.5782-11.2851,23.80366-2.99811,35.61567-13.9238,41.05293-37.25015,2.33334-10.01017,3.85419-20.21553,5.58958-30.3585,7.63596-44.62758,15.38549-89.23666,22.76477-133.90685,6.60884-40.00676,12.75099-80.09057,19.18508-120.12664,1.33523-8.30845,.05256-10.32735-8.3348-9.85237-42.16727,2.38844-84.47175,3.52567-126.4463,7.84313-51.56263,5.30384-102.85152,13.28241-154.23993,20.24393-3.41188,.46222-5.28804-.03377-6.61775-3.43729-6.20777-15.88961-13.09369-31.52919-18.85764-47.57425-10.16829-28.30567-26.43016-51.31777-54.65916-63.72334-21.82488-9.59108-44.10686-18.14148-66.20496-27.1068-.44178-.17918-1.12098,.22745-2.92623,.65076,3.71622,2.81637,6.5439,5.48536,9.82604,7.35689,15.36843,8.76349,30.71035,17.59435,46.34581,25.8636,24.60679,13.01342,41.77692,32.37166,51.56354,58.38233,1.73992,4.62452,3.6839,9.17185,5.47804,13.77643,5.0485,12.95744,10.068,25.92614,15.19376,39.13452-11.03885,2.15903-21.69642,4.313-32.38193,6.31726-16.22638,3.04358-27.21781,12.04079-31.88533,28.08804-14.51342,49.89698-29.49693,99.66682-43.1894,149.78906-7.29719,26.71166-12.30868,54.04788-18.35024,81.09553-.39503,.168-.76771,.4697-1.13284,.46063-7.04345-.17192-14.08878-.32164-21.1249-.66111-.81295-.03943-1.62929-1.11842-2.34935-1.81352-16.51539-15.94551-37.53985-19.35893-59.09883-21.01835-1.82239-.1402-3.81983,1.99481-5.73594,3.07289,1.74868,1.36392,3.331,3.54486,5.27664,3.94113,6.24372,1.27191,12.71331,1.46831,18.92863,2.83812,12.64874,2.78736,25.60106,5.11741,34.95761,15.47974,3.65686,4.05006,6.71759,8.69384,3.36922,13.8247-3.34777,5.12995-8.68807,2.65532-12.93382,.91552-8.18112-3.35223-16.13818-7.25695-24.15558-11.00229-12.73015-5.94682-24.59924-5.19265-36.87454,2.31676-7.92111,4.84562-17.23718,7.43885-26.00953,10.83097-1.28168,.49553-3.01428-.24082-4.54257-.30442-2.765-.11512-5.99583-1.12325-8.22311-.06103-12.07295,5.75752-23.89296,12.04502-35.81035,18.12977-9.4238,4.81178-14.513,3.91968-19.69207-5.56324-9.44445-17.29281-13.97339-36.01193-12.86876-55.82438,.29267-5.2499,2.58387-8.64595,8.71397-10.1132,19.38728-4.63986,38.60227-10.02618,57.77614-15.50149,2.5958-.74133,4.57584-3.64019,6.84102-5.54012-.2861-.44462-.57216-.88939-.85822-1.33416,29.47809-9.02576,59.11941-17.56225,88.35543-27.31408,11.99528-4.00118,19.35734,2.6248,27.11216,8.60765,5.81047,4.48289,10.18294,10.78987,15.73401,15.67236,1.89353,1.66562,5.42586,1.46695,8.20944,2.12005-.85418-2.83948-1.50204-5.76704-2.65678-8.47841-.51322-1.20499-2.01602-2.014-3.1262-2.93466-6.33517-5.25391-13.98631-9.52922-18.72413-15.95608-6.80927-9.23658-15.29548-10.46929-24.5099-7.73224-21.84776,6.48949-43.70949,13.14954-65.00922,21.21173-25.00266,9.46373-49.83997,19.19773-74.02159,24.25758-4.62881-1.82621-7.57592-3.70394-10.70443-4.08284-7.90676-.95798-13.50956,3.46766-18.77095,8.8147-2.40546,2.44472-5.5724,4.78942-8.80523,5.67156-43.02235,11.74181-86.12038,23.20578-129.19329,34.76267-12.59606,3.37958-25.17246,6.83288-38.25829,10.38831,1.42879-8.92846,2.78025-16.98627,4.00028-25.06402,5.55198-36.76081,8.13218-73.72437,6.77785-110.88953-.23686-6.50006-.1837-13.53848-5.88365-20.39916-2.56363,6.78718-4.69972,12.44257-6.75002,17.87075-4.92004-6.05084-9.95397-12.24172-14.98793-18.4326-.69876,.46071-1.39757,.92149-2.09637,1.38227,2.78052,6.70122,5.99319,13.26232,8.22231,20.14233,2.31809,7.15452,5.23677,14.64217,5.11926,21.93946-.19457,12.08316-2.89047,24.10401-4.03668,36.1982-2.55827,26.99372-4.81066,54.01645-7.26645,81.92298-.06914,.02145-1.78946,.55747-3.50979,1.09334,.36634-.46788,.73267-.93592,1.09904-1.4038-2.94503-2.93164-5.36839-7.17175-8.91772-8.58748-27.99289-11.16545-57.17068-18.19383-86.80098-23.35278-19.40671-3.37897-38.8792-6.38026-58.69876-9.61208,.23646-1.78285,.28336-3.20176,.62349-4.54649,10.28836-40.67603,19.54653-81.65187,31.21401-121.92906,11.83747-40.86412,25.1516-81.36339,39.53777-121.4046,10.49634-29.2147,27.34255-54.93258,51.97653-74.76808,19.15363-15.42256,41.1437-25.68782,63.60942-35.13032,38.12866-16.02588,78.6643-26.84159,112.51565-52.02783,20.39775,24.88976,37.77577,51.47376,50.74633,80.91545,5.37579,12.20236,11.69291,24.01457,18.08495,35.72964,2.00235,3.6698,5.28253,6.91409,8.63045,9.51132,4.59117,3.56178,9.16183,1.71494,11.17947-3.65711,.85218-2.26917,1.78659-4.61629,3.2033-6.54629,7.90911-10.77439,15.87375-21.51169,24.02198-32.10577,7.31977-9.51691,14.90094-18.83265,23.552-29.73009,0,5.5751,.56646,9.29664-.12256,12.76882-1.27783,6.43956-3.26844,12.73921-4.99915,19.08699-3.6703,13.46159-.57669,24.82623,10.3914,33.77751,1.91573,1.56349,3.80941,3.15402,5.71592,4.72877,10.82053,8.9376,19.91209,19.38846,24.75541,32.64186,2.79423,7.6462,3.64538,15.98909,5.65657,23.94629,.42826,1.69425,2.09433,3.07546,3.19024,4.6008,1.44767-1.44097,3.93575-2.74211,4.15165-4.34858,.70065-5.21584,1.42041-10.68065,.59546-15.80183-2.31537-14.37431-9.5757-26.55243-17.87637-36.49937,2.62922-4.95621,4.69621-9.2711,7.13762-13.36255,4.27837-7.16986,7.42677-15.77328,13.45587-20.99501,17.25659-14.94553,26.88418-34.06259,34.18181-54.91211,.59787-1.70807,1.1265-3.82964,2.41037-4.83747,4.41053-3.46214,4.16834-7.57308,2.6632-12.22261-2.52153-7.78927-4.94315-15.61208-7.28616-23.4568-.39511-1.32313-.18396-2.82739-.25389-4.26723,7.51755,6.40541,14.8031,12.14208,21.45258,18.54017,2.25767,2.17225,3.7786,5.912,4.15075,9.10855,1.89209,16.25046-4.7487,29.85821-15.58954,41.00711-10.07193,10.35802-17.16197,21.43154-16.38897,37.65624-3.54653-2.77006-5.84468-5.21402-8.6639-6.58867-2.95281-1.43976-7.58151-3.6352-9.43909-2.40937-8.50939,5.61551-12.93321,14.51821-16.92439,23.48233,.58216,.4953,1.16441,.99061,1.74665,1.48591,5.16011-5.92023,10.32023-11.84046,15.35861-17.62087,7.26532,6.16331,13.05933,11.45771,19.31044,16.14183,1.79181,1.34269,5.13044,1.6737,7.32558,1.01667,1.25488-.37565,2.12423-3.63528,2.29634-5.67012,.27587-3.25977-.26839-6.58006-.29444-9.87609-.066-8.36449,.8822-16.38,6.4998-23.26871,5.83267-7.15233,11.28701-14.61316,16.93036-21.9208,.46874-.60695,1.09561-1.51054,1.68555-1.53985,5.26675-.26151,5.56021-4.38076,5.92586-7.97411,.72965-7.17288,1.10611-14.38557,1.48483-21.58934,.48059-9.13793-3.40388-15.9199-11.42014-20.30036-5.87874-3.21249-11.79463-6.35699-18.4031-9.91341,1.50491-.43465,2.3933-.71973,3.29596-.94793,38.17299-9.64653,67.43982-29.81281,78.67804-69.49838,5.58702-19.72929,10.86683-39.8572,13.07103-60.15408,2.70436-24.90199,1.95417-50.17277,2.87548-75.27758,.61713-16.81631,3.08308-32.81674,17.93308-44.10539,6.18323-4.70036,5.0516-12.86831-1.63994-17.11563-2.58225-1.63907-5.74598-2.40332-8.21654-4.16646-3.42948-2.44748-7.11428-4.98409-9.52752-8.32302-6.5655-9.08434-3.29619-20.08526-5.91408-30.29489,7.43931-.62497,10.7543-5.0892,12.06929-10.716,1.25057-5.35094,1.7869-10.97966,1.79535-16.48753,.01828-11.92642-4.5923-22.33755-12.16112-31.36274,6.99323-9.04358,10.47549-18.71504,10.90028-29.5882,.35214-9.01726-.06192-17.34531-11.18332-19.15165,.90009-11.76598-.2446-13.53999-9.88978-16.08635,3.54147-8.70476,1.39519-12.69876-8.08521-13.7109-25.8924-2.76428-50.00138-11.60335-74.0495-20.89904-12.19458-4.71377-24.44889-9.0429-37.86126-9.95574-28.4233-1.93442-55.88805,2.85074-83.00452,10.37068-31.89775,8.84579-62.80625,20.14543-89.66898,40.22454-5.90396,4.41298-10.92875,10.05625-19.37588,5.60493-1.62057-.85396-4.13202-.5126-6.10763-.10998-8.3485,1.70154-11.92739,6.33879-11.31801,12.84315,.15179,1.62026-.84319,3.84504-2.05831,5.01642-8.41945,8.11647-8.78073,11.46998-1.84629,19.96833-26.26429,46.31205-37.44323,94.18819-17.28416,146.46379-4.72494,5.59511-4.40131,6.63044,4.28468,11.52864-2.00178,7.57844-4.40279,15.03112-5.89615,22.66146-3.14145,16.05156-3.15864,32.13674,8.18595,45.14819,5.52819,6.34045,13.71856,10.35848,20.87056,15.54871-.59311,.94936-2.85717,3.08626-3.22358,5.51021-.54037,3.57469-.63801,7.74508,.73977,10.94495,1.65769,3.84995,5.76535,3.98434,9.7216,2.74377,1.18857-.37271,3.29109-.49417,3.84513,.18771,5.20358,6.40428,11.45031,6.08309,18.07535,2.85429,1.30755,2.37107,2.15497,4.54015,3.52822,6.2983,11.35501,14.53717,21.54176,29.84098,31.60236,45.30214,3.92604,6.03346,2.83614,9.51879,.30388,14.366-4.30144-.26635-8.20566-.62206-12.11675-.7294-13.34278-.36628-24.86578,3.60944-32.83855,14.88616-6.41559,9.0744-12.62672,18.31053-18.5191,27.7312-3.46335,5.5371-1.35731,9.029,6.12349,10.74795Zm-101.86624,119.52664c-.78108,.20086-1.56212,.40171-2.3432,.60264,1.57688,10.53992,3.07024,21.09313,4.74658,31.61726,4.72245,29.64874,9.5347,59.28313,14.28056,88.92809,1.69001,10.55661,3.14716,21.15402,5.08448,31.6638,.29709,1.61153,2.62155,2.8493,4.00836,4.2599,1.11494-1.48886,2.40682-2.88375,3.26938-4.50676,.4246-.79904,.05819-2.02057,.04391-3.05076-.61932-44.76703-8.84144-88.26932-21.97059-130.92551-1.94748-6.32731-4.72562-12.39884-7.11949-18.58866Zm222.46703,386.93425l-1.66977-.94362c-3.17245,3.40556-6.92364,6.43419-9.42531,10.27682-18.93305,29.0819-37.6352,58.31427-56.36015,87.53154-1.64047,2.55969-3.79091,5.47199-.22878,8.10359,3.64021,2.68946,5.53155-.49613,7.58253-2.7224,.97516-1.05859,1.89073-2.17444,2.79838-3.29271,22.1217-27.25403,39.08155-57.65845,54.21077-89.16014,1.46708-3.05476,2.08187-6.51895,3.09233-9.79307Zm-161.55105-368.91341c-.42075,.05764-.84153,.11527-1.26231,.17298-.11845,1.69545-.39012,3.3962-.33262,5.08576,1.0236,30.06208,2.00627,60.12621,3.30748,90.17658,.09621,2.22211,2.54675,4.34209,3.90279,6.50958,1.6262-1.93687,4.22891-3.64985,4.73182-5.84424,7.27298-31.73586,3.25141-62.54215-8.26517-92.6352-.47429-1.23928-1.37823-2.31404-2.08198-3.46547Zm315.8437,268.59053c-.94405-2.59156-1.04063-3.73748-1.65459-4.41173-12.29411-13.502-26.12485-24.66216-45.7693-22.00563-17.67345,2.39003-35.16989,6.15576-52.67977,9.63973-3.98113,.79224-7.69562,2.92484-11.53274,4.44059,.16229,.69676,.32465,1.39353,.48701,2.09014,3.31024-.27315,6.65121-.34748,9.92535-.85388,13.59966-2.10434,27.18217-4.32018,40.76521-6.53103,16.03887-2.6106,31.1448-1.71774,43.81174,10.36475,2.5904,2.47085,6.24749,3.90079,9.56218,5.5013,1.70609,.82382,3.74076,.96689,7.08491,1.76578Zm-95.79788,11.28994l.29837,2.05645c15.87598-1.99753,31.7722-3.84928,47.61948-6.05333,8.02072-1.1154,14.50677,1.11192,20.0518,6.94559,2.96006,3.11414,5.99526,6.45293,9.659,8.50938,2.98906,1.67785,6.94316,1.7611,10.51287,2.17882,.77405,.09034,2.52221-1.51802,2.43552-2.15495-.15466-1.13609-1.24649-2.91834-2.15444-3.05597-7.6315-1.15589-11.90844-6.84013-16.73567-11.84968-6.21457-6.44915-13.71882-8.65637-22.49079-6.76082-5.21917,1.12763-10.48886,2.01989-15.71679,3.1093-11.16633,2.32688-22.32035,4.71313-33.47935,7.07521Zm-59.01297-306.60943l-1.87291,.96017c2.50692,5.70615,5.50606,11.25368,7.40574,17.1554,2.87786,8.94093,9.19268,12.93138,17.78186,15.0037,3.16132,.76278,5.90887,3.21642,8.86599,4.86111,1.70035,.94574,3.44247,1.81632,5.16578,2.72073,.35403-2.24416,1.79671-5.64897,.86551-6.5231-3.27958-3.07833-7.08143-6.68256-11.21723-7.5505-10.03137-2.10517-16.41616-7.73964-20.80992-16.55064-1.75208-3.51343-4.10529-6.7269-6.18481-10.07687Z" style="fill:#fff;"/><path d="M492.2481,889.11693c-7.48081-1.71895-9.58684-5.21085-6.12349-10.74795,5.89237-9.42067,12.1035-18.6568,18.5191-27.7312,7.97277-11.27672,19.49576-15.25244,32.83855-14.88616,3.91109,.10734,7.81531,.46305,12.11675,.7294,2.53225-4.84721,3.62216-8.33254-.30388-14.366-10.0606-15.46116-20.24735-30.76497-31.60236-45.30214-1.37325-1.75815-2.22067-3.92723-3.52822-6.2983-6.62504,3.2288-12.87178,3.54999-18.07535-2.85429-.55403-.68188-2.65656-.56042-3.84513-.18771-3.95625,1.24056-8.06392,1.10618-9.7216-2.74377-1.37778-3.19987-1.28014-7.37026-.73977-10.94495,.36641-2.42394,2.63047-4.56084,3.22358-5.51021-7.152-5.19023-15.34237-9.20826-20.87056-15.54871-11.34459-13.01145-11.32741-29.09663-8.18595-45.14819,1.49336-7.63034,3.89437-15.08301,5.89615-22.66146-8.68599-4.8982-9.00962-5.93352-4.28468-11.52864-20.15907-52.2756-8.98013-100.15174,17.28416-146.46379-6.93444-8.49835-6.57316-11.85187,1.84629-19.96833,1.21512-1.17137,2.2101-3.39616,2.05831-5.01642-.60939-6.50437,2.9695-11.14162,11.31801-12.84315,1.97561-.40262,4.48706-.74398,6.10763,.10998,8.44713,4.45131,13.47192-1.19195,19.37588-5.60493,26.86273-20.07911,57.77123-31.37875,89.66898-40.22454,27.11647-7.51994,54.58122-12.3051,83.00452-10.37068,13.41237,.91284,25.66668,5.24197,37.86126,9.95574,24.04811,9.29569,48.15709,18.13476,74.0495,20.89904,9.4804,1.01214,11.62668,5.00614,8.08521,13.7109,9.64518,2.54635,10.78987,4.32037,9.88978,16.08635,11.1214,1.80634,11.53546,10.13439,11.18332,19.15165-.42479,10.87316-3.90705,20.54461-10.90028,29.5882,7.56882,9.02519,12.1794,19.43632,12.16112,31.36274-.00846,5.50787-.54478,11.1366-1.79535,16.48753-1.31499,5.6268-4.62998,10.09103-12.06929,10.716,2.61789,10.20963-.65141,21.21056,5.91408,30.29489,2.41324,3.33894,6.09804,5.87555,9.52752,8.32302,2.47056,1.76314,5.63429,2.52739,8.21654,4.16646,6.69154,4.24732,7.82317,12.41527,1.63994,17.11563-14.85,11.28865-17.31595,27.28908-17.93308,44.10539-.92131,25.10481-.17112,50.37559-2.87548,75.27758-2.20421,20.29688-7.48402,40.42479-13.07103,60.15408-11.23822,39.68557-40.50505,59.85185-78.67804,69.49838-.90266,.2282-1.79105,.51328-3.29596,.94793,6.60847,3.55641,12.52436,6.70092,18.4031,9.91341,8.01626,4.38046,11.90074,11.16243,11.42014,20.30036-.37872,7.20377-.75518,14.41646-1.48483,21.58934-.36566,3.59335-.65912,7.7126-5.92586,7.97411-.58994,.02931-1.21681,.9329-1.68555,1.53985-5.64335,7.30764-11.09768,14.76847-16.93036,21.9208-5.6176,6.88871-6.5658,14.90421-6.4998,23.26871,.02605,3.29603,.57031,6.61631,.29444,9.87609-.1721,2.03485-1.04146,5.29447-2.29634,5.67012-2.19514,.65703-5.53378,.32602-7.32558-1.01667-6.25112-4.68412-12.04513-9.97852-19.31044-16.14183-5.03838,5.78041-10.1985,11.70064-15.35861,17.62087-.58224-.4953-1.16448-.99061-1.74665-1.48591,3.99118-8.96412,8.415-17.86682,16.92439-23.48233,1.85758-1.22583,6.48628,.96961,9.43909,2.40937,2.81922,1.37464,5.11737,3.81861,8.6639,6.58867-.773-16.2247,6.31704-27.29822,16.38897-37.65624,10.84085-11.14891,17.48164-24.75666,15.58954-41.00711-.37215-3.19655-1.89307-6.93629-4.15075-9.10855-6.64947-6.39808-13.93503-12.13476-21.45258-18.54017,.06993,1.43983-.14122,2.9441,.25389,4.26723,2.34301,7.84472,4.76463,15.66753,7.28616,23.4568,1.50514,4.64953,1.74733,8.76047-2.6632,12.22261-1.28387,1.00783-1.8125,3.1294-2.41037,4.83747-7.29764,20.84952-16.92522,39.96658-34.18181,54.91211-6.0291,5.22173-9.1775,13.82515-13.45587,20.99501-2.44141,4.09145-4.5084,8.40634-7.13762,13.36255,8.30066,9.94694,15.561,22.12506,17.87637,36.49937,.82495,5.12119,.1052,10.586-.59546,15.80183-.2159,1.60647-2.70398,2.90762-4.15165,4.34858-1.09591-1.52534-2.76198-2.90656-3.19024-4.6008-2.01118-7.95719-2.86234-16.30008-5.65657-23.94629-4.84332-13.2534-13.93488-23.70426-24.75541-32.64186-1.90652-1.57474-3.80019-3.16528-5.71592-4.72877-10.96809-8.95128-14.06171-20.31592-10.3914-33.77751,1.73071-6.34778,3.72132-12.64743,4.99915-19.08699,.68902-3.47219,.12256-7.19373,.12256-12.76882-8.65107,10.89744-16.23224,20.21319-23.552,29.73009-8.14823,10.59408-16.11288,21.33138-24.02198,32.10577-1.41671,1.93-2.35113,4.27712-3.2033,6.54629-2.01764,5.37205-6.5883,7.21888-11.17947,3.65711-3.34792-2.59723-6.6281-5.84152-8.63045-9.51132-6.39203-11.71507-12.70915-23.52728-18.08495-35.72964-12.97056-29.44169-30.34858-56.02569-50.74633-80.91545-33.85135,25.18625-74.38699,36.00195-112.51565,52.02783-22.46572,9.4425-44.45579,19.70776-63.60942,35.13032-24.63398,19.8355-41.48019,45.55338-51.97653,74.76808-14.38617,40.04121-27.70029,80.54048-39.53777,121.4046-11.66748,40.27719-20.92565,81.25303-31.21401,121.92906-.34013,1.34473-.38703,2.76364-.62349,4.54649,19.81956,3.23183,39.29205,6.23311,58.69876,9.61208,29.6303,5.15896,58.80809,12.18733,86.80098,23.35278,3.54933,1.41574,5.97268,5.65585,8.91772,8.58748-.36637,.46788-.73271,.93592-1.09904,1.4038,1.72033-.53587,3.44066-1.07189,3.50979-1.09334,2.45579-27.90653,4.70818-54.92926,7.26645-81.92298,1.14621-12.09419,3.84211-24.11504,4.03668-36.1982,.11751-7.29729-2.80117-14.78494-5.11926-21.93946-2.22913-6.88002-5.4418-13.44111-8.22231-20.14233,.6988-.46078,1.3976-.92157,2.09637-1.38227,5.03396,6.19088,10.06789,12.38177,14.98793,18.4326,2.0503-5.42817,4.18639-11.08357,6.75002-17.87075,5.69995,6.86068,5.64679,13.8991,5.88365,20.39916,1.35433,37.16517-1.22588,74.12872-6.77785,110.88953-1.22002,8.07775-2.57149,16.13556-4.00028,25.06402,13.08583-3.55543,25.66223-7.00874,38.25829-10.38831,43.07291-11.55689,86.17093-23.02087,129.19329-34.76267,3.23283-.88213,6.39977-3.22684,8.80523-5.67156,5.26138-5.34705,10.86418-9.77268,18.77095-8.8147,3.1285,.3789,6.07561,2.25663,10.70443,4.08284,24.18163-5.05985,49.01894-14.79385,74.02159-24.25758,21.29973-8.06219,43.16146-14.72224,65.00922-21.21173,9.21443-2.73705,17.70064-1.50434,24.5099,7.73224,4.73782,6.42686,12.38896,10.70218,18.72413,15.95608,1.11018,.92066,2.61298,1.72967,3.1262,2.93466,1.15474,2.71137,1.8026,5.63893,2.65678,8.47841-2.78358-.6531-6.31591-.45444-8.20944-2.12005-5.55107-4.88249-9.92354-11.18947-15.73401-15.67236-7.75482-5.98285-15.11688-12.60883-27.11216-8.60765-29.23602,9.75183-58.87734,18.28832-88.35543,27.31408,.28606,.44477,.57212,.88954,.85822,1.33416-2.26519,1.89994-4.24522,4.79879-6.84102,5.54012-19.17387,5.47531-38.38886,10.86164-57.77614,15.50149-6.1301,1.46725-8.4213,4.8633-8.71397,10.1132-1.10463,19.81246,3.42431,38.53158,12.86876,55.82438,5.17907,9.48291,10.26827,10.37502,19.69207,5.56324,11.91739-6.08475,23.7374-12.37225,35.81035-18.12977,2.22728-1.06222,5.45811-.05409,8.22311,.06103,1.52829,.0636,3.26089,.79995,4.54257,.30442,8.77235-3.39212,18.08842-5.98534,26.00953-10.83097,12.2753-7.5094,24.1444-8.26358,36.87454-2.31676,8.0174,3.74533,15.97446,7.65005,24.15558,11.00229,4.24575,1.7398,9.58605,4.21443,12.93382-.91552,3.34837-5.13086,.28765-9.77464-3.36922-13.8247-9.35655-10.36233-22.30887-12.69238-34.95761-15.47974-6.21532-1.36981-12.68491-1.56621-18.92863-2.83812-1.94563-.39627-3.52795-2.57721-5.27671-3.94113,1.91618-1.07808,3.91362-3.21309,5.73601-3.07289,21.55898,1.65942,42.58345,5.07284,59.09883,21.01835,.72006,.6951,1.5364,1.77409,2.34935,1.81352,7.03612,.33947,14.08146,.48919,21.1249,.66111,.36513,.00906,.73781-.29263,1.13284-.46063,6.04156-27.04766,11.05305-54.38387,18.35024-81.09553,13.69247-50.12223,28.67598-99.89208,43.1894-149.78906,4.66751-16.04726,15.65894-25.04446,31.88533-28.08804,10.68551-2.00425,21.34307-4.15823,32.38193-6.31726-5.12575-13.20838-10.14526-26.17708-15.19376-39.13452-1.79415-4.60458-3.73812-9.1519-5.47804-13.77643-9.78662-26.01067-26.95675-45.36892-51.56354-58.38233-15.63546-8.26924-30.97738-17.10011-46.34581-25.8636-3.28214-1.87153-6.10982-4.54052-9.82604-7.35689,1.80525-.42332,2.48445-.82994,2.92623-.65076,22.0981,8.96533,44.38008,17.51572,66.20496,27.1068,28.22899,12.40556,44.49087,35.41767,54.65916,63.72334,5.76395,16.04507,12.64987,31.68464,18.85764,47.57425,1.32971,3.40352,3.20587,3.89951,6.61775,3.43729,51.38842-6.96152,102.6773-14.94009,154.23993-20.24393,41.97455-4.31746,84.27903-5.45469,126.4463-7.84313,8.38736-.47498,9.67002,1.54393,8.3348,9.85237-6.4341,40.03607-12.57624,80.11988-19.18508,120.12664-7.37927,44.67019-15.12881,89.27927-22.76477,133.90685-1.73539,10.14297-3.25624,20.34833-5.58958,30.3585-5.43726,23.32634-17.24927,34.25204-41.05293,37.25015-32.48463,4.09115-65.04509,7.58222-97.5782,11.2851-29.64759,3.37459-59.30198,6.68891-89.39784,10.07982,0,1.77394,.02235,3.32957-.00332,4.88445-.38423,23.26637-.43385,46.54542-1.28629,69.79472-.54879,14.96623-8.72281,26.211-19.87713,35.61429-14.58735,12.29716-29.54685,23.8817-48.997,27.38138-4.42397,.79572-8.94558,1.04847-14.06182,1.62316,.54758,3.85638,1.3856,7.80158,1.59342,11.77958,.20118,3.85169,.52054,9.1658-4.45757,9.27307-2.50122,.05393-6.62297-4.27365-7.3829-7.28369-2.45863-9.73884-3.97804-19.74689-5.35971-29.7205-5.06338-36.55217-5.30609-73.13774-.20382-109.72269,.07967-.57167-.12083-1.18232-.25042-2.28412-8.37981,.76777-16.67511,1.81095-25.00182,2.22596-13.27093,.66126-26.80028-.5265-39.79466,1.63178-24.75941,4.1123-46.40818-5.0875-68.43243-13.26556-9.43448-3.50331-18.46004-8.09241-27.7808-11.92189-12.74782-5.23767-25.57349-10.29027-38.44372-15.21853-1.44711-.55415-3.63519-.26816-5.07621,.44447-6.82603,3.37595-13.5423,6.97988-20.22288,10.63925-1.36906,.74979-2.70055,1.8954-3.56454,3.18393-3.78192,5.63923-9.33975,7.59144-15.72332,8.39093-2.54823,.31922-5.14482,1.25167-7.44059,2.44275-63.93101,33.1667-127.75264,66.54552-191.78466,99.51552-14.04672,7.23278-28.77,13.17008-43.30113,19.42661-3.10849,1.33839-4.65494,2.744-4.27709,6.25653,.44015,4.09205,.6536,8.2323,.59179,12.34611-.03931,2.61166-.1817,5.52562-1.36536,7.71577-.86966,1.60911-3.59078,3.2208-5.32384,3.06126-1.55827-.14352-4.01995-2.62843-4.11707-4.20189-.28678-4.64545,.34753-9.35556,.73207-14.03122,.16183-1.96762,.60123-3.91227,.85614-5.50326-11.27528,1.5153-21.98514,3.38562-32.77602,4.31882-25.87654,2.23744-45.81445-8.56482-61.6319-28.55903-18.66039-23.58816-27.06738-50.76453-27.91928-80.30918-.70639-24.49839-.14454-49.03335-.14454-74.26477-2.06444-.36198-5.22548-.89634-8.37892-1.47239-10.86535-1.98439-15.77082-12.20455-10.83097-21.9653,2.75245-5.4386,2.28814-12.42437,3.81232-18.57937,11.06493-44.68318,21.72844-89.47604,33.58555-133.94968,10.69982-40.13299,23.54014-79.61959,40.06984-117.83512,16.8966-39.06382,43.62181-68.94008,81.12253-89.24255,27.64551-14.96691,57.54933-24.30842,86.64975-35.689,21.83043-8.53755,43.33216-17.9166,64.96549-26.95633,1.0685-.44651,1.99563-1.23165,3.28887-2.04882Zm692.12477,160.48126c-4.44889,0-7.94535-.20086-11.41304,.03037-43.38348,2.89296-86.83394,5.06219-130.12627,8.97628-61.95755,5.60146-123.30296,15.84497-184.51319,26.85345-13.62042,2.44955-22.85743,8.99577-26.87383,22.82213-8.78035,30.22578-18.95189,60.07514-26.877,90.51537-13.5764,52.14711-25.8585,104.63104-38.70282,156.96919-3.14901,12.83152-6.37013,25.64552-9.7389,39.1951,7.72258-1.41846,14.50874-3.0386,21.39012-3.86907,51.91387-6.26453,103.82411-12.56895,155.77898-18.47891,57.08146-6.49326,114.21366-12.53994,171.31309-18.87654,10.28942-1.14184,20.12543-3.69775,25.37382-13.93393,2.3304-4.54513,4.58966-9.35979,5.59132-14.31298,4.03747-19.96746,7.74931-40.00548,11.2577-60.07416,9.49482-54.31226,18.80999-108.65572,28.22718-162.98157,3.01972-17.42009,6.13527-34.82356,9.31283-52.83473ZM203.4813,1318.74597c-.11775,1.05194-.35865,2.0557-.32271,3.04933,1.19176,32.94613,1.38845,65.97052,3.93375,98.81271,2.20679,28.47412,13.58042,53.69179,34.19239,74.20343,11.09772,11.04383,24.27567,16.49618,40.00241,16.32063,26.43536-.29505,50.62076-8.73826,73.70236-20.56331,60.99263-31.24713,121.79404-62.86787,182.66931-94.34433,7.61572-3.93781,15.21773-7.90205,22.82567-11.85391-20.13853-22.45055-21.36396-49.68721-21.11074-77.83682-2.26666,.51744-4.23249,.91688-6.17254,1.41634-70.08067,18.04169-140.13809,36.17463-210.25036,54.09244-20.6236,5.2703-41.03992,10.76706-57.69017,25.08291-.09387,.08067-.60744-.32693-1.17883-.65008,9.07557-9.81105,20.10723-16.4992,32.40696-20.99433,11.94614-4.36596,24.11925-8.11069,36.6964-12.2958-42.17629-16.58471-85.90766-25.22492-129.7039-34.43922Zm424.15778-772.5161c-.92902-.31307-1.34312-.61658-1.65882-.53564-22.27326,5.70921-44.51288,11.5527-66.8256,17.10241-4.66608,1.16057-7.05561,3.95019-8.24444,8.15269-3.3028,11.67541-7.09223,23.25643-9.57838,35.10796-2.71867,12.95956-4.19338,26.18018-6.36575,40.29774,14.67956,0,27.82165,.10976,40.95816-.11384,2.05989-.03505,4.46214-1.14508,6.07909-2.50432,9.0945-7.64484,17.99716-15.51796,27.00168-23.34496-4.86813-4.74841-2.17155-9.11644-.08009-12.76286,12.22667-21.3171,31.60387-32.35724,55.07073-36.87555,6.17243-1.18844,11.91622,3.36409,12.94733,8.95282,1.18087,6.4002-2.17762,11.52849-9.03907,13.20672-5.78238,1.41434-11.93412,1.71438-17.43346,3.79855-8.69826,3.29652-16.98767,7.6723-25.4501,11.59134,.26322,.52461,.5264,1.04919,.78961,1.57376,31.81774-10.89061,58.02596-1.87493,70.24545,23.35471,14.36835-.95563,28.19342-1.87508,43.08647-2.86554,1.93793-3.07811,4.75406-7.5511,7.63354-12.12475-7.56807-1.94711-14.84162-3.36179-21.75646-5.7962-3.30261-1.16268-5.92405-4.26126-8.85406-6.48295,3.52652-1.10482,6.99383-2.87729,10.5899-3.19602,13.72335-1.2165,27.68451-.84565,41.17995-3.21543,12.45896-2.18785,24.46437-6.74802,38.0576-1.29952-1.00891-16.28807-1.87918-31.28108-2.95032-46.25974-.11479-1.60526-1.04569-3.48756-2.20406-4.62222-4.0852-4.00148-8.43433-7.73322-13.2007-12.03418-.15564,.03917-1.15111,.19844-2.08126,.53723-20.23689,7.37045-40.98444,10.60348-62.52016,8.08278-2.1018-.24599-4.472,.48737-6.518,1.28109-22.6382,8.78241-45.26847,17.58276-69.59902,20.60708-5.28615,.65714-10.64012,1.47318-15.9259,1.26746-8.60356-.33475-11.51563-5.98655-7.45827-13.46313,1.32952-2.45004,2.69813-4.87878,4.10438-7.41747Zm77.60773,345.43882c-47.89777-9.47536-92.66771-28.05639-135.51418-50.50536-5.42839,9.36522-10.84708,18.71376-16.54684,28.54717,.07525,.08377,.63948,.94785,1.41259,1.53803,17.15778,13.09991,34.24589,26.29394,51.55176,39.19563,9.5404,7.1126,20.12415,12.96001,29.02091,20.76522,10.02216,8.79242,14.1464,20.59186,10.88246,34.13344-1.82851,7.586-4.03045,15.08362-5.77966,22.68654-1.36158,5.91827-.62347,11.69135,3.95886,16.06433,5.25202,5.01203,10.90647,9.60204,15.99462,14.03439,1.21749-4.91693,1.93627-9.57092,3.53113-13.9022,3.50145-9.50875,10.20846-16.71396,17.4259-23.64172,6.6432-6.37686,13.52927-12.80659,18.71914-20.31245,6.04594-8.74415,10.40058-18.66413,15.38919-28.12664,.61728-1.17069,1.16184-2.82082,.82609-3.98509-3.51149-12.17698-7.20966-24.30026-10.87196-36.49129Zm-211.64868-6.89777c2.75749,3.19368,5.03676,5.80186,7.28171,8.43928,8.93433,10.49633,18.14075,20.7764,26.72238,31.55411,14.5949,18.32972,24.11162,39.57642,34.0227,60.59817,4.05435,8.59934,8.97821,16.78866,13.27285,24.73234,19.16628-22.62119,37.58399-44.35882,56.53418-66.72492-5.32791-8.04202-14.76719-13.5511-24.06284-19.14666-26.76203-16.10973-52.03269-34.05269-71.93852-58.54368-5.15947-6.34785-9.77775-13.13586-14.90011-20.06755-1.73902,1.40569-3.5468,2.27302-4.47283,3.70923-7.55123,11.71152-14.93775,23.52931-22.45953,35.44969Zm418.34991,507.40814c-27.86356,3.08332-55.89644,6.18537-83.87547,9.28153-.16425,1.49354-.28591,2.30135-.33779,3.11384-2.12144,33.18921-.4889,66.23793,3.61593,99.20385,1.09999,8.83389,4.21985,11.41246,12.97815,9.79912,11.92385-2.1965,21.79482-8.62601,30.62403-16.40705,11.21662-9.88523,23.36951-19.41951,24.24476-36.34883,.13767-2.66302,.43498-5.34146,.93899-7.95855,3.84286-19.95296,7.7552-39.89247,11.8114-60.68391Zm-175.85155-737.42616c.46957-5.32778-4.08852-6.46932-8.2299-7.40206-10.12562-2.28065-26.04782,8.75223-27.53982,19.15445-3.45712,24.1022-17.97197,38.26395-40.57974,44.50816-29.18395,8.06045-56.74571-5.85602-64.444-32.37408-1.77043-6.09858-2.58229-11.87778-10.38249-12.74239-1.24528-.13816-2.73521-1.33023-3.45025-2.45575-4.22811-6.65544-10.60776-6.23726-17.28608-5.99826-7.60953,.27224-15.24462-.20743-22.86936-.29535-1.70647-.01972-3.41611,.23039-4.77177,.33025,2.7664,4.47473,5.62474,8.47667,7.84514,12.80599,6.75501,13.17069,13.63749,26.29703,19.78054,39.75567,9.15937,20.06695,23.02292,36.42451,38.60922,51.61925,2.61381,2.54813,4.91616,2.91275,8.20355,1.81684,12.09897-4.03313,23.14927-9.87926,32.09545-19.04726,6.46664-6.62719,12.51258-13.67815,18.54976-20.70879,13.11211-15.26967,28.51014-24.9162,49.70498-21.00506,1.39964,.25819,2.88824,.03361,4.68284,.03361-5.3483-3.07962-10.26518-5.61649-14.86231-8.63991-4.70218-3.09246-5.45154-7.18119-2.31031-10.92819,3.35298-3.9996,6.77717-3.26363,10.77681-.43412,4.49632,3.18091,9.31441,6.08558,14.35891,8.2598,4.60272,1.98371,9.48455,1.22062,13.0847-2.69362,3.72974-4.05497,4.22196-9.05333,1.79316-13.78678-1.7394-3.39008-4.58324-6.214-6.94142-9.28515-1.9587-2.55092-3.92767-5.09399-5.89211-7.64054,3.08504-.87171,6.17001-1.74342,10.0745-2.84673Zm-116.25018-20.46836c-20.03545,9.48359-23.41547,47.265-1.40421,61.26993,17.17171,10.92569,40.68509,9.45753,56.1106-4.50351,13.87658-12.55913,18.17836-38.17194,8.50562-54.69622-2.69122-4.59741-6.89045-8.97231-11.44627-11.69214-13.20878-7.88551-37.15403-3.87617-48.50406,7.66769,7.56701,5.65902,8.31422,17.75669,20.23316,21.25282,0-6.93848-.17996-12.6284,.04705-18.30207,.26529-6.6318,4.93945-11.39652,10.69132-11.33564,6.13663,.06496,10.57895,5.148,10.29584,12.14888-.21575,5.33896-.59742,10.68745-1.25065,15.98909-1.35418,10.99179-9.88026,18.75908-20.25532,18.73022-10.7733-.02999-20.7065-7.74387-22.83662-18.95457-1.06948-5.6288-.18645-11.62873-.18645-17.57449Zm119.55732,703.24626c.87699,2.72512,1.32918,3.86786,1.61253,5.05094,3.09864,12.93607-3.8156,20.65985-16.96192,18.61306-3.81198-.59358-7.60417-1.92033-11.15017-3.4885-6.76456-2.99161-13.26353-6.58346-20.02469-9.58353-7.56293-3.35601-15.45278-4.913-23.27753-.9613-12.39515,6.26-24.72717,12.57817-40.29387,12.77079,10.49698,3.05144,19.65107,5.36155,28.56712,8.37598,19.66077,6.64706,39.1156,13.91051,58.8241,20.40725,11.52141,3.79791,23.53127,5.18177,36.08758,4.70391,2.04033-16.70255,4.02055-32.91229,5.9822-48.97035-6.66329-2.38036-12.39228-4.42714-19.36535-6.91824Zm10.74486-684.11304c-1.86279,14.14098,4.7496,23.24756,13.28724,31.11486,14.67284,13.52081,32.24094,6.02765,40.87969-3.11618,3.68541-3.90087,5.21298-8.45801,4.85095-14.04867-.98535-15.21981-1.4485-30.47286-2.18857-45.70937-.47176-9.71123-2.66214-11.74094-13.42717-12.45587-1.81408,8.04882-8.33797,9.99499-15.1233,9.38751-10.60735-.94959-16.41842,4.28011-20.4278,13.02029-.51329,1.11895-1.23449,2.14068-1.79301,3.24119-3.10196,6.11247,.73758,16.15112,7.307,18.42898,1.74861,.60642,4.49073,.71739,5.71494-.26627,1.02583-.82427,1.04886-3.73325,.55437-5.44041-1.02311-3.53285-2.68994-6.87873-4.08505-10.30439-2.00461-4.92214-1.14938-8.91653,3.91634-11.33987,4.76214-2.27801,10.82046-.60302,12.22954,4.69568,1.90999,7.18142,3.00039,14.84673,2.76862,22.25204-.20254,6.46645-5.12379,10.5054-11.60191,11.92567-10.00442,2.19318-16.89366-2.60101-22.86188-11.38519Zm-231.74481,52.72014c-10.28455,7.74674-15.05575-1.09719-20.7631-7.16404-3.88591,3.86929-8.06131,5.50485-12.39579,2.03243-4.34052-3.47717-4.60929-7.87795-1.66135-12.62424,.40179-.64691-.34338-2.01-.56442-3.04003-.43917-2.04625-1.89715-4.88468-1.0725-5.93949,1.06755-1.36565,4.16272-2.15465,6.01713-1.69795,4.73499,1.16631,9.52975,2.66567,13.81333,4.94715,5.64611,3.00718,10.82669,6.88886,15.99164,10.25393,0-7.12809,1.72316-14.66574-.36841-20.92884-4.02184-12.04328-22.69363-18.91333-34.33802-13.97585-1.36917,.58051-2.85279,1.92826-3.3901,3.27654-6.36983,15.98471-11.65757,32.2468-8.04288,49.78511,2.56178,12.42966,10.74124,18.38486,23.44937,17.85851,2.67351-.11081,5.36299-.18137,8.03027-.02175,4.70992,.28168,6.59329,3.00302,5.18315,7.4671-.52791,1.67121-1.45583,3.21611-2.20141,4.81858,.66078-.23817,1.32156-.47642,1.98234-.71459,3.03558,5.02382,6.01807,10.08065,9.12184,15.06194,2.98849,4.7963,6.10242,9.51434,9.92909,15.45987-3.03207-22.55057-5.84023-43.43552-8.72016-64.85437Zm222.27438-5.57177c6.51905,3.65627,13.55457,7.10641,20.01887,11.41427,3.86484,2.57555,6.51263,6.92889,10.27356,9.72003,8.02351,5.95437,16.23446,11.70638,24.73902,16.93899,3.80624,2.34191,13.44016-2.91502,13.57081-7.32826,.37336-12.61835,.13133-25.25491,.13133-38.87935-21.75517,15.23877-41.30335,14.19264-58.48321-4.21208-3.82874,4.61168-7.44739,8.97031-10.25038,12.34641Zm-104.91118,80.8412c1.13186,.96258,2.64024,2.82422,4.59139,3.80176,7.33245,3.67395,14.90815,6.86725,22.19914,10.61719,5.31908,2.73569,10.07329,2.06249,15.05397-.71444,10.258-5.71907,20.61758-11.25595,29.93154-16.32184-4.41257-3.48858-10.03304-6.94762-14.28483-11.64595-2.75239-3.04147-4.50878-3.50762-8.11149-2.26161-16.2476,5.61913-32.59806,10.94042-49.37972,16.52489Zm96.59489-6.06277c8.92519,2.79416,19.40945,6.03611,29.8647,9.36908,4.3076,1.37313,8.50063,3.13559,12.85581,4.31383,1.46761,.3971,4.07334,.12706,4.79333-.84754,3.72007-5.03522,6.99708-10.39783,11.00042-16.52081-17.83898-2.31132-29.86893-15.90102-44.85441-16.86496-5.26501,7.92086-9.81449,14.7653-13.65984,20.55039Zm-187.56942,85.46549c1.50491-6.77661,2.95583-13.31006,4.6458-20.92-7.85677,.94634-15.07576,1.81594-22.29471,2.68546l-.26948,1.82455c5.28366,5.15933,10.55887,10.32743,15.86858,15.4598,.38574,.37293,1.02183,.48677,2.04981,.95019Zm-345.77125,472.82721c.55645-4.09508,1.12198-7.07899,1.33874-10.08828,.50803-7.05285-2.53444-8.91864-9.1474-5.73154-.91133,.43933-1.76943,1.00677-2.70889,1.36709-4.64172,1.78104-5.35873,4.02664-1.56291,7.06494,3.42685,2.74294,7.51968,4.65345,12.08047,7.38779Z"/><path d="M390.38186,1008.64358c2.39387,6.18983,5.17201,12.26136,7.11949,18.58866,13.12914,42.65619,21.35127,86.15848,21.97059,130.92551,.01427,1.03019,.38068,2.25172-.04391,3.05076-.86256,1.62301-2.15444,3.0179-3.26938,4.50676-1.3868-1.4106-3.71127-2.64837-4.00836-4.2599-1.93733-10.50978-3.39448-21.10718-5.08448-31.6638-4.74586-29.64496-9.55811-59.27935-14.28056-88.92809-1.67634-10.52413-3.1697-21.07735-4.74658-31.61726,.78108-.20093,1.56212-.40179,2.3432-.60264Z"/><path d="M612.84889,1395.57783c-1.01046,3.27413-1.62525,6.73831-3.09233,9.79307-15.12923,31.50169-32.08907,61.90611-54.21077,89.16014-.90765,1.11827-1.82322,2.23412-2.79838,3.29271-2.05098,2.22626-3.94232,5.41186-7.58253,2.7224-3.56213-2.6316-1.41169-5.5439,.22878-8.10359,18.72496-29.21726,37.42711-58.44964,56.36015-87.53154,2.50167-3.84263,6.25285-6.87126,9.42531-10.27682l1.66977,.94362Z"/><path d="M451.29784,1026.66442c.70375,1.15143,1.60769,2.22619,2.08198,3.46547,11.51658,30.09305,15.53815,60.89934,8.26517,92.6352-.50291,2.19438-3.10562,3.90736-4.73182,5.84424-1.35603-2.16749-3.80658-4.28747-3.90279-6.50958-1.30121-30.05038-2.28388-60.1145-3.30748-90.17658-.05751-1.68956,.21417-3.3903,.33262-5.08576,.42078-.05771,.84157-.11535,1.26231-.17298Z"/><path d="M767.14153,1295.25495c-3.34414-.79889-5.37881-.94196-7.08491-1.76578-3.31469-1.6005-6.97178-3.03044-9.56218-5.5013-12.66694-12.08248-27.77287-12.97535-43.81174-10.36475-13.58304,2.21085-27.16555,4.42669-40.76521,6.53103-3.27414,.50641-6.61511,.58074-9.92535,.85388-.16236-.69661-.32473-1.39338-.48701-2.09014,3.83712-1.51575,7.5516-3.64834,11.53274-4.44059,17.50988-3.48397,35.00632-7.2497,52.67977-9.63973,19.64446-2.65653,33.4752,8.50364,45.7693,22.00563,.61396,.67425,.71054,1.82017,1.65459,4.41173Z"/><path d="M671.34366,1306.54489c11.159-2.36208,22.31302-4.74833,33.47935-7.07521,5.22793-1.08941,10.49762-1.98167,15.71679-3.1093,8.77197-1.89556,16.27622,.31167,22.49079,6.76082,4.82723,5.00954,9.10417,10.69379,16.73567,11.84968,.90795,.13763,1.99978,1.91988,2.15444,3.05597,.08669,.63694-1.66146,2.2453-2.43552,2.15495-3.56972-.41773-7.52381-.50097-10.51287-2.17882-3.66373-2.05645-6.69894-5.39524-9.659-8.50938-5.54503-5.83366-12.03108-8.06098-20.0518-6.94559-15.84728,2.20405-31.7435,4.0558-47.61948,6.05333l-.29837-2.05645Z"/><path d="M612.33069,999.93546c2.07953,3.34997,4.43273,6.56344,6.18481,10.07687,4.39376,8.811,10.77855,14.44547,20.80992,16.55064,4.13579,.86793,7.93765,4.47216,11.21723,7.5505,.93121,.87413-.51148,4.27894-.86551,6.5231-1.72331-.90442-3.46543-1.775-5.16578-2.72073-2.95712-1.64469-5.70467-4.09832-8.86599-4.86111-8.58918-2.07231-14.90399-6.06277-17.78186-15.0037-1.89968-5.90172-4.89882-11.44925-7.40574-17.1554l1.87291-.96017Z"/><path d="M1184.37288,1049.59819c-3.17755,18.01117-6.2931,35.41464-9.31283,52.83473-9.41719,54.32586-18.73236,108.66931-28.22718,162.98157-3.50839,20.06868-7.22023,40.1067-11.2577,60.07416-1.00166,4.95319-3.26092,9.76784-5.59132,14.31298-5.24839,10.23618-15.08441,12.79209-25.37382,13.93393-57.09943,6.3366-114.23164,12.38328-171.31309,18.87654-51.95487,5.90996-103.86511,12.21437-155.77898,18.47891-6.88139,.83047-13.66755,2.45061-21.39012,3.86907,3.36876-13.54959,6.58989-26.36358,9.7389-39.1951,12.84433-52.33814,25.12643-104.82208,38.70282-156.96919,7.92511-30.44023,18.09665-60.2896,26.877-90.51537,4.0164-13.82636,13.25341-20.37257,26.87383-22.82213,61.21023-11.00848,122.55563-21.25199,184.51319-26.85345,43.29233-3.91409,86.74279-6.08332,130.12627-8.97628,3.46769-.23122,6.96415-.03037,11.41304-.03037Zm-198.55145,168.05525c-1.56774,1.02785-2.78456,1.79048-3.96558,2.60509-12.79343,8.82528-12.42324,20.7066,1.46972,27.74548,5.52116,2.79718,12.05819,4.42963,18.25743,4.88188,15.937,1.16246,31.82944,.56941,45.15482-10.12688,12.22244-9.8109,10.54497-22.40463-3.54797-28.95537-1.45092-.6744-3.47177-2.04414-3.62024-3.28387-.88476-7.38952-5.83864-10.35432-9.5276-11.29062-5.97586-9.93592-10.73089-18.18793-15.91842-26.15835-.96904-1.48893-3.99503-2.88556-5.47804-2.42251-1.33545,.41697-2.69847,3.49296-2.59237,5.31101,.48452,8.30104-2.76462,14.84038-8.69237,20.20541-2.26711,2.05192-5.04201,3.53133-7.49391,5.39237-6.77234,5.14037-7.54473,8.12164-4.04548,16.09636Z" style="fill:#fff;"/><path d="M203.4813,1318.74597c43.79624,9.2143,87.52761,17.85451,129.7039,34.43922-12.57715,4.18512-24.75026,7.92985-36.6964,12.2958-12.29973,4.49513-23.3314,11.18328-32.40696,20.99433,.57138,.32315,1.08496,.73076,1.17883,.65008,16.65024-14.31585,37.06657-19.81261,57.69017-25.08291,70.11228-17.91781,140.16969-36.05075,210.25036-54.09244,1.94005-.49946,3.90588-.8989,6.17254-1.41634-.25321,28.14961,.97221,55.38626,21.11074,77.83682-7.60794,3.95186-15.20995,7.9161-22.82567,11.85391-60.87527,31.47646-121.67669,63.0972-182.66931,94.34433-23.0816,11.82505-47.26701,20.26826-73.70236,20.56331-15.72674,.17555-28.90469-5.2768-40.00241-16.32063-20.61197-20.51164-31.98559-45.72931-34.19239-74.20343-2.5453-32.84219-2.74199-65.86658-3.93375-98.81271-.03595-.99363,.20495-1.99738,.32271-3.04933Z" style="fill:#fff;"/><path d="M627.63908,546.22987c-1.40625,2.53869-2.77485,4.96743-4.10438,7.41747-4.05737,7.47658-1.1453,13.12839,7.45827,13.46313,5.28578,.20573,10.63974-.61031,15.9259-1.26746,24.33055-3.02432,46.96082-11.82467,69.59902-20.60708,2.046-.79372,4.41619-1.52708,6.518-1.28109,21.53572,2.52071,42.28326-.71233,62.52016-8.08278,.93015-.33879,1.92562-.49806,2.08126-.53723,4.76637,4.30096,9.1155,8.03269,13.2007,12.03418,1.15836,1.13466,2.08927,3.01696,2.20406,4.62222,1.07114,14.97866,1.94141,29.97166,2.95032,46.25974-13.59324-5.44849-25.59864-.88833-38.0576,1.29952-13.49544,2.36978-27.4566,1.99893-41.17995,3.21543-3.59607,.31873-7.06338,2.0912-10.5899,3.19602,2.93001,2.22169,5.55145,5.32027,8.85406,6.48295,6.91484,2.43441,14.18839,3.84909,21.75646,5.7962-2.87948,4.57365-5.69561,9.04664-7.63354,12.12475-14.89304,.99046-28.71812,1.90991-43.08647,2.86554-12.2195-25.22964-38.42771-34.24531-70.24545-23.35471-.26322-.52457-.5264-1.04915-.78961-1.57376,8.46242-3.91903,16.75183-8.29481,25.4501-11.59134,5.49934-2.08417,11.65108-2.38421,17.43346-3.79855,6.86145-1.67823,10.21994-6.80652,9.03907-13.20672-1.03112-5.58873-6.77491-10.14127-12.94733-8.95282-23.46685,4.51832-42.84406,15.55845-55.07073,36.87555-2.09146,3.64642-4.78804,8.01445,.08009,12.76286-9.00452,7.827-17.90718,15.70012-27.00168,23.34496-1.61694,1.35923-4.0192,2.46927-6.07909,2.50432-13.13651,.22359-26.2786,.11384-40.95816,.11384,2.17238-14.11756,3.64708-27.33818,6.36575-40.29774,2.48615-11.85153,6.27558-23.43255,9.57838-35.10796,1.18884-4.20249,3.57836-6.99212,8.24444-8.15269,22.31272-5.54972,44.55234-11.3932,66.8256-17.10241,.3157-.08094,.7298,.22257,1.65882,.53564Z" style="fill:#fff;"/><path d="M705.24681,891.66869c3.6623,12.19103,7.36047,24.31431,10.87196,36.49129,.33575,1.16427-.20881,2.8144-.82609,3.98509-4.98861,9.46252-9.34326,19.38249-15.38919,28.12664-5.18987,7.50585-12.07594,13.93559-18.71914,20.31245-7.21744,6.92776-13.92446,14.13297-17.4259,23.64172-1.59486,4.33128-2.31363,8.98527-3.53113,13.9022-5.08815-4.43235-10.7426-9.02236-15.99462-14.03439-4.58233-4.37298-5.32044-10.14606-3.95886-16.06433,1.74921-7.60292,3.95115-15.10054,5.77966-22.68654,3.26394-13.54158-.8603-25.34102-10.88246-34.13344-8.89676-7.80521-19.48051-13.65262-29.02091-20.76522-17.30587-12.9017-34.39398-26.09572-51.55176-39.19563-.77311-.59018-1.33734-1.45426-1.41259-1.53803,5.69976-9.83341,11.11845-19.18194,16.54684-28.54717,42.84647,22.44897,87.61642,41.03,135.51418,50.50536Z" style="fill:#fff;"/><path d="M493.59813,884.77092c7.52178-11.92038,14.9083-23.73818,22.45953-35.44969,.92603-1.43621,2.73381-2.30354,4.47283-3.70923,5.12236,6.93169,9.74063,13.7197,14.90011,20.06755,19.90582,24.49099,45.17649,42.43396,71.93852,58.54368,9.29565,5.59557,18.73492,11.10464,24.06284,19.14666-18.95019,22.3661-37.3679,44.10373-56.53418,66.72492-4.29465-7.94367-9.2185-16.13299-13.27285-24.73234-9.91108-21.02175-19.4278-42.26845-34.0227-60.59817-8.58163-10.77771-17.78805-21.05778-26.72238-31.55411-2.24495-2.63742-4.52422-5.2456-7.28171-8.43928Z" style="fill:#fff;"/><path d="M911.94804,1392.17906c-4.0562,20.79143-7.96854,40.73095-11.8114,60.68391-.504,2.6171-.80132,5.29553-.93899,7.95855-.87525,16.92932-13.02814,26.4636-24.24476,36.34883-8.82921,7.78104-18.70019,14.21055-30.62403,16.40705-8.7583,1.61334-11.87816-.96523-12.97815-9.79912-4.10483-32.96592-5.73737-66.01464-3.61593-99.20385,.05188-.81249,.17354-1.62029,.33779-3.11384,27.97903-3.09616,56.0119-6.19821,83.87547-9.28153Z" style="fill:#fff;"/><path d="M736.09649,654.7529c-3.90448,1.10331-6.98945,1.97502-10.0745,2.84673,1.96444,2.54654,3.93341,5.08961,5.89211,7.64054,2.35819,3.07116,5.20203,5.89508,6.94142,9.28515,2.4288,4.73345,1.93657,9.73181-1.79316,13.78678-3.60015,3.91424-8.48198,4.67732-13.0847,2.69362-5.0445-2.17422-9.86259-5.07889-14.35891-8.2598-3.99964-2.82951-7.42383-3.56548-10.77681,.43412-3.14123,3.747-2.39187,7.83573,2.31031,10.92819,4.59713,3.02342,9.514,5.56029,14.86231,8.63991-1.7946,0-3.2832,.22458-4.68284-.03361-21.19483-3.91114-36.59286,5.73539-49.70498,21.00506-6.03718,7.03064-12.08311,14.0816-18.54976,20.70879-8.94619,9.16799-19.99648,15.01412-32.09545,19.04726-3.28739,1.09591-5.58973,.73129-8.20355-1.81684-15.5863-15.19473-29.44985-31.5523-38.60922-51.61925-6.14305-13.45864-13.02553-26.58499-19.78054-39.75567-2.22041-4.32932-5.07874-8.33126-7.84514-12.80599,1.35565-.09986,3.0653-.34997,4.77177-.33025,7.62474,.08793,15.25983,.56759,22.86936,.29535,6.67832-.239,13.05797-.65718,17.28608,5.99826,.71504,1.12552,2.20496,2.31759,3.45025,2.45575,7.80021,.86461,8.61206,6.64381,10.38249,12.74239,7.6983,26.51806,35.26005,40.43453,64.444,32.37408,22.60777-6.24421,37.12262-20.40596,40.57974-44.50816,1.492-10.40221,17.4142-21.43509,27.53982-19.15445,4.14138,.93275,8.69947,2.07428,8.2299,7.40206Z" style="fill:#fff;"/><path d="M619.84631,634.28455c0,5.94576-.88303,11.94568,.18645,17.57449,2.13012,11.2107,12.06333,18.92458,22.83662,18.95457,10.37506,.02886,18.90114-7.73843,20.25532-18.73022,.65323-5.30165,1.03489-10.65013,1.25065-15.98909,.28312-7.00088-4.15921-12.08392-10.29584-12.14888-5.75187-.06088-10.42603,4.70384-10.69132,11.33564-.22701,5.67367-.04705,11.36359-.04705,18.30207-11.91894-3.49613-12.66614-15.5938-20.23316-21.25282,11.35002-11.54386,35.29528-15.5532,48.50406-7.66769,4.55582,2.71983,8.75505,7.09474,11.44627,11.69214,9.67274,16.52428,5.37096,42.13709-8.50562,54.69622-15.42552,13.96104-38.93889,15.4292-56.1106,4.50351-22.01125-14.00493-18.63124-51.78634,1.40421-61.26993Z" style="fill:#fff;"/><path d="M739.40363,1337.53081c6.97306,2.4911,12.70205,4.53788,19.36535,6.91824-1.96164,16.05806-3.94187,32.2678-5.9822,48.97035-12.5563,.47785-24.56616-.90601-36.08758-4.70391-19.7085-6.49674-39.16333-13.76019-58.8241-20.40725-8.91606-3.01443-18.07014-5.32454-28.56712-8.37598,15.5667-.19262,27.89872-6.51079,40.29387-12.77079,7.82475-3.9517,15.7146-2.39471,23.27753,.9613,6.76116,3.00007,13.26013,6.59192,20.02469,9.58353,3.546,1.56817,7.33819,2.89493,11.15017,3.4885,13.14632,2.04678,20.06056-5.677,16.96192-18.61306-.28334-1.18308-.73554-2.32582-1.61253-5.05094Z" style="fill:#fff;"/><path d="M750.1485,653.41776c5.96823,8.78418,12.85747,13.57837,22.86188,11.38519,6.47812-1.42027,11.39938-5.45922,11.60191-11.92567,.23176-7.40531-.85863-15.07062-2.76862-22.25204-1.40908-5.2987-7.4674-6.97369-12.22954-4.69568-5.06572,2.42334-5.92095,6.41772-3.91634,11.33987,1.39511,3.42566,3.06193,6.77155,4.08505,10.30439,.49449,1.70716,.47146,4.61614-.55437,5.44041-1.22422,.98366-3.96633,.87269-5.71494,.26627-6.56942-2.27785-10.40896-12.3165-7.307-18.42898,.55853-1.10052,1.27972-2.12225,1.79301-3.24119,4.00938-8.74018,9.82045-13.96988,20.4278-13.02029,6.78533,.60748,13.30921-1.33869,15.1233-9.38751,10.76503,.71493,12.95541,2.74464,13.42717,12.45587,.74007,15.23651,1.20322,30.48955,2.18857,45.70937,.36203,5.59066-1.16554,10.1478-4.85095,14.04867-8.63876,9.14382-26.20686,16.63698-40.87969,3.11618-8.53764-7.8673-15.15003-16.97388-13.28724-31.11486Z" style="fill:#fff;"/><path d="M518.40368,706.13791c2.87994,21.41885,5.6881,42.3038,8.72016,64.85437-3.82666-5.94554-6.94059-10.66358-9.92909-15.45987-3.10377-4.98129-6.08626-10.03812-9.12184-15.06194-.66078,.23817-1.32156,.47642-1.98234,.71459,.74558-1.60247,1.67351-3.14737,2.20141-4.81858,1.41014-4.46408-.47323-7.18542-5.18315-7.4671-2.66728-.15961-5.35676-.08906-8.03027,.02175-12.70813,.52635-20.88759-5.42885-23.44937-17.85851-3.61469-17.53831,1.67305-33.80039,8.04288-49.78511,.53731-1.34828,2.02093-2.69603,3.3901-3.27654,11.64439-4.93748,30.31618,1.93257,34.33802,13.97585,2.09157,6.2631,.36841,13.80075,.36841,20.92884-5.16495-3.36508-10.34553-7.24676-15.99164-10.25393-4.28358-2.28148-9.07834-3.78084-13.81333-4.94715-1.85441-.4567-4.94957,.33229-6.01713,1.69795-.82465,1.05482,.63333,3.89324,1.0725,5.93949,.22104,1.03004,.96621,2.39313,.56442,3.04003-2.94794,4.74629-2.67917,9.14707,1.66135,12.62424,4.33448,3.47241,8.50988,1.83686,12.39579-2.03243,5.70735,6.06685,10.47855,14.91079,20.7631,7.16404Z" style="fill:#fff;"/><path d="M740.67807,700.56613c2.80299-3.3761,6.42164-7.73473,10.25038-12.34641,17.17987,18.40473,36.72804,19.45086,58.48321,4.21208,0,13.62445,.24203,26.261-.13133,38.87935-.13065,4.41324-9.76457,9.67017-13.57081,7.32826-8.50456-5.23261-16.71551-10.98461-24.73902-16.93899-3.76093-2.79114-6.40872-7.14448-10.27356-9.72003-6.4643-4.30787-13.49982-7.758-20.01887-11.41427Z" style="fill:#fff;"/><path d="M635.76688,781.40733c16.78166-5.58446,33.13212-10.90575,49.37972-16.52489,3.60272-1.246,5.3591-.77986,8.11149,2.26161,4.25179,4.69832,9.87226,8.15737,14.28483,11.64595-9.31396,5.06589-19.67353,10.60277-29.93154,16.32184-4.98069,2.77693-9.73489,3.45013-15.05397,.71444-7.29099-3.74994-14.86669-6.94324-22.19914-10.61719-1.95115-.97754-3.45953-2.83918-4.59139-3.80176Z" style="fill:#fff;"/><path d="M732.36177,775.34456c3.84535-5.78509,8.39483-12.62953,13.65984-20.55039,14.98548,.96394,27.01543,14.55364,44.85441,16.86496-4.00334,6.12297-7.28035,11.48558-11.00042,16.52081-.71998,.97459-3.32572,1.24464-4.79333,.84754-4.35517-1.17824-8.54821-2.9407-12.85581-4.31383-10.45526-3.33297-20.93951-6.57492-29.8647-9.36908Z" style="fill:#fff;"/><path d="M544.79235,860.81005c-1.02798-.46343-1.66407-.57726-2.04981-.95019-5.30972-5.13237-10.58492-10.30046-15.86858-15.4598l.26948-1.82455c7.21895-.86952,14.43794-1.73912,22.29471-2.68546-1.68997,7.60994-3.14089,14.14339-4.6458,20.92Z" style="fill:#fff;"/><path d="M199.0211,1333.63727c-4.56079-2.73433-8.65361-4.64484-12.08047-7.38779-3.79581-3.0383-3.07881-5.2839,1.56291-7.06494,.93946-.36032,1.79756-.92776,2.70889-1.36709,6.61296-3.18711,9.65543-1.32131,9.1474,5.73154-.21675,3.00929-.78229,5.9932-1.33874,10.08828Z" style="fill:#fff;"/><path d="M985.82143,1217.65344c-3.49926-7.97472-2.72686-10.95598,4.04548-16.09636,2.4519-1.86103,5.2268-3.34045,7.49391-5.39237,5.92775-5.36502,9.17689-11.90437,8.69237-20.20541-.1061-1.81805,1.25691-4.89404,2.59237-5.31101,1.48301-.46305,4.509,.93358,5.47804,2.42251,5.18753,7.97041,9.94257,16.22243,15.91842,26.15835,3.68896,.9363,8.64283,3.90109,9.5276,11.29062,.14847,1.23973,2.16932,2.60947,3.62024,3.28387,14.09294,6.55075,15.77041,19.14447,3.54797,28.95537-13.32538,10.69628-29.21782,11.28933-45.15482,10.12688-6.19924-.45225-12.73626-2.0847-18.25743-4.88188-13.89297-7.03888-14.26315-18.9202-1.46972-27.74548,1.18102-.8146,2.39783-1.57724,3.96558-2.60509Zm15.80092,1.56983c-2.61653,.73204-4.50651,1.94269-5.97465,1.55503-6.80655-1.79766-9.41175,3.4354-12.78777,7.25559-3.5269,3.99091-3.06866,8.10268,1.08232,11.22301,2.57228,1.9337,5.65453,3.60355,8.75785,4.34367,13.2886,3.16928,26.67975,3.00295,39.56418-1.57558,4.63693-1.64771,8.78843-5.22263,12.54483-8.60357,2.7579-2.48234,3.82217-6.48087,.07922-9.09842-3.00839-2.10397-6.67711-4.43492-10.04353,.36334-1.3276,1.89223-3.53181,3.61163-5.69561,4.33325-1.70904,.56978-3.96694-.50731-5.98114-.8529,.57242-1.74206,.83492-3.67879,1.78116-5.18592,2.02463-3.22473,5.2376-5.93843,6.43153-9.39159,1.59908-4.6252-2.67914-8.19612-7.07554-6.21626-4.76576,2.14627-6.04918,.45006-6.72484-4.1796-.74-5.07111-2.44073-10.00194-3.36552-13.60284-7.64932,7.3936-15.17631,14.66899-23.34014,22.55986,3.03777,1.99912,6.34574,4.17605,10.74766,7.07294Z"/><path d="M1001.62235,1219.22327c-4.40192-2.89689-7.70989-5.07382-10.74766-7.07294,8.16383-7.89087,15.69081-15.16626,23.34014-22.55986,.92479,3.60091,2.62552,8.53174,3.36552,13.60284,.67566,4.62966,1.95908,6.32587,6.72484,4.1796,4.39641-1.97986,8.67463,1.59106,7.07554,6.21626-1.19393,3.45315-4.4069,6.16686-6.43153,9.39159-.94624,1.50714-1.20873,3.44386-1.78108,5.18585,2.01413,.34566,4.27203,1.42276,5.98107,.85298,2.1638-.72162,4.36801-2.44102,5.69561-4.33325,3.36642-4.79826,7.03514-2.4673,10.04353-.36334,3.74295,2.61755,2.67868,6.61609-.07922,9.09842-3.75639,3.38094-7.9079,6.95586-12.54483,8.60357-12.88443,4.57852-26.27558,4.74486-39.56418,1.57558-3.10332-.74012-6.18557-2.40997-8.75785-4.34367-4.15097-3.12033-4.60921-7.2321-1.08232-11.22301,3.37601-3.82019,5.98122-9.05325,12.78777-7.25559,1.46814,.38766,3.35811-.82299,5.97465-1.55503Z" style="fill:#fff;"/></svg></svg>
