<?xml version="1.0" encoding="UTF-8"?><svg id="a" xmlns="http://www.w3.org/2000/svg" viewBox="0 0 1366 1555"><svg y="-200"><path d="M1010.50722,1121.01211c.4096,.07139,.81912,.14285,1.22872,.21424,0,14.82383-.35387,29.65751,.06285,44.46962,1.58001,56.15544,8.00174,111.86137,15.7417,167.45275,3.90887,28.0751,7.86065,56.17757,10.49655,84.38888,3.67092,39.28772,6.0513,78.69508,9.23453,118.03097,.27593,3.4105,1.89401,7.01835,3.81851,9.91654,2.7777,4.1827,7.05818,4.13516,10.05389,.11338,1.44744-1.94349,2.75378-4.62698,2.70586-6.9461-.29829-14.44062-.22755-28.95318-1.71782-43.29215-3.65435-35.16054-7.84197-70.27134-12.27237-105.3443-5.90364-46.73502-12.4907-93.38434-18.32226-140.12812-5.9947-48.0519-12.33639-96.10653-11.18076-144.71538,.07246-3.05027,.76698-6.27812,1.97155-9.07936,11.57933-26.92774,23.34541-53.77518,35.02261-80.66086,2.95592-6.80559,1.54616-9.20736-6.06224-9.99637-17.59077-1.82402-35.20959-3.38939-52.77925-5.39113-2.89034-.32934-6.22764-1.69587-8.25657-3.69941-6.18512-6.10759-11.96619-12.646-17.61445-19.2644-1.95264-2.28816-3.60995-5.13928-4.45557-8.01206-5.88495-19.99009-10.70565-40.33727-17.54144-59.98731-4.11891-11.84002-6.78107-23.60013-4.92474-35.67995,4.0065-26.0714,8.42276-52.11661,13.84613-77.92553,11.19053-53.25334,18.67574-106.72115,13.37415-161.29833-4.05395-41.73484-15.10659-81.33192-37.07234-117.33284-27.85453-45.65228-65.88161-79.02129-118.66055-92.0557-22.43906-5.54165-45.76235-7.79849-68.80408-10.53491-40.70511-4.8341-81.02462-2.95324-120.01407,10.9811-55.8074,19.94497-96.5548,55.76156-114.40771,113.60967-5.99529,19.42618-8.59175,39.92286-12.41894,59.99184-4.19567,22.00106-8.24043,43.97252-18.52296,64.24367-10.47814,20.65666-24.00871,39.08529-38.76432,56.86635-13.47424,16.23696-22.44304,34.767-22.06643,56.63983,.32733,19.00755,7.63623,35.71326,17.57611,51.39499,9.58429,15.1208,19.92482,29.77011,29.26175,45.03736,8.31965,13.60375,14.20777,28.12225,12.34057,44.75548-.53952,4.80658-2.4404,7.51008-6.9618,9.45053-41.61108,17.8587-73.34599,46.76958-96.02787,85.92884-63.78569,110.12321-88.27603,227.76541-67.50754,353.9301,6.04233,36.70604,16.02533,72.39655,33.42123,105.54056,8.60336,16.39178,19.53422,31.04429,39.32541,34.67185,10.2051,1.87078,20.69845,2.18713,31.06919,3.12057,2.21032,.19892,4.45378,.02909,6.56693,.02909-.5768,7.40163-1.10944,14.20058-1.63563,20.99983-.39186,5.06406,1.42129,8.51412,6.98009,8.44844,5.34423-.06302,6.76239-3.79128,6.56396-8.31646-.34417-7.85044-.89901-15.69135-1.26749-21.88886,42.12445-22.02303,83.77633-43.79882,125.38304-65.55116,3.8069,3.39283,7.65522,7.43932,12.12061,10.61853,4.0006,2.84847,8.87937,3.03127,11.96318-1.39241,3.04965-4.37458,1.17721-8.72633-2.63977-11.84878-2.54726-2.08377-5.64603-3.4926-8.61521-5.27392,.41241-.48259,.72384-1.09028,1.22079-1.39397,54.80032-33.49868,107.2968-70.3059,157.97592-109.74594,1.40577-1.09388,4.2052-1.02007,6.18793-.63381,6.47325,1.26105,12.04803,.42864,17.10644-4.36019,3.06168-2.89835,6.73933-5.80483,10.66141-7.01006,11.3743-3.4951,23.015-6.12088,34.54548-9.10985,14.77281-3.82944,27.14422-10.70524,34.67133-24.95852,1.75393-3.32144,6.18942-5.59732,9.85339-7.42853,3.3538-1.67632,7.32004-2.15171,11.03787-3.0692,15.84269-3.9099,31.55071-8.01934,42.17483-22.01427,.66318-.87362,2.56485-1.23337,3.84297-1.14533,9.75646,.67244,19.56716,1.05111,29.23256,2.42507,11.68197,1.66037,19.15428-3.33027,24.35644-13.18317,12.71691-24.08623,25.71805-48.02602,38.14097-72.26253,6.93725-13.53432,12.94829-27.54364,19.37675-41.33888Zm-36.09563,383.18471c-1.52748-19.52095-3.01533-38.53632-4.56001-58.27698,5.45386,.99145,9.79218,1.87813,14.16333,2.55009,5.45331,.83804,9.96298-2.28737,10.35014-6.99489,.39451-4.79728-3.37045-8.75573-9.02168-8.31896-5.36576,.41488-10.64491,1.95131-16.27277,3.05551-1.27625-23.57026-2.47355-47.42059-3.88346-71.25826-1.56094-26.39183-3.2811-52.77443-5.05184-79.15288-.14555-2.16735-1.20973-4.27301-1.84703-6.40729-2.15767,3.6048-3.18183,6.87643-3.24491,10.16644-.49457,25.80571-1.76105,51.64505-.9474,77.41589,1.21121,38.3632,3.55328,76.70467,6.18449,115.00251,1.15032,16.74332,4.06411,33.37733,6.57432,50.00086,.31705,2.09987,3.05793,3.83366,4.67585,5.73697,1.25874-2.16962,3.39007-4.25698,3.60378-6.52512,.52662-5.58919,.17252-11.26125,.17252-17.06937,3.66881,.27757,6.22006,.66118,8.76458,.62067,4.43658-.07084,9.19365,.4987,13.18944-.9411,2.67264-.96299,6.08772-5.13553,5.82938-7.50797-.26671-2.45079-4.26109-5.29113-7.21217-6.40831-2.47034-.93531-5.84571,.10649-8.71612,.74296-4.11609,.9131-8.13744,2.25375-12.75045,3.56922Zm-281.70566-37.34095c5.10968-3.68651,9.85573-6.15294,13.33929-9.81959,7.74606-8.15304,14.96112-16.82354,22.12889-25.50093,1.14837-1.39038,.93215-3.90841,1.34676-5.90523-2.04042-.22441-4.42822-1.25089-6.06451-.54201-10.11181,4.38193-20.16445,8.93697-29.99673,13.9094-3.69266,1.86749-7.08788,4.66936-9.99518,7.65325-3.28837,3.37484-3.72869,8.0467-.93356,11.71835,2.37373,3.11807,6.11211,5.19652,10.17505,8.48676Zm235.94808-63.94951c-10.63202,2.17103-21.41021,6.47023-30.74026,13.94802-1.23326,.98864-1.99,2.79483-2.54218,4.37145-2.10116,5.99828,4.17659,13.62119,10.1437,11.64423,12.04248-3.9891,21.76486-11.60889,28.82671-22.15439,2.94732-4.40148,.63527-7.73551-5.68797-7.80932Zm85.53507-55.64134c6.8755,.64288,11.65242-5.28784,8.6811-11.19401-5.82265-11.57355-16.23158-18.31729-27.65794-23.33647-4.04144-1.77538-7.42502,2.06047-6.03019,6.47446,1.2073,3.82068,2.58267,7.77976,4.80788,11.04811,5.16526,7.58632,10.75388,14.95715,20.19915,17.00792Zm-222.4838,128.5552c-2.69726,1.33721-5.98806,2.00042-6.30167,3.35389-.45541,1.9657,.55124,5.45783,2.12781,6.51074,8.92952,5.96372,18.07072,11.65267,27.44071,16.89689,4.63091,2.59185,9.70713,2.27205,12.86989-2.82861,2.61206-4.21241,.37693-10.42415-5.72205-13.02272-9.88184-4.21038-20.23128-7.32297-30.41469-10.91018Zm147.05562,42.66773c-.78879-4.23806-1.08521-7.66154-2.0985-10.85764-1.6266-5.13084-5.57025-6.07881-9.59395-2.46236-6.95867,6.25474-10.19998,14.29597-10.78343,23.49269-.30321,4.77961,1.57391,8.34148,6.39398,9.68588,4.95984,1.38334,9.12595-.48666,11.15934-4.90893,2.26812-4.93255,3.46034-10.36019,4.92255-14.94964Zm-145.90193-194.30887c-.1647,11.41732,14.15989,28.91268,24.64191,29.84376,2.92958,.26022,8.07671-1.88626,8.72464-3.9977,.88275-2.87661-.48183-8.29691-2.79779-9.96314-7.70299-5.54196-16.20938-9.98801-24.53708-14.62171-1.6803-.93484-3.92669-.85165-6.03168-1.26121Zm-254.04201,191.22803c-1.00755-1.32798-2.50802-5.18807-5.23936-6.5173-5.82004-2.83205-12.21031-4.60039-18.4981-6.32683-4.83274-1.32704-6.41161,1.51548-6.23999,5.9914,.29497,7.69297,12.04697,19.12155,19.69802,19.02897,5.6784-.06865,10.1824-4.45011,10.27944-12.17624Zm385.43863-240.66616c-1.36536-2.98671-1.96295-6.92788-3.85712-7.70446-1.93747-.79426-6.05786,.74797-7.62357,2.61163-4.30197,5.12075-8.33575,10.65333-11.38141,16.58514-2.46073,4.79227-.13804,9.30885,4.73143,11.58871,5.06482,2.37135,9.5379,.52911,11.69448-4.3426,2.62902-5.9394,4.28071-12.31158,6.43619-18.73842Z" style="fill:#fff;"/><path d="M1010.50722,1121.01211c-6.42846,13.79524-12.4395,27.80456-19.37675,41.33888-12.42292,24.23651-25.42406,48.1763-38.14097,72.26253-5.20216,9.85289-12.67447,14.84354-24.35644,13.18317-9.66539-1.37396-19.4761-1.75263-29.23256-2.42507-1.27812-.08804-3.1798,.27171-3.84297,1.14533-10.62412,13.99494-26.33213,18.10438-42.17483,22.01427-3.71783,.91748-7.68407,1.39288-11.03787,3.0692-3.66397,1.83121-8.09945,4.10709-9.85339,7.42853-7.52711,14.25328-19.89852,21.12908-34.67133,24.95852-11.53048,2.98897-23.17118,5.61475-34.54548,9.10985-3.92208,1.20522-7.59973,4.11171-10.66141,7.01006-5.05841,4.78883-10.63319,5.62124-17.10644,4.36019-1.98273-.38626-4.78216-.46007-6.18793,.63381-50.67911,39.44004-103.17559,76.24726-157.97592,109.74594-.49695,.30369-.80837,.91138-1.22079,1.39397,2.96917,1.78133,6.06795,3.19016,8.61521,5.27392,3.81698,3.12244,5.68942,7.47419,2.63977,11.84878-3.0838,4.42368-7.96258,4.24088-11.96318,1.39241-4.46538-3.17921-8.31371-7.22571-12.12061-10.61853-41.6067,21.75234-83.25859,43.52813-125.38304,65.55116,.36848,6.19751,.92332,14.03841,1.26749,21.88886,.19843,4.52518-1.21973,8.25344-6.56396,8.31646-5.5588,.06568-7.37194-3.38438-6.98009-8.44844,.52619-6.79926,1.05882-13.5982,1.63563-20.99983-2.11315,0-4.35661,.16983-6.56693-.02909-10.37074-.93343-20.86409-1.24979-31.06919-3.12057-19.79119-3.62755-30.72205-18.28007-39.32541-34.67185-17.39589-33.14401-27.3789-68.83452-33.42123-105.54056-20.76849-126.16469,3.72185-243.8069,67.50754-353.9301,22.68188-39.15926,54.41679-68.07013,96.02787-85.92884,4.52139-1.94044,6.42228-4.64395,6.9618-9.45053,1.8672-16.63323-4.02092-31.15173-12.34057-44.75548-9.33693-15.26725-19.67746-29.91656-29.26175-45.03736-9.93988-15.68173-17.24878-32.38744-17.57611-51.39499-.37661-21.87283,8.59218-40.40287,22.06643-56.63983,14.75561-17.78106,28.28618-36.20969,38.76432-56.86635,10.28253-20.27114,14.32729-42.24261,18.52296-64.24367,3.82718-20.06898,6.42365-40.56566,12.41894-59.99184,17.8529-57.8481,58.6003-93.66469,114.40771-113.60967,38.98944-13.93434,79.30896-15.8152,120.01407-10.9811,23.04173,2.73642,46.36502,4.99326,68.80408,10.53491,52.77894,13.03441,90.80602,46.40342,118.66055,92.0557,21.96575,36.00092,33.01839,75.59801,37.07234,117.33284,5.30159,54.57718-2.18362,108.04499-13.37415,161.29833-5.42337,25.80892-9.83963,51.85413-13.84613,77.92553-1.85633,12.07983,.80583,23.83993,4.92474,35.67995,6.83579,19.65004,11.65649,39.99722,17.54144,59.98731,.84562,2.87278,2.50294,5.72391,4.45557,8.01206,5.64826,6.6184,11.42933,13.15682,17.61445,19.2644,2.02893,2.00354,5.36623,3.37007,8.25657,3.69941,17.56966,2.00175,35.18849,3.56711,52.77925,5.39113,7.6084,.78902,9.01816,3.19078,6.06224,9.99637-11.6772,26.88567-23.44328,53.73311-35.02261,80.66086-1.20457,2.80124-1.89909,6.02908-1.97155,9.07936-1.15564,48.60885,5.18605,96.66348,11.18076,144.71538,5.83157,46.74378,12.41862,93.3931,18.32226,140.12812,4.4304,35.07296,8.61802,70.18377,12.27237,105.3443,1.49027,14.33897,1.41953,28.85153,1.71782,43.29215,.04792,2.31912-1.25843,5.0026-2.70586,6.9461-2.99571,4.02179-7.27619,4.06933-10.05389-.11338-1.9245-2.8982-3.54257-6.50604-3.81851-9.91654-3.18323-39.33589-5.56361-78.74324-9.23453-118.03097-2.6359-28.21131-6.58768-56.31378-10.49655-84.38888-7.73996-55.59138-14.16169-111.29731-15.7417-167.45275-.41671-14.8121-.06285-29.64579-.06285-44.46962-.4096-.07139-.81912-.14285-1.22872-.21424Zm-584.33959-57.36059c-13.33714-48.0759,7.1988-84.63252,40.94841-117.62805-2.14348,.33262-2.56692,.29876-2.88596,.46531-1.32077,.68862-2.63297,1.39984-3.90711,2.17095-20.3261,12.30126-37.67282,27.9629-51.89138,46.95575-32.47821,43.38387-53.94782,92.12752-69.34172,143.77569-1.38596,4.65004-2.5303,9.37226-3.87029,14.37236,5.54418-2.73462,10.26603-5.1643,15.07497-7.40695,4.69625-2.18995,8.44656-.80309,10.49112,3.85071,1.92883,4.39069-.76976,8.5228-6.02456,10.0497-5.71853,1.66177-11.33604,3.8719-17.16397,4.89509-4.96988,.8726-6.37569,3.73248-7.28991,7.97735-8.71036,40.44251-12.748,81.32696-11.45358,122.68218,.37568,12.00258,1.56735,23.97958,2.40877,36.31751,5.51674-1.53816,10.06389-2.61937,14.48312-4.08606,5.4172-1.79806,8.91346,.27288,10.30203,5.33867,1.41328,5.15586-1.54452,8.1019-6.43455,9.00093-5.19414,.95501-10.4493,1.5785-16.14319,2.41514,.1587,1.95882,.1093,4.08137,.52906,6.10665,4.14806,20.01636,7.79151,40.16189,12.73982,59.98074,5.05645,20.25234,11.19698,40.27589,22.46626,58.19832,17.19609,27.34856,41.74483,35.6572,71.53757,23.23263,14.51017-6.05113,28.26605-13.8972,42.46081-20.7282,4.78126-2.30098,8.7146-4.60978,8.62494-10.9069-.03674-2.58027,1.24154-5.53524,2.80564-7.67248,1.3081-1.78743,3.98864-3.73843,5.90571-3.59112,2.02068,.15544,4.05664,2.52804,5.69118,4.29702,.84718,.91686,.8407,2.62281,1.4252,4.70329,78.19479-43.71094,153.09788-91.24944,224.63917-144.93087-20.31828-25.84801-22.12404-55.84143-20.83466-87.31585-70.93197,39.69314-141.43671,77.2832-220.4025,96.49287,1.06762,1.51439,1.91687,2.68927,2.7351,3.88542,2.47855,3.62302,4.97074,7.85138,1.12026,11.4045-4.28126,3.95079-8.96278,1.65138-12.44207-1.98493-2.88807-3.0183-5.1458-6.64022-7.45031-9.68744-21.28756,2.09487-41.12007,8.45407-60.67613,17.23123,.93641-3.17749,2.28813-5.93604,4.44936-6.92577,12.16106-5.56901,24.39497-11.02543,36.8528-15.88167,7.24301-2.82329,14.95178-4.45105,21.37062-6.30478,1.42707-22.52587,2.29181-44.04231,4.41164-65.43434,.75721-7.64082-.44724-12.1416-8.01073-14.35485-1.17655-.34427-2.88479-2.76207-2.584-3.45374,.61979-1.42502,2.29482-3.00289,3.78122-3.30361,2.61613-.52935,5.41642-.14801,8.31875-.14801,2.78622-15.56773,5.59941-31.2859,8.41255-47.00407l3.16569-.05935c1.45381,4.91573,3.99857,9.79167,4.17929,14.75377,.96166,26.41083,1.39678,52.84206,1.8738,79.26876,.1935,10.72073,.03193,21.44779,.03193,32.45,8.20119-2.85629,16.86654-5.77755,25.46482-8.88451,56.35606-20.36446,108.31451-49.85074,161.22516-77.41378,11.39541-5.93627,21.31813-17.11488,36.44801-13.35956,.48292,.11987,1.12398-.64741,1.72837-.72983,7.18536-.98066,10.93883-6.09273,15.06039-11.40645,15.99989-20.62749,29.80326-43.47762,54.21082-55.6544-9.67993-12.1925-9.04982-26.18658-7.55071-40.27839,.11155-1.04869,1.84383-2.57816,2.93865-2.68388,1.0795-.10438,2.9485,1.05862,3.37037,2.10816,4.78419,11.90429,12.39127,22.76576,13.56433,36.07825,.55546,0,1.21059,.13761,1.78497-.01978,19.28795-5.28581,38.58707-10.53393,57.81515-16.02999,1.61261-.46085,3.44072-2.38824,3.975-4.02429,2.50255-7.6631,4.5869-15.46288,6.71627-22.85177-4.29854-4.68046-8.65742-9.05066-12.5018-13.83465-1.19996-1.49328-2.02447-4.7947-1.18964-6.02072,.95302-1.39953,4.10437-2.2224,6.02855-1.85827,4.89902,.92687,9.64671,2.65463,15.09056,4.24799,3.18558-6.90802,6.60191-14.18001,9.85448-21.52457,.46033-1.03938,.46447-2.54399,.10428-3.64483-5.89816-18.02329-14.51314-34.73862-23.55436-50.17679-64.63366,72.31023-143.10634,79.86582-230.40589,52.54369,.00453-.00899-.5215,.90841-.93114,1.87516-12.36938,29.1926-8.22827,56.66345,8.88418,82.64047,2.80181,4.25323,3.75714,8.04397,.31787,12.18851-3.41692,4.11741-7.2133,3.11017-11.50261,1.27075-17.64001-7.56458-35.11915-15.35294-48.97712-28.46332-10.36437,6.9278-20.20036,13.50234-30.95827,20.69317,6.43362,8.50404,12.66177,16.82198,18.9895,25.06353,3.06321,3.98981,3.44639,7.82957-.53033,11.28659-4.06012,3.52966-8.50303,4.21085-12.50062-.01142-3.80588-4.01975-7.68903-8.08189-10.78671-12.63678-13.02962-19.15932-30.6336-32.30542-51.90608-41.0262-18.44745-7.56271-36.25083-16.21421-49.03293-32.44452-.80509-1.02234-2.41602-1.51861-3.74597-2.0001-7.12024-2.57762-14.54999-4.49335-21.32856-7.76577-6.31367-3.04801-10.93605-8.37487-14.59924-16.80892,8.58359-.68182,16.02741-1.27301,24.00011-1.90628Zm222.63322-224.71537c-.22227,.18797-.4445,.37594-.66677,.56383,.55871,1.06956,1.10479,2.14593,1.67803,3.20767,8.40126,15.5603,17.18492,30.92779,25.1339,46.71586,18.43045,36.60604,17.71529,72.10584-7.04364,105.99876-9.92468,13.586-19.48591,27.4377-29.53428,41.62248,2.40367,1.08848,4.25554,2.07298,6.20587,2.78912,46.28682,16.99963,92.39287,15.38359,138.17679-1.82707,23.80989-8.95035,44.18507-22.7344,59.65928-43.43993,6.42642-8.59888,10.0714-16.56067,1.74916-25.81439-.8278-.92045-1.17612-2.26016-1.80904-3.36984-15.77539-27.66007-24.15602-57.98283-32.00408-89.02337-16.43044,3.09234-32.93412,3.00586-49.4253-.20533-15.65236-3.04785-30.38084-8.51225-43.86419-16.99329-2.14172-1.34714-4.12289-4.60079-4.22091-7.05126-.08614-2.15062,2.18644-5.73673,4.11578-6.30158,2.66037-.7787,6.32676-.01259,8.9568,1.30304,18.29772,9.15309,37.25032,15.6546,57.91309,16.66075,36.34475,1.76983,86.26798-17.55994,98.16178-72.67272,3.44674-15.97112,5.47629-32.40637,6.42072-48.72918,2.50161-43.23195,4.07451-86.518,5.95671-129.78509,.20855-4.79466,.02814-9.60628,.02814-13.71564-4.25124,3.50296-8.119,6.78897-12.09509,9.93812-3.92395,3.10794-7.95766,6.07741-11.94329,9.10759-.32135-.45366-.64278-.90728-.9642-1.3609,5.04512-15.06728,10.09024-30.13451,15.13535-45.20175-11.76303,16.62768-24.23145,31.98453-41.36657,42.86656l-1.40546-.9321c6.47246-11.70408,12.94485-23.40817,19.99764-36.1618-11.82126,10.03093-22.69998,19.11412-33.40837,28.394-9.09422,7.88098-19.66097,12.18835-28.36364,10.79661,15.27324-7.12461,20.84779-20.53226,25.93418-36.28475-6.50147,3.89864-12.29207,6.20548-16.567,10.1542-12.53814,11.58136-24.94285,23.19948-41.37079,30.48547,1.1708,.9782,2.01142,1.36031,2.33003,2.00182,1.42969,2.87837,4.0466,6.03964,3.63176,8.69138-.34456,2.20285-4.05762,4.68437-6.74957,5.51467-3.54765,1.09431-7.68329,.16291-11.34186,1.03915-9.84276,2.35724-20.30358,3.76986-29.12578,8.2828-8.48764,4.34178-17.96027,7.15428-25.29203,13.98184-16.3794,15.25286-33.17136,30.06152-49.70561,45.1494-6.45746,5.89249-12.79235,11.93056-18.97594,18.10977-12.64426,12.63537-12.6527,28.09965-9.60466,44.21659,4.61234,24.38844,8.61907,49.0188,31.04953,64.91782,3.81319,2.7028,7.22733,5.97263,10.7982,9.01282,2.43642,2.07431,5.11109,3.96877,7.11891,6.40565,1.06817,1.29647,.94458,3.5754,1.35887,5.41091-2.07481,.24716-4.47082,1.26535-6.15088,.565-2.6703-1.11311-4.95554-3.26248-7.23695-5.17267-3.82718-3.20454-7.52336-6.56578-11.27464-9.86103Zm166.0033,333.23896c-.3147-.59518-.62949-1.19029-.94419-1.78547,2.52295-1.90909,4.78904-4.40984,7.60911-5.63462,24.94567-10.83441,50.64425-18.71778,78.12311-19.70422,5.03386-.18062,10.28206-1.07848,14.92813-2.91735,2.88229-1.14072,6.60902-4.63128,6.67555-7.15377,.06762-2.56065-3.7437-5.38433-6.17339-7.76952-.94278-.92561-2.72634-1.11945-4.1748-1.38529-14.43723-2.65033-28.51114-1.93263-42.71856,2.49755-22.32806,6.96236-44.95855,12.95743-67.47944,19.29638-13.54901,3.81357-24.44086,11.56979-34.02128,21.71746-12.15434,12.87385-24.36621,25.73558-37.25736,37.85301-6.28986,5.91227-8.67665,12.19211-7.7928,20.41677,.77441,7.20569,.95084,14.47557,1.72313,21.68157,1.68202,15.69198,3.17964,31.49764,11.42362,45.50673,3.07513,5.22568,5.65631,9.19141,14.2372,8.39238,19.77978-1.84192,38.46607-7.22094,56.84297-13.79243,5.49497-1.96507,11.02739-7.05799,13.99324-12.19164,6.09335-10.5473,14.51134-16.37817,26.19378-18.25364,4.62528-.74265,9.2468-1.53229,13.8373-2.46291,15.16068-3.07295,29.48035-7.59343,37.88817-22.95365-2.28548,.26147-4.15588,.54506-6.03691,.67978-15.72388,1.12688-31.44651,2.27611-47.17766,3.29329-3.26125,.21088-7.20795,.08249-5.9922-4.73613,.36903-1.46255,3.77958-2.97631,5.85744-3.06591,32.22139-1.39077,64.20788-4.61095,95.71598-11.72617,3.01556-.68104,5.85767-2.12998,8.78037-3.22237-.14055-.73084-.28101-1.46176-.42156-2.19261-1.97765-.27601-3.95444-.78581-5.93311-.793-32.64263-.1194-65.28644-.08359-97.9265-.42504-2.53835-.02651-6.26954-1.99799-7.30824-4.11499-1.88072-3.83335,1.72525-5.79193,4.92325-6.55265,13.84269-3.29259,27.66795-6.73545,41.63789-9.3972,19.84607-3.78143,39.84386-6.76251,59.70642-10.4634,4.52593-.84336,8.76404-3.23277,14.61874-5.48042-2.80764-1.11812-3.75042-1.74606-4.75011-1.85553-46.1442-5.05421-92.38024-2.82337-138.6073-1.30499Zm234.56209-160.40157c-1.13383-.34583-2.11296-.85845-3.12-.92077-36.80547-2.27823-73.63283-4.24916-110.41023-6.91052-11.80524-.85423-18.13841,4.68695-22.83412,14.42897-10.07437,20.90139-20.50815,41.62913-30.70032,62.47414-5.7584,11.77684-11.3292,23.64548-17.24706,36.02196,2.08028,0,3.71822,.11705,5.33434-.02088,6.12438-.52247,10.79797-1.87664,12.1448-9.61754,1.14039-6.55452,4.56001-12.81208,7.59308-18.8905,1.30369-2.61233,4.18019-4.43932,6.34208-6.62309,.68569,.51856,1.3713,1.03711,2.05699,1.55567,.29462,12.29821-12.21508,19.19044-14.16888,31.21311,3.83672-.20423,7.60707-.75844,11.32959-.53021,8.0248,.49221,16.15959,.72083,23.99671,2.30669,7.56119,1.52995,11.67509,6.99387,12.32865,15.01555,.63816,7.8316-2.09889,14.1424-8.76224,17.82266-4.51991,2.49638-9.85901,4.02304-15.00778,4.77202-17.2555,2.51022-34.61747,4.28341-51.88032,6.74828-6.65772,.95056-13.15856,2.99937-19.73093,4.54777,.12139,.5668,.24287,1.1336,.36426,1.7004,1.03612,0,2.09373,.13808,3.10514-.02009,32.40805-5.06649,64.99941-5.50028,97.66166-3.76376,11.80047,.62748,23.9756,.01681,33.90176,8.4174,.53756,.45499,1.58142,.31151,3.10366,.56594,24.74954-53.17992,49.53724-106.44209,74.59914-160.2932Zm-502.23151,48.90738c-9.32145,19.24337-11.616,39.15378-6.28021,60.30812,10.02883-3.82412,19.31206-7.36387,28.05671-10.69829-5.63689-17.27619-9.68747-34.96201-21.7765-49.60984Zm418.11621,122.87039c-8.9124,3.16912-17.16068,6.61012-25.70358,8.99523-8.3764,2.33867-17.02319,3.76861-25.60541,5.29222-8.47693,1.505-17.02147,2.62797-25.53638,3.9185l.1278,.42426c21.56678,.69691,43.13364,1.39382,65.66587,2.12192,3.17862-5.96849,7.1383-13.40374,11.0517-20.75213Zm-188.92723-589.31628c-20.3669,4.5016-32.59706,18.64561-44.52268,35.27477,19.40371-7.3365,30.6961-22.64582,44.52268-35.27477Zm125.29826,638.90015c-.00883,.21197-.01759,.42403-.02634,.636,9.53493,0,19.07002,.03761,28.60463-.01267,6.87394-.03628,7.28119-.40002,9.97033-7.7434-6.53164,1.27231-12.95439,2.57402-19.3977,3.76423-6.3728,1.17715-12.76647,2.24179-19.15092,3.35584Z"/><path d="M974.41159,1504.19682c4.613-1.31547,8.63436-2.65612,12.75045-3.56922,2.87041-.63647,6.24578-1.67827,8.71612-.74296,2.95108,1.11718,6.94546,3.95752,7.21217,6.40831,.25835,2.37244-3.15674,6.54498-5.82938,7.50797-3.99579,1.43979-8.75286,.87026-13.18944,.9411-2.54452,.0405-5.09577-.3431-8.76458-.62067,0,5.80812,.3541,11.48019-.17252,17.06937-.21371,2.26814-2.34504,4.3555-3.60378,6.52512-1.61792-1.9033-4.3588-3.63709-4.67585-5.73697-2.51021-16.62353-5.424-33.25754-6.57432-50.00086-2.63121-38.29784-4.97328-76.6393-6.18449-115.00251-.81365-25.77084,.45283-51.61017,.9474-77.41589,.06308-3.29001,1.08724-6.56164,3.24491-10.16644,.6373,2.13428,1.70148,4.23994,1.84703,6.40729,1.77074,26.37846,3.4909,52.76105,5.05184,79.15288,1.40992,23.83767,2.60721,47.688,3.88346,71.25826,5.62786-1.1042,10.90701-2.64064,16.27277-3.05551,5.65123-.43677,9.41619,3.52168,9.02168,8.31896-.38717,4.70751-4.89683,7.83293-10.35014,6.99489-4.37115-.67197-8.70948-1.55864-14.16333-2.55009,1.54468,19.74066,3.03253,38.75603,4.56001,58.27698Z"/><path d="M692.70593,1466.85587c-4.06294-3.29024-7.80132-5.36869-10.17505-8.48676-2.79513-3.67165-2.35481-8.34351,.93356-11.71835,2.9073-2.98389,6.30253-5.78576,9.99518-7.65325,9.83228-4.97242,19.88492-9.52747,29.99673-13.9094,1.63629-.70887,4.02409,.31761,6.06451,.54201-.4146,1.99682-.19839,4.51485-1.34676,5.90523-7.16777,8.67738-14.38283,17.34789-22.12889,25.50093-3.48356,3.66665-8.2296,6.13308-13.33929,9.81959Z"/><path d="M928.65401,1402.90636c6.32324,.07381,8.63529,3.40784,5.68797,7.80932-7.06185,10.5455-16.78423,18.16529-28.82671,22.15439-5.96711,1.97696-12.24486-5.64595-10.1437-11.64423,.55218-1.57663,1.30892-3.38282,2.54218-4.37145,9.33005-7.47779,20.10824-11.777,30.74026-13.94802Z"/><path d="M1014.18909,1347.26501c-9.44527-2.05077-15.03389-9.4216-20.19915-17.00792-2.22521-3.26835-3.60057-7.22743-4.80788-11.04811-1.39483-4.41399,1.98875-8.24984,6.03019-6.47446,11.42636,5.01918,21.83529,11.76292,27.65794,23.33647,2.97132,5.90617-1.8056,11.83689-8.6811,11.19401Z"/><path d="M791.70528,1475.82021c10.18341,3.58721,20.53285,6.6998,30.41469,10.91018,6.09898,2.59857,8.33411,8.81031,5.72205,13.02272-3.16275,5.10065-8.23898,5.42045-12.86989,2.82861-9.37-5.24421-18.51119-10.93317-27.44071-16.89689-1.57657-1.05291-2.58322-4.54504-2.12781-6.51074,.31361-1.35347,3.6044-2.01668,6.30167-3.35389Z"/><path d="M938.7609,1518.48794c-1.46221,4.58945-2.65443,10.01709-4.92255,14.94964-2.03338,4.42228-6.1995,6.29227-11.15934,4.90893-4.82007-1.3444-6.6972-4.90627-6.39398-9.68588,.58345-9.19672,3.82476-17.23795,10.78343-23.49269,4.0237-3.61645,7.96735-2.66847,9.59395,2.46236,1.01329,3.1961,1.3097,6.61958,2.0985,10.85764Z"/><path d="M792.85896,1324.17907c2.10499,.40956,4.35138,.32637,6.03168,1.26121,8.3277,4.6337,16.8341,9.07975,24.53708,14.62171,2.31596,1.66623,3.68054,7.08653,2.79779,9.96314-.64793,2.11145-5.79506,4.25792-8.72464,3.9977-10.48201-.93109-24.80661-18.42644-24.64191-29.84376Z"/><path d="M538.81695,1515.40709c-.09705,7.72612-4.60105,12.10758-10.27944,12.17624-7.65104,.09258-19.40305-11.336-19.69802-19.02897-.17162-4.47592,1.40726-7.31844,6.23999-5.9914,6.28779,1.72644,12.67806,3.49479,18.4981,6.32683,2.73135,1.32923,4.23182,5.18932,5.23936,6.5173Z"/><path d="M924.25558,1274.74094c-2.15548,6.42684-3.80717,12.79902-6.43619,18.73842-2.15658,4.87171-6.62966,6.71395-11.69448,4.3426-4.86947-2.27987-7.19216-6.79644-4.73143-11.58871,3.04566-5.93182,7.07944-11.46439,11.38141-16.58514,1.5657-1.86366,5.68609-3.40588,7.62357-2.61163,1.89417,.77658,2.49176,4.71776,3.85712,7.70446Z"/><path d="M426.16763,1063.65152c-7.9727,.63326-15.41652,1.22446-24.00011,1.90628,3.66319,8.43406,8.28557,13.76091,14.59924,16.80892,6.77857,3.27241,14.20832,5.18815,21.32856,7.76577,1.32995,.48149,2.94087,.97777,3.74597,2.0001,12.78211,16.23032,30.58549,24.88182,49.03293,32.44452,21.27248,8.72078,38.87645,21.86689,51.90608,41.0262,3.09768,4.55489,6.98083,8.61702,10.78671,12.63678,3.99759,4.22227,8.4405,3.54107,12.50062,.01142,3.97672-3.45702,3.59354-7.29678,.53033-11.28659-6.32774-8.24155-12.55589-16.5595-18.9895-25.06353,10.75791-7.19083,20.5939-13.76537,30.95827-20.69317,13.85797,13.11037,31.33711,20.89873,48.97712,28.46332,4.28931,1.83942,8.0857,2.84667,11.50261-1.27075,3.43927-4.14455,2.48394-7.93528-.31787-12.18851-17.11246-25.97703-21.25356-53.44788-8.88418-82.64047,.40964-.96674,.93567-1.88415,.93114-1.87516,87.29956,27.32213,165.77223,19.76654,230.40589-52.54369,9.04122,15.43817,17.65619,32.1535,23.55436,50.17679,.3602,1.10084,.35606,2.60545-.10428,3.64483-3.25257,7.34455-6.6689,14.61655-9.85448,21.52457-5.44385-1.59336-10.19154-3.32113-15.09056-4.24799-1.92418-.36413-5.07552,.45874-6.02855,1.85827-.83483,1.22602-.01032,4.52744,1.18964,6.02072,3.84438,4.78398,8.20326,9.15419,12.5018,13.83465-2.12937,7.38889-4.21372,15.18867-6.71627,22.85177-.53428,1.63605-2.36239,3.56344-3.975,4.02429-19.22807,5.49606-38.5272,10.74418-57.81515,16.02999-.57438,.1574-1.2295,.01978-1.78497,.01978-1.17307-13.31249-8.78014-24.17396-13.56433-36.07825-.42187-1.04955-2.29087-2.21255-3.37037-2.10816-1.09482,.10571-2.8271,1.63519-2.93865,2.68388-1.49911,14.09182-2.12922,28.08589,7.55071,40.27839-24.40756,12.17678-38.21093,35.02691-54.21082,55.6544-4.12156,5.31372-7.87503,10.42579-15.06039,11.40645-.60439,.08241-1.24545,.84969-1.72837,.72983-15.12988-3.75532-25.0526,7.42329-36.44801,13.35956-52.91065,27.56304-104.8691,57.04931-161.22516,77.41378-8.59828,3.10696-17.26363,6.02822-25.46482,8.88451,0-11.00221,.16157-21.72927-.03193-32.45-.47702-26.4267-.91214-52.85793-1.8738-79.26876-.18072-4.9621-2.72548-9.83804-4.17929-14.75377l-3.16569,.05935c-2.81315,15.71817-5.62634,31.43634-8.41255,47.00407-2.90234,0-5.70263-.38133-8.31875,.14801-1.4864,.30072-3.16143,1.8786-3.78122,3.30361-.30079,.69167,1.40745,3.10946,2.584,3.45374,7.56349,2.21325,8.76795,6.71403,8.01073,14.35485-2.11984,21.39204-2.98457,42.90847-4.41164,65.43434-6.41884,1.85373-14.12761,3.48149-21.37062,6.30478-12.45783,4.85623-24.69174,10.31265-36.8528,15.88167-2.16123,.98973-3.51295,3.74828-4.44936,6.92577,19.55606-8.77715,39.38857-15.13636,60.67613-17.23123,2.30451,3.04723,4.56223,6.66915,7.45031,9.68744,3.4793,3.63631,8.16081,5.93573,12.44207,1.98493,3.85048-3.55312,1.35829-7.78148-1.12026-11.4045-.81822-1.19615-1.66748-2.37104-2.7351-3.88542,78.9658-19.20967,149.47054-56.79973,220.4025-96.49287-1.28938,31.47442,.51638,61.46784,20.83466,87.31585-71.54129,53.68143-146.44438,101.21993-224.63917,144.93087-.5845-2.08048-.57801-3.78644-1.4252-4.70329-1.63453-1.76897-3.67049-4.14157-5.69118-4.29702-1.91707-.14731-4.59761,1.80369-5.90571,3.59112-1.5641,2.13725-2.84238,5.09221-2.80564,7.67248,.08966,6.29712-3.84368,8.60592-8.62494,10.9069-14.19476,6.831-27.95064,14.67707-42.46081,20.7282-29.79275,12.42457-54.34148,4.11593-71.53757-23.23263-11.26928-17.92243-17.40981-37.94598-22.46626-58.19832-4.94831-19.81885-8.59175-39.96438-12.73982-59.98074-.41976-2.02528-.37036-4.14783-.52906-6.10665,5.69389-.83663,10.94905-1.46012,16.14319-2.41514,4.89003-.89903,7.84783-3.84508,6.43455-9.00093-1.38858-5.06578-4.88483-7.13673-10.30203-5.33867-4.41923,1.46669-8.96637,2.5479-14.48312,4.08606-.84142-12.33793-2.03309-24.31494-2.40877-36.31751-1.29442-41.35523,2.74323-82.23967,11.45358-122.68218,.91421-4.24486,2.32003-7.10475,7.28991-7.97735,5.82793-1.0232,11.44543-3.23332,17.16397-4.89509,5.2548-1.5269,7.9534-5.65901,6.02456-10.0497-2.04456-4.6538-5.79487-6.04066-10.49112-3.85071-4.80893,2.24265-9.53079,4.67233-15.07497,7.40695,1.33999-5.0001,2.48433-9.72232,3.87029-14.37236,15.39389-51.64817,36.86351-100.39182,69.34172-143.77569,14.21856-18.99285,31.56528-34.65449,51.89138-46.95575,1.27414-.77111,2.58634-1.48233,3.90711-2.17095,.31904-.16654,.74248-.13269,2.88596-.46531-33.74961,32.99553-54.28555,69.55215-40.94841,117.62805Zm-14.70164,371.93158c4.06188-2.848,7.71408-4.43995,9.98842-7.17723,8.15816-9.81943,10.48553-22.14704,13.4273-34.11545,.30153-1.22696-.75835-3.77392-1.70871-4.07871-1.24326-.39861-3.30432,.46132-4.4868,1.42603-2.7852,2.27205-5.23526,4.95147-7.86167,7.42274-5.57787,5.24796-11.38333,10.27309-16.70387,15.76892-3.51983,3.63568-4.69379,8.66284-1.95932,12.96861,1.93583,3.04816,5.73714,4.91065,9.30465,7.78508Zm-37.19096-206.45383c-.37239,.55867-.74478,1.11726-1.11718,1.67585,.97675,1.77163,1.73994,3.70903,2.96476,5.28815,8.3288,10.73816,19.86878,17.04232,31.9863,22.25416,6.15581,2.64775,11.64066-.14606,13.39393-5.7035,1.69445-5.37119-.86082-9.83256-7.25219-12.05653-9.19146-3.19821-18.4023-6.36163-27.70961-9.19571-3.95194-1.20335-8.16926-1.53472-12.266-2.26243Zm163.76515,15.70284c-9.45535,.12534-16.33132,4.92355-21.88156,12.16818-2.70305,3.52849-1.91297,6.3757,1.79216,8.37072,7.08112,3.81271,14.56351,5.89937,22.67133,4.22837,7.61047-1.56865,11.75611-6.9626,10.91964-14.0019-.79368-6.67908-5.83868-10.68061-13.50156-10.76537Zm54.76011,113.36122c5.57021-.41613,8.95047-2.97545,9.66825-7.67514,.78199-5.1202-2.34324-8.29425-6.92994-10.17691-7.84005-3.21768-15.60925-6.6166-23.52063-9.64569-1.68022-.64319-3.84246-.0269-5.78259,.00907,.18432,1.78289-.16282,3.86244,.63945,5.30035,5.10312,9.14637,12.33022,16.21429,21.74445,20.90585,1.48015,.73765,3.20129,.99176,4.18101,1.28247Zm109.15759-259.92251l.00305-.71771c-4.67484,0-9.36851-.24301-14.0156,.11619-1.93692,.14973-3.77481,1.58147-5.65772,2.43031,1.4651,1.58061,2.63887,3.92186,4.4444,4.61369,9.10391,3.48853,18.33406,6.66328,27.59705,9.71387,5.71384,1.88165,9.23273-.23551,10.17653-5.64322,.95427-5.4676-1.75651-9.30369-7.24609-9.77134-5.08467-.43325-10.19983-.5087-15.30162-.74179Zm-57.34149,130.25435c6.23288,.5632,10.11951-4.48592,6.92275-8.60764-5.41255-6.9787-12.05467-13.01952-18.38667-19.24408-.659-.64796-3.39562-.39205-3.95921,.356-.85629,1.13657-1.3833,3.45405-.78055,4.60423,3.51193,6.70128,7.19978,13.33306,11.2794,19.69906,1.11679,1.74255,3.7845,2.49059,4.92427,3.19242Z" style="fill:#fff;"/><path d="M648.80086,838.93615c3.75128,3.29524,7.44745,6.65648,11.27464,9.86103,2.28141,1.91018,4.56665,4.05955,7.23695,5.17267,1.68006,.70035,4.07607-.31784,6.15088-.565-.41429-1.83551-.29071-4.11444-1.35887-5.41091-2.00782-2.43687-4.6825-4.33134-7.11891-6.40565-3.57087-3.04019-6.98501-6.31002-10.7982-9.01282-22.43046-15.89902-26.43719-40.52938-31.04953-64.91782-3.04804-16.11694-3.0396-31.58123,9.60466-44.21659,6.1836-6.17921,12.51848-12.21729,18.97594-18.10977,16.53425-15.08788,33.32621-29.89654,49.70561-45.1494,7.33177-6.82756,16.8044-9.64006,25.29203-13.98184,8.82219-4.51294,19.28302-5.92556,29.12578-8.2828,3.65857-.87624,7.79421,.05516,11.34186-1.03915,2.69195-.8303,6.40501-3.31182,6.74957-5.51467,.41484-2.65174-2.20207-5.81301-3.63176-8.69138-.31861-.64151-1.15923-1.02363-2.33003-2.00182,16.42794-7.28599,28.83265-18.9041,41.37079-30.48547,4.27493-3.94872,10.06553-6.25556,16.567-10.1542-5.08639,15.7525-10.66094,29.16015-25.93418,36.28475,8.70268,1.39175,19.26942-2.91563,28.36364-10.79661,10.70839-9.27988,21.5871-18.36307,33.40837-28.394-7.05278,12.75363-13.52517,24.45771-19.99764,36.1618l1.40546,.9321c17.13512-10.88203,29.60354-26.23889,41.36657-42.86656-5.04512,15.06724-10.09024,30.13447-15.13535,45.20175,.32143,.45362,.64285,.90724,.9642,1.3609,3.98563-3.03018,8.01933-5.99965,11.94329-9.10759,3.97609-3.14915,7.84384-6.43516,12.09509-9.93812,0,4.10936,.18041,8.92099-.02814,13.71564-1.88221,43.26709-3.4551,86.55315-5.95671,129.78509-.94443,16.32281-2.97398,32.75807-6.42072,48.72918-11.8938,55.11278-61.81703,74.44255-98.16178,72.67272-20.66277-1.00615-39.61537-7.50766-57.91309-16.66075-2.63004-1.31563-6.29643-2.08173-8.9568-1.30304-1.92934,.56485-4.20192,4.15096-4.11578,6.30158,.09802,2.45048,2.07919,5.70413,4.22091,7.05126,13.48335,8.48105,28.21184,13.94544,43.86419,16.99329,16.49118,3.21119,32.99486,3.29767,49.4253,.20533,7.84806,31.04054,16.22869,61.3633,32.00408,89.02337,.63293,1.10967,.98124,2.44938,1.80904,3.36984,8.32223,9.25372,4.67726,17.21551-1.74916,25.81439-15.47421,20.70553-35.8494,34.48959-59.65928,43.43993-45.78392,17.21066-91.88997,18.8267-138.17679,1.82707-1.95033-.71614-3.80221-1.70064-6.20587-2.78912,10.04838-14.18478,19.60961-28.03648,29.53428-41.62248,24.75892-33.89292,25.47408-69.39272,7.04364-105.99876-7.94898-15.78807-16.73264-31.15556-25.1339-46.71586-.57324-1.06174-1.11933-2.13811-1.67803-3.20767,.22227-.18789,.4445-.37586,.66677-.56383Zm155.13912-23.28299c10.72535-.375,21.05556-4.25417,29.73393-12.27233,5.13822-4.74739,5.75777-9.73326,1.72767-13.85052-4.08045-4.16855-7.79772-3.79433-13.04514,1.31344-12.71269,12.37429-28.64536,12.63318-41.58896,.45397-3.23834-3.04707-5.82805-6.774-8.92084-9.99153-.8969-.93312-2.90097-1.96578-3.69672-1.56396-1.25022,.63115-2.42946,2.34821-2.68101,3.77447-.31642,1.79423,.12757,3.81099,.59595,5.64134,3.73987,14.61194,20.13419,26.35031,37.87512,26.49511Zm11.19217-45.70424c12.84925,.20611,23.1471-9.10547,24.49534-22.1576,1.32706-12.84656-6.48427-23.60622-19.27794-26.00471-1.83015-.34302-4.00572,1.1569-6.02144,1.80392,.83139,1.71369,1.35035,3.69941,2.55719,5.08619,2.76566,3.17804,6.37702,5.71539,8.71909,9.14543,4.08146,5.97748,3.81725,12.45272-.11092,16.49053-4.71689,4.84841-10.36046,4.69626-15.89311,1.86139-4.70235-2.40943-9.12635-5.38519-13.57106-8.26837-3.81178-2.47253-6.98032-1.63566-9.26509,1.88962-2.22333,3.43059-2.04839,7.03391,1.49004,9.62763,8.00948,5.87083,16.596,10.40492,26.8779,10.52595Zm50.1482-79.68379c-2.16838-6.05309-3.44861-11.97341-6.29971-17.00276-3.72345-6.56789-11.28808-6.70058-16.04851-1.10498-7.14393,8.39723-7.20498,27.04729-.11577,35.35531,4.83844,5.67004,11.5143,6.06599,15.48867-.15044,3.20325-5.01035,4.63692-11.15273,6.97532-17.09713Zm-94.23501-1.24393c-2.03651-5.8591-3.1103-11.89334-6.07334-16.78171-4.42845-7.30616-12.31849-6.73076-17.10378,.42856-5.79053,8.66331-5.68735,24.22831,.21731,32.79372,4.86385,7.05556,12.75842,7.34682,17.06899-.0821,2.78262-4.7954,3.88034-10.56904,5.89082-16.35847Zm65.22703-70.46846c-6.60019-.48869-10.18716,1.29964-10.92476,6.4406-.78223,5.452,2.25507,8.29273,7.4226,9.18308,3.35028,.57724,6.84603,.7378,10.02059,1.82977,10.5988,3.64573,21.0554,7.70427,31.63607,11.40536,1.80631,.63189,3.95499,.28465,5.94546,.3897-.40483-2.13701-.49543-4.40418-1.30986-6.3716-.70382-1.70044-2.10663-3.1778-3.41274-4.55196-11.16598-11.74791-25.98085-15.40087-39.37735-18.32495Z" style="fill:#fff;"/><path d="M814.80415,1172.17512c46.22706-1.51837,92.4631-3.74922,138.6073,1.30499,.99969,.10947,1.94247,.73741,4.75011,1.85553-5.8547,2.24765-10.09281,4.63707-14.61874,5.48042-19.86256,3.7009-39.86035,6.68197-59.70642,10.4634-13.96995,2.66175-27.7952,6.10462-41.63789,9.3972-3.19801,.76071-6.80398,2.7193-4.92325,6.55265,1.0387,2.117,4.76989,4.08848,7.30824,4.11499,32.64005,.34146,65.28386,.30565,97.9265,.42504,1.97867,.00719,3.95546,.51699,5.93311,.793,.14055,.73084,.28101,1.46176,.42156,2.19261-2.9227,1.09239-5.76481,2.54134-8.78037,3.22237-31.5081,7.11522-63.4946,10.33541-95.71598,11.72617-2.07786,.08961-5.48841,1.60337-5.85744,3.06591-1.21575,4.81862,2.73095,4.94701,5.9922,4.73613,15.73115-1.01718,31.45378-2.16641,47.17766-3.29329,1.88103-.13472,3.75144-.41832,6.03691-.67978-8.40783,15.36022-22.7275,19.8807-37.88817,22.95365-4.59049,.93062-9.21202,1.72026-13.8373,2.46291-11.68244,1.87547-20.10043,7.70634-26.19378,18.25364-2.96585,5.13365-8.49827,10.22656-13.99324,12.19164-18.3769,6.57149-37.06319,11.9505-56.84297,13.79243-8.58089,.79902-11.16207-3.1667-14.2372-8.39238-8.24399-14.00909-9.74161-29.81475-11.42362-45.50673-.7723-7.206-.94872-14.47589-1.72313-21.68157-.88385-8.22466,1.50294-14.5045,7.7928-20.41677,12.89115-12.11744,25.10302-24.97916,37.25736-37.85301,9.58042-10.14767,20.47227-17.9039,34.02128-21.71746,22.5209-6.33895,45.15139-12.33402,67.47944-19.29638,14.20742-4.43017,28.28133-5.14788,42.71856-2.49755,1.44845,.26585,3.23201,.45968,4.1748,1.38529,2.4297,2.38519,6.24101,5.20887,6.17339,7.76952-.06652,2.52249-3.79326,6.01306-6.67555,7.15377-4.64607,1.83888-9.89427,2.73673-14.92813,2.91735-27.47886,.98645-53.17744,8.86981-78.12311,19.70422-2.82007,1.22477-5.08616,3.72552-7.60911,5.63462,.3147,.59518,.62949,1.19029,.94419,1.78547Z" style="fill:#fff;"/><path d="M1049.36624,1011.77355c-25.0619,53.8511-49.84959,107.11328-74.59914,160.2932-1.52224-.25443-2.5661-.11095-3.10366-.56594-9.92616-8.40059-22.10129-7.78993-33.90176-8.4174-32.66225-1.73652-65.25361-1.30273-97.66166,3.76376-1.01142,.15818-2.06903,.02009-3.10514,.02009-.12139-.5668-.24287-1.1336-.36426-1.7004,6.57236-1.5484,13.0732-3.59721,19.73093-4.54777,17.26285-2.46487,34.62482-4.23806,51.88032-6.74828,5.14877-.74898,10.48788-2.27565,15.00778-4.77202,6.66335-3.68025,9.4004-9.99106,8.76224-17.82266-.65356-8.02168-4.76746-13.48561-12.32865-15.01555-7.83712-1.58585-15.97191-1.81448-23.99671-2.30669-3.72252-.22824-7.49287,.32597-11.32959,.53021,1.95381-12.02267,14.4635-18.9149,14.16888-31.21311-.68569-.51856-1.3713-1.03711-2.05699-1.55567-2.16189,2.18377-5.0384,4.01076-6.34208,6.62309-3.03307,6.07842-6.45269,12.33598-7.59308,18.8905-1.34683,7.7409-6.02042,9.09508-12.1448,9.61754-1.61612,.13793-3.25405,.02088-5.33434,.02088,5.91786-12.37648,11.48866-24.24512,17.24706-36.02196,10.19217-20.84502,20.62595-41.57275,30.70032-62.47414,4.69571-9.74202,11.02888-15.2832,22.83412-14.42897,36.77741,2.66136,73.60476,4.6323,110.41023,6.91052,1.00704,.06232,1.98617,.57493,3.12,.92077Zm-108.96889,17.04607c-2.88838-3.17812-4.70923-6.92194-7.06404-7.29506-2.47488-.39228-5.83203,2.01488-8.11087,3.99614-1.97179,1.71432-3.20786,4.43674-4.35341,6.90646-2.30244,4.96343-5.36819,9.91967-6.0613,15.1516-.4103,3.09656,2.54249,7.31977,5.15995,9.78714,.98617,.9296,6.71932-.84649,7.83462-2.79467,4.56063-7.96703,8.17332-16.47701,12.59505-25.75161Z" style="fill:#fff;"/><path d="M547.13473,1060.68092c12.08903,14.64783,16.13962,32.33365,21.7765,49.60984-8.74465,3.33442-18.02788,6.87416-28.05671,10.69829-5.33579-21.15434-3.04124-41.06475,6.28021-60.30812Z" style="fill:#fff;"/><path d="M965.25093,1183.55131c-3.9134,7.34839-7.87308,14.78364-11.0517,20.75213-22.53223-.72811-44.09909-1.42502-65.66587-2.12192l-.1278-.42426c8.51492-1.29053,17.05946-2.41349,25.53638-3.9185,8.58222-1.52361,17.229-2.95355,25.60541-5.29222,8.5429-2.38511,16.79118-5.8261,25.70358-8.99523Z" style="fill:#fff;"/><path d="M776.3237,594.23503c-13.82659,12.62896-25.11897,27.93827-44.52268,35.27477,11.92562-16.62916,24.15578-30.77317,44.52268-35.27477Z" style="fill:#fff;"/><path d="M901.62196,1233.13519c6.38445-1.11405,12.77812-2.17869,19.15092-3.35584,6.44331-1.19021,12.86606-2.49192,19.3977-3.76423-2.68913,7.34338-3.09639,7.70712-9.97033,7.7434-9.53462,.05028-19.0697,.01267-28.60463,.01267,.00875-.21197,.01751-.42403,.02634-.636Z" style="fill:#fff;"/><path d="M411.466,1435.58311c-3.56751-2.87443-7.36882-4.73691-9.30465-7.78508-2.73447-4.30577-1.56051-9.33293,1.95932-12.96861,5.32054-5.49583,11.126-10.52095,16.70387-15.76892,2.6264-2.47128,5.07646-5.1507,7.86167-7.42274,1.18249-.96471,3.24354-1.82464,4.4868-1.42603,.95037,.30479,2.01025,2.85175,1.70871,4.07871-2.94177,11.96841-5.26915,24.29602-13.4273,34.11545-2.27434,2.73728-5.92654,4.32923-9.98842,7.17723Z"/><path d="M374.27504,1229.12927c4.09674,.72772,8.31406,1.05909,12.266,2.26243,9.3073,2.83408,18.51815,5.9975,27.70961,9.19571,6.39137,2.22396,8.94664,6.68533,7.25219,12.05653-1.75327,5.55744-7.23812,8.35125-13.39393,5.7035-12.11752-5.21184-23.6575-11.516-31.9863-22.25416-1.22481-1.57913-1.98801-3.51652-2.96476-5.28815,.37239-.55859,.74478-1.11718,1.11718-1.67585Z"/><path d="M538.04019,1244.83212c7.66288,.08476,12.70789,4.08629,13.50156,10.76537,.83648,7.0393-3.30916,12.43325-10.91964,14.0019-8.10782,1.671-15.59021-.41566-22.67133-4.22837-3.70512-1.99502-4.49521-4.84224-1.79216-8.37072,5.55024-7.24463,12.42621-12.04284,21.88156-12.16818Z"/><path d="M592.8003,1358.19333c-.97972-.29071-2.70086-.54483-4.18101-1.28247-9.41424-4.69156-16.64134-11.75948-21.74445-20.90585-.80228-1.43792-.45513-3.51746-.63945-5.30035,1.94013-.03597,4.10237-.65226,5.78259-.00907,7.91138,3.02909,15.68057,6.42801,23.52063,9.64569,4.5867,1.88266,7.71194,5.05671,6.92994,10.17691-.71778,4.6997-4.09803,7.25901-9.66825,7.67514Z"/><path d="M701.95789,1098.27083c5.10179,.23308,10.21695,.30854,15.30162,.74179,5.48958,.46766,8.20037,4.30374,7.24609,9.77134-.9438,5.40771-4.46269,7.52486-10.17653,5.64322-9.26298-3.05059-18.49314-6.22534-27.59705-9.71387-1.80552-.69183-2.97929-3.03307-4.4444-4.61369,1.88291-.84883,3.7208-2.28057,5.65772-2.43031,4.64709-.35921,9.34076-.11619,14.0156-.11619l-.00305,.71771Z"/><path d="M644.61641,1228.52518c-1.13977-.70183-3.80748-1.44988-4.92427-3.19242-4.07963-6.36601-7.76747-12.99778-11.2794-19.69906-.60275-1.15018-.07574-3.46765,.78055-4.60423,.56359-.74804,3.30021-1.00396,3.95921-.356,6.332,6.22456,12.97413,12.26537,18.38667,19.24408,3.19676,4.12171-.68987,9.17084-6.92275,8.60764Z"/><path d="M803.93998,815.65317c-17.74093-.14481-34.13525-11.88318-37.87512-26.49511-.46838-1.83035-.91238-3.84711-.59595-5.64134,.25154-1.42627,1.43079-3.14332,2.68101-3.77447,.79575-.40182,2.79982,.63084,3.69672,1.56396,3.09279,3.21752,5.6825,6.94446,8.92084,9.99153,12.9436,12.17921,28.87627,11.92032,41.58896-.45397,5.24742-5.10777,8.96469-5.48199,13.04514-1.31344,4.03011,4.11726,3.41055,9.10313-1.72767,13.85052-8.67837,8.01816-19.00858,11.89733-29.73393,12.27233Z"/><path d="M815.13215,769.94893c-10.2819-.12104-18.86842-4.65513-26.8779-10.52595-3.53843-2.59372-3.71337-6.19704-1.49004-9.62763,2.28477-3.52528,5.45331-4.36215,9.26509-1.88962,4.44471,2.88318,8.8687,5.85894,13.57106,8.26837,5.53265,2.83486,11.17622,2.98702,15.89311-1.86139,3.92818-4.03782,4.19238-10.51305,.11092-16.49053-2.34207-3.43004-5.95343-5.96739-8.71909-9.14543-1.20684-1.38678-1.72579-3.3725-2.55719-5.08619,2.01572-.64702,4.19129-2.14694,6.02144-1.80392,12.79367,2.39848,20.605,13.15815,19.27794,26.00471-1.34824,13.05212-11.64609,22.36371-24.49534,22.1576Z"/><path d="M865.28034,690.26514c-2.3384,5.9444-3.77207,12.08679-6.97532,17.09713-3.97437,6.21643-10.65023,5.82047-15.48867,.15044-7.08921-8.30801-7.02816-26.95808,.11577-35.35531,4.76043-5.5956,12.32506-5.46291,16.04851,1.10498,2.8511,5.02935,4.13133,10.94967,6.29971,17.00276Z"/><path d="M771.04533,689.02121c-2.01048,5.78943-3.10819,11.56307-5.89082,16.35847-4.31057,7.42892-12.20515,7.13766-17.06899,.0821-5.90465-8.56542-6.00783-24.13041-.21731-32.79372,4.78529-7.15932,12.67533-7.73472,17.10378-.42856,2.96304,4.88837,4.03683,10.92261,6.07334,16.78171Z"/><path d="M836.27236,618.55275c13.39651,2.92408,28.21137,6.57704,39.37735,18.32495,1.30611,1.37415,2.70891,2.85152,3.41274,4.55196,.81443,1.96742,.90503,4.23458,1.30986,6.3716-1.99047-.10505-4.13915,.24219-5.94546-.3897-10.58066-3.70109-21.03727-7.75963-31.63607-11.40536-3.17456-1.09196-6.67031-1.25253-10.02059-1.82977-5.16753-.89035-8.20482-3.73108-7.4226-9.18308,.73759-5.14096,4.32457-6.92929,10.92476-6.4406Z"/><path d="M940.39734,1028.81962c-4.42173,9.2746-8.03442,17.78458-12.59505,25.75161-1.1153,1.94819-6.84845,3.72427-7.83462,2.79467-2.61745-2.46737-5.57025-6.69057-5.15995-9.78714,.69312-5.23194,3.75886-10.18817,6.0613-15.1516,1.14555-2.46971,2.38162-5.19214,4.35341-6.90646,2.27883-1.98126,5.63599-4.38842,8.11087-3.99614,2.35481,.37312,4.17566,4.11694,7.06404,7.29506Z"/></svg></svg>
