<svg version="1.1" id="Layer_1" xmlns="http://www.w3.org/2000/svg" xmlns:xlink="http://www.w3.org/1999/xlink" x="0" y="0" viewBox="0 0 1366 1555" style="enable-background:new 0 0 1366 1555" xml:space="preserve"><svg y="-200"><style></style><g id="_Skin-40_00000021827204542075117920000006275075065549642647_"><path id="_Skin-42_00000119827619664562140420000015668001220712288937_" d="M887.2 523.3c7.4 43 46.8 207.9 37.9 260.8s-56.9 91-133.7 91-105.3-51.3-134.3-55.2c-29.1-3.9-50.5-66.8-50.5-66.8s-41.1-5.5-41.3-39c-.2-33.5 26.7-45.7 26.7-45.7s-9.6-132.3 14.6-166.7c24.2-34.4 87.5-50.5 144.3-50.5" style="fill:none"/></g><path d="M1056.3 1476.8c-.4-1.4-1-2.8-1.8-4.1 0-.1.1-.1.1-.2 1.6-4.7 1.7-10 1.9-15.1v-1.5c.3-9.7 0-19.3-.9-29-.9-9.6-2.2-19.5-4.2-30.2-1.6-9.1-3.7-18.8-6.3-29.8-3.7-15.3-8-30.7-12.2-45.6-6.5-23.2-13.3-47.2-17.6-71.4-5.1-28-7.9-56.9-10.7-84.9-2.5-24.9-5-50.6-9.1-75.6-2.2-13.4-4.7-25.6-7.5-37.2-3-12.4-6.7-24.5-11.1-36.5-5.7-15.7-12.8-30.9-21.1-45.5-8.3-14.5-18.1-28.2-29.2-40.6 1.6-5 3.2-10 4.8-14.9 2.6-8.2 5.4-17.4 7.2-26.6v-.2c0-.2.1-.3.1-.5 4.8-2 9.2-5 12.8-8.7 1.8-1.8 3.3-3.9 4.5-6.2 1.2-2.3 2-4.7 2.4-7.2.3-2.3.3-4.6-.1-6.9-.3-2.3-1-4.6-2-6.8 2-1.8 3.5-3.9 4.6-6.3 1.1-2.6 1.5-5.5 1.2-8.3-1.1-11.6-14.3-14.8-23.9-17.1l-.7-.2c-6.7-1.6-13.6-2.5-20.5-2.7 1.8-2.5 3.4-5.1 4.9-7.8 4-7 6.8-14.7 8.4-22.6 1.6-8.4 2.2-17 1.8-25.5-.4-8.5-1.3-17.1-2.7-25.5l-.3-2c-2-12.5-4.3-25.1-6.5-37.6 4.7-1.6 9.9-4.3 14.5-9.5 3.8-4.4 6.6-9.4 8.5-14.8 2.7-8 4.2-16.3 4.5-24.8 1.5-6.7 1.3-14.1 1.1-21.3-.1-3.3-.2-6.3-.1-9.3 1-1.1 1.7-2.5 2.1-3.9.3-1.4.3-2.9 0-4.3a9.5 9.5 0 0 0-2.1-3.8c-1.2-1.2-2.6-2.2-4.2-2.7-1.9-.6-3.8-1-5.8-1h-.1c-2-.2-3.9-.6-5.9-1.1-10.5-2.5-21.2-3.8-31.9-4-2.2-10.1-4.3-19.7-6.6-28.9-1.1-4.6-2.3-9.2-3.5-13.8 69.9-2.1 118-5.3 105.8-20.5-21.8-27.3-43.9-29.6-102.2-25.6-37.8 2.6-84.5 3.3-112.6 3.5 7.5-4.7 14.5-7.8 21.8-8 .2 0 93 3 94-2 2.6-12.9-21.7-74-81-94-80-27-148-14-202 21-50.7 32.9-55.9 126.6-53.2 182.3.1 1.6 1.4 2.8 2.9 2.8-.1 2.1-.2 4.1-.3 6.1-.1 3.7-.2 7.4 0 11.1-2 1.3-3.3 2.7-4 4.1-.8 1.6-1 3.3-.6 5 .5 1.7 1.6 3.1 3 4.1.8.5 1.7.9 2.6 1.1 1 8.2 3.3 16.2 6.6 23.7-4.6 3.2-8.3 7.5-10.8 12.6-2.5 5.2-4.2 10.7-4.9 16.5-.9 6.9-.7 14.3.5 23.9 1 7.4 2.6 15.9 7.4 22.8 2.2 3.2 5 6 8.2 8.2 3.2 2.2 6.9 3.7 10.8 4.4 1.4.3 2.9.4 4.4.4 2.6.1 5.1-.5 7.3-1.7 2.1-1.2 3.7-3 4.6-5.2 1.9 10.2 5.1 20 9.4 29.4 4.4 9.4 10 18.1 16.7 26 6.9 8.1 14.8 15.3 23.5 21.4l.3.2c1.7 1.2 3.5 2.3 5.4 3.2 1.9.9 3.9 1.4 6 1.4 1.1 0 2.1-.1 3.2-.4 2.4-.6 4.5-2.2 5.8-4.3 1-2 1.2-4.3.5-6.4-.3-.9-.8-1.7-1.5-2.3-.7-.6-1.6-.9-2.5-1h-.1l-.6-.2c-.4-.1-.7-.2-1.1-.3-.3-.1-.6-.1-.9-.2-1.3-.4-2.5-.9-3.7-1.6-3.7-2.3-7.2-4.8-10.4-7.5-6.7-5.4-13-11.4-18.9-17.8-5.8-6.4-11.2-13.1-16.2-20.1-5-7-9.5-14.4-13.3-22.1-.1-.1-.2-.3-.3-.4 0-.1.1-.2.1-.3l.1-.2c.3-1.2 0-2.5-.8-3.5-.7-1.1-1.9-1.7-3.2-1.8H598.3c-1.2-.1-2.3-.2-3.4-.6-.9-.2-1.8-.4-2.8-.5-.5 0-.9-.1-1.4-.1-1.5 0-2.9-.2-4.3-.7-2-.7-3.8-2-5.2-3.6-1.4-1.7-2.5-3.5-3.4-5.5-2.1-4.9-3.5-10.1-4.1-15.4-.7-5.3-.8-10.6-.6-16 .2-4.7 1.2-9.4 2.9-13.8s4.7-8.2 8.6-10.9c2-1.3 4.1-2.4 6.4-3.2 2.2-.8 4.4-1.2 6.7-1.2 2.1 0 4.2.4 6.2 1.2 2.1.9 4 2.3 5.5 4 .1.1.2.2.3.2.2 0 .4-.1.5-.3.1-.2.1-.4 0-.5-.3-.5-.5-.9-.8-1.4l.3.5c.3.5.6 1 .9 1.4 1.1 1.6 3 2.6 5 2.6 1.1 0 2.2-.3 3.1-1 1-.8 1.8-1.8 2.2-3 .8-2.4 1.2-5 1.2-7.5-.1-2.6-.3-5.1-.6-7.7-.2-1.7-.4-3.4-.5-5.2-.3-4.1-.4-8.3-.4-12.4 17-.9 38.2-2.1 44.1-3.4 1.5-.1 2.9-.2 4.3-.3.1 2.1.8 4.1 1.8 5.8 1.1 1.8 2.7 3.3 4.6 4.2 1.9.8 3.9 1.4 5.9 1.7l2 .3c3.6.6 6.8 2.8 8.8 6 2 3.2 3.5 6.6 4.7 10.2.4 1 .7 2 1.1 2.9l.2.6c1.5 3.4 3.4 6.7 5.6 9.7 3.1 4.2 6.7 8.1 10.6 11.5 4.7 4.1 9.9 7.4 15.5 10 6.4 2.9 13.3 4.7 20.3 5.3 2 .2 4.1.2 6.1.2 6.6 0 13.2-1 19.5-2.9 6.3-1.9 12.2-4.9 17.4-8.9 3.2-2.5 5.9-5.4 8.1-8.8 3.1-3.3 5.6-7.1 7.3-11.3 1.7-4.3 3.1-8.7 3.9-13.2 1.2-6.2 2-12.5 2.3-18.9l.1-2.5c1.8-1.6 3.9-2.8 6.2-3.5 1.9-.4 3.9-.7 6-1 .7 0 1.4-.1 2.1-.1 1.4 0 2.7 0 4.2.1 4.3.1 8.9.4 12.8 2.2l-.1.9c-.6 6.7-.1 13.5 1.4 20.1 1.5 6.8 4.3 13.2 8.4 18.7 2 2.8 4.3 5.4 6.8 7.7 6.2 5.8 13.7 10.1 21.8 12.6 4.8 1.5 9.7 2.3 14.7 2.4 1.8.4 3.7.6 5.6.7.7 4.3 1.4 8.8 2.1 13.3l.1.9c.3 2.2.7 4.5 1.1 6.7 2.3 14.2 4.7 29 4.4 43.3-.1 7.1-1 14.2-2.7 21.1-.9 3.5-2.1 6.9-3.5 10.1-1.5 3.4-3.2 6.7-5.3 9.8-7.2 11-17.3 20.8-29.9 29.2-5.9 3.9-12.1 7.4-18.5 10.3-6.3 2.9-12.8 5.4-19.5 7.5-14.1 4.3-28.7 6.5-43.5 6.4H786c-8.1-.2-16.2-1-24.1-2.5-1.6-.3-3.2-.7-4.7-1-2.6-.7-5.2-1.2-7.8-1.5-.9-.1-1.7-.2-2.6-.2-3.1.1-6.1.8-8.8 2.1-.9.4-1.5 1.2-1.8 2.1-.4 1.2-.3 2.6.3 3.7 1.8 3.2 4.6 5.8 7.9 7.5 3.4 1.5 6.9 2.7 10.6 3.3l.8.2c7.6 1.6 15.3 2.7 23 3.2 3.7.3 7.5.4 11.3.4 4.8 0 9.7-.2 14.5-.6-.3 4.1-.7 8.2-1.1 12.2-.7 7.3-1.4 14.9-1.7 22.4v.3c-2.1 11.8-4 24.1-5.7 36.5-.7-.2-1.5-.4-2.3-.4-1.4 0-2.8.4-4.1 1.1-8 4.3-16.5 7.6-25.2 10-8.8 2.4-17.7 3.8-26.8 4.4-2.9.2-5.9.3-8.8.3-6.1 0-12.2-.4-18.3-1.1-5.4-.6-10.8-1.7-16-2.8l-.3-.1-1.4-.3c3.4-14.4 6.8-27 10.2-38.6 3-10.5 6.6-20.9 10.8-31 3.2-7.6 7-15 10.7-22.2 1.3-2.5 2.6-5.1 3.9-7.6 1.2-2.6 1-5.6-.4-8-1.1-1.9-3.2-3.1-5.4-3.1h-.6c-1.7.1-3.5.2-5.3.3-2.7.1-5.6.2-8.5.2-13.8 0-27.9-1.4-41.4-2.8l-.6-.1-1.5-.2c-21.7-2.2-39.7-4.1-58.1-7.2h-.2c-.6 0-1.1.4-1.2 1-.1.5.3 1.1.8 1.2l6.9 2.4c6.7 2.3 13.5 4.7 20.5 6.4 11.1 2.7 20.3 4.7 29 6.2 8.9 1.5 18.4 2.9 28.1 4.1 4.6.6 9.4.9 13.9 1.3 1.5.1 3 .2 4.6.4-4.1 6.7-7.7 13.7-10.8 21-2.7 6.3-5.2 13.1-8.3 22.1-6.2 18.3-10.8 37.1-15.7 57.9-4.9 20.8-9.4 41.9-13.5 62.8-4 20.9-7.7 42.3-10.9 63.3-4.6 30.5-8.3 61.3-11 91.5-.8-8.9-1.8-18-2.9-27.8-1.9-15.4-4.2-30.8-7-45.9-2.8-15.3-6-30.5-9.7-45.4.7-1.2 1-2.6.8-3.9-1.1-6.7-3.5-12.5-6.1-18.7-.6-1.4-1.2-2.9-1.8-4.4-3.1-10.7-6.4-21.5-9.9-31.9-3.9-14.4-8.7-28.5-14.3-42.3-4.4-10.5-9.4-20.8-15-30.7-6.6-13.9-14-27.4-22.1-40.5-.4-1.2-1.1-2.4-2.1-3.3-1.5-2.3-3-4.7-4.5-6.9-.3-.5-.9-.8-1.5-.7-.6 0-1.2.3-1.5.7-.3.4-.3.9-.1 1.3.3.8.7 1.7 1.1 2.6-7.3-1.8-14.8-2.7-22.4-2.7-5.3 0-10.5.4-15.7 1.1-4.9.7-10 1.6-15.6 2.9-10.4 2.4-20.8 5.6-30.9 8.7-3.9 1.2-7.9 2.4-11.8 3.6-7.9 2.4-15.9 4.4-24 6l-.5.1c-4.6 1-9.4 1.6-14.1 1.8-1.9 0-3.7-.2-5.5-.5-2.5-.5-3.9-1.3-4.6-2.6-.6-1.2-.4-2.7.5-4.8 1.2-2.4 3.1-4.5 5.4-5.9 2.4-1.6 5-2.9 7.6-4 2-.4 3.9-1.2 5.6-2.2 2.1-1.3 3.6-3.2 4.4-5.5.8-2.3.7-4.8-.3-7-.8-1.8-2.1-3.3-3.6-4.4-1.6-1.2-3.5-1.8-5.4-1.9-.9 0-1.8.2-2.7.5-.6.3-1.3.5-1.9.7h-.1c-.1-.1-.2-.3-.2-.4-.3-.8-.5-.8-.6-.8h-.1c-.1-.1 0-.3.1-1.4.5-4.1 4.6-7.8 8.1-10.6 3.3-2.6 7-4.8 10.9-6.3 3.9-1.7 8.1-2.5 12.4-2.6 1.9 0 3.7.2 5.5.6.8.2 1.5.4 2.2.6 1 .4 2 .5 3.1.5 1.8 0 3.5-.6 4.9-1.8 1.3-1.2 2.3-2.7 2.8-4.4.6-1.9.6-4 .1-6-.6-2.1-1.9-3.9-3.7-5.1l-1.8-1.2c-1.9-1.3-3.7-2.8-5.3-4.5-1.7-2-2.3-3.9-1.7-5.4 1.4-3.6 8.2-6 12.7-7.6 1.1-.4 2-.7 2.7-1 6.8-2.8 13.8-4.9 21-6.5 7.2-1.5 14.5-2.5 21.8-2.8 2.1-.1 4.2-.1 6.2-.1 12.7 0 25.3 1.7 37.6 5.1 7.1 2.1 14 4.7 20.7 7.9 1.1.5 2.3 1 3.7 1.5 6.4 2.5 15.2 6 15.9 12.2.1.9.8 1.5 1.7 1.5.7 0 1.2-.5 1.4-1.1.9-3.2.9-6.7-.3-9.8-1.2-3-3-5.8-5.3-8.1-4.8-5-11.8-9-16.3-11.6-6.6-3.8-14.1-6.2-21.4-8.6l-.5-.2c-7.1-2.3-14.4-4-21.8-5-6.8-.9-13.7-1.4-20.7-1.4-9.1 0-18.2.9-27.2 2.6-18.6 3.6-32.4 9.1-42 16.8-3.5 2.7-6.1 6.4-7.5 10.6-1.4 4.2-1.4 8.7 0 12.9 0 .1.1.3.1.4v.2c0 .1.1.2.1.3-3.2.6-6.4 1.5-9.5 2.6-3.1 1.2-6.1 2.6-8.9 4.3-2.8 1.7-5.5 3.7-8 5.8-2.5 2.2-4.8 4.5-6.8 7.1-1.7 2.1-3.1 4.4-4.3 6.9-1.2 2.4-2 5-2.5 7.6-.5 2.6-.6 5.3-.2 7.9.4 2.7 1.4 5.3 2.8 7.6-.3.2-.5.4-.7.6-5.8 4.6-9.8 11.1-11.2 18.4-.6 3.3-.6 6.6.1 9.9.6 2.9 1.8 5.7 3.6 8.1 1.7 2.4 3.8 4.5 6.3 6.1 2.6 1.7 5.3 3.1 8.3 4-3.1 3-6 6.2-8.7 9.1-6.4 7-12.2 14.4-17.6 22.2-9.8 14.2-18.9 30.5-28 49.8-15.7 33.5-26.6 71.1-32.4 111.6-2.8 19.4-4.6 38.9-5.4 58.4-.5 12.6-.4 25.5-.3 37.9 0 9.5.1 19.3-.1 29-.2 10.8-.9 21.6-2.2 31.8-1.2 10.6-3.1 21.1-5.4 31.4-3.3 14.5-7.5 29.1-11.6 43.1-1.5 5.3-3.1 10.8-4.6 16.2-.9 3.3-1.9 6.6-2.8 9.8-5.3 18.6-10.8 37.9-13.6 57.4-1 7-1.6 12.4-1.9 17.5-.4 5.9-.4 11.8 0 17.6.8 10.3 4.1 19.3 7.6 28.7.6 1.5 1.1 3.1 1.7 4.7.4 1.1 1.1 2 2.1 2.7.9.6 2 .9 3.1.9.5 0 .9-.1 1.3-.2.6 5.4 2.5 10.6 5.6 15.1 3.1 4.7 7.2 8.7 11.9 11.7 4.8 3 10 5.1 15.6 6.2 7.4 1.3 14.8 2 22.3 1.8 5 0 10-.2 14.9-.3h.1l1.4-.1c3.9-.1 7.9-.3 11.7-.4 9.9-.3 20.1-.7 30.1-1.1 15.3-.6 30.7-1.3 43.8-1.8-.5-14.4-1-29.5-1.7-44.9-1-22-2.1-44.4-3.2-66.1-2.9-57.9-5.9-117.8-6-176.7-.3-.2-.6-.4-.8-.6-4.9-4.7-10.6-8.3-16.2-11.7-2-1.2-4-2.5-6-3.8-.8-.5-1.4-1.2-1.7-2.1-.2-.8-.2-1.6 0-2.4.4-1.7 1.9-2.9 3.6-3 .7 0 1.5.2 2.1.7 2 1.3 4.1 2.6 6 3.8 4.5 2.7 8.8 5.6 13 8.8 0-9.8.1-17.8.3-25.3 0-1.1.5-2.2 1.3-2.9.8-.6 1.8-1 2.8-1 1.1 0 2.1.4 2.9 1.1.7.7 1.1 1.7 1 2.7-.5 23.6-.4 48.5.2 76.2 1 45.8 3.3 92.3 5.6 137.2 1.8 35.9 3.6 73.1 4.8 109.6l5.1-.2c36.9-1.6 75-3.2 112.5-4.6l95.7-3.5c1.5 0 3.1-.4 4.5-1 1.3-.6 2.4-1.4 3.4-2.4 1.9-2.2 3.1-5 3.4-7.9.7-5.7.4-11.6-.9-17.2s-3.6-11-6.8-15.8c-.6-1-1.4-1.9-2.3-2.7 0-1.1.1-2.3.1-3.3.1-5.7.3-11.6 0-17.3-.4-7.6-1-15.4-1.6-22.9-.2-2.7-.4-5.7-.6-8.6-1.7-23.7-2.8-44.4-3.2-63.2-.5-21-.5-42.3-.2-63.3.4-21 1.1-42.3 2.3-63.3 1.2-21.1 2.8-42.3 4.8-63 2-21 4.4-42.1 7.3-62.8 2.8-20.9 6.1-41.9 9.8-62.4 3.7-20.7 7.8-41.6 12.4-62 1.3-5.7 2.6-11.9 4.1-18 7.3 3.7 15 6.3 23 7.8 7.9 1.5 15.9 2.3 24 2.3h.8c9.5 0 19-1.1 28.3-3.2s18.3-5.2 26.9-9.2v.2c-.1.8-.2 1.6-.3 2.5-4.6 36.9-8.8 75.3-12.6 117.2-7.9 86.3-11.5 163-11 234.7.1 12.4.4 31.1 2 65 .5 10.7 1.2 22.1 2.5 33.6 1.2 11.2 3.3 22.2 6.3 33 .5 2 2 3.6 3.9 4.2.1 3.2.3 6.3.5 9.3.3 4.1 1 12.1 2.2 20.2 1.4 9 3 15.5 4.9 19.5 2.1 4.3 4.9 8.3 8.4 11.7 3.4 3.4 7.5 6.1 11.9 8 5.6 2.4 11.9 3.5 19.9 3.5 4.2 0 8.6-.3 12.7-.6 1-.1 2.1-.1 3.2-.2 35.4-2.3 71.3-5.2 106.1-8 16.7-1.3 34-2.7 51.1-4l7.1-.5h.1c4.8-.4 9.8-.7 14.7-1.1h.5c6.3-.5 12.9-1 18.5-4.3 3-1.8 6-6.9 8-13.7.9-3 1.5-6.1 1.8-9.2.2-2.3 0-4.9-.5-7.3zM793.4 632.3c-.8 1.4-2.2 2.2-3.8 2.3-1.3 0-2.6-.7-3.3-1.9l-.2-.3c-2-2.9-5.2-4.9-8.7-5.6-.9-.2-1.8-.7-2.3-1.5-.5-.7-.6-1.6-.5-2.5.1-1 .5-1.9 1.2-2.7.7-.8 1.7-1.2 2.8-1.2.3 0 .6 0 1 .1 5.7 1.2 10.6 4.6 13.7 9.6.7 1.1.8 2.6.1 3.7zm55.6-25.6-.8.4c-5.7 2.6-12.4 5.4-19.3 6.7-2 .4-4.1.5-6.1.5-6.4 0-12.8-1.4-18.3-2.8l-1.5-.4c-7.5-1.9-15-3.4-22.7-4.4-4.1-.9-8.2-1.6-12.8-2.2-6.5-.9-13-1.3-19.5-1.2-3.8 0-7.6.2-11.3.6-9.9.9-19.7 3-29.1 6.3-.9.3-1.9.7-3.1 1.2-7.3 2.2-12.6 4.5-16.2 7.1l-3.6.3c-4.7.3-9.5.7-12.4 3.8-2.3.5-16.1.8-41.1 1-3.3 0-6.6 0-9.9.1.2-4.4.4-9.1 1.1-13.6.6-5.4 2.1-10.6 4.5-15.5.2-.5.5-.9.8-1.3 21.6-7.2 45.9-15.9 68.3-25 5.9-2.4 11.4-5 16.6-7.7 57.9-4.8 119.5-5.9 170.9-7.4 1.4 10.8 3 21.5 4.8 32.8.5 3.3 1 6.8 1.6 10.2-14.2 1.3-27.9 4.9-40.9 10.5zm-373.5 571.1c-1.8 0-3.4-1.2-3.9-2.9-2.6-10.5-4.9-22.9-2.3-34.4.3-1.7 1.8-2.9 3.5-2.9 1.3 0 2.6.6 3.5 1.6.7.9 1 2.2.7 3.4-2 9.1-.3 18.9 1.7 27.4 1.6.1 3.3.1 4.9.1 21.2 0 42.4-5.8 62.8-11.5 5.9-1.6 11.9-3.3 17.9-4.8.4-.1.7-.1 1.1-.1 2 .1 3.7 1.7 3.9 3.7.1.9-.1 1.8-.5 2.5-.5.8-1.4 1.4-2.3 1.6-6 1.5-12.1 3.2-18 4.8-21 5.8-42.8 11.8-64.6 11.8-2.9 0-5.7-.1-8.4-.3zm112.6 209.1c-16 8.6-31.9 18.1-48.5 29.2-14.8 9.8-29.8 20.6-46 33-.6.5-1.3.8-2.1.8-1.6-.1-2.9-1.2-3.3-2.8-.7-1.8-.1-3.8 1.4-4.9 16.1-12.4 31.2-23.2 46-33 16.6-11 32.5-20.6 48.5-29.2.6-.3 1.3-.5 1.9-.5.9 0 1.9.4 2.6 1 .7.6 1.2 1.4 1.4 2.3.5 1.6-.3 3.4-1.9 4.1zm333-772.2c.8-1.2 2.1-2 3.6-2 .7 0 1.3.2 1.9.6 2 1.4 3.7 3.1 5.1 5.2 1.3 2.1 2.1 4.4 2.2 6.9.1 1-.3 2-.9 2.7-.8.8-1.8 1.2-2.9 1.2-1 0-2-.3-2.8-.9-.9-.7-1.4-1.8-1.4-2.9v-.2c-.4-2-1.5-3.8-3.2-4.9l-.2-.1c-.8-.6-1.4-1.4-1.7-2.4-.4-1.3-.2-2.3.3-3.2zm-13.7 214c1.1-1.1 2.2-2.3 3.2-3.5 3.6.3 7.2.9 10.7 1.6 7.9 1.5 15.5 4.1 22.7 7.8.3.2.7.3 1 .5 1.2.5 2.3 1 2.4 1.8.1.5-.2 1-.9 1.5-1.5 1.4-4.4 1.6-6.5 1.8-.3 0-.5.1-.8.1-2.4.2-4.6 1.1-6.5 2.5-1.8 1.5-3 3.7-3.3 6.1-.3 2.4.3 4.7 1.5 6.8 1.2 2.1 3.2 3.6 5.6 4.1.3.1.5.1.7.2.1.1.2.3.3.3v-.2c.1.7.2 1 .2 1.1-.1-.2-.1-.3-.1-.5 0 .1 0 .3.1.4 0 .1.1.3.1.5v-.1 1c-1.9 3.5-6.6 5.2-10.8 6.7-1.5.5-2.8 1-4 1.5-.8.4-1.6.8-2.3 1.4l-.5-.2c-.9-.3-1.8-.6-2.8-1-6.5-2.4-11.5-4.2-16.2-5.8-5.2-1.7-10.5-3.4-15.6-5-4.8-1.5-9.8-3.1-14.7-4.7 13.6-6.8 25.9-15.9 36.5-26.7zm-60.6 295.1c-9 36.1-16.6 73-22.6 109.6-3 18.3-5.7 37-7.9 55.4-2.2 18.5-4.1 37.2-5.6 55.7-1.2 15.1-2.1 30.4-2.5 45.3-.5 4.2-1 8.1-1.4 11.8-1.8 15-2.7 30.1-2.8 45.2.1 7.3.3 13.9.7 20.2-.9-2.4-1.6-4.8-2.3-6.8-.7-2.2-1.3-4.5-1.9-6.8-.6-2.4-1.3-4.8-2-7.2-1-2.9-2.1-5.8-3.3-8.6-.3-.8-.7-1.7-1-2.5.3-11.3-.2-22.7-.6-33.9v-.1c-.2-3.7-.3-7.5-.5-11.2-.2-5.5-.4-11.1-.6-16.5v-.2c-.5-13.6-1-27.6-1.3-41.5-.4-18.9-.5-38.5-.4-58.2.2-18.8.6-38.4 1.3-58.2 1.3-35.1 3.5-73.4 6.9-116.9 3.1-39.9 6.9-80.7 10.2-116.7.4-3.9.7-7.7 1.1-12 1.5-16.1 3.3-74.6 4.5-96.7 3.7-.5 7.4-1.2 11.1-1.9 7.6-1.6 15.1-3.6 22.4-6.1 3.1-1.1 6.2-2.3 9.3-3.5 2.5 1.4 5.1 2.8 7.6 4.2l3.4 1.9c8.1 4.6 16.5 9.3 25 13.4 5.1 2.5 10.4 4.9 16.2 7.2l2.7 1.2c3.6 1.6 7.3 3.2 11.2 3.2 1.2 0 2.3-.1 3.5-.4.5-.1 1.1-.3 1.5-.6l-.2.4c-.6 1.2-1.3 2.4-1.9 3.6-2.3 4.5-4.5 9.1-6.8 14.1-.6.5-1.1 1.1-1.5 1.8-1.1 2.1-2.1 4.2-3.1 6.3l-.9 1.8c-5.5 11.7-10.1 24.1-14.6 36.1-.9 2.3-1.8 4.7-2.7 7.1-6.7 17.7-13.1 35.7-19.1 53.5-11.6 35.4-22.1 71.5-31.1 107.5zm56.6 276.3c-.2.9-.7 1.7-1.4 2.4-.7.6-1.6 1-2.6 1-.7 0-1.3-.2-1.9-.5-10.5-5.3-19.6-12.9-26.8-22.2-.8-.9-1-2.3-.5-3.4.8-1.4 2.4-2.3 4-2.3 1.3 0 2.6.6 3.4 1.7 6.4 8.1 14.6 14.7 23.9 19.3 1.5.7 2.3 2.4 1.9 4zm23.3-259.5c-.8 2.8-2 5.5-3.6 7.9-1.6 2.4-3.8 4.5-6.3 6.1-1.8 1.1-3.9 2-6 2.5s-4.2.7-6.4.7c-7.8 0-16-2.9-22.2-5.5-2-.8-3-2.9-2.6-5 .1-.8.5-1.6 1.1-2.1.6-.6 1.3-.9 2.1-.9.5 0 1 .1 1.5.3h.1c5.4 2.2 12.9 5.3 19.6 5.3 2.8.1 5.5-.6 8-1.8 2-1.1 3.7-2.7 4.8-4.6 1.2-2 2.1-4.2 2.6-6.5 1-4.6 1.4-9.2 1.3-13.8v-.3c.1-2.1 1.9-3.7 4-3.6 1.1 0 2.2.4 2.9 1.2.7.7 1.1 1.7 1 2.7.2 4.4-.1 11.2-1.9 17.4zm47.5 353.3c-.7.8-1.7 1.2-2.8 1.1-1 0-2-.3-2.9-1-.9-.7-1.5-1.7-1.6-2.9-3.4-27.4-6.3-57.6-8.3-87.1-2.1-31-3.2-61.3-3.2-87.5 0-1.1.4-2.2 1.2-2.9.8-.6 1.7-1 2.7-1 1 0 2 .3 2.8 1 .8.7 1.3 1.8 1.3 2.9 0 26.2 1.1 56.4 3.2 87.5 2 29.6 4.9 59.7 8.3 87.1.1 1-.1 2-.7 2.8z"/><path d="M605.8 699.7c-7.1-4.6-16.2-5-23.8-1.3-.3.1-.5.4-.4.7.1.4.4.7.8.8 4.3.7 8.3 2.6 11.5 5.5 3.3 2.9 5.6 6.6 6.7 10.8l.1.3c.4 1.7 1.4 3.1 2.8 4.2 1.3.9 2.8 1.3 4.3 1.3 1.6 0 3.2-.4 4.6-1.2 1.4-.7 2.6-1.9 3.4-3.2.6-1.1.9-2.3.9-3.5 0-1.5-.5-2.9-1.2-4.1-2.2-4.2-5.6-7.7-9.7-10.3z"/><g id="face_With_Mask_Cheers_00000003810844038683326970000013508115129083727022_" transform="translate(0 2061)"><path id="_Ink-30_00000157997899216886752890000007851807613283335066_" d="M714.9-1443h-.2c-.4-.1-.8-.2-1.1-.5-1.5-1.3-2.2-3.4-2.2-6.3.2-3.7 1.1-7.3 2.8-10.6 1.6-3.1 3.3-6.1 5.4-9 2-2.9 4.3-5.5 6.9-7.8 5.6-5.1 12.1-9.1 19.2-11.7 3.5-1.3 8.7-3 13.7-3h.8c1.7.1 3.5.4 5.1 1 1.7.6 3.2 1.6 4.5 2.8 1.6 1.6 2.6 3.8 2.5 6.2 0 2.4-.9 4.6-2.5 6.3-1.5 1.5-3.4 2.5-5.4 3.1-1.9.5-3.9.9-5.9 1-1.9.2-3.8.5-5.7.8-4.8 1-9.5 2.7-13.8 5-4.4 2.4-9.4 5.3-12.9 9.2-.8.9-1.6 1.9-2.4 2.8-.7.9-1.4 1.7-2.1 2.5-.8.9-1.6 1.8-2.4 2.8-.3.4-.5.8-.7 1.2-.2.4-.3.7-.5 1-.3.6-.6 1.1-.9 1.6-.6 1-.9 1.2-1.1 1.3-.4.2-.7.3-1.1.3zm171.2-2.2h-.3c-.4-.1-.7-.2-1-.5-.3-.3-.5-.6-.6-1-.9-4.5-2.7-8.8-5.2-12.7-2.7-3.8-6.3-6.9-10.4-8.9-4.7-2.2-9.5-3.8-14.6-4.9-1.4-.3-2.9-.6-4.4-.8h-.1c-2.4-.3-4.7-.8-6.9-1.5s-4.2-2-5.7-3.8c-.9-1.1-1.6-2.4-2-3.8-.4-1.3-.5-2.8-.2-4.1.4-2.7 2.1-5.1 4.6-6.3 2-1 4.2-1.5 6.4-1.5 5.4 0 11.2 2.5 15.5 4.3l.3.1c.4.2.8.3 1.1.5 6.7 2.6 12.7 6.7 17.7 11.8 4.4 4.7 7.5 10.5 9.1 16.8 1.3 5.8.7 11.1-1.8 15.3-.2.3-.5.6-.8.7-.2.3-.4.3-.7.3z"/></g><path id="_Ink-23_00000183933417375975088590000013082358421597878200_" d="M806.3 818.4h-23.6c-12 0-25.9-.3-37.7-4-2.9-.9-5.7-2-8.3-3.3-2.6-1.3-5.1-3-7.4-4.8-2.3-1.9-4.4-4.1-6.2-6.6-1.9-2.7-3.5-5.6-4.7-8.6-1.1-2.8-2-5.8-2.4-8.8-1.5-9.1-.1-18.5 4.1-26.7 1.6-3.2 3.7-6.1 6.3-8.6 2.5-2.5 5.3-4.6 8.3-6.4 6.2-3.5 13-5.7 20.1-6.5 2.7-.3 5.4-.5 8.1-.5 9.8 0 19.7 2 29.2 3.9 4.3.9 8.7 1.7 13.1 2.4 8.8 1.4 17.7 2.4 26.7 2.8 1.9.1 3.8.1 5.4.2.2-1.8 1.3-3.3 3-3.9 3.2-1.6 6.7-2.4 10.3-2.4h1.1c4 .1 7.9.6 11.8 1.3 3.6.6 7.1 1.7 10.4 3.3 3.3 1.5 6.4 3.6 9 6.1 2.9 2.8 5.1 6.3 6.5 10 1.4 3.7 2 7.6 1.9 11.5-.1 4-.8 7.9-2.1 11.7-1.3 3.8-3.1 7.4-5.5 10.6-2.1 3-4.6 5.8-7.3 8.3-2.6 2.4-5.4 4.6-8.4 6.5-2.9 1.9-6 3.5-9.2 4.9-3.2 1.4-6.6 2.5-9.9 3.5-6.9 1.9-14 3.1-21.2 3.7-6 .1-12.9.4-21.4.4zm33.6-40.1h-.2c-12.1.5-24.8.8-37.7 1 .4 3.1.8 6.4 1.2 9.7.3 2.4.7 4.8 1.1 7.6.1.3.1.7.2 1.2.3.8.4 1.7.3 2.6l-.1.4c.7.3 1.3.8 1.7 1.4.1.2.3.5.4.7h3.3c9 .1 18-.5 26.9-1.9v-.2c.1-1.1.6-2 1.4-2.7.4-2.8.7-5.7.7-8.6.1-1.3.1-2.6.2-3.8.1-1.7.2-3.5.4-5.2.1-.7.2-1.5.2-2.2zm-83.4 23.2h.2c.3.1.7.1 1 .2 7.6.9 15.3 1.4 22.9 1.3h12.6c-.4-2.7-.5-5.4-.4-8.1v-3.3c-.2-3.9-.3-7.9-.4-11.9-6.3.1-13 .2-19.8.2h-7.4l-4.1-.1c.3 1.5.6 3 .8 4.5.6 3.1 1.2 6.3 1.7 9.5.4 1.9-.2 3.8-1.4 5.3-1.4 1.6-3.4 2.6-5.6 2.6 0-.2-.1-.2-.1-.2zm-25.7-22.8c.3 2.4.9 4.8 1.8 7 1.8 4.4 5 8.1 9 10.6s8.5 4.1 13.1 4.9c-1.8-.6-3.1-2.3-3.2-4.2-.8-5.8-1.1-11.6-1.1-17.4-5.9-.2-12.8-.3-19.6-.9zm132-1.3c-1.1 0-2.3 0-3.4.1-3.7.2-7.5.3-11.2.5l-1.7.1c0 .6.1 1.2.1 1.9.2 2.2.3 4.6.5 6.9.1 1 .1 2.1.2 3.1.1 2.8.4 5.6.8 8.4 4.3-1.4 8.3-3.4 12.1-5.9 3.8-2.5 7.2-5.7 10-9.3 1.5-2 2.8-4.1 3.7-6.4-3 .6-6.1.8-9.2.7h-1l-.9-.1zm-110-28.2c-3.9.9-7.6 2.4-10.9 4.4-3.4 2.1-6.1 4.9-8.1 8.4-1.2 2.1-2 4.4-2.5 6.8-.5 2.4-.7 4.9-.6 7.3 6.6-.8 13.4-1.1 19.8-1.3 0-1.3.1-2.5.1-3.6l.1-3V767c.1-5.5.3-12.4 2.1-17.8zm14.1-1.5c-2 0-3.9.1-5.8.2-1.4.1-2.8.2-4.2.4 1 4.3 1.6 8.6 1.7 13 .1 2.2.3 4.2.5 6.1.2 2.1.6 4.3 1 6.9l1.6-.1c7.8-.4 15.8-.7 23.4-1 2.3-.1 4.7-.2 7.1-.3v-12c-.1-3.7.1-7.4.5-11.1l-3.4-.4-.8-.1c-7.1-.9-14.3-1.4-21.6-1.6zm32 2.8c.2 1.4.3 2.8.4 4.1.1.7.1 1.4.2 2.1.4 3.9.8 7.9 1.3 12.4l.4 3.6c11.2-.5 23.1-1.1 37.5-1.8l1.8-.1.5-6.9c.3-4.4.7-9.1 1.2-13.8l-.4-.1c-.5-.2-.9-.4-1.3-.7-9.9 1.4-19.9 2.1-29.9 2h-.1c-3.5-.3-7.2-.4-11.6-.8zm45.9.3c.4 4.6.7 9.4.9 14l.3 5.7 8.2-.4c1.5-.1 2.8-.2 4.1-.2 1.5-.1 3.1-.3 4.7-.5 2.5-.3 5-.5 7.5-.6 1.8 0 3.5.2 5.3.6.3-3.8-.3-9-5.3-12.7-2.4-1.7-5.1-2.9-7.9-3.5-2.8-.6-5.7-.9-8.6-1.1-3-.2-6.2-.6-9.2-1.3zm-17.1-23.9c-5.2 0-9.3-1.4-12-4.2a6.94 6.94 0 0 1-2-4.1c-.2-1.5 0-2.9.6-4.3s1.5-2.6 2.7-3.6c1.2-.9 2.6-1.4 4.1-1.5 1.4 0 2.8.5 3.9 1.3 1.6 1 3.5 1.4 5.4 1.3 3.6-.1 7.2-.7 10.6-1.8l.3-.1c1.7-.5 3.3-1.3 4.7-2.3 1.5-1 2.8-2.3 3.6-3.9.9-1.6 1-3.4.4-5.1-.7-2.2-2.6-3.8-5.6-4.8-2.5-.8-5.1-1.2-7.7-1.2h-1.4c-3.7.1-7.4.4-11.1 1-2.4.3-4.8.7-7.3.8h-.1c-.4 0-.8-.3-.9-.7-.1-.5 0-.9.4-1.2 3.7-2 7.7-3.7 11.8-4.8 4.6-1.4 9.4-2.1 14.3-2.2 5.3 0 9.6 1.1 12.7 3.2 3.7 2.5 5.8 6.4 6.3 11.6.4 4.9-1.1 9.7-4.1 13.6-3 3.9-6.9 6.9-11.4 8.8l-.3.1c-2.7 1.1-5.6 2.1-8.5 2.8-2.9.8-6.1 1.3-9.4 1.3z"/></svg></svg>