<?xml version="1.0" encoding="UTF-8"?><svg id="a" xmlns="http://www.w3.org/2000/svg" viewBox="0 0 1366 1555"><svg y="-200"><path d="M1043.65431,1279.77974c3.16095-6.27833,6.9331-13.1237,10.10311-20.23741,3.64163-8.17183,3.74806-16.00932-4.00388-22.32019-3.37827-2.75039-2.9108-5.7276-.83809-9.2603,6.97295-11.88475,6.37656-14.63159-4.42455-23.24912-6.12301-4.8852-9.00392-10.56312-6.85573-18.7918,3.28814-12.59509-1.69227-26.0612-10.28918-31.6942,15.40161-34.03272,30.79944-67.90899,46.0485-101.85208,4.07212-9.06436,3.37797-10.47418-6.76258-11.55917-22.09527-2.36411-44.22021-4.52701-66.37662-6.19082-5.85678-.43989-9.69225-2.19091-11.97299-7.55163-2.49632-5.86721-4.86515-11.82185-7.85181-17.43922-4.21606-7.92961-8.01365-16.35853-13.66458-23.18766-10.17074-12.29149-10.61942-11.77134-23.04742-2.01815-1.42241,1.11626-4.17734,.53382-6.31436,.73904,.5188-2.13081,.44022-4.74507,1.68721-6.28649,2.23643-2.76474,5.26989-4.8843,9.42564-8.56105-24.94802-12.34042-48.75224-23.94119-72.38059-35.88982-9.17217-4.63845-20.05397-5.50207-25.93739-17.13267-3.17499-6.27622-8.70968-11.85455-11.27665-19.06158-5.02532-14.10903-11.29469-18.25678-26.3179-17.87163-1.20479-8.0474-2.41148-16.10733-3.62601-24.21973,.6321-.25596,1.17656-.58478,1.76254-.69811,31.8504-6.15526,57.0242-22.83944,76.13122-48.77908,18.12083-24.60065,24.5429-53.04613,24.0743-82.8124-.61595-39.12722-2.78097-78.23239-4.47007-117.33876-.45992-10.64791-1.6035-21.26627-2.44635-32.06538,8.05894-1.64471,11.18585-7.31051,12.50749-14.50022,3.03671-16.51984-.37221-31.42941-11.35787-44.3714,7.54112-9.64643,10.95864-20.33624,11.11157-32.32417,.10673-8.37199-2.20125-14.5841-10.54846-16.37525-.59677-4.10083-.16735-8.29558-1.92755-11.1294-1.59233-2.56348-5.5756-3.64104-8.59027-5.42449,2.90771-7.40097,1.04296-12.57225-5.82568-13.07035-30.23656-2.19291-57.71283-14.14927-85.61249-24.30241-10.85417-3.94997-21.6272-6.24326-32.98333-6.88274-26.46638-1.49053-52.14652,3.17326-77.45792,10.16454-32.09391,8.86465-63.34157,19.95336-90.25832,40.27786-6.6914,5.05259-12.14441,8.44863-21.24793,5.91172-9.52581-2.65454-15.25155,3.28202-15.81552,13.36773-.0782,1.39883-.93664,3.04154-1.94986,4.05537-8.67635,8.68201-8.97727,11.23126-2.04062,20.63362-.49129,.88446-.95876,1.80146-1.49329,2.67749-18.17892,29.79327-27.21963,62.14654-26.17946,97.03121,.54371,18.23417,2.93956,36.19629,15.44573,51.01937,.92449,1.09572,.58266,3.70477,.14221,5.43525-2.58097,10.14007-6.33791,20.08247-7.87713,30.36442-3.03139,20.24979,2.39921,44.95735,30.80525,52.53066-1.59855,2.88117-3.98663,5.59192-4.54774,8.6392-.57594,3.12776-.43565,7.48134,1.37158,9.63789,1.70714,2.03703,5.97136,1.98946,9.14394,2.71347,1.65336,.37729,4.1433-.20288,4.9461,.75134,5.099,6.0611,10.94426,5.36511,17.42253,2.08248,6.11512,13.86424,16.82474,23.5796,27.01711,33.79873,5.64353,5.65844,10.53087,12.07041,15.77744,18.12684,2.69069,3.10609,5.17086,6.45456,8.19873,9.19302,3.64533,3.29689,7.83694,2.08762,7.95386-2.63925,.12032-4.86383-.40014-10.82678-3.11581-14.45461-5.86493-7.83485-12.82037-15.05193-20.22796-21.48716-12.05296-10.47078-23.43239-21.36401-31.56526-35.27212-3.37691-5.77479-6.83414-11.50262-10.25483-17.25182-1.42385-.22334-1.0276-1.11225-.6672-2.01551,2.87181-7.19752,1.13931-9.67927-6.7947-9.72948-1.44249-.00914-2.96394-.28088-4.31566,.07498-13.73429,3.61613-22.70684-7.89208-24.69912-18.25225-3.38314-17.59325,1.87452-33.82206,8.55015-49.65553,2.38498-5.65678,8.12578-8.0748,13.43994-5.86653,7.01673,2.91582,13.53984,7.29734,19.75018,11.777,3.93587,2.83904,6.68494,7.26797,10.3844,10.50581,4.44489,3.89021,9.28626,2.17528,10.74204-3.54946,.44815-1.76242,.3947-3.6754,.41176-5.52102,.30299-32.77104,5.08571-64.78236,15.67365-95.89551,1.8655-5.4818,4.72271-8.35564,10.48249-9.76455,21.73718-5.31724,43.34271-11.17297,65.0078-16.78751,.43939-.11386,1.00348,.25407,1.79787,.47889-1.64554,2.91269-3.20677,5.55791-4.65508,8.26353-3.3046,6.17308-.86542,11.74322,6.05296,12.79914,3.79539,.57923,7.83875,.39326,11.65815-.18657,22.8569-3.46987,45.18217-8.89051,66.39277-18.4079,6.7425-3.02538,13.60797-5.19047,21.42045-4.2743,16.81964,1.97251,33.38627-.4391,49.23058-6.05816,7.28062-2.58194,12.61656-3.15053,16.85776,4.30533,.94951,1.66906,3.42605,2.41176,4.61998,4.01328,1.5727,2.10963,3.54003,4.59266,3.67432,7.0077,2.13996,38.47478,4.78921,76.94621,5.69132,115.45663,.66448,28.36446,1.27628,57.06695-2.15498,85.12117-7.37264,60.27815-65.15952,100.18336-124.93895,88.44298-11.09006-2.178-22.00862-5.23162-33.10139-7.3924-2.12456-.41391-5.87919,.83364-6.73971,2.45336-.93034,1.75125-.22441,5.86494,1.29228,7.15531,5.4081,4.601,10.95947,9.73069,17.39906,12.2486,8.50565,3.32574,17.81135,5.26514,26.93498,6.17285,10.27732,1.02255,20.7346,.23542,30.86322,.23542-.77054,4.85432-1.63445,9.07486-2.06312,13.33919-.43131,4.29128-.7017,8.63452-.56741,12.94022,.42671,13.68522,.28963,13.98354-13.40408,17.21845-1.99684,.47183-4.01732,.88657-6.04941,1.15997-17.99379,2.42029-35.7566,.15071-53.48235-2.7251-25.36492-4.11536-50.10801-9.68999-70.79196-26.57146-4.15711-3.39278-6.03446-5.86057-4.56442-11.49658,1.93872-7.43272,1.98379-15.21313-3.1719-22.50669-1.69144,7.84822-3.38295,15.69643-5.22883,24.26148-4.95075-3.42291-7.15404-.60637-9.63488,2.54933-3.16578,4.02702-6.49635,8.0249-10.29359,11.43663-12.51168,11.24123-28.23315,14.73481-44.15756,17.40351-35.46746,5.94392-71.02358,11.48956-105.43227,22.35689-36.89561,11.6528-70.38756,29.00436-96.30928,58.71242-1.7981,2.06074-3.44081,4.25716-5.51967,6.84318,4.788,1.16216,8.69602,1.73116,12.25081,3.17201,1.30711,.52981,1.77964,3.11976,2.63283,4.76998-1.47582,.73526-2.98964,2.14659-4.41961,2.0661-3.04758-.17132-6.15331-.81892-9.0517-1.80893-5.46958-1.86828-8.79211,.05572-11.42018,4.94228-2.43129,4.52074-5.70128,8.58197-8.29044,13.02713-30.1647,51.78724-49.94889,107.32071-59.77391,166.41865-1.15333,6.93741-2.00794,13.92457-3.16426,22.03343,4.10629-2.09857,6.69832-3.93151,9.57474-4.70127,1.70608-.4565,3.86065,.7638,5.81352,1.23004-.75759,1.67446-1.07226,3.94767-2.3622,4.90234-2.95401,2.18615-6.8027,3.26141-9.49405,5.67407-2.32101,2.08052-4.80942,5.27382-5.06599,8.16677-4.89276,55.16613-1.53488,109.90809,9.7369,164.10671,6.76715,32.53887,15.90639,64.38294,32.50041,93.49316,13.52667,23.72918,30.45905,44.23448,57.28941,53.74288,9.82752,3.48286,17.02737,7.83387,15.42297,20.01618-.4726,3.58811,.85297,7.44246,6.13958,7.40772,15.03147-.09831,30.064-.03458,46.06608-.03458-1.56232-4.63068-3.09958-7.84097-3.58608-11.20332-.23925-1.65339,1.46725-3.58842,2.29323-5.39599,1.53164,.99983,3.62461,1.66472,4.46644,3.07619,1.34002,2.24701,1.99692,4.95202,2.66835,7.53487,.91679,3.52696,2.74881,4.86202,6.61516,4.69682,19.96708-.85305,39.94278-1.67031,59.92371-2.00524,80.34985-1.34669,160.70113-2.66711,241.0568-3.52982,9.22931-.09891,17.00231,.15977,19.96316-10.6988,.31401-1.15174,3.39571-1.54814,5.19335-2.29503,.34979,1.97927,1.29213,4.08463,.90505,5.9073-.5262,2.47714-2.06886,4.73819-3.39088,7.54997,2.10569,.24161,3.48599,.41693,4.86983,.55616,22.72722,2.28431,45.50282,4.17252,68.16928,6.95168,24.02629,2.94557,47.97944,4.7015,71.98973,.47251,2.4459-.43083,5.57409-1.56913,6.81617-3.42835,4.42795-6.62731,10.93909-8.00013,18.06678-9.0288,7.70877-1.11233,15.71577-1.88202,22.89796-4.62267,31.08001-11.85976,43.4271-40.01016,58.14754-67.86097-7.71028-1.21728-14.33155-2.30243-20.96702-3.29229-2.97141-.44336-6.41913-.97567-5.48109-4.76764,.33235-1.34382,4.25788-2.75802,6.36901-2.52954,7.66884,.82964,15.26393,2.34199,23.06531,3.62632,1.35342-3.62405,2.8486-7.01374,3.88424-10.53843,1.73892-5.91833,3.19575-11.91986,4.75328-17.89104,12.614-48.36048,10.16704-95.83001-8.58513-142.27979-1.30194-3.22479-3.51656-6.08096-5.42169-9.30288Zm-264.42351-504.32818c.11964-.52475,.23936-1.04951,.359-1.57419,15.58896-.13017,31.00823-1.84759,44.921-9.25388,5.96426-3.17488,11.87947-7.81613,15.73864-13.26414,6.39233-9.02435,2.23326-16.00328-8.74418-16.06738-24.93089-.14565-49.86352-.10827-74.79486-.00091-8.02618,.03458-16.06835,.27974-24.06992,.87525-6.65192,.49508-7.97228,2.93176-6.17773,9.51452,3.07777,11.28917,10.77016,18.83862,21.23129,22.46327,10.13919,3.51314,20.9954,4.95557,31.53677,7.30745Zm9.71301-104.7072l.43388,2.10574c3.54932-.42713,7.0892-1.07526,10.65014-1.22574,4.47882-.18921,9.19285-.77883,13.3868,.35434,2.80535,.75784,6.34365,3.9161,6.87837,6.54486,.54688,2.68825-1.3461,7.06327-3.62246,8.90112-5.62829,4.544-12.34263,6.60874-19.51381,3.09764-4.23773-2.07486-7.1049-.30783-9.1505,3.18862-3.64971,6.23862-.49744,13.31858,6.76258,15.62901,18.12423,5.76792,40.10899-13.16009,37.01167-31.86567-1.3692-8.26893-5.52548-13.47343-12.88317-14.70196-11.16947-1.86511-20.97532,1.82169-29.9535,7.97204Zm26.96223-61.36836c2.66253-.43728,4.45655-.75187,6.25684-1.02448,15.29382-2.3159,28.18318,4.88403,34.2261,18.85353,1.27567,2.94897,2.87729,6.01542,5.11643,8.2314,3.84891,3.80896,10.13375,3.2081,13.83751-.6812,3.60095-3.78133,3.41986-8.06816-.28427-12.66769-1.51299-1.87873-2.77757-3.99429-3.92115-6.12759-4.88681-9.11563-12.14079-15.42918-21.98793-18.60546-13.41933-4.32851-25.91248-.05716-33.24353,12.02149Zm-118.99914,40.3682c4.58057-8.71214,8.21134-16.29805,12.45722-23.52222,5.36258-9.12428,13.35962-13.68632,24.24406-12.35231,3.05814,.3748,6.16392,.75787,9.22561,.62495,6.50382-.28223,9.41379-5.66935,6.20476-11.2769-3.19477-5.58275-8.37589-7.90598-14.51135-7.64209-23.00636,.98941-43.77568,29.77397-37.62029,54.16857Zm19.63624,20.6628c2.4705-3.92305,4.6464-7.54831,6.9888-11.06251,4.87858-7.31893,14.16851-6.90562,18.52874,.77883,.90837,1.60084,1.4668,3.51571,2.69628,4.79618,3.07249,3.19987,6.86199,4.07723,10.29152,.83674,3.08185-2.91197,5.23977-6.82627,2.38642-10.92215-2.30165-3.30392-5.31194-6.20562-8.36381-8.87908-13.20828-11.57088-32.84225-6.19429-37.61622,10.29697-1.48061,5.11473-1.7325,10.17314,5.08828,14.15501Zm-131.74523,21.95317c2.60422,2.72638,4.72962,5.60853,7.47247,7.66768,4.0249,3.02168,8.61612,3.40698,12.1654-.71842,3.3146-3.85276,3.65046-8.61821,.00159-12.33777-7.60573-7.753-16.74099-13.34402-27.35116-15.89267-2.59962-.62442-5.71143,.88453-8.58774,1.41268,.70664,2.71272,1.41328,5.42536,2.29338,8.80387-2.82984,3.3206-3.50852,7.7749,.44203,11.8781,4.61624,4.7946,9.30694,2.4782,13.56403-.81348Zm246.95109-30.19627c.56213-2.02676,1.00393-3.96405,1.63867-5.83595,1.26941-3.7429,3.25735-6.67428,7.84539-6.44897,4.47935,.22017,7.38094,2.49964,8.33,6.82053,.61074,2.78037,.05616,5.93501,1.11369,8.46644,1.10085,2.6351,3.09634,5.99723,5.4435,6.76262,3.90356,1.273,6.22899-1.73818,7.12188-5.70518,2.02523-8.99845-2.39781-20.48348-10.00377-25.57775-8.76992-5.87385-20.51963-3.98142-25.73977,4.14571-4.15892,6.47494-2.56659,13.80331,4.25041,17.37255Z" style="fill:#fff;"/><path d="M1043.65431,1279.77974c1.90513,3.22192,4.11975,6.07809,5.42169,9.30288,18.75218,46.44977,21.19913,93.9193,8.58513,142.27979-1.55753,5.97118-3.01436,11.97271-4.75328,17.89104-1.03564,3.52469-2.53082,6.91438-3.88424,10.53843-7.80139-1.28433-15.39647-2.79668-23.06531-3.62632-2.11113-.22848-6.03665,1.18572-6.36901,2.52954-.93804,3.79198,2.50968,4.32428,5.48109,4.76764,6.63547,.98986,13.25674,2.07501,20.96702,3.29229-14.72044,27.85081-27.06753,56.00121-58.14754,67.86097-7.18219,2.74065-15.1892,3.51034-22.89796,4.62267-7.12769,1.02867-13.63884,2.40149-18.06678,9.0288-1.24208,1.85922-4.37028,2.99752-6.81617,3.42835-24.01029,4.22899-47.96344,2.47307-71.98973-.47251-22.66646-2.77916-45.44206-4.66737-68.16928-6.95168-1.38384-.13923-2.76414-.31455-4.86983-.55616,1.32202-2.81178,2.86468-5.07283,3.39088-7.54997,.38708-1.82267-.55526-3.92803-.90497-5.9073-1.79772,.74689-4.87941,1.14329-5.19343,2.29503-2.96085,10.85857-10.73385,10.59989-19.96316,10.6988-80.35566,.86271-160.70695,2.18313-241.0568,3.52982-19.98094,.33494-39.95663,1.1522-59.92371,2.00524-3.86635,.1652-5.69837-1.16986-6.61516-4.69682-.67143-2.58285-1.32832-5.28787-2.66835-7.53487-.84183-1.41148-2.9348-2.07637-4.46644-3.07619-.82598,1.80757-2.53248,3.7426-2.29323,5.39599,.48649,3.36236,2.02375,6.57265,3.58608,11.20332-16.00208,0-31.03461-.06373-46.06608,.03458-5.28661,.03473-6.61218-3.81961-6.13958-7.40772,1.6044-12.18231-5.59545-16.53332-15.42297-20.01618-26.83036-9.5084-43.76274-30.0137-57.28941-53.74288-16.59402-29.11022-25.73326-60.95429-32.50041-93.49316-11.27178-54.19862-14.62966-108.94058-9.7369-164.10671,.25657-2.89295,2.74498-6.08625,5.06599-8.16677,2.69135-2.41266,6.54004-3.48792,9.49405-5.67407,1.28994-.95468,1.60461-3.22788,2.36222-4.90234-1.95289-.46624-4.10746-1.68654-5.81354-1.23004-2.87642,.76977-5.46845,2.60271-9.57474,4.70127,1.15632-8.10886,2.01092-15.09602,3.16426-22.03343,9.82503-59.09794,29.60921-114.63141,59.77391-166.41865,2.58916-4.44516,5.85915-8.50639,8.29044-13.02713,2.62808-4.88656,5.9506-6.81056,11.42018-4.94228,2.89838,.99001,6.00412,1.63761,9.0517,1.80893,1.42996,.08049,2.94379-1.33084,4.41961-2.0661-.85319-1.65022-1.32572-4.24017-2.63283-4.76998-3.55479-1.44085-7.4628-2.00985-12.25081-3.17201,2.07886-2.58602,3.72157-4.78244,5.51967-6.84318,25.92173-29.70806,59.41367-47.05962,96.30928-58.71242,34.40869-10.86733,69.96481-16.41297,105.43227-22.35689,15.92441-2.6687,31.64588-6.16228,44.15756-17.40351,3.79724-3.41174,7.12781-7.40961,10.29359-11.43663,2.48085-3.1557,4.68414-5.97224,9.63488-2.54933,1.84588-8.56505,3.53739-16.41327,5.22883-24.26148,5.15568,7.29356,5.11062,15.07397,3.1719,22.50669-1.47004,5.63602,.40731,8.1038,4.56442,11.49658,20.68395,16.88147,45.42704,22.4561,70.79196,26.57146,17.72575,2.87581,35.48856,5.14539,53.48235,2.7251,2.0321-.2734,4.05257-.68815,6.04941-1.15997,13.69371-3.2349,13.83079-3.53322,13.40408-17.21845-.13429-4.30571,.1361-8.64894,.56741-12.94022,.42867-4.26433,1.29258-8.48487,2.06312-13.33919-10.12862,0-20.5859,.78713-30.86322-.23542-9.12363-.90771-18.42933-2.84711-26.93498-6.17285-6.43959-2.51792-11.99095-7.6476-17.39906-12.2486-1.51669-1.29037-2.22262-5.40407-1.29228-7.15531,.86051-1.61972,4.61515-2.86727,6.73971-2.45336,11.09277,2.16078,22.01133,5.2144,33.10139,7.3924,59.77942,11.74038,117.56631-28.16483,124.93895-88.44298,3.43126-28.05421,2.81947-56.75671,2.15498-85.12117-.90211-38.51042-3.55135-76.98185-5.69132-115.45663-.13429-2.41504-2.10162-4.89807-3.67432-7.0077-1.19392-1.60152-3.67047-2.34422-4.61998-4.01328-4.2412-7.45586-9.57714-6.88727-16.85776-4.30533-15.84432,5.61907-32.41094,8.03067-49.23058,6.05816-7.81248-.91617-14.67795,1.24892-21.42045,4.2743-21.2106,9.51739-43.53587,14.93803-66.39277,18.4079-3.8194,.57984-7.86275,.7658-11.65815,.18657-6.91838-1.05593-9.35756-6.62607-6.05296-12.79914,1.4483-2.70562,3.00953-5.35084,4.65508-8.26353-.79439-.22481-1.35848-.59275-1.79787-.47889-21.66509,5.61453-43.27062,11.47027-65.0078,16.78751-5.75978,1.40891-8.61699,4.28275-10.48249,9.76455-10.58794,31.11316-15.37066,63.12447-15.67365,95.89551-.01706,1.84563,.03638,3.7586-.41176,5.52102-1.45578,5.72473-6.29715,7.43966-10.74204,3.54946-3.69945-3.23785-6.44853-7.66678-10.3844-10.50581-6.21034-4.47967-12.73345-8.86118-19.75018-11.777-5.31416-2.20827-11.05496,.20975-13.43994,5.86653-6.67562,15.83347-11.93329,32.06228-8.55015,49.65553,1.99228,10.36017,10.96483,21.86838,24.69912,18.25225,1.35172-.35585,2.87317-.08411,4.31566-.07498,7.93401,.05021,9.66651,2.53196,6.7947,9.72948-.3604,.90326-.75665,1.79217,.6672,2.01551,3.42069,5.7492,6.87792,11.47703,10.25483,17.25182,8.13287,13.90811,19.5123,24.80134,31.56526,35.27212,7.40759,6.43523,14.36303,13.6523,20.22796,21.48716,2.71568,3.62783,3.23613,9.59078,3.11581,14.45461-.11692,4.72687-4.30853,5.93615-7.95386,2.63925-3.02788-2.73846-5.50804-6.08693-8.19873-9.19302-5.24657-6.05642-10.13391-12.4684-15.77744-18.12684-10.19237-10.21912-20.90199-19.93449-27.01711-33.79873-6.47827,3.28262-12.32354,3.97862-17.42253-2.08248-.80281-.95422-3.29275-.37405-4.9461-.75134-3.17258-.72401-7.4368-.67644-9.14394-2.71347-1.80723-2.15655-1.94752-6.51013-1.37158-9.63789,.56111-3.04728,2.94918-5.75803,4.54774-8.6392-28.40604-7.5733-33.83664-32.28087-30.80525-52.53066,1.53922-10.28194,5.29616-20.22435,7.87713-30.36442,.44045-1.73048,.78227-4.33953-.14221-5.43525-12.50617-14.82307-14.90202-32.7852-15.44573-51.01937-1.04016-34.88467,8.00055-67.23795,26.17946-97.03121,.53454-.87604,1.00201-1.79304,1.49329-2.67749-6.93665-9.40236-6.63573-11.95161,2.04062-20.63362,1.01322-1.01383,1.87165-2.65654,1.94986-4.05537,.56398-10.08571,6.28971-16.02227,15.81552-13.36773,9.10352,2.53691,14.55653-.85913,21.24793-5.91172,26.91675-20.3245,58.16441-31.41321,90.25832-40.27786,25.3114-6.99128,50.99154-11.65507,77.45792-10.16454,11.35614,.63948,22.12916,2.93277,32.98333,6.88274,27.89966,10.15313,55.37593,22.1095,85.61249,24.30241,6.86863,.4981,8.73338,5.66939,5.82568,13.07035,3.01467,1.78345,6.99794,2.86101,8.59027,5.42449,1.7602,2.83383,1.33078,7.02858,1.92755,11.1294,8.34721,1.79115,10.6552,8.00326,10.54846,16.37525-.15293,11.98793-3.57045,22.67774-11.11157,32.32417,10.98566,12.942,14.39458,27.85156,11.35787,44.3714-1.32164,7.1897-4.44855,12.85551-12.50749,14.50022,.84285,10.79911,1.98643,21.41746,2.44635,32.06538,1.6891,39.10638,3.85412,78.21155,4.47007,117.33876,.4686,29.76627-5.95347,58.21175-24.0743,82.8124-19.10702,25.93964-44.28082,42.62382-76.13122,48.77908-.58598,.11333-1.13044,.44215-1.76254,.69811,1.21453,8.1124,2.42121,16.17233,3.62601,24.21973,15.02321-.38515,21.29258,3.7626,26.3179,17.87163,2.56697,7.20703,8.10166,12.78536,11.27665,19.06158,5.88342,11.6306,16.76522,12.49422,25.93739,17.13267,23.62834,11.94863,47.43256,23.5494,72.38059,35.88982-4.15575,3.67676-7.18921,5.79631-9.42564,8.56105-1.24699,1.54142-1.16841,4.15568-1.68721,6.28649,2.13702-.20522,4.89194,.37722,6.31436-.73904,12.428-9.75319,12.87668-10.27334,23.04742,2.01815,5.65093,6.82913,9.44851,15.25805,13.66458,23.18766,2.98666,5.61737,5.35549,11.57201,7.85181,17.43922,2.28074,5.36073,6.11621,7.11175,11.97299,7.55163,22.15641,1.66381,44.28135,3.82671,66.37662,6.19082,10.14055,1.085,10.8347,2.49481,6.76258,11.55917-15.24906,33.94309-30.64689,67.81937-46.0485,101.85208,8.59691,5.633,13.57732,19.09911,10.28918,31.6942-2.14819,8.22868,.73272,13.9066,6.85573,18.7918,10.80111,8.61753,11.3975,11.36437,4.42455,23.24912-2.07271,3.53269-2.54018,6.5099,.83809,9.2603,7.75194,6.31087,7.64551,14.14837,4.00388,22.32019-3.17001,7.11371-6.94216,13.95908-10.10311,20.23741Zm-325.67902-734.52876c.18131,.82655,.36255,1.65309,.54386,2.47967,2.14064,.26834,4.27728,.73213,6.42245,.77516,24.2218,.48632,46.86402-5.18971,67.76046-17.56324,6.00012-3.55285,11.7568-7.36333,19.33106-3.50132,2.56712,1.30898,6.03341,1.16337,9.08755,1.15631,18.5766-.04304,36.9928-1.01874,54.23047-9.20846,4.42847-2.10396,8.09313-.9768,11.15377,3.40113,2.29485,3.28266,5.40644,6.30914,8.79294,8.42918,3.78777,2.37136,8.8879,6.32805,12.68654,1.50427,3.90364-4.95731-1.08417-9.02956-4.16375-12.7743-2.7553-3.35054-5.63606-6.5979-9.53985-11.14768,10.05269-1.17141,13.92492-6.79912,15.10096-14.52902,.61519-4.04356,1.12003-8.24061,.69702-12.26548-.39025-3.71375-1.15264-8.21052-3.52237-10.61775-1.70623-1.7332-6.32213-.60052-9.62756-.74564,1.27084-11.62328-1.65173-16.13772-12.64819-16.17932-2.61634-.00989-5.22687-1.58529-8.48044-2.65024,2.09512-2.59769,3.5355-4.38363,5.81133-7.20537-7.14709-2.30443-13.29244-4.45932-19.53834-6.26674-17.73556-5.13214-35.89466-9.08407-53.16879-15.45048-18.55984-6.84027-37.27345-9.96275-56.83594-8.81761-21.89562,1.28165-43.2482,5.66667-64.17499,12.05441-30.84858,9.4164-59.6942,22.70175-82.87312,45.86677-4.20674,4.20423-7.78689,5.80024-13.40835,4.03012-2.07444-.65323-6.60225,.00547-6.74718,.72435-1.22887,6.0935-6.82312,5.31282-10.52687,7.38688-4.69765,2.63064-5.04744,5.11247-1.1435,8.27179,7.14664,5.78363,6.96174,5.69027,2.76383,14.01442-6.94416,13.76968-13.95564,27.52191-20.33337,41.55676-8.94877,19.69257-13.61095,40.35635-9.11899,61.91497,1.98092,9.5072,5.92664,18.66333,9.58548,27.73457,1.54802,3.83788,5.14666,5.15188,9.1978,2.57047,12.35909-7.87517,28.85521-8.71735,40.37971,5.53627,2.32146,2.8712,5.26683,5.23758,7.44144,7.36431,1.28088-16.36781,1.74265-32.45083,3.99924-48.27777,2.31656-16.24746,6.23257-32.27864,9.75694-48.33674,1.70472-7.76724,6.50277-12.50841,14.86454-13.41401,9.60431-1.04026,19.33181-1.79432,28.69971-3.98338,16.98661-3.96933,33.75417-8.88108,50.59812-13.45505,9.97864-2.7097,19.73399-3.21777,30.24947,2.93217-6.24303,3.1255-11.67966,5.84573-17.11486,8.5689-5.39685,2.70403-10.7922,5.41098-16.18822,8.11671Zm230.03633,660.08993c-6.5898-15.36867-3.49406-29.96915,13.14925-37.24293,15.04366-6.57484,30.53714-11.16784,46.92969-12.3448,4.07113-.29228,6.67253-1.48955,8.63435-5.43872,7.78463-15.67038,16.30885-30.97781,23.91986-46.72876,8.48693-17.5635,16.27933-35.46292,24.68979-53.90876-3.73908-.52762-6.53017-1.00066-9.33952-1.30351-9.81755-1.05834-19.61994-2.41485-29.46715-3.01171-27.54489-1.6694-55.1057-3.09349-82.67188-4.36233-2.60902-.11998-6.05937,.77852-7.79361,2.5229-3.5617,3.58222-6.75964,7.76886-9.16613,12.21621-11.16018,20.62505-21.79469,41.53588-33.0521,62.10626-4.48154,8.18904-10.08635,15.76303-15.39889,23.95479,3.89745,.55662,7.08625,1.01198,10.37893,1.48222,2.04742-4.16678,3.89541-8.05865,5.86161-11.88973,1.76111-3.43129,1.76979-8.43821,8.30063-9.22451-.66033,9.57945-6.88441,15.34836-10.95494,21.57353,16.13063,13.32137,27.8284,29.75117,36.65976,48.32794,2.64178,5.55726,3.44862,11.4663,.47026,17.28534-1.90415,3.72025-4.85624,6.8946-9.04173,5.00767-1.01654-.45824-.73468-7.06592,.94324-9.43177,2.235-3.15132,1.92702-5.25615,.64154-8.28908-6.1255-14.4525-15.97702-26.32668-25.91942-38.17337-3.93911-4.69357-8.8331-7.66678-14.89368-7.59203-11.09761,.13666-22.18955,.7897-33.2824,1.26107-26.65275,1.13264-46.48434,11.65454-59.45779,36.68858-13.44364,25.94153-34.4835,45.28089-62.15678,56.49622-4.37209,1.77178-8.70523,3.88054-12.58773,6.52259-2.0644,1.40498-4.25116,4.19102-4.45029,6.51911-1.12289,13.12287-2.17431,26.29293-2.25138,39.45287-.0782,13.3629,1.99473,26.54247,6.66513,38.234,11.95246-5.16993,23.37608-10.90161,35.34288-15.07488,13.21545-4.60878,26.91573-2.03076,40.37333,.00755,12.13067,1.83732,21.87841-1.6463,28.95394-12.03115,3.23817-4.75269,6.73473-9.35211,10.39885-13.78572,4.87277-5.89613,11.43117-9.19008,18.97304-8.7144,10.06627,.63499,15.98449-3.4519,18.39378-13.69844-9.78812-7.04787-19.75777-14.22636-30.82692-22.19667,3.25516,0,5.74317-.65364,7.6754,.10631,12.2011,4.79845,24.10706,10.15102,31.468,22.60213,14.58276-7.95634,7.28621-21.08283,8.15442-32.3569-12.89268-4.4765-25.5143-8.80274-38.09003-13.25847-3.88386-1.37614-8.92353-3.23641-7.53055-8.06642,1.58236-5.48614,6.91596-3.19149,10.60364-1.98025,13.67356,4.49062,27.29458,9.16078,40.8122,14.10042,8.76267,3.20221,14.82869,9.34433,17.99666,18.31001,.77809,2.20223,2.45639,4.08606,4.55506,7.45552,1.49827-3.45198,2.41012-5.03387,2.88951-6.7374,4.99219-17.74184-5.14225-40.83225-22.40106-47.4154-13.35955-5.09593-27.61011-7.87192-41.49902-11.54928-3.69794-.97899-7.52247-1.47973-11.28888-2.20012,4.67953-1.523,9.15677-1.84389,13.54509-2.64922,8.62891-1.58355,17.15222-4.22892,25.83201-4.84481,4.36613-.30987,10.19263,1.64758,13.24881,4.69614,8.51901,8.49778,16.0593,17.99999,23.70481,27.33609,2.03723,2.48771,3.06109,5.80522,4.55415,8.73977,.67052,1.31785,1.35078,2.6308,1.31387,2.55899,9.17172-6.69413,18.0412-13.16757,27.48835-20.06269Zm5.95007-5.93131c12.33637-2.77108,24.69561-5.60687,37.08685-8.29535,3.80113-.82473,7.67669-1.49468,11.54658-1.70058,1.15935-.06169,3.13627,1.5199,3.40069,2.65941,.21543,.92802-1.33289,2.96815-2.50394,3.38954-4.23342,1.523-8.5649,3.09658-12.98975,3.70907-21.26352,2.94323-40.24328,11.37434-57.56481,23.69475-6.54043,4.65204-8.70077,11.1359-5.86115,15.88308,3.65099,6.10361,9.37635,3.87193,14.41881,2.75032,22.25832-4.95089,44.44658-10.21792,66.72279-15.08402,2.0059-.43815,4.4595,1.17409,6.70514,1.83407-1.71695,1.38029-3.24376,3.55602-5.17984,4.01902-21.38074,5.11187-42.7402,10.38146-64.28761,14.69857-10.89856,2.18366-18.49878,8.48298-25.39111,16.22579-1.39365,1.56566-1.4092,4.35886-2.0601,6.58609,2.43314,.59935,5.00555,2.04103,7.27753,1.66532,18.84978-3.11848,37.60799-6.79584,56.46999-9.83171,9.53283-1.53455,19.21157-2.24655,28.85204-2.95131,1.74888-.12775,3.63212,1.58212,5.45332,2.44377-1.66615,1.3707-3.13778,3.2639-5.0491,3.9759-2.24073,.83478-4.87587,.55888-7.31935,.90832-21.98159,3.1443-43.98243,6.16779-65.92191,9.58481-6.13667,.95558-10.21294,9.01038-9.21119,16.49934,.86021,6.43009,4.64277,9.30364,12.51406,8.52806,28.91469-2.84908,57.18218-7.59799,83.97156-20.32016,11.81387-5.61042,17.16355-14.42615,21.71521-25.00588,2.14298-4.98124,1.25507-9.40081-3.1402-13.29524-6.36916-5.64349-6.5744-9.68765-1.76526-16.64106,6.20506-8.97164,6.29745-9.32395-2.25779-16.49768-5.73744-4.81098-8.9975-10.82648-7.0076-17.93264,2.4465-8.73705-.72525-16.14674-3.41843-23.83232-1.29032-3.68212-3.88869-5.20919-8.06731-5.14222-20.07405,.3212-39.21141,4.61014-57.32492,13.18335-10.93796,5.17687-13.34604,11.36173-9.81318,24.29161Zm-548.04765,156.24785c6.1198-2.27087,11.50918-4.90249,17.20193-6.27878,32.08598-7.75761,64.25821-15.15748,96.37405-22.79277,20.5813-4.89298,41.22324-9.5901,61.61858-15.17651,8.01833-2.19627,15.48687-6.47509,23.07769-10.07544,1.08847-.5163,1.45332-2.55914,2.1531-3.89542-1.40875-.44623-2.84985-1.34111-4.21938-1.2425-2.64208,.19012-5.27095,.83236-7.85785,1.47777-22.90151,5.71295-45.75709,11.61512-68.69929,17.15895-15.48449,3.74154-31.08684,6.99532-47.10893,10.57271,3.8828-46.32685,9.5246-92.16353-4.54978-137.26925,5.19297,46.57768,1.00993,92.904-3.79177,139.19023-10.82658,3.50234-22.04473,6.86772-33.07206,10.7725-11.17709,3.95778-22.78447,7.3591-31.12629,17.55852Zm49.29007,134.2037c.38931,.606,.77861,1.21199,1.16792,1.81814,7.78485-3.5632,15.57167-7.12202,23.35434-10.69004,48.56859-22.26711,97.143-44.52169,145.68551-66.84574,2.58592-1.18919,5.15199-2.68871,7.24869-4.57586,1.29054-1.16171,1.67136-3.33487,2.46062-5.0538-1.64524-.40984-3.38076-1.36527-4.91595-1.11082-2.79667,.4636-5.63693,1.31664-8.1776,2.5756-49.93658,24.74199-99.8458,49.53956-149.71883,74.40945-5.82715,2.90571-11.40913,6.3034-17.10471,9.47307Zm550.66633-136.37369c-.54809,.26668-1.09617,.53321-1.64426,.79989,1.54258,5.02874,3.60419,9.96415,4.52668,15.10418,2.38611,13.2966,4.14066,26.70631,6.48178,40.01182,.38851,2.2082,2.46182,4.11951,3.75667,6.16809,1.61376-2.05749,4.18813-3.92592,4.63824-6.21264,.89622-4.55291,1.26111-9.41161,.7143-14.00936-1.54741-13.01256-5.99385-25.08524-13.51157-35.90575-1.46884-2.11412-3.29856-3.97726-4.96184-5.95623Zm-482.19323-305.1335c9.71807-2.16818,18.54614-3.98036,27.25409-6.25289,1.28488-.33539,2.00122-2.85059,2.98062-4.35728-1.42913-.91171-3.04097-2.80491-4.25818-2.57817-8.84155,1.64697-17.64189,3.57271-26.34836,5.82417-1.27431,.32958-2.71673,2.85701-2.70911,4.36067,.00562,1.12094,2.22564,2.23077,3.08094,3.00348Zm381.32987,319.12082c-.02144-.69011-.04287-1.38007-.06424-2.07002-2.12411-.55043-4.56178-2.0584-6.31723-1.48305-7.18536,2.35453-14.24792,5.15453-21.14969,8.25005-1.50877,.67667-2.17091,3.2423-3.22293,4.93798,2.06274,.62306,4.46471,2.25395,6.1292,1.69356,6.99197-2.35468,13.79735-5.2856,20.5896-8.19569,1.51443-.64873,2.69892-2.06821,4.03528-3.13282Zm-245.86571-237.65572c1.18509,1.37191,2.70564,3.13207,4.22618,4.8923,1.24397-1.58982,3.16367-3.01066,3.61091-4.79981,1.64366-6.57544,3.03067-13.24035,3.97459-19.94755,.23574-1.67461-1.54923-3.63364-2.40551-5.46205-1.54258,1.17092-4.04811,2.0732-4.46252,3.55889-1.87388,6.7195-3.15665,13.60398-4.94365,21.75822Zm-268.39007,290.39137c-2.97334-1.19659-5.33186-3.09613-6.7305-2.54751-6.85271,2.68825-13.52588,5.88239-20.06155,9.28385-1.06994,.55692-1.13667,3.04282-1.66702,4.63717,1.72556,.532,3.82445,1.97262,5.11375,1.44274,6.44276-2.64854,12.70009-5.75931,18.95387-8.84699,1.1683-.57655,2.02262-1.7896,4.39145-3.96926Zm-33.43363-159.33348c-1.02424,.75353-2.87204,1.43111-3.02561,2.38231-.24483,1.51628,.11511,4.073,1.13154,4.69259,5.37251,3.27507,10.9309,6.30083,16.65667,8.90225,1.49861,.68075,3.82491-.46133,5.7711-.76607-.96374-1.95299-1.41671-4.69878-2.98666-5.71069-4.76838-3.07363-9.96871-5.47678-15.00037-8.14178-.7157-.37903-1.42909-.76229-2.54667-1.35862Zm219.08732,230.40716c-.85746,2.25365-2.55482,4.54294-1.98352,5.57055,3.36155,6.04683,7.11448,11.89691,11.10897,17.54915,.61247,.86664,3.7738,1.06793,4.64583,.30579,.93853-.82058,1.31221-3.56214,.64493-4.72883-3.14748-5.50245-6.67913-10.79077-10.22422-16.05417-.59077-.87721-1.92532-1.25292-4.19198-2.6425Zm-194.70006-359.57042c7.03485-3.3693,13.52312-6.32212,19.80423-9.66447,.86799-.46178,1.36708-3.17737,.83443-4.25459-.4894-.98956-2.93556-1.9946-3.94425-1.5828-6.20906,2.53506-12.32104,5.34087-18.28991,8.39902-.98982,.50716-1.75718,2.85081-1.46491,4.06613,.29374,1.22128,2.03912,2.09305,3.06041,3.03671Zm113.05608-195.7057c-6.51767,1.74634-12.17,2.91137-17.51613,4.89992-1.66985,.62125-2.51293,3.46617-3.73448,5.2933,1.92797,.57149,3.97995,1.87711,5.76061,1.57615,5.24117-.88559,10.44947-2.17694,15.50845-3.81146,1.69053-.54635,2.89182-2.60746,4.31672-3.97613-1.46099-1.34194-2.92201-2.68387-4.33518-3.98179Zm223.85709,515.03733c-.97548-1.07156-1.76194-2.70366-2.80943-2.89317-1.33644-.24192-3.37601,.22742-4.25509,1.18119-3.87065,4.19864-7.63102,8.53878-10.96966,13.16115-.8541,1.18255-.02083,3.58434,.03729,5.42604,1.95072-.38658,4.57763-.10888,5.72883-1.28116,3.85155-3.92245,7.19842-8.34443,10.67988-12.62295,.61112-.75112,.93902-1.73267,1.58818-2.97109Zm-172.8126-286.75546c-1.51839-1.68873-2.21095-3.12724-3.30162-3.55844-5.30488-2.09751-10.65923-4.12344-16.13233-5.70193-1.28266-.3699-3.83581,.70113-4.44236,1.83694-.54099,1.01304,.38214,4.01992,1.38086,4.4432,5.60432,2.37521,11.36384,4.46449,17.22752,6.08111,1.20944,.3335,3.08521-1.75109,5.26793-3.10088Zm-134.31303-129.94579c.54884-1.01198,1.09772-2.02404,1.64656-3.0361-1.81889-.8609-3.58679-1.85967-5.46664-2.55567-4.81012-1.78107-9.60616-3.66928-14.55008-4.97611-1.43245-.37858-3.34615,1.06408-5.03921,1.67189,.78816,1.70156,1.15414,4.37721,2.43839,4.93413,5.24774,2.27547,10.72143,4.10132,16.24061,5.6265,1.32259,.36559,3.14035-1.06182,4.73037-1.66464Zm240.73173-40.52639c-3.56064,0-5.57824-.4759-7.18348,.1341-1.60078,.60819-2.78814,2.30507-4.15666,3.52469,1.31538,1.23374,2.50198,3.32634,3.96938,3.54651,5.22483,.78419,10.55186,1.24272,15.8253,1.13007,1.58901-.03398,3.1297-2.32598,4.69252-3.58373-1.31092-1.18474-2.45299-3.03723-3.96659-3.42012-3.52954-.89299-7.23775-1.07903-9.18047-1.33152Zm153.26698,391.73569c-2.8643-6.38857-5.39255-12.40384-8.33785-18.20725-.46241-.91134-3.05286-1.49951-4.22437-1.06446-1.01729,.37752-2.29757,2.75138-1.94876,3.66558,2.24888,5.89417,4.77079,11.7009,7.58482,17.34575,.45758,.91798,2.88876,1.3621,4.26415,1.13936,.98302-.15947,1.72616-1.80032,2.66201-2.87898Zm8.73021-338.40967c-2.12064,.93127-3.32015,1.09021-3.47821,1.58325-2.01541,6.28558-3.97052,12.59577-5.63048,18.98049-.14576,.56039,2.13928,2.57243,2.86166,2.3691,1.51013-.42516,3.43368-1.61413,3.94183-2.95992,1.7134-4.53811,3.16858-9.22549,4.10571-13.9775,.33681-1.70791-1.07632-3.76117-1.80051-5.99542Zm75.96085,425.03752c-.62583,3.04916-2.10999,5.91244-1.27598,7.00453,2.95752,3.87276,6.49197,7.40546,10.28419,10.47894,1.16033,.94033,3.8514-.00921,5.84145-.09317-.38512-1.81407-.22713-4.06364-1.26277-5.35612-2.54206-3.17269-5.58202-5.9591-8.53463-8.78251-.97714-.93429-2.29968-1.50722-5.05227-3.25167Zm-352.28712-113.20808l-2.51825,.3212c-.62885,1.98138-2.41019,4.89917-1.6908,5.78483,3.46421,4.26478,7.36286,8.27134,11.59776,11.777,2.30021,1.90407,6.61686-1.23842,5.13783-3.35284-3.64673-5.21342-8.28622-9.7322-12.52655-14.53019Zm101.55226-141.73049c-1.13958,1.01606-2.70964,2.41606-4.2797,3.81606,1.61656,1.39925,3.01987,3.38335,4.897,4.06809,3.23621,1.18036,6.75073,1.93948,10.18199,2.08573,1.51488,.06456,3.11196-1.80319,4.67168-2.79373-.92475-1.40106-1.56289-3.59506-2.8286-4.05277-3.63091-1.31317-7.51606-1.92302-12.64238-3.12338Zm213.77535-253.76923c4.57069-3.51963,9.09065-6.8573,13.35751-10.49237,.45977-.39157-.16274-2.91326-.9914-3.71005-.78163-.75164-2.86226-1.14895-3.74006-.63114-3.8711,2.28385-7.65087,4.78508-11.14342,7.60464-.86919,.70174-.91094,2.95682-.63497,4.36067,.17724,.90137,1.6309,1.55169,3.15235,2.86826Zm-147.41594-27.77153c.20381-1.01176,.40761-2.02351,.61134-3.03527-4.82952-3.38516-9.32706-7.56372-14.64194-9.78913-2.32814-.97476-4.28038,3.03263-1.74496,5.67422,2.97232,3.09688,6.23336,6.05929,9.84375,8.32246,1.24405,.77973,3.91353-.71601,5.93181-1.17228Z"/><path d="M779.23079,775.45156c-10.54137-2.35188-21.39758-3.79432-31.53677-7.30745-10.46113-3.62466-18.15351-11.1741-21.23129-22.46327-1.79455-6.58276-.47419-9.01944,6.17773-9.51452,8.00157-.5955,16.04375-.84066,24.06992-.87525,24.93134-.10737,49.86397-.14474,74.79486,.00091,10.97744,.0641,15.13651,7.04304,8.74418,16.06738-3.85918,5.44801-9.77438,10.08926-15.73864,13.26414-13.91277,7.40629-29.33204,9.12371-44.921,9.25388-.11964,.52468-.23936,1.04943-.359,1.57419Zm49.99138-32.01615c-.13262-.7561-.26517-1.51212-.3978-2.26815h-82.05993l-.81409,2.48734c2.5866,1.31559,5.15259,3.7204,7.76312,3.76978,16.82961,.3184,33.68518,.55111,50.49811-.08728,8.37416-.31795,16.676-2.54057,25.0106-3.90168Z"/><path d="M788.9438,670.74436c8.97818-6.15035,18.78403-9.83715,29.9535-7.97204,7.35769,1.22853,11.51397,6.43304,12.88317,14.70196,3.09732,18.70558-18.88744,37.63359-37.01167,31.86567-7.26002-2.31043-10.41229-9.39039-6.76258-15.62901,2.04561-3.49645,4.91278-5.26348,9.1505-3.18862,7.17117,3.5111,13.88552,1.44636,19.51381-3.09764,2.27636-1.83785,4.16934-6.21287,3.62246-8.90112-.53473-2.62876-4.07302-5.78702-6.87837-6.54486-4.19395-1.13317-8.90798-.54356-13.3868-.35434-3.56094,.15048-7.10082,.79861-10.65014,1.22574l-.43388-2.10574Z"/><path d="M815.90603,609.376c7.33105-12.07864,19.82419-16.35,33.24353-12.02149,9.84714,3.17628,17.10112,9.48983,21.98793,18.60546,1.14358,2.1333,2.40815,4.24885,3.92115,6.12759,3.70413,4.59953,3.88522,8.88636,.28427,12.66769-3.70376,3.8893-9.9886,4.49016-13.83751,.6812-2.23915-2.21597-3.84076-5.28243-5.11643-8.2314-6.04292-13.9695-18.93228-21.16943-34.2261-18.85353-1.80028,.27261-3.5943,.5872-6.25684,1.02448Z"/><path d="M696.9069,649.7442c-6.15539-24.3946,14.61394-53.17916,37.62029-54.16857,6.13546-.26389,11.31658,2.05934,14.51135,7.64209,3.20904,5.60755,.29907,10.99467-6.20476,11.2769-3.06169,.13293-6.16747-.25015-9.22561-.62495-10.88444-1.33401-18.88148,3.22803-24.24406,12.35231-4.24588,7.22417-7.87664,14.81009-12.45722,23.52222Z"/><path d="M716.54314,670.407c-6.82078-3.98187-6.56889-9.04028-5.08828-14.15501,4.77396-16.49126,24.40794-21.86785,37.61622-10.29697,3.05188,2.67346,6.06217,5.57516,8.36381,8.87908,2.85336,4.09588,.69543,8.01017-2.38642,10.92215-3.42952,3.24049-7.21903,2.36313-10.29152-.83674-1.22948-1.28048-1.78791-3.19534-2.69628-4.79618-4.36024-7.68445-13.65016-8.09776-18.52874-.77883-2.34241,3.5142-4.5183,7.13946-6.9888,11.06251Z"/><path d="M584.79791,692.36017c-4.25709,3.29168-8.94779,5.60808-13.56403,.81348-3.95055-4.1032-3.27188-8.5575-.44203-11.8781-.8801-3.37851-1.58674-6.09116-2.29338-8.80387,2.8763-.52815,5.98812-2.03711,8.58774-1.41268,10.61017,2.54865,19.74543,8.13966,27.35116,15.89267,3.64888,3.71957,3.31301,8.48502-.00159,12.33777-3.54928,4.1254-8.1405,3.7401-12.1654,.71842-2.74285-2.05915-4.86824-4.9413-7.47247-7.66768Z"/><path d="M831.74899,662.1639c-6.817-3.56924-8.40933-10.89761-4.25041-17.37255,5.22015-8.12713,16.96986-10.01957,25.73977-4.14571,7.60596,5.09427,12.029,16.5793,10.00377,25.57775-.8929,3.96699-3.21832,6.97818-7.12188,5.70518-2.34716-.76539-4.34265-4.12752-5.4435-6.76262-1.05753-2.53143-.50295-5.68608-1.11369-8.46644-.94906-4.32088-3.85065-6.60036-8.33-6.82053-4.58805-.2253-6.57598,2.70607-7.84539,6.44897-.63474,1.8719-1.07655,3.80919-1.63867,5.83595Z"/><path d="M717.97529,545.25098c5.39602-2.70573,10.79137-5.41267,16.18822-8.11671,5.4352-2.72317,10.87183-5.4434,17.11486-8.5689-10.51548-6.14994-20.27083-5.64187-30.24947-2.93217-16.84395,4.57397-33.61151,9.48571-50.59812,13.45505-9.3679,2.18906-19.0954,2.94312-28.69971,3.98338-8.36178,.9056-13.15982,5.64678-14.86454,13.41401-3.52437,16.0581-7.44039,32.08928-9.75694,48.33674-2.25658,15.82694-2.71835,31.90995-3.99924,48.27777-2.17461-2.12673-5.11998-4.49311-7.44144-7.36431-11.5245-14.25362-28.02062-13.41145-40.37971-5.53627-4.05113,2.58142-7.64978,1.26741-9.1978-2.57047-3.65884-9.07123-7.60456-18.22737-9.58548-27.73457-4.49196-21.55862,.17022-42.2224,9.11899-61.91497,6.37773-14.03485,13.38921-27.78708,20.33337-41.55676,4.19791-8.32416,4.38281-8.2308-2.76383-14.01442-3.90394-3.15933-3.55415-5.64115,1.1435-8.27179,3.70376-2.07406,9.298-1.29339,10.52687-7.38688,.14493-.71888,4.67274-1.37758,6.74718-.72435,5.62146,1.77012,9.20161,.17411,13.40835-4.03012,23.17891-23.16501,52.02454-36.45036,82.87312-45.86677,20.92678-6.38774,42.27937-10.77276,64.17499-12.05441,19.56249-1.14514,38.2761,1.97734,56.83594,8.81761,17.27413,6.36641,35.43323,10.31834,53.16879,15.45048,6.24589,1.80742,12.39124,3.96231,19.53834,6.26674-2.27583,2.82175-3.71621,4.60769-5.81133,7.20537,3.25357,1.06495,5.8641,2.64035,8.48044,2.65024,10.99646,.0416,13.91903,4.55604,12.64819,16.17932,3.30543,.14512,7.92133-.98756,9.62756,.74564,2.36973,2.40723,3.13212,6.904,3.52237,10.61775,.42301,4.02487-.08182,8.22192-.69702,12.26548-1.17604,7.7299-5.04827,13.35761-15.10096,14.52902,3.90379,4.54977,6.78455,7.79714,9.53985,11.14768,3.07958,3.74475,8.06739,7.81699,4.16375,12.7743-3.79864,4.82378-8.89877,.86709-12.68654-1.50427-3.3865-2.12005-6.49809-5.14652-8.79294-8.42918-3.06064-4.37793-6.72529-5.50509-11.15377-3.40113-17.23767,8.18972-35.65387,9.16543-54.23047,9.20846-3.05414,.00706-6.52043,.15267-9.08755-1.15631-7.57426-3.86201-13.33094-.05153-19.33106,3.50132-20.89644,12.37353-43.53866,18.04956-67.76046,17.56324-2.14517-.04304-4.28181-.50682-6.42245-.77516-.18131-.82658-.36255-1.65313-.54386-2.47967Z" style="fill:#fff;"/><path d="M948.01162,1205.34091c-9.44716,6.89513-18.31664,13.36856-27.48835,20.06269,.03691,.0718-.64335-1.24114-1.31387-2.55899-1.49307-2.93455-2.51693-6.25206-4.55415-8.73977-7.64551-9.3361-15.1858-18.83831-23.70481-27.33609-3.05618-3.04856-8.88269-5.00601-13.24881-4.69614-8.67979,.61589-17.2031,3.26126-25.83201,4.84481-4.38832,.80533-8.86555,1.12622-13.54509,2.64922,3.76641,.72039,7.59094,1.22113,11.28888,2.20012,13.88892,3.67736,28.13947,6.45335,41.49902,11.54928,17.25881,6.58314,27.39324,29.67355,22.40106,47.4154-.4794,1.70353-1.39124,3.28542-2.88951,6.7374-2.09867-3.36945-3.77698-5.25328-4.55506-7.45552-3.16797-8.96568-9.23399-15.1078-17.99666-18.31001-13.51761-4.93964-27.13864-9.60981-40.8122-14.10042-3.68768-1.21124-9.02128-3.50589-10.60364,1.98025-1.39298,4.83001,3.64669,6.69028,7.53055,8.06642,12.57573,4.45573,25.19735,8.78198,38.09003,13.25847-.86821,11.27407,6.42834,24.40056-8.15442,32.3569-7.36094-12.45111-19.2669-17.80368-31.468-22.60213-1.93223-.75995-4.42025-.10631-7.6754-.10631,11.06915,7.97031,21.0388,15.1488,30.82692,22.19667-2.40929,10.24653-8.32751,14.33343-18.39378,13.69844-7.54187-.47568-14.10027,2.81827-18.97304,8.7144-3.66413,4.43361-7.16068,9.03303-10.39885,13.78572-7.07554,10.38486-16.82327,13.86847-28.95394,12.03115-13.4576-2.03831-27.15788-4.61633-40.37333-.00755-11.9668,4.17327-23.39042,9.90495-35.34288,15.07488-4.6704-11.69153-6.74333-24.87111-6.66513-38.234,.07707-13.15994,1.12848-26.33,2.25138-39.45287,.19913-2.3281,2.38589-5.11413,4.45029-6.51911,3.8825-2.64205,8.21564-4.7508,12.58773-6.52259,27.67329-11.21533,48.71314-30.55469,62.15678-56.49622,12.97345-25.03404,32.80504-35.55594,59.45779-36.68858,11.09285-.47137,22.18479-1.12441,33.2824-1.26107,6.06058-.07475,10.95456,2.89846,14.89368,7.59203,9.9424,11.84669,19.79393,23.72087,25.91942,38.17337,1.28549,3.03293,1.59346,5.13776-.64154,8.28908-1.67793,2.36585-1.95978,8.97353-.94324,9.43177,4.18549,1.88693,7.13758-1.28742,9.04173-5.00767,2.97836-5.81904,2.17151-11.72808-.47026-17.28534-8.83136-18.57677-20.52914-35.00657-36.65976-48.32794,4.07053-6.22518,10.29461-11.99408,10.95494-21.57353-6.53085,.7863-6.53953,5.79322-8.30063,9.22451-1.9662,3.83109-3.81419,7.72295-5.86161,11.88973-3.29267-.47024-6.48148-.92561-10.37893-1.48222,5.31254-8.19176,10.91735-15.76574,15.39889-23.95479,11.2574-20.57038,21.89192-41.48121,33.0521-62.10626,2.40649-4.44735,5.60443-8.63399,9.16613-12.21621,1.73424-1.74438,5.18459-2.64288,7.79361-2.5229,27.56617,1.26885,55.12699,2.69294,82.67188,4.36233,9.84722,.59686,19.6496,1.95337,29.46715,3.01171,2.80935,.30285,5.60043,.77588,9.33952,1.30351-8.41046,18.44584-16.20287,36.34526-24.68979,53.90876-7.61102,15.75094-16.13523,31.05838-23.91986,46.72876-1.96182,3.94918-4.56321,5.14645-8.63435,5.43872-16.39256,1.17696-31.88603,5.76996-46.92969,12.3448-16.64331,7.27378-19.73905,21.87427-13.14925,37.24293Z" style="fill:#fff;"/><path d="M953.9617,1199.4096c-3.53286-12.92988-1.12478-19.11474,9.81318-24.29161,18.11351-8.57321,37.25088-12.86215,57.32492-13.18335,4.17862-.06697,6.777,1.4601,8.06731,5.14222,2.69318,7.68558,5.86493,15.09527,3.41843,23.83232-1.9899,7.10616,1.27016,13.12166,7.0076,17.93264,8.55524,7.17374,8.46285,7.52604,2.25779,16.49768-4.80914,6.95341-4.6039,10.99757,1.76526,16.64106,4.39526,3.89443,5.28318,8.314,3.1402,13.29524-4.55166,10.57973-9.90134,19.39546-21.71521,25.00588-26.78937,12.72217-55.05687,17.47108-83.97156,20.32016-7.87128,.77558-11.65384-2.09796-12.51406-8.52806-1.00174-7.48897,3.07452-15.54376,9.21119-16.49934,21.93947-3.41702,43.94031-6.44051,65.92191-9.58481,2.44348-.34943,5.07862-.07354,7.31935-.90832,1.91132-.71201,3.38295-2.6052,5.0491-3.9759-1.82119-.86165-3.70444-2.57152-5.45332-2.44377-9.64047,.70476-19.31921,1.41676-28.85204,2.95131-18.862,3.03588-37.62022,6.71324-56.46999,9.83171-2.27198,.37571-4.84439-1.06597-7.27753-1.66532,.6509-2.22722,.66645-5.02043,2.0601-6.58609,6.89234-7.74281,14.49256-14.04213,25.39111-16.22579,21.54741-4.31711,42.90687-9.5867,64.28761-14.69857,1.93608-.46299,3.46289-2.63872,5.17984-4.01902-2.24564-.65998-4.69923-2.27223-6.70514-1.83407-22.27621,4.8661-44.46447,10.13313-66.72279,15.08402-5.04246,1.12162-10.76782,3.3533-14.41881-2.75032-2.83962-4.74718-.67928-11.23103,5.86115-15.88308,17.32153-12.32041,36.30129-20.75152,57.56481-23.69475,4.42485-.61249,8.75633-2.18608,12.98975-3.70907,1.17105-.42139,2.71937-2.46151,2.50394-3.38954-.26442-1.13951-2.24134-2.7211-3.40069-2.65941-3.8699,.2059-7.74545,.87585-11.54658,1.70058-12.39124,2.68848-24.75048,5.52427-37.08685,8.29535Z" style="fill:#fff;"/><path d="M405.91405,1355.65745c8.34181-10.19942,19.9492-13.60073,31.12629-17.55852,11.02733-3.90478,22.24548-7.27015,33.07206-10.7725,4.8017-46.28623,8.98474-92.61255,3.79177-139.19023,14.07438,45.10572,8.43258,90.9424,4.54978,137.26925,16.02208-3.57739,31.62444-6.83117,47.10893-10.57271,22.9422-5.54383,45.79778-11.44599,68.69929-17.15895,2.5869-.64541,5.21577-1.28765,7.85785-1.47777,1.36954-.09861,2.81063,.79627,4.21935,1.2425-.69973,1.33627-1.06458,3.37912-2.15306,3.89542-7.59082,3.60035-15.05936,7.87917-23.07769,10.07544-20.39534,5.58641-41.03729,10.28353-61.61858,15.17651-32.11584,7.63529-64.28806,15.03516-96.37405,22.79277-5.69275,1.37629-11.08213,4.00792-17.20193,6.27878Z" style="fill:#fff;"/><path d="M455.20411,1489.86114c5.69558-3.16967,11.27756-6.56736,17.10471-9.47307,49.87303-24.8699,99.78225-49.66746,149.71883-74.40945,2.54067-1.25896,5.38093-2.11201,8.1776-2.5756,1.53519-.25445,3.27071,.70098,4.91595,1.11082-.78926,1.71893-1.17007,3.89209-2.46062,5.0538-2.09671,1.88715-4.66278,3.38667-7.24869,4.57586-48.54251,22.32404-97.11692,44.57862-145.68551,66.84574-7.78267,3.56803-15.56948,7.12685-23.35434,10.69004-.38931-.60615-.77861-1.21215-1.16792-1.81814Z" style="fill:#fff;"/><path d="M1005.87044,1353.48745c1.66328,1.97897,3.49301,3.84211,4.96184,5.95623,7.51772,10.82052,11.96416,22.8932,13.51157,35.90575,.5468,4.59776,.18192,9.45646-.7143,14.00936-.45011,2.28672-3.02448,4.15515-4.63824,6.21264-1.29485-2.04858-3.36816-3.9599-3.75667-6.16809-2.34113-13.30551-4.09567-26.71522-6.48178-40.01182-.92249-5.14003-2.98409-10.07544-4.52668-15.10418,.54809-.26668,1.09617-.53321,1.64426-.79989Z" style="fill:#fff;"/><path d="M523.67721,1048.35395c-.85531-.77271-3.07532-1.88255-3.08094-3.00348-.00762-1.50367,1.43479-4.0311,2.70911-4.36067,8.70647-2.25146,17.50681-4.1772,26.34836-5.82417,1.21721-.22674,2.82905,1.66645,4.25818,2.57817-.9794,1.50669-1.69574,4.02189-2.98062,4.35728-8.70794,2.27253-17.53602,4.08471-27.25409,6.25289Z" style="fill:#fff;"/><path d="M905.00708,1367.47477c-1.33636,1.06461-2.52085,2.48409-4.03528,3.13282-6.79224,2.91009-13.59762,5.84101-20.5896,8.19569-1.66449,.56039-4.06645-1.0705-6.1292-1.69356,1.05202-1.69567,1.71416-4.26131,3.22293-4.93798,6.90177-3.09552,13.96432-5.89552,21.14969-8.25005,1.75545-.57534,4.19312,.93263,6.31723,1.48305,.02136,.68996,.0428,1.37992,.06424,2.07002Z" style="fill:#fff;"/><path d="M659.14137,1129.81905c1.787-8.15423,3.06977-15.03871,4.94365-21.75822,.41441-1.4857,2.91993-2.38797,4.46252-3.55882,.85629,1.82834,2.64125,3.78737,2.40551,5.46198-.94392,6.70719-2.33093,13.37211-3.97459,19.94755-.44724,1.78915-2.36694,3.20999-3.61091,4.79981-1.52054-1.76023-3.04109-3.52039-4.22618-4.8923Z" style="fill:#fff;"/><path d="M390.75131,1420.21042c-2.36883,2.17966-3.22315,3.39271-4.39145,3.96926-6.25378,3.08767-12.51111,6.19845-18.95387,8.84699-1.2893,.52989-3.3882-.91073-5.11375-1.44274,.53035-1.59435,.59708-4.08025,1.66702-4.63717,6.53568-3.40147,13.20885-6.5956,20.06155-9.28385,1.39864-.54861,3.75716,1.35092,6.7305,2.54751Z" style="fill:#fff;"/><path d="M357.31767,1260.87694c1.11757,.59633,1.83097,.97959,2.54667,1.35862,5.03166,2.665,10.232,5.06815,15.00037,8.14178,1.56995,1.01191,2.02292,3.7577,2.98662,5.71054-1.94616,.30489-4.27245,1.44696-5.77106,.76622-5.72577-2.60142-11.28416-5.62718-16.65667-8.90225-1.01643-.61959-1.37637-3.17631-1.13154-4.69259,.15357-.9512,2.00137-1.62878,3.02561-2.38231Z" style="fill:#fff;"/><path d="M576.40499,1491.2841c2.26666,1.38958,3.60121,1.76529,4.19198,2.6425,3.54509,5.2634,7.07674,10.55172,10.22422,16.05417,.66728,1.16669,.29359,3.90825-.64493,4.72883-.87202,.76214-4.03336,.56085-4.64583-.30579-3.99448-5.65225-7.74741-11.50232-11.10897-17.54915-.5713-1.02761,1.12607-3.3169,1.98352-5.57055Z" style="fill:#fff;"/><path d="M381.70493,1131.71368c-1.02129-.94365-2.76666-1.81542-3.06041-3.03671-.29227-1.21532,.47509-3.55897,1.46491-4.06613,5.96887-3.05815,12.08086-5.86396,18.28991-8.39902,1.00869-.4118,3.45485,.59324,3.94425,1.5828,.53265,1.07722,.03355,3.79281-.83443,4.25459-6.28111,3.34235-12.76938,6.29517-19.80423,9.66447Z" style="fill:#fff;"/><path d="M494.76101,936.00798c1.41317,1.29792,2.87419,2.63986,4.33518,3.98179-1.4249,1.36867-2.62619,3.42978-4.31672,3.97613-5.05899,1.63452-10.26729,2.92587-15.50845,3.81146-1.78066,.30096-3.83264-1.00466-5.76061-1.57623,1.22155-1.82705,2.06463-4.67198,3.73448-5.29323,5.34613-1.98856,10.99846-3.15359,17.51613-4.89992Z" style="fill:#fff;"/><path d="M718.61811,1451.04531c-.64916,1.23842-.97706,2.21998-1.58818,2.97109-3.48146,4.27852-6.82833,8.70051-10.67988,12.62295-1.1512,1.17228-3.77811,.89457-5.72883,1.28116-.05812-1.8417-.89139-4.24349-.03729-5.42604,3.33864-4.62237,7.09901-8.96251,10.96966-13.16115,.87908-.95377,2.91865-1.4231,4.25509-1.18119,1.04749,.18952,1.83395,1.82162,2.80943,2.89317Z" style="fill:#fff;"/><path d="M545.80551,1164.28984c-2.18272,1.34979-4.05849,3.43439-5.26793,3.10088-5.86368-1.61662-11.6232-3.7059-17.22752-6.08111-.99872-.42328-1.92185-3.43016-1.38086-4.4432,.60655-1.13581,3.15971-2.20684,4.44236-1.83694,5.47309,1.57849,10.82745,3.60442,16.13233,5.70193,1.09066,.4312,1.78323,1.86971,3.30162,3.55844Z" style="fill:#fff;"/><path d="M411.49248,1034.34406c-1.59003,.60283-3.40778,2.03023-4.73037,1.66464-5.51918-1.52519-10.99287-3.35103-16.24061-5.6265-1.28424-.55692-1.65022-3.23256-2.43839-4.93413,1.69306-.60781,3.60676-2.05047,5.03921-1.67189,4.94391,1.30683,9.73996,3.19504,14.55008,4.97611,1.87984,.696,3.64775,1.69477,5.46664,2.55567-.54884,1.01206-1.09772,2.02412-1.64656,3.0361Z" style="fill:#fff;"/><path d="M652.2242,993.81767c1.94272,.25249,5.65093,.43853,9.18047,1.33152,1.5136,.38288,2.65567,2.23538,3.96659,3.42012-1.56281,1.25775-3.10351,3.54976-4.69252,3.58373-5.27344,.11265-10.60047-.34589-15.8253-1.13007-1.4674-.22017-2.654-2.31277-3.96938-3.54651,1.36852-1.21962,2.55588-2.9165,4.15666-3.52469,1.60524-.61,3.62284-.1341,7.18348-.1341Z" style="fill:#fff;"/><path d="M805.49118,1385.55336c-.93585,1.07865-1.67898,2.71951-2.66201,2.87898-1.37539,.22274-3.80656-.22138-4.26415-1.13936-2.81403-5.64485-5.33594-11.45158-7.58482-17.34575-.34881-.91421,.93147-3.28806,1.94876-3.66558,1.17151-.43506,3.76195,.15312,4.22437,1.06446,2.9453,5.80341,5.47355,11.81868,8.33785,18.20725Z" style="fill:#fff;"/><path d="M814.22139,1047.14369c.72419,2.23425,2.13732,4.28751,1.80051,5.99542-.93713,4.75201-2.3923,9.43939-4.10571,13.9775-.50816,1.34579-2.43171,2.53475-3.94183,2.95992-.72238,.20333-3.00742-1.8087-2.86166-2.3691,1.65996-6.38472,3.61506-12.69491,5.63048-18.98049,.15806-.49304,1.35757-.65198,3.47821-1.58325Z" style="fill:#fff;"/><path d="M890.18224,1472.18122c2.75259,1.74445,4.07514,2.31738,5.05227,3.25167,2.95262,2.82341,5.99257,5.60982,8.53463,8.78251,1.03564,1.29248,.87765,3.54206,1.26277,5.35597-1.99005,.08411-4.68112,1.03365-5.84145,.09332-3.79222-3.07348-7.32667-6.60617-10.28419-10.47894-.83402-1.09209,.65014-3.95537,1.27598-7.00453Z" style="fill:#fff;"/><path d="M537.89512,1358.97314c4.24033,4.79799,8.87982,9.31677,12.52655,14.53019,1.47903,2.11442-2.83762,5.25691-5.13783,3.35284-4.2349-3.50566-8.13355-7.51222-11.59776-11.777-.7194-.88567,1.06194-3.80345,1.6908-5.78483l2.51825-.3212Z" style="fill:#fff;"/><path d="M639.44739,1217.24265c5.12632,1.20037,9.01146,1.81021,12.64238,3.12338,1.26571,.45771,1.90385,2.65171,2.8286,4.05277-1.55972,.99054-3.1568,2.85829-4.67168,2.79373-3.43126-.14625-6.94578-.90537-10.18199-2.08573-1.87713-.68475-3.28044-2.66885-4.897-4.06809,1.57006-1.4,3.14012-2.8,4.2797-3.81606Z" style="fill:#fff;"/><path d="M853.22273,963.47341c-1.52145-1.31657-2.97511-1.96689-3.15235-2.86826-.27597-1.40385-.23423-3.65894,.63497-4.36067,3.49255-2.81956,7.27232-5.32079,11.14342-7.60464,.8778-.51781,2.95843-.1205,3.74006,.63114,.82866,.7968,1.45117,3.31849,.9914,3.71005-4.26686,3.63508-8.78682,6.97274-13.35751,10.49237Z" style="fill:#fff;"/><path d="M705.8068,935.70189c-2.01828,.45627-4.68776,1.95201-5.93181,1.17228-3.61038-2.26316-6.87143-5.22557-9.84375-8.32246-2.53542-2.64159-.58319-6.64898,1.74496-5.67422,5.31488,2.22541,9.81242,6.40397,14.64194,9.78913-.20373,1.01176-.40754,2.02351-.61134,3.03527Z" style="fill:#fff;"/><path d="M829.22218,743.43541c-8.3346,1.36112-16.63644,3.58373-25.0106,3.90168-16.81293,.63839-33.6685,.40568-50.49811,.08728-2.61053-.04938-5.17652-2.45419-7.76312-3.76978l.81409-2.48734h82.05993c.13262,.75602,.26517,1.51205,.3978,2.26815Z" style="fill:#fff;"/></svg></svg>
