<?xml version="1.0" encoding="UTF-8"?><svg id="a" xmlns="http://www.w3.org/2000/svg" viewBox="0 0 1366 1555"><svg y="-200"><path d="M619.14718,884.60936c-.38029,.60713-.76055,1.21434-1.1408,1.82148,.69356,.96595,1.31535,1.99501,2.0966,2.88383,1.36096,1.54829,2.71642,3.12729,4.25393,4.49059,19.16126,16.98769,40.89799,29.36957,65.5675,36.435,5.46445,1.56497,8.62311,4.72806,8.01615,10.71946-.58339,5.75772-.76491,11.6129-1.98188,17.23934-4.28479,19.80985,.4325,36.36727,16.63486,49.16592,2.10524,1.66304,4.59817,3.24159,5.88876,5.45578,4.39413,7.53832,11.23152,15.1361,11.80096,23.09308,.99837,13.95429,2.58672,27.51973,6.86742,40.76799,5.64711,17.47688,11.42881,34.91091,17.27784,52.32128,1.31016,3.89976,2.87371,7.77207,4.85726,11.36019,.81905,1.48169,3.19748,3.17006,4.60181,2.96346,1.45574-.21403,3.44285-2.47222,3.70049-4.07686,.67748-4.21967,1.66592-8.89495,.53448-12.81185-4.86241-16.83471-10.62523-33.40677-15.68434-50.18793-2.4949-8.2756-4.64473-16.71601-6.11828-25.22605-2.68438-15.5019,.96258-29.53029,11.21021-41.71839,5.95731-7.08538,9.1124-14.83818,4.37616-23.9103-4.11934-7.89061-3.79444-9.50049,3.47985-14.53594,2.2098-1.52978,4.48792-2.96597,6.78227-4.36719,21.50471-13.13252,39.41189-30.06165,53.66536-50.84618,3.70398-5.40133,2.91466-9.52218-1.47477-14.47648-3.85495-4.35096-6.96023-9.36647-10.94764-14.84554,3.8413-1.08199,5.96557-1.7137,8.10751-2.27829,14.78408-3.89688,28.29092-10.41244,40.43277-19.72202,29.73566-22.79918,46.69982-53.65447,55.94651-89.26254,9.29142-35.78024,10.34408-72.3761,10.39875-109.06298,.04117-27.60323-1.82219-55.02854-7.91811-82.00534-5.52322-24.44254-13.89551-47.69807-30.76087-66.94285-3.89786-4.44781-8.30223-8.45156-12.53682-12.72341,5.17109-.9694,5.33616-3.3122,2.46601-6.85056-.90776-1.11916-2.18561-2.93825-1.83584-3.91383,2.12397-5.92416-.68294-9.88107-4.60765-13.68573-55.25265-53.5627-120.69318-70.29501-194.76577-52.08384-41.80821,10.27884-74.61147,35.16855-99.36029,70.0974-28.96268,40.87595-41.91369,86.45709-35.96241,136.55625,1.46639,12.34434,5.64359,24.36658,8.67285,36.94521-2.33499,2.15519-5.87716,4.77174-8.61724,8.05747-20.50004,24.58289-7.92201,65.29672,23.15084,73.88692,8.22815,2.2748,17.15615,1.93577,25.70734,3.17879,2.17966,.3168,5.12446,1.56482,6.05497,3.28489,6.48269,11.98386,12.17552,24.40109,18.80796,36.29643,7.23581,12.97772,14.09071,26.51987,26.10489,35.86131,5.0111,3.89627,11.3194,6.84237,17.49326,8.33256,6.95143,1.67783,12.57913-2.71113,13.68047-8.53211,.98336-5.19746-2.5984-8.81038-9.45634-11.97794-5.28035-2.43885-10.83716-5.55218-14.5717-9.8449-15.72566-18.07567-30.84162-36.68332-46.05623-55.19873-.80183-.97589-.80077-2.93942-.59571-4.35968,.98123-6.79482-1.50267-10.24657-8.41657-10.87865-5.35561-.48958-10.7486-.55541-16.11236-.97232-19.89345-1.54662-32.16812-17.33778-28.76785-36.92564,2.35451-13.56331,14.54099-24.02733,29.93837-23.61466,9.52602,.25529,18.97906,3.2359,28.1119,4.92768-.33772-.89216-1.07362-2.83612-1.80953-4.78016l1.12022-1.73001c6.99692,3.22103,14.12635,6.18753,20.95028,9.74099,5.81021,3.02558,9.92796,1.13645,10.04185-5.30622,.04375-2.47063-.19358-4.96348-.50529-7.42046-3.62293-28.55554-6.76991-57.14251-5.64704-86.00552,.14399-3.70261,.4303-7.4274,1.03931-11.07702,.73155-4.3838,3.24335-6.83122,8.0605-6.92641,7.03105-.13887,14.08749-.38696,21.07031-1.15769,6.33112-.69879,12.73791-1.62216,18.81775-3.43294,6.22405-1.85371,7.93517-8.73977,4.08735-14.01144-1.08686-1.48901-2.57087-2.6858-3.85563-4.03291-11.80763-12.38003-9.34867-28.73563,5.60602-36.69613,2.90268-1.54514,5.97975-2.87659,9.11847-3.84648,31.26904-9.66219,62.55256-6.60687,93.70066,.49064,12.03533,2.74242,23.755,6.84495,35.7374,9.85377,13.13113,3.29722,25.07986,1.68431,33.65278-10.29882,1.41608-1.9795,2.50347-4.19423,4.2371-7.14021,25.44389,39.18769,38.481,79.49815,41.91998,122.92497,2.88448,36.42412,1.8413,72.84418-2.52045,109.1014-3.53027,29.34576-10.52553,57.74642-25.92317,83.47857-26.38039,44.08595-69.3161,62.51445-117.91166,50.4546-8.61947-2.13911-17.08601-4.90114-25.71906-6.97692-4.68908-1.12758-9.39598-.49822-11.40531,4.8105-2.0207,5.33853,.91178,9.0706,5.48614,10.93144,8.18159,3.32812,16.41376,7.12208,24.99813,8.74227,16.15899,3.05008,32.58337,4.69309,49.81481,7.04632,3.29522,9.46226,7.96246,19.91801,21.57264,25.05502-14.26287,9.91604-27.49166,19.43222-41.05923,28.43767-9.62505,6.38875-20.19379,11.42868-29.45943,18.26642-10.87212,8.02334-12.03176,16.7732-6.23808,28.92823,.96963,2.03422,1.26125,5.41331,.21215,7.19823-3.21416,5.46807-7.23327,10.46265-9.80968,14.06283-7.48318-6.65352-15.13454-13.25994-22.5541-20.11725-5.69428-5.26276-7.9363-12.07093-7.08215-19.6932,.82739-7.38375,2.14528-14.71122,3.17784-22.07327,2.67104-19.04473-2.97736-26.82318-21.14705-32.37832-14.12313-4.31789-27.77577-10.17565-40.84874-15.05457,3.21841-10.16291,6.67528-18.64511,8.46017-27.46573,1.49577-7.39186,1.37862-15.18183,1.31031-22.78962-.03655-4.0651-3.14941-6.23804-7.27512-5.90038-4.1223,.33728-5.48796,3.16711-5.34177,6.96941,.05558,1.44863,.17182,2.89612,.1838,4.34482,.10812,13.03559-2.55071,25.34095-9.26708,36.71009-6.27281-3.32585-12.13299-6.43296-17.99324-9.54008Zm-192.93554,632.25063c-1.64886,6.33603-3.19043,13.36741-5.36414,20.19749-1.30837,4.11091-1.00842,7.76919,2.49384,9.87857,2.30045,1.38537,6.7944,2.34708,8.3031,1.09125,2.41237-2.00821,4.28149-5.98123,4.38268-9.18657,.22076-6.99315-.29893-14.1166-1.50715-21.01312-.91402-5.21688,1.01554-7.07506,5.40857-9.07326,57.28267-26.05677,112.15677-56.48081,164.3546-91.66119,4.4011-2.96627,8.30962-6.80248,11.94168-10.70512,1.48701-1.59774,2.78705-4.83159,2.17883-6.65625-2.21022-6.63107,1.15847-10.10732,6.44485-11.72401,16.54979-5.0617,33.01647-10.85453,49.94863-14.10841,32.92859-6.32784,62.33593-17.89471,82.52396-46.47618,1.63203-2.31082,3.98445-4.26412,6.35227-5.8655,3.09709-2.09482,6.54304-3.6736,10.16506-5.65252,1.07829,3.50128,1.75835,5.86762,2.53387,8.20226,5.72286,17.22895,16.31754,29.61766,35.21437,31.46447,19.74135,1.92933,39.60744,2.81549,59.44167,3.47974,13.36459,.44794,24.75344-5.10842,33.21316-15.36575,5.88255-7.13255,11.50304-14.73518,15.78632-22.89163,23.35981-44.4839,24.32527-91.62107,15.21817-139.70037-.4024-2.12455-3.38537-4.70356-5.66918-5.38533-30.35483-9.0612-61.27607-14.03757-93.05176-11.1881-10.40952,.93349-20.74647,2.67693-31.34539,4.08027,.04997-6.12981-3.62042-9.00515-8.74405-10.68222-9.03673-2.9577-18.05329-5.97744-27.09131-8.93112-13.89634-4.54125-25.17214-.90429-33.84105,10.88525-6.92156,9.41349-15.119,16.31646-26.89053,20.08843-20.18727,6.46861-35.20853,20.43602-46.73409,38.09523-7.68146,11.76907-14.50505,24.18228-23.04499,35.28149-7.48212,9.724-16.76702,18.0715-25.40234,26.88324-1.2189,1.244-3.40967,2.55504-4.912,2.31856-5.49839-.86538-11.19672-1.67616-16.23637-3.85638-4.04898-1.75185-6.85877-1.08336-10.37437,.71612-28.15026,14.40951-56.26971,28.88667-84.62204,42.89057-12.52522,6.18647-25.56794,11.32477-37.89974,16.73035-2.55901-2.9373-4.60071-5.28074-5.49789-6.3104,2.81211-10.79007,7.20309-20.9614,7.8587-31.36784,2.23801-35.52153,3.1761-71.12513,4.54741-106.69983,.07609-1.97423-.41513-3.9703-.64234-5.95621-1.65724,.7614-2.18501,1.4239-2.26894,2.13851-2.96497,25.24986-5.98358,50.49411-8.7718,75.76369-1.15665,10.48259-1.77537,21.02389-2.69754,31.53318-1.26421,14.40693-6.4977,26.83402-19.33702,35.89818-14.96913-1.86319-30.68296-7.36964-47.13869-6.88879-.17728,.73129-.35455,1.46258-.53179,2.19387,18.06031,5.71017,36.12065,11.42033,55.12602,17.42933-17.75159,7.14544-34.47471,13.87678-51.19783,20.60827,.32744,.79879,.65493,1.59758,.98241,2.39638,69.60074-15.83705,134.24759-44.51894,197.6228-78.10569-.20389,2.01397-.31709,3.23233-.45191,4.44842-1.75316,15.81824-4.074,31.59947-5.10005,47.46458-.95261,14.72988,2.38132,28.74242,10.73222,41.31543,2.68594,4.04402,4.76422,8.49168,7.17541,12.85394-61.64844,42.51423-124.86219,79.117-192.4784,107.8491-21.71553,9.22798-44.01309,15.48286-68.04064,13.44325-26.01151-2.20828-40.54676-14.87413-43.68949-40.62585-4.22876-34.65054-3.29598-69.4162,.00669-104.12302,.10149-1.06637,.56991-2.77605,1.25909-3.0051,7.85602-2.60813,7.74293-9.74205,8.62372-15.81445,2.52185-17.3867,4.1449-34.90583,6.75922-52.2766,7.61652-50.6081,20.03725-100.10213,35.73543-148.76657,13.14732-40.75661,27.42346-81.09706,49.1137-118.30863,10.42536-17.88568,21.20372-35.61854,36.58973-49.82145,18.45827-17.03873,40.84457-27.07331,64.27262-35.16218,27.18435-9.38573,56.69223-11.76027,82.85247-28.48834,12.13822,13.70256,24.56362,26.7195,35.82589,40.67553,17.70496,21.93979,38.73683,38.16418,66.8783,44.22672,6.58209,1.41799,12.73214,4.76757,19.17882,6.93778,1.86208,.62685,4.06483,.24118,6.11138,.31968-.48322-1.87153-.48709-4.08164-1.52921-5.55863-5.84107-8.2781-14.4469-12.82368-23.51532-16.57835-5.9059-2.4453-12.0495-4.34861-17.84789-7.01439-12.48375-5.73937-22.29206-14.87641-30.92609-25.38236-12.29013-14.95483-24.58561-29.90526-36.35422-44.21943,5.9862-8.86567,12.11706-17.66884,17.85213-26.72283,.91132-1.43877,.04257-4.00564-.00318-6.05094-1.79812,.57664-3.95261,.70368-5.33734,1.80183-10.04101,7.96297-19.98444,16.05298-29.80955,24.28103-1.82515,1.52857-4.28062,3.9141-4.20537,5.81544,.27789,7.01734-4.74762,7.6643-9.3942,8.88956-4.78981,1.26311-9.60958,2.47427-14.47935,3.3618-20.91321,3.81171-42.12918,6.3716-62.71156,11.49208-30.35093,7.55068-57.9285,20.94289-79.03801,45.15331-17.80914,20.42518-31.99816,43.25765-43.6842,67.57903-44.4015,92.4097-67.92093,190.66957-80.72101,291.8317-.93906,7.42137,.40622,15.13777,.76007,22.7137,.10905,2.33509,1.05205,4.7838,.59893,6.96994-6.96764,33.61814-10.14076,67.49598-7.76985,101.8307,1.7862,25.86761,12.0467,45.82331,37.85039,55.05417,17.42145,6.23228,35.45435,7.21917,53.21879,2.94276,18.20865-4.38335,35.98295-10.57194,54.46321-16.12526Zm431.91571-566.15262c14.79576,6.6586,28.94012,12.86206,42.94875,19.35835,43.12239,19.99772,72.26033,52.63353,88.52077,97.27352,12.51377,34.35406,19.29452,70.08697,26.36432,105.73425,11.44936,57.72966,22.25043,115.5878,33.36207,173.3848,7.58751,39.4662,13.35284,79.18131,13.89566,119.42006,.31785,23.56953-.80381,47.15787-1.23972,70.73847-.1176,6.35757,2.39906,9.383,7.87018,9.65726,5.9401,.29792,8.07013-3.35399,8.38245-8.48941,1.09209-17.95675,3.01657-35.92548,2.91527-53.8801-.2857-50.65763-9.03362-100.39997-18.45084-149.95301-10.06558-52.96421-20.65905-105.83733-31.83279-158.5784-7.48348-35.32252-15.1353-70.69987-25.00647-105.39948-9.25541-32.53547-26.5494-60.95653-53.05657-82.99636-21.23576-17.65686-46.50731-26.457-72.64658-33.3938-7.0889-1.88124-14.20221-3.67041-21.22204-5.48066,1.1714-8.18102-1.38431-12.57135-6.74292-11.09936-2.89714,.79591-6.47465,4.21376-7.18065,7.08067-5.5151,22.39629-18.94801,40.27014-32.54932,57.9669-8.08636,10.52112-20.55828,12.35413-32.30896,6.04199-2.72866-1.46577-5.37104-3.44515-8.29571-4.09339-2.92952-.64938-6.16249,.07054-9.26246,.19029,3.94912,3.04401,7.78299,4.4039,10.78644,6.80384,16.55343,13.2271,35.13673,11.80092,49.51978-4.06753,14.82738-16.35856,27.69532-33.96308,35.22931-56.21891Zm121.06638,260.70224c-.59529-.14926-1.19051-.29845-1.78572-.44763-7.6117,10.81274-12.92838,22.80274-17.1221,35.30917-12.17643,36.31274-15.09223,74.13539-15.89035,111.92027-.9299,44.01746-.2716,88.11365,1.30758,132.11776,.65284,18.19202,5.42487,36.24494,8.55616,54.32076,.22755,1.31347,2.35804,2.29717,3.60382,3.43408,.80252-1.22322,2.23073-2.40608,2.31224-3.67557,.9641-15.02992,2.52606-30.07985,2.38746-45.11038-.36266-39.30723-1.4389-78.60838-2.32824-117.90984-1.16503-51.48555,2.21905-102.51315,14.9167-152.64062,1.45536-5.74536,2.70008-11.54404,4.04246-17.31799Zm-203.13889,218.87137c-1.55317-22.6456-3.02271-45.74838-4.87614-68.82022-.21382-2.66047-2.56534-5.14937-3.92561-7.71777-1.36839,2.45887-2.85923,4.86056-4.04701,7.40362-.49725,1.0647-.41339,2.42596-.48929,3.65888-2.42946,39.42312-5.00041,78.8388-7.11908,118.2789-.37093,6.90608,.87121,13.96415,2.01744,20.84369,.31095,1.86623,2.80161,4.30356,4.65254,4.67337,1.39781,.27911,4.13466-1.96573,4.93293-3.70424,1.87527-4.08391,3.80301-8.46104,4.19585-12.8547,1.82136-20.37087,3.12651-40.78801,4.65837-61.76154Zm22.89713-674.7732c-.51583-2.25174-.55912-4.4918-1.51041-6.2366-4.00834-7.35242-7.95511-14.78107-12.62091-21.71263-2.05133-3.0475-5.70011-4.12403-8.27387,.49071,1.04136,.61047,2.11093,.94191,2.75141,1.65758,8.67748,9.69647,9.18534,31.63019,1.1949,41.94266-1.4496,1.8707-2.89654,4.22066-3.11453,6.46876-.44546,4.59442,1.85973,8.096,6.45168,9.34872,5.11923,1.39652,8.59081-1.64939,10.46328-5.71737,2.33999-5.08369,3.69488-10.62101,5.52049-16.09871,1.82196,.80114,3.64378,1.82876,5.5973,2.42323,10.25499,3.12054,20.61158,3.77879,29.73149-2.59752,2.99715-2.09543,5.64931-6.93642,5.67888-10.54471,.05664-6.9016-7.90203-9.95859-14.43727-5.91722-8.31459,5.14187-16.82503,8.86188-27.43244,6.49311Zm-40.37758-151.2851c-.16931-7.70427-4.30837-12.16797-10.16286-13.27078-18.02129-3.39472-43.66923,13.47795-47.09653,31.40558-.53501,2.79892,1.31023,6.05313,2.05482,9.09684,2.69075-1.38522,6.19555-2.11765,7.92417-4.27443,5.88672-7.34514,13.16191-11.63023,22.43627-13.00935,6.0969-.90664,12.32891-1.76672,18.07346-3.8345,3.10513-1.11776,5.31379-4.72757,6.77067-6.11336Zm62.5697,66.07037l-.09372,2.61064c3.43246,3.17401,7.12969,6.11017,10.23922,9.57413,5.56234,6.19625,6.32573,13.55474,2.41331,18.61857-3.87906,5.02051-10.98092,5.78192-18.64578,1.64112-3.61618-1.9536-7.01345-4.35642-10.34454-6.78291-3.74356-2.72713-7.17996-3.15414-10.19478,.83307-3.09868,4.09794-2.47905,8.18823,1.86738,10.53432,6.83679,3.69021,13.80141,7.75705,21.22461,9.61319,13.50501,3.37682,25.26449-4.52176,28.84276-17.86323,3.49653-13.03711-2.98525-25.17258-16.0931-29.17716-2.77264-.84703-6.12837,.21555-9.21537,.39826Zm-318.19022,517.41605l.28206,2.60184c4.32979,.26068,8.72403,1.13213,12.97899,.68328,28.11921-2.96635,56.22247-6.09985,84.2974-9.459,6.72313-.80448,13.38984-2.41367,19.92629-4.21846,1.69822-.46902,2.80756-3.072,4.1874-4.69476-1.88558-1.32166-3.64158-2.93692-5.70773-3.84971-1.15203-.50892-2.83277,.07016-4.25359,.29572-32.81986,5.20914-65.64192,10.40485-98.44813,15.69901-4.46294,.72014-8.84384,1.9489-13.26268,2.94208Zm336.62339-538.38435c.43288,.73152,1.6111,2.72266,2.78932,4.7138,1.6898-1.24726,3.45619-2.40593,5.04007-3.77568,.91891-.79477,1.55309-1.9225,2.30079-2.91136,3.50206-4.63158,8.0561-7.20278,13.91477-6.13998,5.96095,1.08131,8.11411,5.71259,9.36126,11.05924,1.58926,6.81347,4.43477,9.03344,10.00507,8.12596,4.59408-.74843,6.93202-4.8152,6.36084-11.06432-1.11446-12.19341-14.62121-24.03738-27.06318-23.73161-11.7704,.28931-22.88174,11.05985-22.70894,23.72395Zm-9.40751-47.90126c.38609,.71461,.77211,1.42921,1.15821,2.14378,3.31311-.19833,6.65314-.19431,9.93456-.6308,12.93141-1.71996,23.45754,2.44382,31.71352,12.52489,1.69056,2.06425,3.31933,4.32024,5.43011,5.86982,4.41521,3.24136,11.18443,1.27862,11.89642-3.79897,.49755-3.54906-.08894-8.06904-1.98142-10.99803-10.14527-15.70209-35.34698-21.4201-51.30178-11.88048-2.67566,1.59986-4.58573,4.48077-6.8496,6.76979Zm-107.05456,62.27558c1.51784-3.01132,2.52303-5.22628,3.71528-7.33559,9.12575-16.14634,21.82362-16.82887,32.34407-1.67699,2.53084,3.64493,5.74485,5.93338,9.9087,3.85304,4.21458-2.10567,4.16779-6.31389,2.89585-10.3416-3.11741-9.87205-16.02274-17.96206-28.12289-17.73066-10.64768,.20372-21.86358,8.60037-24.25407,18.92596-1.05478,4.55627-1.75183,9.70375,3.51306,14.30583Zm-401.6878,754.45365c1.55366-2.48041,2.52898-4.82613,4.17159-6.52701,8.32812-8.62441,16.66648-17.25185,25.32481-25.53997,6.25905-5.9914,13.36876-11.12211,19.35712-17.35045,1.84926-1.92326,1.25753-6.19481,1.78345-9.39119-3.05747-.21449-6.17238-.86963-9.15138-.48146-1.84634,.24073-3.68594,1.84772-5.18205,3.21974-4.72233,4.33026-9.78045,8.43192-13.79985,13.36316-8.4615,10.38081-16.54899,21.08684-24.34195,31.98006-2.34928,3.28421-3.69632,7.70214,1.83827,10.72712Zm241.72017-708.95313c3.39201-7.26452,8.22466-5.46322,13.11687-3.15323,8.37889,3.95619,16.71049,8.01485,25.13321,11.87502,4.78682,2.19387,8.62387,.48502,10.41452-4.30803,1.77859-4.76082-.1913-8.30169-5.51662-9.63185-6.3917-1.59652-12.75599-3.4274-19.24156-4.48589-5.63437-.91946-11.45827-1.49178-17.13033-1.13493-5.58247,.35116-8.35913,3.92881-6.77609,10.83891Zm266.69661,188.60691c-.44357,.33341-.88721,.66682-1.33086,1.00023,.59863,1.79865,.80206,3.88315,1.86117,5.34892,6.12518,8.47606,12.30078,16.92587,18.77915,25.13192,2.95189,3.73905,7.04394,5.7738,10.99851,1.33827,3.95162-4.43219,1.16306-7.9478-2.49657-10.92947-7.67236-6.25071-15.35784-12.48564-23.07827-18.67674-1.48296-1.18931-3.15062-2.14806-4.73314-3.21314Z" style="fill:#fff;"/><path d="M619.14718,884.60936c5.86025,3.10711,11.72043,6.21423,17.99324,9.54008,6.71638-11.36914,9.37521-23.6745,9.26708-36.71009-.01198-1.4487-.12822-2.89619-.1838-4.34482-.14619-3.8023,1.21947-6.63213,5.34177-6.96941,4.12571-.33766,7.23857,1.83528,7.27512,5.90038,.06832,7.60779,.18546,15.39776-1.31031,22.78962-1.78489,8.82062-5.24176,17.30282-8.46017,27.46573,13.07297,4.87891,26.72561,10.73667,40.84874,15.05457,18.16968,5.55514,23.81808,13.33358,21.14705,32.37832-1.03257,7.36206-2.35046,14.68953-3.17784,22.07327-.85415,7.62228,1.38787,14.43044,7.08215,19.6932,7.41957,6.85731,15.07092,13.46373,22.5541,20.11725,2.57641-3.60018,6.59551-8.59475,9.80968-14.06283,1.0491-1.78492,.75748-5.16401-.21215-7.19823-5.79368-12.15504-4.63403-20.90489,6.23808-28.92823,9.26564-6.83774,19.83439-11.87767,29.45943-18.26642,13.56757-9.00545,26.79636-18.52164,41.05923-28.43767-13.61018-5.13701-18.27743-15.59276-21.57264-25.05502-17.23144-2.35322-33.65581-3.99624-49.81481-7.04632-8.58437-1.62019-16.81653-5.41415-24.99813-8.74227-4.57436-1.86084-7.50684-5.59291-5.48614-10.93144,2.00932-5.30872,6.71623-5.93808,11.40531-4.8105,8.63305,2.07578,17.09958,4.83781,25.71906,6.97692,48.59556,12.05985,91.53127-6.36865,117.91166-50.4546,15.39765-25.73216,22.3929-54.13282,25.92317-83.47857,4.36175-36.25722,5.40493-72.67728,2.52045-109.1014-3.43898-43.42682-16.47609-83.73728-41.91998-122.92497-1.73363,2.94598-2.82102,5.16071-4.2371,7.14021-8.57292,11.98314-20.52165,13.59604-33.65278,10.29882-11.9824-3.00882-23.70207-7.11135-35.7374-9.85377-31.1481-7.09751-62.43162-10.15282-93.70066-.49064-3.13872,.9699-6.21579,2.30134-9.11847,3.84648-14.95469,7.96051-17.41364,24.3161-5.60602,36.69613,1.28475,1.34711,2.76877,2.54389,3.85563,4.03291,3.84782,5.27167,2.13671,12.15773-4.08735,14.01144-6.07984,1.81078-12.48663,2.73415-18.81775,3.43294-6.98282,.77073-14.03927,1.01882-21.07031,1.15769-4.81715,.09518-7.32896,2.5426-8.0605,6.92641-.60902,3.64963-.89532,7.37442-1.03931,11.07702-1.12287,28.86301,2.02411,57.44998,5.64704,86.00552,.31171,2.45698,.54904,4.94983,.50529,7.42046-.11389,6.44267-4.23164,8.3318-10.04185,5.30622-6.82393-3.55346-13.95336-6.51996-20.95028-9.74099l-1.12022,1.73001c.73591,1.94404,1.47181,3.88801,1.80953,4.78016-9.13284-1.69178-18.58588-4.67239-28.1119-4.92768-15.39738-.41267-27.58386,10.05134-29.93837,23.61466-3.40027,19.58786,8.87439,35.37902,28.76785,36.92564,5.36376,.41692,10.75675,.48275,16.11236,.97232,6.9139,.63209,9.3978,4.08384,8.41657,10.87865-.20506,1.42026-.20613,3.38379,.59571,4.35968,15.21461,18.51542,30.33057,37.12306,46.05623,55.19873,3.73454,4.29271,9.29135,7.40605,14.5717,9.8449,6.85794,3.16756,10.43969,6.78048,9.45634,11.97794-1.10134,5.82098-6.72904,10.20993-13.68047,8.53211-6.17386-1.49019-12.48215-4.43629-17.49326-8.33256-12.01417-9.34144-18.86908-22.88359-26.10489-35.86131-6.63244-11.89535-12.32528-24.31258-18.80796-36.29643-.93051-1.72007-3.87531-2.96809-6.05497-3.28489-8.55119-1.24301-17.47919-.90399-25.70734-3.17879-31.07285-8.5902-43.65088-49.30404-23.15084-73.88692,2.74007-3.28573,6.28225-5.90228,8.61724-8.05747-3.02927-12.57863-7.20646-24.60086-8.67285-36.94521-5.95128-50.09915,6.99973-95.68029,35.96241-136.55625,24.74882-34.92885,57.55207-59.81856,99.36029-70.0974,74.07259-18.21117,139.51312-1.47885,194.76577,52.08384,3.9247,3.80465,6.73162,7.76157,4.60765,13.68573-.34977,.97559,.92808,2.79467,1.83584,3.91383,2.87015,3.53836,2.70508,5.88116-2.46601,6.85056,4.2346,4.27186,8.63896,8.2756,12.53682,12.72341,16.86536,19.24477,25.23765,42.50031,30.76087,66.94285,6.09591,26.9768,7.95928,54.4021,7.91811,82.00534-.05467,36.68688-1.10733,73.28275-10.39875,109.06298-9.24669,35.60807-26.21085,66.46336-55.94651,89.26254-12.14186,9.30959-25.64869,15.82514-40.43277,19.72202-2.14194,.56459-4.26621,1.19629-8.10751,2.27829,3.98741,5.47907,7.09269,10.49458,10.94764,14.84554,4.38943,4.9543,5.17875,9.07515,1.47477,14.47648-14.25347,20.78453-32.16065,37.71366-53.66536,50.84618-2.29435,1.40122-4.57247,2.83741-6.78227,4.36719-7.27429,5.03546-7.59919,6.64533-3.47985,14.53594,4.73624,9.07212,1.58115,16.82492-4.37616,23.9103-10.24763,12.18811-13.8946,26.2165-11.21021,41.71839,1.47356,8.51004,3.62338,16.95045,6.11828,25.22605,5.0591,16.78116,10.82192,33.35322,15.68434,50.18793,1.13144,3.9169,.143,8.59217-.53448,12.81185-.25765,1.60464-2.24476,3.86283-3.70049,4.07686-1.40433,.2066-3.78276-1.48177-4.60181-2.96346-1.98354-3.58812-3.5471-7.46043-4.85726-11.36019-5.84903-17.41037-11.63073-34.84439-17.27784-52.32128-4.2807-13.24826-5.86905-26.8137-6.86742-40.76799-.56944-7.95698-7.40683-15.55476-11.80096-23.09308-1.29059-2.2142-3.78352-3.79275-5.88876-5.45578-16.20236-12.79865-20.91965-29.35607-16.63486-49.16592,1.21697-5.62643,1.39849-11.48162,1.98188-17.23934,.60697-5.9914-2.55169-9.15448-8.01615-10.71946-24.66951-7.06543-46.40623-19.44732-65.5675-36.435-1.53751-1.3633-2.89297-2.9423-4.25393-4.49059-.78125-.88882-1.40304-1.91788-2.0966-2.88383,.38026-.60713,.76051-1.21434,1.1408-1.82148Z"/><path d="M426.21164,1516.86c-18.48025,5.55332-36.25455,11.74191-54.46321,16.12526-17.76444,4.27641-35.79734,3.28952-53.21879-2.94276-25.80369-9.23086-36.0642-29.18656-37.85039-55.05417-2.37091-34.33472,.80221-68.21256,7.76985-101.8307,.45312-2.18614-.48988-4.63485-.59893-6.96994-.35385-7.57594-1.69913-15.29234-.76007-22.7137,12.80008-101.16213,36.31952-199.422,80.72101-291.8317,11.68604-24.32138,25.87506-47.15385,43.6842-67.57903,21.10951-24.21041,48.68708-37.60262,79.03801-45.15331,20.58239-5.12048,41.79836-7.68037,62.71156-11.49208,4.86977-.88753,9.68953-2.09869,14.47935-3.3618,4.64658-1.22526,9.67209-1.87222,9.3942-8.88956-.07525-1.90134,2.38022-4.28687,4.20537-5.81544,9.82511-8.22805,19.76854-16.31806,29.80955-24.28103,1.38473-1.09815,3.53922-1.22519,5.33734-1.80183,.04576,2.04529,.91451,4.61217,.00318,6.05094-5.73507,9.05399-11.86594,17.85716-17.85213,26.72283,11.76862,14.31417,24.06409,29.2646,36.35422,44.21943,8.63403,10.50595,18.44234,19.64299,30.92609,25.38236,5.79838,2.66578,11.94199,4.56909,17.84789,7.01439,9.06842,3.75467,17.67425,8.30025,23.51532,16.57835,1.04212,1.47699,1.04599,3.6871,1.52921,5.55863-2.04655-.0785-4.24931,.30717-6.11138-.31968-6.44667-2.17021-12.59672-5.5198-19.17882-6.93778-28.14147-6.06254-49.17334-22.28693-66.8783-44.22672-11.26227-13.95604-23.68767-26.97297-35.82589-40.67553-26.16024,16.72807-55.66812,19.1026-82.85247,28.48834-23.42805,8.08887-45.81435,18.12345-64.27262,35.16218-15.38601,14.20291-26.16437,31.93576-36.58973,49.82145-21.69025,37.21157-35.96639,77.55202-49.1137,118.30863-15.69817,48.66444-28.11891,98.15847-35.73543,148.76657-2.61432,17.37077-4.23736,34.8899-6.75922,52.2766-.88079,6.0724-.76769,13.20632-8.62372,15.81445-.68918,.22905-1.1576,1.93873-1.25909,3.0051-3.30267,34.70681-4.23545,69.47248-.00669,104.12302,3.14274,25.75172,17.67798,38.41757,43.68949,40.62585,24.02755,2.03961,46.3251-4.21528,68.04064-13.44325,67.61621-28.7321,130.82996-65.33487,192.4784-107.8491-2.41119-4.36226-4.48948-8.80992-7.17541-12.85394-8.35091-12.57302-11.68483-26.58556-10.73222-41.31543,1.02604-15.86511,3.34689-31.64634,5.10005-47.46458,.13481-1.21609,.24802-2.43445,.45191-4.44842-63.37521,33.58674-128.02206,62.26864-197.6228,78.10569-.32748-.79879-.65496-1.59758-.98241-2.39638,16.72312-6.73149,33.44624-13.46282,51.19783-20.60827-19.00537-6.00899-37.06571-11.71916-55.12602-17.42933,.17724-.73129,.35451-1.46258,.53179-2.19387,16.45573-.48085,32.16956,5.0256,47.13869,6.88879,12.83932-9.06415,18.07282-21.49124,19.33702-35.89818,.92217-10.50929,1.54089-21.05059,2.69754-31.53318,2.78822-25.26958,5.80684-50.51383,8.7718-75.76369,.08394-.71461,.61171-1.37711,2.26894-2.13851,.22721,1.98591,.71843,3.98198,.64234,5.95621-1.37131,35.5747-2.3094,71.1783-4.54741,106.69983-.65561,10.40645-5.04659,20.57778-7.8587,31.36784,.89718,1.02966,2.93888,3.3731,5.49789,6.3104,12.3318-5.40558,25.37451-10.54388,37.89974-16.73035,28.35233-14.00389,56.47178-28.48106,84.62204-42.89057,3.5156-1.79948,6.32539-2.46797,10.37437-.71612,5.03965,2.18022,10.73798,2.991,16.23637,3.85638,1.50233,.23648,3.6931-1.07456,4.912-2.31856,8.63532-8.81174,17.92022-17.15924,25.40234-26.88324,8.53993-11.09921,15.36353-23.51242,23.04499-35.28149,11.52556-17.65921,26.54682-31.62662,46.73409-38.09523,11.77154-3.77197,19.96898-10.67494,26.89053-20.08843,8.66891-11.78954,19.94471-15.42651,33.84105-10.88525,9.03802,2.95368,18.05458,5.97342,27.09131,8.93112,5.12363,1.67707,8.79402,4.5524,8.74405,10.68222,10.59892-1.40335,20.93588-3.14678,31.34539-4.08027,31.77569-2.84947,62.69693,2.1269,93.05176,11.1881,2.28381,.68176,5.26678,3.26077,5.66918,5.38533,9.10709,48.0793,8.14163,95.21647-15.21817,139.70037-4.28327,8.15645-9.90377,15.75908-15.78632,22.89163-8.45971,10.25734-19.84857,15.81369-33.21316,15.36575-19.83424-.66424-39.70032-1.55041-59.44167-3.47974-18.89683-1.84681-29.49151-14.23552-35.21437-31.46447-.77552-2.33464-1.45559-4.70098-2.53387-8.20226-3.62202,1.97893-7.06797,3.55771-10.16506,5.65252-2.36782,1.60138-4.72025,3.55467-6.35227,5.8655-20.18803,28.58147-49.59537,40.14834-82.52396,46.47618-16.93216,3.25387-33.39885,9.04671-49.94863,14.10841-5.28638,1.6167-8.65507,5.09295-6.44485,11.72401,.60822,1.82466-.69181,5.05851-2.17883,6.65625-3.63206,3.90264-7.54058,7.73885-11.94168,10.70512-52.19783,35.18038-107.07192,65.60442-164.3546,91.66119-4.39303,1.99819-6.32259,3.85638-5.40857,9.07326,1.20821,6.89652,1.72791,14.01997,1.50715,21.01312-.10119,3.20533-1.97031,7.17836-4.38268,9.18657-1.5087,1.25583-6.00265,.29412-8.3031-1.09125-3.50225-2.10938-3.80221-5.76766-2.49384-9.87857,2.17371-6.83008,3.71528-13.86146,5.36414-20.19749Zm167.9478-222.74762c.9122,20.56124,1.29605,41.79462,3.15168,62.8986,.51533,5.86095,4.97395,11.60949,8.39458,16.91192,3.18228,4.93276,7.36581,7.10585,13.33513,2.69702,3.71998-2.74769,8.47257-4.43431,13.01379-5.67103,15.9231-4.33632,31.90619-8.47803,47.95887-12.30635,20.27447-4.83492,40.60611-9.83322,54.78694-26.60133,12.7994-15.13458,26.34104-28.40142,46.87968-32.28783,5.23577-.99053,8.99563-5.05032,8.18569-11.25439-8.26894-1.20668-16.42718-2.39729-24.58549-3.58804,.01585-.83247,.03169-1.66493,.04747-2.4974,7.27626-.77392,14.56071-1.48109,21.82263-2.3715,1.69724-.20812,4.14596-.5344,4.83254-1.666,3.093-5.09765,6.02555-10.36443,8.24073-15.88157,.70857-1.76497-.50157-6.17244-1.63423-6.48704-5.38787-1.49618-11.03362-2.52888-16.62212-2.72107-7.21461-.24831-14.4613,.64756-21.69571,.67524-3.70603,.01418-7.41524-.78893-11.12309-1.22261-.02555-.62344-.05118-1.2468-.07681-1.87024,2.83815-.9498,5.61095-2.27912,8.52613-2.78136,10.57261-1.8214,21.16069-3.64341,31.81103-4.8777,4.28411-.49648,6.18144-2.42998,7.29802-6.18207,2.16651-7.28075-.35713-15.36257-6.38518-19.2075-1.27475-.81298-2.98593-1.341-4.49133-1.33046-14.01167,.09807-28.02205,.42291-42.03334,.45241-1.95458,.00417-3.91174-1.23475-5.86784-1.89831,1.53884-1.48086,2.8449-3.79199,4.6564-4.30022,8.30602-2.32986,16.84224-3.85266,25.11459-6.28272,4.50673-1.32394,9.87686-2.83771,12.67262-6.12519,4.19304-4.93011-.6862-13.88527-8.30647-14.46882-9.57136-.73296-19.40743-.41457-28.91965,.93197-31.15182,4.40966-55.95144,19.14409-72.5035,46.58616-4.58831,7.60681-9.70785,14.89203-14.33513,22.47639-13.9272,22.82762-35.09085,34.47336-62.14865,40.25103Zm194.38756,17.39626c2.33423,19.46893,11.06986,28.72452,29.96578,30.40052,16.67611,1.47942,33.44328,1.98773,50.17937,2.71614,12.68233,.55184,22.052-5.65556,29.75022-15.15354,9.36649-11.55625,15.84819-24.64227,20.75496-38.57214,11.71277-33.25166,11.97126-67.32988,6.86666-101.69729-.30989-2.0867-3.08458-4.75703-5.26527-5.47429-36.69005-12.06683-74.57348-13.89089-112.77856-12.58128-1.28491,.04407-2.81313,.62154-3.76259,1.471-3.69458,3.30476-7.20112,6.81984-10.17833,9.68077,.37085,6.97487,.7455,14.02293,1.15313,21.68981,16.33885,10.69155,19.31712,18.60855,14.36667,39.6527-.24438,1.03907-.20374,2.55398,.38746,3.31887,7.48485,9.68388,4.74451,18.77685-.96599,28.08947-2.22004,3.6205-4.26985,7.86945-4.6514,11.99356-1.03613,11.20205-5.44087,19.79734-15.82211,24.46571Zm1.7933-140.05206c-2.10077-1.7627-2.37207-2.14139-2.73261-2.27025-6.75763-2.41526-13.52079-4.81558-20.29312-7.18943-12.20381-4.27747-19.1563-2.13487-27.77145,8.5403,.35637,.1077,.7276,.33993,1.06631,.29959,1.02005-.12173,2.0232-.37695,3.0403-.5319,13.49789-2.05667,26.95521-4.08171,39.94106,2.65614,1.24298,.6449,3.53186-.72712,6.74951-1.50445Z"/><path d="M858.12735,950.70738c-7.53398,22.25583-20.40193,39.86036-35.22931,56.21891-14.38305,15.86845-32.96635,17.29463-49.51978,4.06753-3.00345-2.39994-6.83732-3.75983-10.78644-6.80384,3.09997-.11976,6.33294-.83967,9.26246-.19029,2.92467,.64824,5.56704,2.62763,8.29571,4.09339,11.75068,6.31214,24.2226,4.47914,32.30896-6.04199,13.60131-17.69675,27.03422-35.5706,32.54932-57.9669,.70599-2.86692,4.2835-6.28476,7.18065-7.08067,5.3586-1.47199,7.91431,2.91834,6.74292,11.09936,7.01982,1.81025,14.13314,3.59942,21.22204,5.48066,26.13927,6.9368,51.41082,15.73694,72.64658,33.3938,26.50717,22.03983,43.80116,50.46089,53.05657,82.99636,9.87117,34.69961,17.52298,70.07696,25.00647,105.39948,11.17374,52.74107,21.76721,105.61419,31.83279,158.5784,9.41721,49.55303,18.16513,99.29537,18.45084,149.95301,.1013,17.95462-1.82318,35.92336-2.91527,53.8801-.31232,5.13542-2.44235,8.78732-8.38245,8.48941-5.47113-.27425-7.98779-3.29968-7.87018-9.65726,.43591-23.5806,1.55757-47.16894,1.23972-70.73847-.54282-40.23875-6.30814-79.95386-13.89566-119.42006-11.11164-57.79701-21.91271-115.65515-33.36207-173.3848-7.06979-35.64728-13.85054-71.38019-26.36432-105.73425-16.26044-44.63999-45.39839-77.2758-88.52077-97.27352-14.00863-6.49629-28.15299-12.69975-42.94875-19.35835Z"/><path d="M979.19373,1211.40962c-1.34238,5.77395-2.5871,11.57263-4.04246,17.31799-12.69764,50.12748-16.08173,101.15508-14.9167,152.64062,.88933,39.30146,1.96557,78.60262,2.32824,117.90984,.13861,15.03052-1.42336,30.08046-2.38746,45.11038-.08151,1.26948-1.50972,2.45235-2.31224,3.67557-1.24578-1.13691-3.37627-2.12061-3.60382-3.43408-3.13129-18.07582-7.90332-36.12874-8.55616-54.32076-1.57918-44.00411-2.23748-88.1003-1.30758-132.11776,.79812-37.78488,3.71392-75.60753,15.89035-111.92027,4.19373-12.50642,9.5104-24.49642,17.1221-35.30917,.59522,.14919,1.19043,.29837,1.78572,.44763Z"/><path d="M776.05484,1430.28098c-1.53186,20.97353-2.83702,41.39067-4.65837,61.76154-.39284,4.39366-2.32058,8.77079-4.19585,12.8547-.79827,1.7385-3.53512,3.98334-4.93293,3.70424-1.85093-.36982-4.34158-2.80715-4.65254-4.67337-1.14623-6.87953-2.38837-13.93761-2.01744-20.84369,2.11866-39.4401,4.68961-78.85579,7.11908-118.2789,.0759-1.23293-.00796-2.59418,.48929-3.65888,1.18778-2.54306,2.67862-4.94475,4.04701-7.40362,1.36028,2.56839,3.71179,5.0573,3.92561,7.71777,1.85343,23.07184,3.32297,46.17462,4.87614,68.82022Z"/><path d="M798.95197,755.50778c10.60742,2.36877,19.11786-1.35124,27.43244-6.49311,6.53523-4.04136,14.49391-.98438,14.43727,5.91722-.02957,3.60829-2.68173,8.44928-5.67888,10.54471-9.11991,6.37631-19.4765,5.71805-29.73149,2.59752-1.95352-.59447-3.77533-1.62208-5.5973-2.42323-1.8256,5.4777-3.1805,11.01502-5.52049,16.09871-1.87246,4.06799-5.34405,7.11389-10.46328,5.71737-4.59195-1.25272-6.89714-4.7543-6.45168-9.34872,.21799-2.2481,1.66493-4.59806,3.11453-6.46876,7.99044-10.31248,7.48257-32.2462-1.1949-41.94266-.64048-.71567-1.71005-1.04711-2.75141-1.65758,2.57376-4.61475,6.22254-3.53821,8.27387-.49071,4.6658,6.93156,8.61257,14.36021,12.62091,21.71263,.95128,1.7448,.99458,3.98486,1.51041,6.2366Z"/><path d="M758.57439,604.22268c-1.45687,1.38579-3.66554,4.9956-6.77067,6.11336-5.74455,2.06778-11.97656,2.92786-18.07346,3.8345-9.27436,1.37912-16.54956,5.66421-22.43627,13.00935-1.72863,2.15678-5.23342,2.88921-7.92417,4.27443-.74459-3.04371-2.58983-6.29792-2.05482-9.09684,3.4273-17.92762,29.07524-34.80029,47.09653-31.40558,5.85449,1.10281,9.99355,5.56652,10.16286,13.27078Z"/><path d="M821.14409,670.29305c3.08701-.18271,6.44273-1.24529,9.21537-.39826,13.10785,4.00458,19.58963,16.14005,16.0931,29.17716-3.57827,13.34147-15.33775,21.24005-28.84276,17.86323-7.4232-1.85614-14.38783-5.92299-21.22461-9.61319-4.34644-2.34609-4.96607-6.43638-1.86738-10.53432,3.01482-3.98721,6.45122-3.56021,10.19478-.83307,3.33108,2.42649,6.72836,4.82931,10.34454,6.78291,7.66485,4.1408,14.76672,3.3794,18.64578-1.64112,3.91242-5.06382,3.14903-12.42231-2.41331-18.61857-3.10953-3.46396-6.80676-6.40012-10.23922-9.57413l.09372-2.61064Z"/><path d="M502.95387,1187.7091c4.41885-.99318,8.79974-2.22194,13.26268-2.94208,32.80621-5.29416,65.62827-10.48988,98.44813-15.69901,1.42082-.22556,3.10156-.80463,4.25359-.29572,2.06615,.91279,3.82215,2.52804,5.70773,3.84971-1.37984,1.62276-2.48917,4.22574-4.1874,4.69476-6.53645,1.80479-13.20316,3.41398-19.92629,4.21846-28.07493,3.35914-56.17819,6.49265-84.2974,9.459-4.25495,.44885-8.6492-.4226-12.97899-.68328l-.28206-2.60184Z"/><path d="M839.57726,649.32476c-.1728-12.6641,10.93854-23.43464,22.70894-23.72395,12.44197-.30577,25.94873,11.5382,27.06318,23.73161,.57118,6.24912-1.76677,10.31589-6.36084,11.06432-5.5703,.90748-8.41581-1.31249-10.00507-8.12596-1.24715-5.34664-3.40031-9.97793-9.36126-11.05924-5.85866-1.06281-10.4127,1.50839-13.91477,6.13998-.7477,.98886-1.38188,2.11659-2.30079,2.91136-1.58388,1.36975-3.35027,2.52842-5.04007,3.77568-1.17822-1.99114-2.35645-3.98228-2.78932-4.7138Z"/><path d="M830.16975,601.4235c2.26386-2.28902,4.17394-5.16993,6.8496-6.76979,15.9548-9.53962,41.15651-3.82161,51.30178,11.88048,1.89248,2.92899,2.47898,7.44897,1.98142,10.99803-.71198,5.07759-7.48121,7.04032-11.89642,3.79897-2.11078-1.54958-3.73954-3.80556-5.43011-5.86982-8.25598-10.08107-18.78211-14.24485-31.71352-12.52489-3.28142,.43648-6.62145,.43246-9.93456,.6308-.38609-.71457-.77211-1.42917-1.15821-2.14378Z"/><path d="M723.11519,663.69907c-5.26489-4.60208-4.56784-9.74956-3.51306-14.30583,2.39049-10.3256,13.60639-18.72224,24.25407-18.92596,12.10016-.2314,25.00548,7.85861,28.12289,17.73066,1.27194,4.02771,1.31872,8.23593-2.89585,10.3416-4.16385,2.08033-7.37786-.20812-9.9087-3.85304-10.52045-15.15187-23.21832-14.46935-32.34407,1.67699-1.19225,2.10931-2.19744,4.32426-3.71528,7.33559Z"/><path d="M321.42739,1418.15272c-5.53459-3.02497-4.18755-7.44291-1.83827-10.72712,7.79296-10.89322,15.88045-21.59925,24.34195-31.98006,4.01941-4.93125,9.07752-9.03291,13.79985-13.36316,1.49611-1.37202,3.33571-2.97901,5.18205-3.21974,2.97899-.38817,6.0939,.26697,9.15138,.48146-.52591,3.19638,.06581,7.46793-1.78345,9.39119-5.98836,6.22834-13.09807,11.35905-19.35712,17.35045-8.65833,8.28811-16.99669,16.91556-25.32481,25.53997-1.6426,1.70088-2.61792,4.0466-4.17159,6.52701Z"/><path d="M563.14756,709.19959c-1.58304-6.9101,1.19361-10.48775,6.77609-10.83891,5.67206-.35685,11.49595,.21547,17.13033,1.13493,6.48557,1.05848,12.84986,2.88936,19.24156,4.48589,5.32532,1.33016,7.29521,4.87103,5.51662,9.63185-1.79065,4.79306-5.6277,6.50191-10.41452,4.30803-8.42271-3.86017-16.75432-7.91883-25.13321-11.87502-4.89221-2.30999-9.72487-4.11129-13.11687,3.15323Z"/><path d="M829.84417,897.8065c1.58251,1.06508,3.25018,2.02383,4.73314,3.21314,7.72043,6.1911,15.40591,12.42603,23.07827,18.67674,3.65963,2.98167,6.44819,6.49728,2.49657,10.92947-3.95458,4.43553-8.04663,2.40078-10.99851-1.33827-6.47837-8.20605-12.65397-16.65587-18.77915-25.13192-1.0591-1.46577-1.26254-3.55027-1.86117-5.34892,.44364-.33341,.88729-.66682,1.33086-1.00023Z"/><path d="M594.15944,1294.11238c27.0578-5.77767,48.22145-17.42341,62.14865-40.25103,4.62729-7.58436,9.74682-14.86958,14.33513-22.47639,16.55206-27.44207,41.35168-42.17649,72.5035-46.58616,9.51222-1.34654,19.34828-1.66493,28.91965-.93197,7.62027,.58355,12.49952,9.53871,8.30647,14.46882-2.79577,3.28747-8.1659,4.80125-12.67262,6.12519-8.27235,2.43005-16.80857,3.95285-25.11459,6.28272-1.8115,.50823-3.11756,2.81936-4.65633,4.30022,1.95602,.66356,3.91318,1.90248,5.86776,1.89831,14.01129-.0295,28.02167-.35434,42.03334-.45241,1.5054-.01054,3.21659,.51749,4.49133,1.33046,6.02805,3.84493,8.55169,11.92675,6.38518,19.2075-1.11658,3.75209-3.01391,5.68559-7.29802,6.18207-10.65033,1.23429-21.23841,3.0563-31.81103,4.8777-2.91519,.50224-5.68798,1.83156-8.52613,2.78136,.02563,.62344,.05126,1.2468,.07681,1.87024,3.70785,.43368,7.41706,1.23679,11.12309,1.22261,7.2344-.02768,14.48109-.92356,21.69571-.67524,5.5885,.19219,11.23425,1.22489,16.62212,2.72107,1.13265,.3146,2.3428,4.72207,1.63423,6.48704-2.21519,5.51714-5.14774,10.78392-8.24073,15.88157-.68658,1.1316-3.13531,1.45788-4.83254,1.666-7.26193,.89041-14.54638,1.59758-21.82263,2.3715-.01577,.83247-.03162,1.66493-.04747,2.4974,8.15831,1.19076,16.31655,2.38136,24.58549,3.58804,.80995,6.20406-2.94992,10.26386-8.18569,11.25439-20.53864,3.88641-34.08028,17.15325-46.87968,32.28783-14.18083,16.76812-34.51247,21.76641-54.78694,26.60133-16.05269,3.82832-32.03577,7.97002-47.95887,12.30635-4.54123,1.23672-9.29381,2.92334-13.01379,5.67103-5.96933,4.40883-10.15285,2.23574-13.33513-2.69702-3.42063-5.30243-7.87925-11.05097-8.39458-16.91192-1.85563-21.10398-2.23949-42.33736-3.15168-62.8986Zm100.20382-65.13684c-.87963,5.72746-2.24263,10.68677-2.23407,15.64365,.00864,4.99511,1.14615,10.03853,2.21519,14.96833,1.23729,5.70554,2.7132,11.38325,4.51044,16.9355,1.47211,4.54747,2.92603,9.36313,5.67471,13.11712,1.25101,1.70862,5.72119,1.80616,8.51059,1.33319,1.45058-.24589,3.6481-3.50871,3.40713-5.08764-1.38954-9.10117-3.02946-18.20415-5.33343-27.1126-1.77602-6.86694-4.84642-13.38811-6.97835-20.17717-1.63059-5.19238-3.53861-9.66181-9.77222-9.6204Z" style="fill:#fff;"/><path d="M788.547,1311.50864c10.38123-4.66837,14.78598-13.26365,15.82211-24.46571,.38154-4.12411,2.43136-8.37306,4.6514-11.99356,5.7105-9.31262,8.45084-18.40559,.96599-28.08947-.5912-.76489-.63184-2.2798-.38746-3.31887,4.95045-21.04414,1.97217-28.96115-14.36667-39.6527-.40763-7.66687-.78227-14.71493-1.15313-21.68981,2.97721-2.86092,6.48375-6.376,10.17833-9.68077,.94946-.84946,2.47769-1.42693,3.76259-1.471,38.20508-1.3096,76.08851,.51445,112.77856,12.58128,2.18069,.71726,4.95537,3.38759,5.26527,5.47429,5.1046,34.36741,4.84611,68.44562-6.86666,101.69729-4.90677,13.92987-11.38847,27.0159-20.75496,38.57214-7.69822,9.49798-17.06789,15.70539-29.75022,15.15354-16.73608-.72841-33.50326-1.23672-50.17937-2.71614-18.89592-1.67601-27.63155-10.93159-29.96578-30.40052Z" style="fill:#fff;"/><path d="M790.34031,1171.45658c-3.21765,.77733-5.50654,2.14935-6.74951,1.50445-12.98585-6.73786-26.44317-4.71281-39.94106-2.65614-1.0171,.15495-2.02024,.41017-3.0403,.5319-.3387,.04035-.70994-.19189-1.06403-.30709,8.61288-10.66765,15.56537-12.81026,27.76917-8.53279,6.77234,2.37385,13.5355,4.77417,20.29312,7.18943,.36054,.12886,.63184,.50755,2.73261,2.27025Z" style="fill:#fff;"/><path d="M694.36327,1228.97554c6.23361-.04141,8.14163,4.42802,9.77222,9.6204,2.13193,6.78905,5.20233,13.31022,6.97835,20.17717,2.30398,8.90845,3.94389,18.01143,5.33343,27.1126,.24097,1.57893-1.95655,4.84175-3.40713,5.08764-2.7894,.47297-7.25958,.37543-8.51059-1.33319-2.74868-3.75399-4.2026-8.56965-5.67471-13.11712-1.79725-5.55226-3.27315-11.22996-4.51044-16.9355-1.06904-4.9298-2.20654-9.97322-2.21519-14.96833-.00857-4.95688,1.35444-9.91619,2.23407-15.64365Z"/></svg></svg>
