<?xml version="1.0" encoding="UTF-8"?><svg id="a" xmlns="http://www.w3.org/2000/svg" viewBox="0 0 1366 1555"><svg y="-200"><path d="M876.59226,878.14903c2.47529-1.11042,4.32347-1.9701,6.19536-2.77461,23.38207-10.04948,43.7885-24.01113,59.17342-44.68395,18.45187-24.79403,20.58102-53.39214,17.44488-82.37939-5.24172-48.449-11.53437-96.8159-22.21512-144.44182-1.30289-5.80984,1.20082-8.53833,5.24679-8.6618,8.6076-.26275,13.69671-5.59723,19.45825-10.57756,8.88237-7.67781,14.38604-17.10099,15.36484-28.76672,.5912-7.04612,3.76189-11.87413,9.56852-15.59476,11.67652-7.48191,20.8917-17.39902,24.27797-30.9998,1.66358-6.68169,1.46588-14.37049,.00333-21.14856-1.78391-8.26732-11.29605-14.27931-17.83642-13.67608-7.40065,.68255-14.83744,.97399-22.53202,1.45249,2.57016-8.33648,5.30863-16.73485,7.73489-25.22251,2.51538-8.79903,7.09777-17.6698,.70896-26.66841-1.54454-2.17559-3.45939-5.12536-5.61863-5.53565-2.16446-.41131-5.06993,1.59362-7.22916,3.1315-1.60016,1.13964-2.47385,3.26854-3.76636,4.88039-1.27394,1.58877-2.66776,3.08139-5.09964,5.86411,4.25027-17.71937,4.79797-33.70517,1.25257-49.7428-2.21334-10.01178-13.47362-13.73562-21.07886-6.84143-1.88235,1.70633-3.08961,4.15778-4.95316,6.74737-8.97262-16.37751-17.29083-17.93558-31.26078-9.10688-12.71268,8.03417-25.97307,15.2514-39.28097,22.28168-20.77659,10.97568-43.31187,11.05943-65.9386,9.37444-15.00687-1.11751-28.25468-7.35382-40.80589-15.26792-17.6397-11.12272-36.3977-12.10501-55.182-4.25173-10.56921,4.41879-20.21176,11.0666-30.22887,16.78552-1.76505,1.00768-3.318,2.38729-4.27383,3.08662-.74897-3.63073-.9209-9.25169-2.14438-9.49086-3.57094-.69801-8.13802-.25153-11.27878,1.55159-9.08476,5.21548-14.18228,13.90021-16.31749,23.88739-1.77937,8.32257-2.2976,16.91491-3.44985,25.98199-17.15834-2.64738-31.2895,5.03194-44.84853,15.44927-13.30533,10.22249-25.96712,20.85879-33.56441,34.28785-4.45873-.96951-7.87754-2.4624-11.06437-2.07008-1.45819,.17952-2.45972,4.07008-4.01047,6.90241-.68141-.18335-2.59559-.83357-4.56242-1.20338-6.88427-1.29442-13.61729-1.42884-19.50936,3.25425-5.06433,4.02518-4.57239,9.06417,1.45975,11.23782,4.93589,1.77868,10.18518,2.68725,15.29421,3.98125-8.33303,6.82586-16.54758,13.62299-24.84178,20.32147-4.51226,3.64422-8.70194,7.72427-7.08898,14.00765,1.70234,6.63174,7.61233,8.2276,13.56971,8.86137,6.48717,.69013,13.0109,1.03667,19.55899,1.53609-3.75912,5.66378-7.6656,10.93323-10.88895,16.59194-2.82333,4.95637-.17224,9.53755,5.44578,10.26664,1.59341,.20677,3.23639,.03161,5.43858,.03161-5.60874,14.34249-2.0744,27.10484,4.024,39.78284,4.81836,10.01689,9.24389,20.26011,13.17518,30.65583,3.68884,9.75448,9.09624,17.47838,19.10585,21.47301,2.41471,.9636,4.50427,2.74239,6.65736,4.09241-10.46729,26.19066-9.11792,43.44135,6.16955,60.43986,11.28628,12.54948,24.93703,20.92856,43.13614,16.1051,10.13089,23.86939,22.74908,46.31388,39.18826,66.44097,3.73878,4.57743,8.20251,8.71289,12.9313,12.25099,1.70533,1.27581,6.37623,1.2724,7.54803-.04987,1.79346-2.02377,2.92207-6.05485,2.16385-8.58297-1.06973-3.56676-3.83812-6.78136-6.36888-9.72651-17.11329-19.91554-34.39639-39.68517-51.47023-59.63421-1.23238-1.43983-2.02848-4.08437-1.66423-5.89424,.8615-4.28091-.80735-6.90969-4.349-8.50642-3.17148-1.42975-6.53244-2.46975-9.8634-3.50976-13.84318-4.3223-22.97697-13.5362-25.52641-27.66354-2.5785-14.28841,4.18044-25.42868,15.73178-33.35086,3.23112-2.21599,7.97889-3.2898,11.9395-3.08848,4.51499,.22944,7.20484-.1691,6.91655-5.41058h15.10421c-5.9675-12.74595-17.14114-13.07468-29.40193-12.55274,1.86598-12.7348,3.57874-24.54747,5.35974-36.34982,.14651-.97084,.5601-2.51447,1.18214-2.7048,5.66163-1.73282,5.26945-7.02846,6.38665-11.1117,7.05401-25.78215,22.59608-44.96641,44.46499-59.84864,6.84619-4.65891,12.88992-10.87582,18.21908-17.28032,5.30673-6.3776,10.8583-11.3511,19.45021-11.63242,8.04679-.26351,16.23262-1.30112,24.12687-.25612,23.5271,3.11456,46.9701,6.90745,70.39104,10.76913,25.47507,4.20038,49.80927,1.55648,72.68872-10.99406q12.45073-6.82987,20.92868,4.50402c15.5032,20.67593,26.0684,44.0393,36.53812,67.43387,1.82006,4.06698,3.45242,8.51771,3.79319,12.89841,2.08421,26.79233,3.59094,53.62939,5.64431,80.42437,1.81635,23.70196,4.87913,47.3316,5.99228,71.05887,1.87803,40.0371-15.08969,69.82036-51.05335,88.30714-19.6811,10.11687-40.69541,16.12715-62.41761,19.50919-17.35956,2.70283-34.23362,1.28399-49.34249-9.16918-5.47314-3.78649-10.29809-2.96592-14.0768,1.88915-4.10576,5.27536-3.8948,11.40935,1.97638,15.00658,7.81855,4.79042,16.05144,9.87364,24.79029,11.94804,11.03781,2.62013,22.76457,2.33658,34.80346,3.35726-.32137-.65094-.01167-.29834,.01796,.0764,.72608,9.17798-1.09852,18.68544,3.70089,27.36164,.39108,.70695-.41199,2.35871-1.0501,3.30973-15.42432,22.98742-33.86035,43.35539-54.72106,61.44962-8.11309,7.03718-12.48323,7.08804-21.07515,.4732-16.20004-12.47224-32.39538-25.0312-47.69944-38.56498-15.45546-13.66748-29.82794-28.56036-44.75653-42.99543,2.49787-3.1332,4.05734-4.80012,5.28786-6.68215,5.63727-8.62155,11.56854-17.0853,16.62211-26.04164,3.24578-5.7525,.00871-12.75171-5.99766-15.42566-6.10685-2.71859-13.58797,.13014-15.99908,6.40413-1.02108,2.65667-1.55757,5.59469-1.77838,8.44631-.68986,8.90708-1.12406,17.83394-1.65737,26.75315-.87801,.71855-1.75603,1.4371-2.63412,2.15565-2.28979-3.75678-4.57966-7.51363-6.86946-11.27049l-2.36852,1.79774c3.87639,7.12685,7.29873,14.54877,11.70502,21.33112,23.07578,35.51992,53.22615,64.19125,87.33451,88.87409,3.92481,2.84017,8.63238,5.06374,13.31321,6.30294,12.43216,3.29093,22.37365-2.72799,30.83697-10.65138,12.51301-11.71504,24.90198-23.67937,36.1922-36.54826,9.36907-10.67897,17.22036-22.71516,25.44332-34.36251,3.01535-4.27106,4.93755-9.12439,1.85643-14.47934-3.93686-6.84223-7.72913-13.76768-11.85801-21.14754,7.60062-2.08228,13.72338-3.92687,19.94291-5.34745,1.58409-.36193,3.7309,.19033,5.18549,1.05372,13.30389,7.89641,24.0201,18.47942,30.26767,32.70022,2.93002,6.66949,4.25216,14.13386,5.65356,21.36394,1.5894,8.19967,5.6819,12.76846,11.83777,10.92289,3.76704-1.12937,5.94317,.12423,8.13385,2.4023,12.03275,12.51287,25.02239,24.26952,35.81779,37.77768,31.76591,39.74831,51.21544,85.58361,63.2353,134.71122,14.28973,58.4051,16.33477,118.2003,20.05672,177.83126,2.00798,32.17017,4.40235,64.37749,8.41051,96.34361,3.66922,29.26322,10.29172,58.14383,14.60102,87.34247,4.16123,28.19464,6.9322,56.59258,10.58603,84.8662,.47466,3.67295,1.80756,7.7743,4.10902,10.53966,3.10749,3.73374,7.88,4.20064,12.53241,2.11275,5.28362-2.37152,6.68365-6.8655,6.75132-12.18535,.4392-34.55807-5.75222-68.29071-13.03708-101.83174-8.64678-39.81168-15.82426-79.8465-19.06414-120.47981-3.99301-50.07938-7.00457-100.24213-11.45518-150.27854-3.87366-43.55057-12.1164-86.38941-28.5396-127.12459-21.19344-52.56679-51.02069-98.3454-103.17833-125.66823-1.36025-.71256-2.31291-2.97797-2.67239-4.68423-1.13914-5.40588-1.20302-11.1264-2.94048-16.30285-7.04958-21.00292-20.86737-36.28926-41.39989-46.30926Zm-212.04219-35.13359c.14693-.62995,.29393-1.25997,.44086-1.88991-6.17308-2.27132-12.22817-4.96187-18.54015-6.73952-24.05765-6.77568-48.17683-5.18009-72.41066-.48108-23.35831,4.5293-40.11386,16.53092-48.21525,39.52464-1.4269,4.05004-3.57283,7.90376-5.79446,11.60309-3.41897,5.69308-8.55596,8.86031-15.32301,9.04935-3.30276,.09232-6.60822,.19624-9.91102,.16099-21.18298-.22572-37.99324,8.71289-51.0224,24.92865-17.44632,21.71328-21.03609,47.01788-18.31229,73.82977,.97323,9.58045,3.96971,17.81037,14.20497,21.60338-1.61213,1.88112-2.88013,3.49316-4.28274,4.97794-31.81296,33.67595-58.51958,71.1164-82.00369,110.95855-23.83771,40.44208-36.70425,84.22936-40.5171,130.87743-2.07164,25.34523-4.2113,50.68962-6.76267,75.98974-3.74359,37.12257-13.28636,73.08575-22.3444,109.14792-9.22203,36.71508-17.86502,73.5945-15.33125,111.88312,.65052,9.83066,2.77923,19.60508,4.83897,29.27535,.62862,2.95121,2.81526,6.01552,5.14122,8.05475,3.45079,3.02595,7.61106,2.40199,11.47314,.01607,5.18729-3.20468,5.10867-8.10962,4.22005-13.18284-5.7899-33.05532-4.32509-65.97027,2.6062-98.62585,5.87204-27.66513,12.331-55.21005,18.85223-82.73162,10.8827-45.92831,11.98645-92.95414,16.04451-139.65027,2.86277-32.94239,8.9098-65.19162,23.27182-95.20561,26.53146-55.44623,61.2973-105.3296,103.82731-149.6877,32.13512-33.5164,68.90201-61.16439,109.11434-84.28855,9.46281-5.44159,9.4153-5.44265,17.38483,2.23388,18.32665,17.65279,36.48871,35.48294,55.08539,52.84701,18.55613,17.32656,38.81351,32.28061,62.98979,41.02381,4.22018,1.52624,8.72998,2.59421,13.18825,3.02936,5.23816,.51125,9.52055-2.14315,11.08926-7.15011,1.49377-4.76791-1.46619-8.38711-5.41108-10.75197-2.97003-1.78038-6.33077-2.89649-9.46417-4.41833-9.99604-4.85477-20.65437-8.74108-29.78149-14.89425-12.63425-8.51748-24.16567-18.68559-36.06687-28.274-15.598-12.56699-30.80681-25.64129-46.78263-37.70287-6.21828-4.69476-13.0417-10.28112-21.90372-8.69045-4.08276,.73273-8.03841,2.60854-11.81644,4.44926-2.44578,1.19152-4.26122,3.67841-6.70756,4.8675-29.8562,14.51299-58.18924,31.44245-83.78533,52.69921-8.70558,7.22963-17.11882,14.81155-25.01792,21.67008-9.10708-1.34546-9.97615-7.69767-10.08334-14.36064-.10302-6.40352-.21573-12.83038,.18876-19.21442,1.80422-28.47721,19.21724-60.88971,58.43471-60.55999,20.66952,.1738,33.39607-10.4055,39.68664-29.26421,6.1433-18.41704,19.25176-27.78352,37.5454-32.07012,24.01234-5.62676,48.25469-6.63091,72.71543-5.548,5.08259,.22496,10.16502,.45417,15.24754,.68149Zm91.10171,527.86035c-2.36421,.27075-4.80494,.64942-7.26008,.81633-37.12924,2.52736-74.2522,5.16447-111.40008,7.38182-5.50648,.32865-7.10353,2.57269-7.48498,7.40093-.38987,4.93451-.96106,9.89342-1.96892,14.73409-7.5924,36.46617-27.05792,65.92798-54.79645,89.95791-12.85908,11.13982-21.85757,23.81906-25.20274,40.65484-2.65102,13.34231-6.25135,26.49362-9.26678,39.7668-1.3227,5.82193-2.71687,11.69677-3.20835,17.61981-.51675,6.22744,3.51645,11.38024,8.73472,12.66151,5.39441,1.32462,10.64559-1.41846,13.51723-7.39077,1.24212-2.58315,2.22891-5.36367,2.84254-8.16192,2.56346-11.68949,5.5258-23.33442,7.25413-35.15474,2.80776-19.20245,9.737-35.6177,24.22386-49.45815,9.57859-9.15107,17.07582-20.74005,24.35594-31.98189,11.97527-18.49254,19.36841-38.87877,20.34698-61.08458,.39525-8.96825-.64644-17.99986-1.04275-27.19944h120.6095c.21429,1.29339,.48966,2.2745,.5246,3.2641,1.59478,45.07514,2.95276,90.15998,4.82745,135.22345,1.09163,26.24091,2.97109,52.44984,4.64604,78.66347,.09616,1.50562,1.54727,2.92453,2.36784,4.38377,1.00054-1.47667,2.73543-2.88391,2.88274-4.44153,.99342-10.49994,1.9319-21.02005,2.36981-31.55516,2.51773-60.56325,4.88837-121.13242,7.32972-181.69885,.05547-1.37647,.35743-2.74293,.78557-5.88211,18.71223,0,37.28989,.11855,55.86474-.05518,8.05906-.07534,16.12047-.6379,24.16514-1.20274,4.25989-.2994,8.24259-2.34909,8.22531-6.8702-.01849-4.8193-3.83789-6.96419-8.61942-6.92765-1.03411,.00788-2.07035-.00561-3.10181,.05503-10.93953,.64169-21.87944,1.2752-32.81677,1.95297-14.57366,.90289-29.14512,1.84322-44.54148,2.81963,0-8.99083,.10162-17.43366-.01553-25.8736-1.36715-98.45235,1.12042-197.01627-8.45848-295.23206-.86172-8.835-1.90569-17.6521-2.86501-26.47755-.67077,.01592-1.34161,.03191-2.01238,.04783-13.6004,115.93619-9.09287,232.55022-11.81186,349.24384Zm228.99658-297.7667c-.79519-.00773-1.59046-.01546-2.38565-.02327-.44617,5.03388-1.01502,10.0604-1.31842,15.10284-1.96199,32.61101-3.83926,65.22709-5.79852,97.83832-1.33911,22.28873-3.10984,44.55707-4.08538,66.86096-2.39421,54.73745,6.75496,108.18356,17.88037,161.50052,6.95501,33.33092,12.41678,66.98671,17.94371,100.59641,2.30684,14.02782,2.6905,28.36231,4.61149,42.46683,1.38011,10.13385,6.36888,14.98103,13.03632,14.38573,6.70578-.59849,11.32849-7.12018,10.91346-16.96872-.48595-11.53259-.7548-23.22057-2.87349-34.51153-7.4915-39.92401-15.20851-79.82103-23.82536-119.51431-10.28058-47.35707-18.41148-95.01081-20.10484-143.46299-1.97222-56.43136-2.7249-112.90546-3.97906-169.3616-.11033-4.9674-.01462-9.93935-.01462-14.90918Zm-521.03849,164.38761c-.61098,.32229-1.22196,.64465-1.8329,.96694,.12878,2.42511,.22259,4.85265,.39191,7.27495,1.57083,22.47079,4.70784,44.96251,4.39276,67.40601-.5571,39.68206-2.78931,79.35943-5.10119,118.99314-2.69709,46.2374-6.24601,92.42463-9.3798,138.63687-.32152,4.74153-.61227,9.51519-.42044,14.25384,.2695,6.65812,6.07991,13.85773,10.94506,14.14773,4.92721,.29379,11.26809-5.34896,12.95395-11.65493,.53206-1.99011,.98061-4.04359,1.11989-6.09162,1.34695-19.80533,2.65079-39.6137,3.90708-59.42509,2.27718-35.90997,4.59239-71.81783,6.74397-107.73538,2.0278-33.85028,5.21527-67.69525,1.93588-101.63937-2.4113-24.95859-8.64936-48.79736-21.67708-70.50283-1.03241-1.71998-2.63927-3.09492-3.9791-4.63026Zm413.32718,136.92091c-.44973,.15614-.89946,.31228-1.34911,.46842,.11874,1.42088,.07206,2.88027,.39184,4.25431,.60734,2.60967,1.2816,5.22132,2.17666,7.74383,10.29536,29.0137,26.83896,53.84525,49.84056,74.34609,6.37995,5.68641,10.88353,12.71502,11.9791,21.15133,3.1109,23.95383,5.68523,47.97709,8.59586,71.95759,.51869,4.27341,1.1455,8.65233,2.60244,12.66272,1.83415,5.04911,5.03258,9.26916,11.41229,8.436,5.22777-.68262,9.37923-5.79086,9.61466-12.10774,.16087-4.31752-.02652-8.69705-.57241-12.98334-2.16507-17.00101-4.83541-33.94214-6.75223-50.96923-2.71482-24.11467-10.71159-44.79757-31.09809-60.21868-21.06356-15.93319-37.97778-36.11932-52.19249-58.45823-1.39526-2.19279-3.09218-4.19337-4.64907-6.28308Zm-160.72514-742.46536c-.03167,.69414-.06342,1.38837-.0951,2.08259,1.184,.4923,2.34231,1.33023,3.55616,1.42005,7.21356,.53421,14.44234,1.29135,21.66181,1.25057,48.81153-.27605,97.62207-.73257,146.43291-1.13255,4.34339-.03562,8.72642,.26658,13.01897-.22239,4.51541-.51428,7.04018-3.63376,6.78019-8.16192-.24915-4.33924-2.98072-6.66722-7.42292-6.59703-5.58134,.08815-11.17049,.11267-16.74017,.4392-53.44067,3.13271-106.87877,6.31071-160.31368,9.54017-2.31207,.13977-4.58633,.9066-6.87817,1.38132Zm127.2392,92.68469c5.09092-.76926,9.65346-1.08927,14.01519-2.19893,7.71216-1.96192,13.42717-6.59271,15.35536-14.57795,1.99942-8.28047-.96819-15.40853-7.59653-20.25018-4.36188-3.18611-9.67885-5.38451-14.8898-6.96062-2.88554-.87272-6.463,.28462-9.66384,.87697-.92219,.17069-2.18431,1.51275-2.2563,2.40161-.06827,.84218,1.03343,2.18703,1.94759,2.61998,2.21084,1.0469,4.80699,1.35555,6.89621,2.56799,4.21791,2.44777,8.79644,4.71629,12.13489,8.12751,4.354,4.4488,2.69095,10.1177-3.17789,12.36476-2.59381,.99331-5.72176,1.41133-8.46113,1.03288-5.6991-.78775-11.38691-1.98155-16.91703-3.57267-4.93346-1.41952-8.31261,.10687-9.94133,4.56614-1.78626,4.89062,1.04457,8.14805,5.48784,9.39642,5.71956,1.60704,11.64136,2.49333,17.06676,3.6061Zm-74.38246-45.51105c11.42108-.11203,21.58702-10.80987,20.69551-21.77824-.49482-6.08851-4.53685-10.83375-9.08605-10.66677-4.48222,.16463-7.68958,4.58455-8.44317,10.61561-.29356,2.34947-1.64312,6.22964-2.95601,6.42512-2.3633,.3517-5.99697-.82429-7.42285-2.66311-2.83947-3.66173-4.39174-8.29464-6.79004-12.3399-.93227-1.5724-2.71406-2.6409-4.10879-3.93899-1.21378,1.54496-2.97579,2.90915-3.55404,4.66369-4.42341,13.42023,7.63782,29.82018,21.66544,29.68261Zm85.26008,109.12852c5.88301-.42575,11.27271-.45341,16.53231-1.29453,5.68849-.90948,9.49236-5.83126,9.15607-10.78228-.34258-5.04229-4.73205-8.87479-10.66287-9.18859-1.63676-.08664-3.35823-.15121-4.92338,.24194-11.33114,2.84608-22.66834,5.68436-33.90635,8.86873-1.82862,.51815-3.17584,2.73648-4.74554,4.16904,1.73822,1.47523,3.28996,3.86615,5.24732,4.26484,7.84742,1.59847,15.8204,2.57943,23.30243,3.72085Zm14.866-144.81793c-1.41216,3.5093-2.96746,5.40839-2.62359,6.85625,1.59023,6.69655,2.37656,14.11089,5.91703,19.70687,7.18976,11.36395,23.85521,9.50754,28.99448-2.91703,1.97191-4.7673,2.41937-10.44946,2.30207-15.68662-.06592-2.94523-2.01753-7.05575-4.38386-8.3787-2.07588-1.16052-6.9985-.15341-8.68664,1.69906-1.88803,2.07167-2.20659,6.21228-2.01844,9.38194,.24915,4.19829,3.05217,9.21671-2.34882,11.42079-5.71691,2.33294-8.51917-2.46043-10.74857-6.77826-1.3185-2.55359-2.14067-5.36094-3.23275-8.03512-.74086-1.81404-1.5631-3.59495-3.17092-7.26919Zm-243.69951,77.14299c1.64721,3.14745,2.93252,5.94215,4.51715,8.55531,2.67602,4.41287,6.62129,4.77511,10.60354,2.25889,3.97891-2.51417,4.97877-6.43005,1.49801-9.90115-5.05031-5.03615-10.15775-10.32023-16.15101-14.02554-7.02321-4.342-15.13664-4.95368-23.79346-1.78304,4.93327,2.34484,9.28614,4.12235,13.29797,6.48022,1.38643,.81489,2.78806,3.12342,2.69819,4.66293-.34713,5.94654,2.34219,6.12383,7.32961,3.75238Z" style="fill:#fff;"/><path d="M876.59226,878.14903c20.53252,10.02,34.35032,25.30634,41.39989,46.30926,1.73746,5.17645,1.80134,10.89697,2.94048,16.30285,.35948,1.70626,1.31213,3.97166,2.67239,4.68423,52.15764,27.32283,81.98489,73.10144,103.17833,125.66823,16.4232,40.73518,24.66594,83.57402,28.5396,127.12459,4.45062,50.0364,7.46218,100.19916,11.45518,150.27854,3.23987,40.63331,10.41736,80.66813,19.06414,120.47981,7.28486,33.54103,13.47628,67.27367,13.03708,101.83174-.06767,5.31986-1.4677,9.81383-6.75132,12.18535-4.65241,2.08789-9.42492,1.62098-12.53241-2.11275-2.30146-2.76536-3.63436-6.86671-4.10902-10.53966-3.65383-28.27362-6.4248-56.67156-10.58603-84.8662-4.3093-29.19865-10.9318-58.07925-14.60102-87.34247-4.00816-31.96613-6.40253-64.17344-8.41051-96.34361-3.72196-59.63096-5.76699-119.42616-20.05672-177.83126-12.01986-49.1276-31.4694-94.9629-63.2353-134.71122-10.7954-13.50816-23.78505-25.26481-35.81779-37.77768-2.19068-2.27806-4.36681-3.53166-8.13385-2.4023-6.15588,1.84557-10.24838-2.72322-11.83777-10.92289-1.4014-7.23008-2.72353-14.69445-5.65356-21.36394-6.24756-14.22079-16.96378-24.80381-30.26767-32.70022-1.45459-.8634-3.6014-1.41565-5.18549-1.05372-6.21953,1.42058-12.34229,3.26516-19.94291,5.34745,4.12887,7.37985,7.92115,14.30531,11.85801,21.14754,3.08112,5.35495,1.15892,10.20828-1.85643,14.47934-8.22296,11.64735-16.07425,23.68354-25.44332,34.36251-11.29022,12.86889-23.67919,24.83322-36.1922,36.54826-8.46333,7.92339-18.40481,13.94232-30.83697,10.65138-4.68082-1.2392-9.3884-3.46276-13.31321-6.30294-34.10836-24.68284-64.25873-53.35417-87.33451-88.87409-4.40629-6.78235-7.82863-14.20427-11.70502-21.33112l2.36852-1.79774c2.28979,3.75686,4.57966,7.51371,6.86946,11.27049,.87809-.71855,1.7561-1.4371,2.63412-2.15565,.53331-8.91921,.96751-17.84607,1.65737-26.75315,.22081-2.85162,.7573-5.78964,1.77838-8.44631,2.41111-6.27398,9.89223-9.12272,15.99908-6.40413,6.00637,2.67395,9.24344,9.67315,5.99766,15.42566-5.05357,8.95635-10.98484,17.42009-16.62211,26.04164-1.23052,1.88203-2.78999,3.54895-5.28786,6.68215,14.92859,14.43507,29.30107,29.32795,44.75653,42.99543,15.30406,13.53377,31.4994,26.09273,47.69944,38.56498,8.59192,6.61484,12.96206,6.56398,21.07515-.4732,20.8607-18.09423,39.29674-38.46219,54.72106-61.44962,.63811-.95102,1.44118-2.60278,1.0501-3.30973-4.79941-8.6762-2.97481-18.18367-3.70089-27.36164-.02963-.37474-.33932-.72734-.01796-.0764-12.03888-1.02068-23.76565-.73712-34.80346-3.35726-8.73885-2.0744-16.97174-7.15762-24.79029-11.94804-5.87119-3.59723-6.08215-9.73121-1.97638-15.00658,3.77871-4.85507,8.60366-5.67564,14.0768-1.88915,15.10887,10.45318,31.98293,11.87201,49.34249,9.16918,21.7222-3.38204,42.7365-9.39233,62.41761-19.50919,35.96366-18.48678,52.93138-48.27004,51.05335-88.30714-1.11315-23.72727-4.17593-47.35692-5.99228-71.05887-2.05337-26.79499-3.5601-53.63204-5.64431-80.42437-.34076-4.3807-1.97313-8.83143-3.79319-12.89841-10.46972-23.39456-21.03491-46.75794-36.53812-67.43387q-8.5119-11.35197-20.92868-4.50402c-22.87945,12.55054-47.21364,15.19444-72.68872,10.99406-23.42094-3.86168-46.86394-7.65458-70.39104-10.76913-7.89425-1.04501-16.08008-.00739-24.12687,.25612-8.59192,.28132-14.14348,5.25482-19.45021,11.63242-5.32916,6.4045-11.37289,12.62141-18.21908,17.28032-21.8689,14.88223-37.41098,34.06649-44.46499,59.84864-1.1172,4.08324-.72502,9.37887-6.38665,11.1117-.62204,.19033-1.03563,1.73396-1.18214,2.7048-1.781,11.80235-3.49376,23.61502-5.35974,36.34982,12.26079-.52193,23.43443-.19321,29.40193,12.55274h-15.10421c.28829,5.24148-2.40156,5.64002-6.91655,5.41058-3.96061-.20132-8.70838,.87249-11.9395,3.08848-11.55134,7.92218-18.31028,19.06245-15.73178,33.35086,2.54944,14.12734,11.68323,23.34124,25.52641,27.66354,3.33095,1.04,6.69191,2.08001,9.8634,3.50976,3.54165,1.59673,5.2105,4.22551,4.349,8.50642-.36425,1.80987,.43185,4.45441,1.66423,5.89424,17.07385,19.94904,34.35695,39.71867,51.47023,59.63421,2.53076,2.94515,5.29915,6.15976,6.36888,9.72651,.75821,2.52812-.37039,6.5592-2.16385,8.58297-1.1718,1.32227-5.84269,1.32568-7.54803,.04987-4.72879-3.53811-9.19252-7.67357-12.9313-12.25099-16.43919-20.12709-29.05738-42.57158-39.18826-66.44097-18.19912,4.82346-31.84987-3.55562-43.13614-16.1051-15.28747-16.99851-16.63685-34.2492-6.16955-60.43986-2.15309-1.35001-4.24265-3.12881-6.65736-4.09241-10.00961-3.99463-15.41701-11.71852-19.10585-21.47301-3.93129-10.39572-8.35682-20.63894-13.17518-30.65583-6.0984-12.67799-9.63274-25.44035-4.024-39.78284-2.2022,0-3.84517,.17517-5.43858-.03161-5.61802-.72909-8.26911-5.31027-5.44578-10.26664,3.22335-5.6587,7.12982-10.92816,10.88895-16.59194-6.54809-.49942-13.07182-.84597-19.55899-1.53609-5.95738-.63377-11.86737-2.22963-13.56971-8.86137-1.61296-6.28338,2.57672-10.36343,7.08898-14.00765,8.29419-6.69848,16.50875-13.49561,24.84178-20.32147-5.10903-1.294-10.35833-2.20257-15.29421-3.98125-6.03213-2.17366-6.52407-7.21265-1.45975-11.23782,5.89206-4.68309,12.62509-4.54866,19.50936-3.25425,1.96684,.36981,3.88101,1.02003,4.56242,1.20338,1.55075-2.83233,2.55228-6.72289,4.01047-6.90241,3.18683-.39232,6.60564,1.10057,11.06437,2.07008,7.59728-13.42906,20.25908-24.06536,33.56441-34.28785,13.55902-10.41732,27.69019-18.09665,44.84853-15.44927,1.15225-9.06709,1.67048-17.65942,3.44985-25.98199,2.13521-9.98718,7.23273-18.67191,16.31749-23.88739,3.14076-1.80312,7.70784-2.2496,11.27878-1.55159,1.22348,.23918,1.39541,5.86013,2.14438,9.49086,.95584-.69934,2.50879-2.07895,4.27383-3.08662,10.01711-5.71892,19.65966-12.36674,30.22887-16.78552,18.7843-7.85328,37.5423-6.87099,55.182,4.25173,12.5512,7.91411,25.79902,14.15042,40.80589,15.26792,22.62674,1.68499,45.16201,1.60124,65.9386-9.37444,13.3079-7.03028,26.56829-14.24751,39.28097-22.28168,13.96995-8.8287,22.28817-7.27063,31.26078,9.10688,1.86355-2.58959,3.07082-5.04104,4.95316-6.74737,7.60524-6.89419,18.86553-3.17034,21.07886,6.84143,3.5454,16.03764,2.99769,32.02343-1.25257,49.7428,2.43187-2.78272,3.82569-4.27534,5.09964-5.86411,1.29251-1.61185,2.1662-3.74075,3.76636-4.88039,2.15923-1.53787,5.0647-3.54281,7.22916-3.1315,2.15923,.41029,4.07409,3.36006,5.61863,5.53565,6.38881,8.9986,1.80642,17.86937-.70896,26.66841-2.42627,8.48766-5.16473,16.88603-7.73489,25.22251,7.69458-.4785,15.13137-.76994,22.53202-1.45249,6.54036-.60323,16.0525,5.40877,17.83642,13.67608,1.46255,6.77807,1.66025,14.46687-.00333,21.14856-3.38627,13.60078-12.60144,23.51788-24.27797,30.9998-5.80663,3.72062-8.97731,8.54864-9.56852,15.59476-.9788,11.66573-6.48247,21.08891-15.36484,28.76672-5.76154,4.98033-10.85064,10.31481-19.45825,10.57756-4.04597,.12347-6.54968,2.85196-5.24679,8.6618,10.68075,47.62592,16.97341,95.99283,22.21512,144.44182,3.13613,28.98725,1.00698,57.58536-17.44488,82.37939-15.38492,20.67282-35.79135,34.63447-59.17342,44.68395-1.87189,.8045-3.72006,1.66419-6.19536,2.77461Zm-242.37692-406.98072c-10.82677-4.60024-25.98273-1.58199-33.31465,6.38279,10.9817-2.104,21.98495-4.21213,33.31465-6.38279Zm264.87749,36.38033c1.28698,1.44938,2.57153,2.89611,4.00415,4.50959,6.30743-5.7328,12.11239-11.03912,15.6862-18.04613l-1.51173-1.26053c-5.94704,4.84075-11.894,9.68149-18.17862,14.79708Z"/><path d="M664.55007,843.01544c-5.08251-.22731-10.16495-.45652-15.24754-.68149-24.46074-1.08291-48.70309-.07875-72.71543,5.548-18.29365,4.2866-31.40211,13.65308-37.5454,32.07012-6.29057,18.85871-19.01712,29.43801-39.68664,29.26421-39.21747-.32971-56.63049,32.08278-58.43471,60.55999-.40449,6.38404-.29177,12.8109-.18876,19.21442,.10718,6.66297,.97626,13.01518,10.08334,14.36064,7.8991-6.85853,16.31234-14.44045,25.01792-21.67008,25.59609-21.25676,53.92912-38.18622,83.78533-52.69921,2.44635-1.1891,4.26178-3.67598,6.70756-4.8675,3.77803-1.84072,7.73368-3.71653,11.81644-4.44926,8.86202-1.59067,15.68544,3.99569,21.90372,8.69045,15.97582,12.06158,31.18463,25.13588,46.78263,37.70287,11.9012,9.58841,23.43261,19.75652,36.06687,28.274,9.12712,6.15316,19.78545,10.03948,29.78149,14.89425,3.13341,1.52184,6.49414,2.63795,9.46417,4.41833,3.94489,2.36485,6.90484,5.98406,5.41108,10.75197-1.56871,5.00697-5.85111,7.66136-11.08926,7.15011-4.45827-.43515-8.96807-1.50312-13.18825-3.02936-24.17628-8.74321-44.43365-23.69726-62.98979-41.02381-18.59667-17.36408-36.75874-35.19423-55.08539-52.84701-7.96953-7.67652-7.92202-7.67546-17.38483-2.23388-40.21233,23.12416-76.97922,50.77216-109.11434,84.28855-42.53001,44.3581-77.29585,94.24147-103.82731,149.6877-14.36202,30.01399-20.40904,62.26322-23.27182,95.20561-4.05806,46.69612-5.16181,93.72196-16.04451,139.65027-6.52123,27.52157-12.98019,55.06649-18.85223,82.73162-6.93129,32.65557-8.39609,65.57052-2.6062,98.62585,.88862,5.07321,.96724,9.97816-4.22005,13.18284-3.86209,2.38592-8.02235,3.00988-11.47314-.01607-2.32596-2.03923-4.5126-5.10353-5.14122-8.05475-2.05974-9.67027-4.18845-19.44469-4.83897-29.27535-2.53377-38.28862,6.10922-75.16803,15.33125-111.88312,9.05803-36.06217,18.6008-72.02536,22.3444-109.14792,2.55137-25.30013,4.69103-50.64452,6.76267-75.98974,3.81285-46.64807,16.6794-90.43535,40.5171-130.87743,23.4841-39.84215,50.19072-77.2826,82.00369-110.95855,1.40261-1.48478,2.67061-3.09682,4.28274-4.97794-10.23527-3.79301-13.23175-12.02292-14.20497-21.60338-2.7238-26.81189,.86597-52.11649,18.31229-73.82977,13.02916-16.21576,29.83942-25.15437,51.0224-24.92865,3.3028,.03525,6.60826-.06867,9.91102-.16099,6.76705-.18904,11.90404-3.35627,15.32301-9.04935,2.22163-3.69933,4.36757-7.55305,5.79446-11.60309,8.10138-22.99371,24.85693-34.99534,48.21525-39.52464,24.23383-4.69901,48.35301-6.2946,72.41066,.48108,6.31197,1.77766,12.36707,4.46821,18.54015,6.73952-.14693,.62995-.29393,1.25997-.44086,1.88991Z"/><path d="M755.65178,1370.87579c2.71899-116.69362-1.78854-233.30765,11.81186-349.24384,.67077-.01592,1.34161-.03191,2.01238-.04783,.95932,8.82545,2.00329,17.64255,2.86501,26.47755,9.5789,98.21579,7.09133,196.77971,8.45848,295.23206,.11715,8.43994,.01553,16.88277,.01553,25.8736,15.39636-.97641,29.96782-1.91674,44.54148-2.81963,10.93733-.67777,21.87724-1.31128,32.81677-1.95297,1.03146-.06064,2.06769-.04715,3.10181-.05503,4.78153-.03653,8.60093,2.10836,8.61942,6.92765,.01728,4.52111-3.96542,6.5708-8.22531,6.8702-8.04466,.56484-16.10608,1.1274-24.16514,1.20274-18.57485,.17373-37.15251,.05518-55.86474,.05518-.42813,3.13919-.7301,4.50565-.78557,5.88211-2.44135,60.56644-4.81199,121.1356-7.32972,181.69885-.43791,10.53511-1.37639,21.05522-2.36981,31.55516-.14731,1.55762-1.8822,2.96486-2.88274,4.44153-.82058-1.45923-2.27168-2.87815-2.36784-4.38377-1.67495-26.21363-3.55442-52.42255-4.64604-78.66347-1.87469-45.06347-3.23267-90.14831-4.82745-135.22345-.03493-.9896-.3103-1.97071-.5246-3.2641h-120.6095c.39631,9.19958,1.438,18.23119,1.04275,27.19944-.97857,22.20581-8.37171,42.59205-20.34698,61.08458-7.28012,11.24184-14.77735,22.83083-24.35594,31.98189-14.48686,13.84045-21.4161,30.2557-24.22386,49.45815-1.72833,11.82032-4.69067,23.46524-7.25413,35.15474-.61363,2.79826-1.60042,5.57878-2.84254,8.16192-2.87164,5.97231-8.12283,8.71539-13.51723,7.39077-5.21826-1.28126-9.25147-6.43406-8.73472-12.66151,.49148-5.92304,1.88564-11.79788,3.20835-17.61981,3.01542-13.27319,6.61576-26.42449,9.26678-39.7668,3.34516-16.83578,12.34365-29.51502,25.20274-40.65484,27.73854-24.02993,47.20406-53.49174,54.79645-89.95791,1.00786-4.84067,1.57905-9.79958,1.96892-14.73409,.38146-4.82824,1.97851-7.07227,7.48498-7.40093,37.14788-2.21735,74.27084-4.85447,111.40008-7.38182,2.45514-.1669,4.89588-.54558,7.26008-.81633Z"/><path d="M984.64836,1073.1091c0,4.96983-.0957,9.94178,.01462,14.90918,1.25417,56.45614,2.00685,112.93025,3.97906,169.3616,1.69336,48.45218,9.82426,96.10592,20.10484,143.46299,8.61685,39.69328,16.33386,79.59031,23.82536,119.51431,2.11869,11.29096,2.38754,22.97893,2.87349,34.51153,.41502,9.84855-4.20768,16.37023-10.91346,16.96872-6.66744,.59531-11.65622-4.25188-13.03632-14.38573-1.92099-14.10452-2.30465-28.43901-4.61149-42.46683-5.52694-33.6097-10.98871-67.26549-17.94371-100.59641-11.12541-53.31695-20.27458-106.76306-17.88037-161.50052,.97554-22.30389,2.74627-44.57223,4.08538-66.86096,1.95926-32.61123,3.83653-65.22732,5.79852-97.83832,.30341-5.04244,.87226-10.06896,1.31842-15.10284,.79519,.00781,1.59046,.01554,2.38565,.02327Z"/><path d="M463.60986,1237.4967c1.33983,1.53533,2.94669,2.91028,3.9791,4.63026,13.02772,21.70548,19.26578,45.54424,21.67708,70.50283,3.27939,33.94411,.09192,67.78909-1.93588,101.63937-2.15158,35.91755-4.4668,71.82541-6.74397,107.73538-1.25629,19.8114-2.56012,39.61976-3.90708,59.42509-.13928,2.04802-.58783,4.1015-1.11989,6.09162-1.68586,6.30597-8.02674,11.94872-12.95395,11.65493-4.86515-.29-10.67556-7.48961-10.94506-14.14773-.19183-4.73865,.09893-9.51231,.42044-14.25384,3.13378-46.21224,6.68271-92.39947,9.3798-138.63687,2.31188-39.63371,4.54409-79.31107,5.10119-118.99314,.31508-22.44351-2.82193-44.93522-4.39276-67.40601-.16932-2.42231-.26313-4.84984-.39191-7.27495,.61094-.32229,1.22192-.64465,1.8329-.96694Z"/><path d="M876.93704,1374.41761c1.55689,2.08971,3.25381,4.09028,4.64907,6.28308,14.21471,22.33891,31.12894,42.52504,52.19249,58.45823,20.3865,15.42111,28.38327,36.10401,31.09809,60.21868,1.91683,17.02709,4.58717,33.96822,6.75223,50.96923,.54589,4.28629,.73328,8.66582,.57241,12.98334-.23544,6.31688-4.38689,11.42512-9.61466,12.10774-6.37972,.83316-9.57814-3.38689-11.41229-8.436-1.45694-4.01039-2.08376-8.38931-2.60244-12.66272-2.91063-23.98051-5.48496-48.00377-8.59586-71.95759-1.09557-8.43631-5.59915-15.46492-11.9791-21.15133-23.0016-20.50084-39.5452-45.33239-49.84056-74.34609-.89506-2.52251-1.56932-5.13415-2.17666-7.74383-.31977-1.37404-.2731-2.83343-.39184-4.25431,.44965-.15614,.89938-.31228,1.34911-.46842Z"/><path d="M716.2119,631.95225c2.29184-.47471,4.5661-1.24155,6.87817-1.38132,53.43491-3.22946,106.87301-6.40746,160.31368-9.54017,5.56967-.32653,11.15882-.35105,16.74017-.4392,4.44221-.07019,7.17377,2.25779,7.42292,6.59703,.25999,4.52816-2.26479,7.64764-6.78019,8.16192-4.29255,.48896-8.67557,.18676-13.01897,.22239-48.81084,.39998-97.62139,.8565-146.43291,1.13255-7.21947,.04078-14.44825-.71635-21.66181-1.25057-1.21385-.08982-2.37216-.92775-3.55616-1.42005,.03167-.69422,.06342-1.38844,.0951-2.08259Z"/><path d="M843.4511,724.63694c-5.4254-1.11277-11.3472-1.99906-17.06676-3.6061-4.44327-1.24837-7.2741-4.5058-5.48784-9.39642,1.62873-4.45926,5.00787-5.98565,9.94133-4.56614,5.53012,1.59112,11.21793,2.78492,16.91703,3.57267,2.73937,.37845,5.86732-.03957,8.46113-1.03288,5.86884-2.24706,7.53189-7.91596,3.17789-12.36476-3.33846-3.41122-7.91698-5.67974-12.13489-8.12751-2.08922-1.21244-4.68537-1.52108-6.89621-2.56799-.91416-.43295-2.01586-1.77781-1.94759-2.61998,.07199-.88887,1.33411-2.23092,2.2563-2.40161,3.20085-.59235,6.7783-1.74969,9.66384-.87697,5.21095,1.57611,10.52791,3.77452,14.8898,6.96062,6.62834,4.84166,9.59595,11.96971,7.59653,20.25018-1.92819,7.98524-7.6432,12.61603-15.35536,14.57795-4.36173,1.10966-8.92427,1.42967-14.01519,2.19893Z"/><path d="M769.06864,679.12589c-14.02762,.13757-26.08886-16.26237-21.66544-29.68261,.57825-1.75454,2.34026-3.11872,3.55404-4.66369,1.39473,1.29809,3.17652,2.3666,4.10879,3.93899,2.3983,4.04526,3.95057,8.67817,6.79004,12.3399,1.42587,1.83882,5.05955,3.01481,7.42285,2.66311,1.31289-.19548,2.66246-4.07566,2.95601-6.42512,.75359-6.03105,3.96095-10.45098,8.44317-10.61561,4.5492-.16698,8.59124,4.57826,9.08605,10.66677,.8915,10.96837-9.27443,21.66621-20.69551,21.77824Z"/><path d="M854.32872,788.25441c-7.48203-1.14142-15.45501-2.12238-23.30243-3.72085-1.95737-.39869-3.5091-2.78962-5.24732-4.26484,1.5697-1.43255,2.91691-3.65089,4.74554-4.16904,11.23801-3.18436,22.57521-6.02264,33.90635-8.86873,1.56515-.39316,3.28662-.32858,4.92338-.24194,5.93082,.3138,10.32029,4.1463,10.66287,9.18859,.33629,4.95103-3.46758,9.8728-9.15607,10.78228-5.2596,.84111-10.64931,.86878-16.53231,1.29453Z"/><path d="M869.19472,643.43649c1.60781,3.67424,2.43005,5.45515,3.17092,7.26919,1.09208,2.67418,1.91425,5.48153,3.23275,8.03512,2.2294,4.31783,5.03167,9.1112,10.74857,6.77826,5.401-2.20409,2.59797-7.2225,2.34882-11.42079-.18815-3.16966,.13041-7.31027,2.01844-9.38194,1.68813-1.85247,6.61076-2.85958,8.68664-1.69906,2.36633,1.32295,4.31793,5.43347,4.38386,8.3787,.1173,5.23716-.33016,10.91932-2.30207,15.68662-5.13927,12.42457-21.80472,14.28098-28.99448,2.91703-3.54047-5.59598-4.3268-13.01032-5.91703-19.70687-.34387-1.44787,1.21143-3.34695,2.62359-6.85625Z"/><path d="M625.49521,720.57948c-4.98741,2.37145-7.67673,2.19416-7.32961-3.75238,.08987-1.5395-1.31176-3.84804-2.69819-4.66293-4.01184-2.35788-8.3647-4.13538-13.29797-6.48022,8.65682-3.17064,16.77025-2.55897,23.79346,1.78304,5.99326,3.70531,11.1007,8.98939,16.15101,14.02554,3.48076,3.4711,2.4809,7.38698-1.49801,9.90115-3.98225,2.51622-7.92751,2.15399-10.60354-2.25889-1.58462-2.61316-2.86993-5.40786-4.51715-8.55531Z"/><path d="M634.21534,471.16832c-11.3297,2.17066-22.33295,4.27879-33.31465,6.38279,7.33192-7.96478,22.48788-10.98303,33.31465-6.38279Z" style="fill:#fff;"/><path d="M899.09283,507.54864c6.28462-5.11558,12.23158-9.95633,18.17862-14.79708l1.51173,1.26053c-3.57382,7.00701-9.37877,12.31334-15.6862,18.04613-1.43262-1.61348-2.71717-3.06021-4.00415-4.50959Z" style="fill:#fff;"/></svg></svg>
