<?xml version="1.0" encoding="UTF-8"?>
<svg id="a" xmlns="http://www.w3.org/2000/svg" viewBox="0 0 1366 1555"><svg y="-200"><path d="M777.72633,874.08725c33.83598-11.14097,52.11178-36.86345,63.43465-68.17729,6.94974-19.2193,12.87647-39.01405,16.93467-59.0229,5.21804-25.72765,10.55231-51.85175,11.37373-77.94567,1.03411-32.85113-2.4869-65.84231-3.92769-98.77811-.2396-5.47768-2.79347-11.41116,2.91753-16.05736,1.09682-.89224,1.18294-3.54246,1.05098-5.3312-.34914-4.73311-1.4154-9.43276-1.49574-14.15761-.03694-2.17428,.94403-5.16632,2.53829-6.42075,5.17958-4.07544,7.70563-8.83447,7.25995-15.55001-.16579-2.49861,1.06056-5.3369,2.34111-7.63637,3.40676-6.11745,8.22375-11.64315,10.60871-18.09607,5.19106-14.04531-.08955-22.60567-14.69695-25.99275-.31881-.07398-.54533-.54605-.86794-.88882,1.9022-6.64407,2.75858-14.13221-3.11486-18.37173-5.01896-3.62268-12.08469-4.40805-18.41643-6.50519,2.03119-8.42547-.37483-11.95516-10.62969-12.66271-11.79493-.81373-23.63075-1.07978-35.41138-2.04167-6.11319-.4991-12.90687,.97596-17.79843-4.7728-.73864-.86802-2.71761-.77564-4.14456-.94775-18.51016-2.23286-36.96908-5.39408-55.54773-6.46018-53.9708-3.09686-106.15396,4.51819-155.94276,28.42498-6.45325-6.34434-13.96097-12.64845-24.55372-7.3201-8.92289,4.48835-7.53376,12.78475-6.36651,20.58205-14.30091,5.58889-17.29954,17.79356-5.97652,33.89745-18.52183,27.49746-28.38529,58.25658-31.44227,91.17028-2.56805,27.64964-1.95195,55.13741,7.43574,81.80805,.67444,1.9161-.36309,4.83594-1.40529,6.88069-3.17765,6.23424-8.328,11.89182-9.88954,18.44625-6.62709,27.81635-.81667,53.06148,18.68013,74.45039,2.70757,2.97048,3.04341,4.92764,1.68555,8.5033-2.10242,5.53631-4.17512,11.32536-4.72258,17.15182-.73484,7.82164,5.49797,12.08625,13.14624,9.90843,2.32111-.66105,4.56089-1.60785,6.71618-2.38007,9.47864,15.6511,13.88115,17.19721,32.63661,12.67864,10.59294,11.40307,20.61368,22.4109,30.92841,33.13588,2.52658,2.62711,5.84684,4.64471,9.10297,6.37703,4.20366,2.23636,8.39588,1.83147,11.99241-1.67735,3.81948-3.72628,3.25914-8.11681,.94148-11.98824-1.97643-3.30154-5.02732-5.98522-7.72836-8.8228-16.56988-17.40722-33.22694-34.73195-49.71606-52.2152-2.59123-2.74755-5.12926-5.57273-4.1872-10.3718,.34408-1.75255-2.627-4.904-4.8084-6.20261-2.35878-1.40423-5.53795-1.72479-8.40147-1.93055-8.81742-.63376-15.13875-5.0163-19.74365-12.31732-6.20076-9.83103-9.76841-20.57608-10.90722-32.09191-1.18112-11.94277,.18411-23.32257,9.08534-32.42236,9.45602-9.6671,21.66614-9.21278,30.3429,1.09605,2.35304,2.7956,3.91564,6.29857,6.4358,8.90058,2.58606,2.66999,5.58994,5.81772,8.95049,6.69981,13.54152,3.55467,21.67918-4.5775,18.72327-18.11306-2.16517-9.91482-4.4466-19.80425-6.61402-29.71854-.3423-1.5655-1.0357-3.55725-.41417-4.75208,5.87036-11.28514,11.99078-22.44014,17.53215-32.69453,2.39588,3.01246,4.26455,7.52479,6.97243,8.1027,2.28881,.48845,6.24907-3.05488,8.26145-5.72488,9.3496-12.4048,18.72589-24.83477,27.20588-37.83454,5.94322-9.11093,10.45782-19.15433,15.79171-29.12006,.9964,1.9989,1.66511,3.69488,2.6251,5.20559,4.46595,7.02832,13.18683,6.90677,18.4834-.69185,3.93674-5.64766,7.05677-11.86487,10.06916-17.02146,9.23345,7.4924,17.97228,15.07939,27.25027,21.93625,6.10324,4.51055,9.59954,2.63083,11.18506-4.96912,1.58666-7.60516,3.13843-15.21762,4.64231-22.51994,15.51882,9.13226,30.41713,18.1074,45.53208,26.70095,6.94229,3.94701,10.4037,1.6472,10.90631-6.25538,.37453-5.88984,1.0541-11.76032,1.71999-18.95957,17.96141,14.29189,38.08498,16.33892,59.67138,17.00305,1.17169,17.45113,3.04075,34.13001,3.24059,50.82885,.31539,26.34784,.31569,52.75015-1.02468,79.05431-1.68548,33.07589-10.08018,65.0482-18.7734,96.87611-5.69618,20.85491-12.27747,41.33602-24.27649,59.60914-14.96041,22.78287-35.89552,33.48321-63.27616,31.85232-25.15637-1.49843-48.34212-8.9792-70.04384-21.55041-6.61375-3.83121-12.12742-2.66079-15.39058,2.98303-3.35887,5.80943-1.6816,11.03939,5.09452,14.95644,15.13297,8.74752,31.01499,16.15682,48.21936,19.17604,16.39291,2.87681,33.13709,3.75183,50.31996,5.56961-.76532,13.84077,4.77609,27.43769,12.85716,40.05087-22.40007,20.42561-60.60796,32.94389-90.14712,29.80476-33.54621-3.56501-62.77481-17.61107-89.70232-37.09818-5.61541-4.0638-10.6669-8.90727-16.03933-13.44295,5.42552-4.70166,10.43304-8.43015,14.70079-12.8701,8.19764-8.52831,12.76959-18.73138,12.47891-30.82615-.10916-4.54305-1.75902-7.95728-6.72572-7.8982-4.75754,.05672-6.19134,3.39218-5.95919,7.72279,.0775,1.44521-.00502,2.90806-.12573,4.35357-1.13395,13.57639-16.6847,29.79351-29.37318,32.07161-9.90569,1.77855-19.68398,4.65536-29.24031,7.8722-8.00087,2.69318-15.41236,7.1383-23.41342,9.8305-17.06101,5.74084-34.44873,10.51193-51.49967,16.28045-42.4615,14.36542-79.66642,36.79563-108.82037,71.57016-26.54839,31.66695-48.21883,66.39897-65.44321,103.86622-35.3324,76.85669-52.15281,158.09896-54.58357,242.26746-.99247,34.36568,.87465,68.84618,2.32254,103.23726,.77491,18.40641,3.19082,36.76081,5.3027,55.08829,1.58696,13.77234,3.85863,27.46606,5.84838,41.1914,.60799,4.19367,2.87513,6.51808,7.25798,7.17853,9.21903,1.38872,18.34277,3.47498,27.58654,4.62327,38.06879,4.72911,76.22043,3.15959,114.36201,1.00595,7.00321-.39523,13.9902-1.07758,21.35558-1.65666,0-2.0595,.15211-3.69396-.02216-5.29269-4.69491-43.0707-10.49036-86.05624-13.78264-129.23293-2.31321-30.33701-1.32935-60.933-1.5089-91.41508-.01957-3.32732-1.22224-9.4929,4.8523-8.70471,5.35981,.69527,2.5736,6.05365,2.58515,9.37763,.07921,22.81267-.77759,45.65561,.12847,68.43072,.92267,23.19163,3.1176,46.35803,5.48664,69.46039,2.95527,28.81888,6.65833,57.56097,10.03248,86.2848,33.32683-2.04642,66.19361-5.78464,99.03805-5.59714,32.7826,.1869,65.54277,4.3059,98.8121,6.73767,0-2.64589-.09084-4.48595,.01459-6.31461,.75859-13.16056,1.41973-26.32932,2.42183-39.47163,.32272-4.23245-1.49647-5.08207-5.05149-4.73003-6.7914,.67261-13.58462,1.69909-20.38765,1.79018-9.17804,.12303-14.58524-6.58742-11.83727-15.12805,1.38172-4.29419,4.51232-8.28074,7.62197-11.70721,5.61267-6.18474,5.30835-9.06041-2.47311-12.22395-3.74639-1.52299-7.66222-2.62916-11.50136-3.9239,3.60292-.92824,7.06908-1.19954,10.4804-.88156,15.42,1.43692,19.66148,10.41582,11.225,23.42446-1.61,2.48272-3.01342,5.09956-4.93143,8.36924,7.6981-.86377,14.21402-1.8755,20.76719-2.27377,14.90352-.90619,20.58563,4.77823,18.86906,19.44551-1.70805,14.59444-4.11575,29.10721-6.24637,43.86101,1.2902,.12424,2.50545,.30201,3.72579,.34992,34.62486,1.36043,69.26765,2.36805,103.87176,4.13284,59.71319,3.04553,119.43862,4.80454,179.22532,3.30253,11.75304-.29517,23.48989-1.22995,35.23495-1.85557,4.62543-.24636,5.96686-2.67493,5.05309-7.02798-6.07648-28.95042-12.10119-57.91149-18.10371-86.87727-1.14015-5.50209-2.1063-11.04007-3.28985-17.28458,24.4996,28.21729,52.63066,48.18151,89.73869,49.69584,41.93095,1.71095,72.80501-15.60084,87.47854-55.69186,12.24531-33.4569,14.06701-68.54188,10.52076-103.2333-4.14213-40.52062-11.8286-80.69596-18.48963-120.93623-5.58261-33.72501-11.94946-67.31969-17.79585-101.00219-.42561-2.45177,.12375-5.30463,.98067-7.69853,1.73762-4.85503,.23071-7.66561-5.01029-7.64789-3.21915,.01095-6.43595,.73793-11.52401,1.37906,0-14.62652,.15651-28.68164-.03459-42.73204-.33523-24.63859,4.87582-47.91166,14.57669-70.62693,13.97306-32.7189,5.22002-65.1824-23.87369-84.98399-10.25084-6.97688-13.47995-14.97423-13.96059-25.84155-.02752-.62212-.02501-1.24942-.10756-1.86477-2.47717-18.45788-4.26109-37.04647-7.69271-55.32544-2.32347-12.3761-6.84362-24.43223-15.92527-33.8786-4.32243-4.49606-9.80303-6.28602-15.91212-3.86276-6.04425,2.39756-8.32165,7.4648-7.82596,13.51412,.74365,9.07668,2.32355,18.08516,3.05268,27.16244,1.58993,19.79185,2.86743,39.60887,4.24672,59.05157-13.35133,3.99552-15.94747,5.88394-22.90374,16.0439-1.61167-.86901-3.22037-1.77536-4.8626-2.61608-22.63761-11.58905-44.42082-2.76336-50.31585,21.97818-2.76702,11.61361-1.51315,24.19789-1.94081,36.34717-.08772,2.4923,.45115,5.00672,.79093,8.4097-3.09829-1.66336-5.11147-2.66976-7.0535-3.79867-16.3017-9.4761-32.48306-19.16524-48.91155-28.41551-18.33677-10.32481-37.32977-18.78712-58.72036-20.88996-29.26368-2.87681-27.13732,.18834-38.34449-30.13574-.70489-1.90735-1.16607-3.90473-1.82018-6.13068Zm32.56181-134.82361c-1.74553-1.67681-1.99934-2.13675-2.31435-2.18329-1.01183-.14964-2.06639-.30574-3.0688-.17846-18.88271,2.3955-37.14962-.6625-55.23538-5.90462-11.65513-3.37826-23.47294-4.54518-35.6145-2.33969-18.61749,3.38184-31.51501,18.6447-30.83453,37.10738,.68322,18.53491,14.07507,34.72313,34.45572,40.13109,26.86815,7.12941,52.48744,.59376,77.58505-8.81702,2.50408-.93896,5.10896-3.32937,6.24592-5.72191,1.18667-2.49693,1.54325-6.18634,.51842-8.61933-.55894-1.32713-4.72357-1.43373-7.2804-1.51501-1.71178-.05452-3.45571,.90285-6.17659,1.69658-1.65948-12.65689-3.2491-24.7807-4.75253-36.24749,9.23535-2.58453,17.35496-4.85685,26.47196-7.40823Zm-10.0313-52.02656c.14952-11.88932-8.34438-22.08646-20.27325-23.90173-1.67605-.25518-3.59756,1.10236-5.40542,1.71346,.68299,1.71103,.97573,3.76848,2.12583,5.06473,2.86386,3.22771,6.55598,5.78084,9.11753,9.2026,4.32046,5.77111,4.082,11.7888,.00372,16.59258-4.33992,5.1118-9.88916,5.06854-15.29344,2.54803-4.65416-2.17059-8.96755-5.14039-13.24278-8.0359-4.05053-2.74329-7.65242-3.13563-10.55588,1.30188-2.8628,4.37547-1.27257,8.01127,2.76732,10.52136,4.38545,2.72481,8.80154,5.64344,13.59526,7.42496,19.27563,7.16286,36.92492-3.64667,37.16109-22.43196Zm-95.47668-89.75785c1.65743,0,3.44363,.39736,4.94363-.08881,2.54551-.82495,6.54845-1.79611,6.96365-3.45209,.60721-2.42193-.60044-6.44699-2.50157-8.08506-2.95546-2.54628-7.00576-4.69824-10.83372-5.21061-23.12517-3.09568-38.78629,18.62155-39.95761,35.48949-.1477,2.12706,.67957,4.55659,1.7548,6.44798,.6703,1.17905,2.62388,2.08634,4.06254,2.18025,.74023,.04828,1.96042-1.83177,2.37524-3.0423,5.69633-16.61965,16.33507-24.44254,33.19304-24.23884Zm91.41824,2.81168c4.10123-1.43107,7.1565-3.2495,10.32282-3.46935,12.44523-.86426,21.31138,4.95988,27.45384,15.5924,2.46022,4.25853,6.12125,7.20639,11.30843,4.79667,5.47938-2.54545,5.35289-7.33497,3.67388-12.24626-.59474-1.73951-1.40392-3.4781-2.45718-4.97657-7.25402-10.31986-24.78762-16.86239-37.07869-13.44253-3.85943,1.07381-7.69613,3.0848-10.85964,5.54608-2.72825,2.12273-4.69825,5.46176-2.36345,8.19957Zm34.2536,43.72932c-3.08795-6.38122-5.29641-12.87405-9.10529-18.22784-3.26385-4.58784-8.29847-3.84067-11.55297,.3238-5.95729,7.62265-6.63595,26.77999-1.24011,34.99944,3.42303,5.21414,9.902,5.82076,13.80012,.24734,3.42614-4.89852,5.20596-10.94913,8.09825-17.34274Zm-116.21103,2.85909c-1.38742-5.28098-2.26813-11.08448-4.45485-16.34478-2.82601-6.79782-8.68706-7.35725-13.81966-1.9859-8.07415,8.44969-8.16248,26.38947-.17248,35.04392,5.2651,5.70298,12.48415,4.51507,15.21719-2.86677,1.55511-4.20021,2.08813-8.77923,3.2298-13.84647Zm-183.99286,47.73093c5.73764-5.27931,8.95098-2.19606,12.12749,2.10718,3.90975,5.29657,7.87187,10.58743,12.23581,15.5039,2.80408,3.15898,6.63656,3.48205,10.04476,.66075,3.56917-2.95459,5.18764-7.09671,2.46684-11.04714-6.11487-8.87853-14.18217-15.74812-24.71012-18.738-6.62835-1.88241-12.30947,3.48806-12.16478,11.51332Z" style="fill:#fff;"/><path d="M777.72633,874.08725c.65411,2.22594,1.11529,4.22332,1.82018,6.13068,11.20718,30.32408,9.08081,27.25893,38.34449,30.13574,21.39059,2.10284,40.38359,10.56515,58.72036,20.88996,16.42849,9.25027,32.60986,18.93942,48.91155,28.41551,1.94203,1.1289,3.95521,2.13531,7.0535,3.79867-.33979-3.40298-.87866-5.9174-.79093-8.4097,.42766-12.14928-.82621-24.73356,1.94081-36.34717,5.89503-24.74155,27.67824-33.56723,50.31585-21.97818,1.64223,.84073,3.25093,1.74707,4.8626,2.61608,6.95627-10.15996,9.55241-12.04838,22.90374-16.0439-1.37929-19.4427-2.6568-39.25972-4.24672-59.05157-.72913-9.07729-2.30903-18.08576-3.05268-27.16244-.49569-6.04932,1.78171-11.11656,7.82596-13.51412,6.10909-2.42326,11.58969-.6333,15.91212,3.86276,9.08165,9.44637,13.6018,21.5025,15.92527,33.8786,3.43162,18.27897,5.21553,36.86756,7.69271,55.32544,.08255,.61536,.08004,1.24265,.10756,1.86477,.48064,10.86732,3.70975,18.86467,13.96059,25.84155,29.09371,19.80159,37.84675,52.26508,23.87369,84.98399-9.70087,22.71527-14.91192,45.98834-14.57669,70.62693,.1911,14.0504,.03459,28.10551,.03459,42.73204,5.08806-.64113,8.30485-1.36811,11.52401-1.37906,5.241-.01772,6.74792,2.79287,5.01029,7.64789-.85692,2.39391-1.40628,5.24676-.98067,7.69853,5.84638,33.6825,12.21324,67.27718,17.79585,101.00219,6.66103,40.24027,14.34751,80.41561,18.48963,120.93623,3.54625,34.69142,1.72455,69.7764-10.52076,103.2333-14.67353,40.09102-45.54759,57.40281-87.47854,55.69186-37.10804-1.51433-65.23909-21.47855-89.73869-49.69584,1.18355,6.2445,2.1497,11.78248,3.28985,17.28458,6.00252,28.96578,12.02723,57.92685,18.10371,86.87727,.91377,4.35304-.42766,6.78162-5.05309,7.02798-11.74506,.62562-23.48191,1.5604-35.23495,1.85557-59.7867,1.50201-119.51213-.257-179.22532-3.30253-34.60411-1.76479-69.2469-2.77241-103.87176-4.13284-1.22034-.0479-2.43559-.22567-3.72579-.34992,2.13062-14.75381,4.53832-29.26658,6.24637-43.86101,1.71657-14.66728-3.96554-20.3517-18.86906-19.44551-6.55317,.39827-13.06909,1.41001-20.76719,2.27377,1.91801-3.26969,3.32143-5.88653,4.93143-8.36924,8.43647-13.00864,4.195-21.98753-11.225-23.42446-3.41132-.31798-6.87749-.04669-10.4804,.88156,3.83913,1.29474,7.75496,2.4009,11.50136,3.9239,7.78145,3.16354,8.08578,6.03921,2.47311,12.22395-3.10966,3.42647-6.24025,7.41302-7.62197,11.70721-2.74798,8.54063,2.65923,15.25108,11.83727,15.12805,6.80303-.09109,13.59625-1.11757,20.38765-1.79018,3.55503-.35205,5.37421,.49758,5.05149,4.73003-1.0021,13.14231-1.66324,26.31107-2.42183,39.47163-.10543,1.82866-.01459,3.66872-.01459,6.31461-33.26932-2.43177-66.0295-6.55078-98.8121-6.73767-32.84444-.1875-65.71122,3.55071-99.03805,5.59714-3.37415-28.72384-7.07721-57.46592-10.03248-86.2848-2.36904-23.10237-4.56397-46.26876-5.48664-69.46039-.90606-22.77511-.04926-45.61805-.12847-68.43072-.01155-3.32397,2.77466-8.68236-2.58515-9.37763-6.07454-.78819-4.87187,5.37739-4.8523,8.70471,.17955,30.48209-.80431,61.07807,1.5089,91.41508,3.29228,43.17669,9.08773,86.16223,13.78264,129.23293,.17426,1.59873,.02216,3.23319,.02216,5.29269-7.36539,.57909-14.35237,1.26143-21.35558,1.65666-38.14157,2.15363-76.29322,3.72316-114.36201-1.00595-9.24377-1.14829-18.36752-3.23456-27.58654-4.62327-4.38285-.66045-6.64999-2.98486-7.25798-7.17853-1.98975-13.72535-4.26141-27.41907-5.84838-41.1914-2.11188-18.32748-4.52779-36.68188-5.3027-55.08829-1.44789-34.39108-3.31501-68.87157-2.32254-103.23726,2.43077-84.1685,19.25117-165.41077,54.58357-242.26746,17.22438-37.46725,38.89482-72.19927,65.44321-103.86622,29.15395-34.77453,66.35887-57.20474,108.82037-71.57016,17.05094-5.76852,34.43866-10.53961,51.49967-16.28045,8.00106-2.69219,15.41255-7.13731,23.41342-9.8305,9.55633-3.21684,19.33461-6.09365,29.24031-7.8722,12.68848-2.2781,28.23923-18.49522,29.37318-32.07161,.12071-1.44551,.20323-2.90836,.12573-4.35357-.23215-4.33061,1.20164-7.66607,5.95919-7.72279,4.9667-.05908,6.61656,3.35515,6.72572,7.8982,.29068,12.09476-4.28127,22.29784-12.47891,30.82615-4.26774,4.43995-9.27526,8.16843-14.70079,12.8701,5.37243,4.53568,10.42392,9.37915,16.03933,13.44295,26.92751,19.4871,56.15611,33.53317,89.70232,37.09818,29.53916,3.13913,67.74705-9.37915,90.14712-29.80476-8.08107-12.61317-13.62248-26.2101-12.85716-40.05087-17.18286-1.81778-33.92704-2.6928-50.31996-5.56961-17.20437-3.01922-33.08639-10.42852-48.21936-19.17604-6.77612-3.91705-8.45339-9.14701-5.09452-14.95644,3.26317-5.64382,8.77683-6.81424,15.39058-2.98303,21.70172,12.5712,44.88748,20.05197,70.04384,21.55041,27.38064,1.63089,48.31575-9.06946,63.27616-31.85232,11.99903-18.27312,18.58032-38.75423,24.27649-59.60914,8.69321-31.82792,17.08792-63.80022,18.7734-96.87611,1.34037-26.30415,1.34007-52.70647,1.02468-79.05431-.19984-16.69884-2.0689-33.37771-3.24059-50.82885-21.5864-.66413-41.70998-2.71117-59.67138-17.00305-.66589,7.19925-1.34546,13.06973-1.71999,18.95957-.50261,7.90258-3.96402,10.20239-10.90631,6.25538-15.11495-8.59355-30.01326-17.56868-45.53208-26.70095-1.50388,7.30231-3.05565,14.91477-4.64231,22.51994-1.58552,7.59995-5.08182,9.47967-11.18506,4.96912-9.278-6.85686-18.01682-14.44385-27.25027-21.93625-3.01239,5.15659-6.13243,11.37379-10.06916,17.02146-5.29657,7.59862-14.01745,7.72017-18.4834,.69185-.95999-1.51071-1.62869-3.20669-2.6251-5.20559-5.33389,9.96573-9.84849,20.00912-15.79171,29.12006-8.47999,12.99978-17.85628,25.42974-27.20588,37.83454-2.01238,2.66999-5.97264,6.21333-8.26145,5.72488-2.70788-.57791-4.57655-5.09024-6.97243-8.1027-5.54137,10.2544-11.66179,21.4094-17.53215,32.69453-.62154,1.19482,.07187,3.18658,.41417,4.75208,2.16741,9.91429,4.44885,19.80371,6.61402,29.71854,2.95591,13.53556-5.18174,21.66773-18.72327,18.11306-3.36054-.88209-6.36442-4.02981-8.95049-6.69981-2.52016-2.60202-4.08276-6.10498-6.4358-8.90058-8.67676-10.30884-20.88688-10.76315-30.3429-1.09605-8.90123,9.09979-10.26646,20.4796-9.08534,32.42236,1.13882,11.51583,4.70646,22.26088,10.90722,32.09191,4.60491,7.30102,10.92623,11.68356,19.74365,12.31732,2.86352,.20575,6.04269,.52632,8.40147,1.93055,2.1814,1.29861,5.15248,4.45006,4.8084,6.20261-.94205,4.79907,1.59597,7.62425,4.1872,10.3718,16.48911,17.48326,33.14618,34.80798,49.71606,52.2152,2.70104,2.83757,5.75193,5.52125,7.72836,8.8228,2.31766,3.87143,2.878,8.26196-.94148,11.98824-3.59653,3.50882-7.78875,3.91371-11.99241,1.67735-3.25614-1.73232-6.57639-3.74993-9.10297-6.37703-10.31473-10.72498-20.33546-21.73281-30.92841-33.13588-18.75546,4.51857-23.15797,2.97246-32.63661-12.67864-2.15529,.77222-4.39507,1.71901-6.71618,2.38007-7.64828,2.17781-13.88108-2.0868-13.14624-9.90843,.54746-5.82646,2.62016-11.61551,4.72258-17.15182,1.35785-3.57565,1.02202-5.53281-1.68555-8.5033-19.49679-21.38891-25.30722-46.63404-18.68013-74.45039,1.56154-6.55443,6.71189-12.21201,9.88954-18.44625,1.0422-2.04475,2.07973-4.9646,1.40529-6.88069-9.38769-26.67065-10.00379-54.15841-7.43574-81.80805,3.05698-32.91371,12.92044-63.67283,31.44227-91.17028-11.32303-16.1039-8.32439-28.30857,5.97652-33.89745-1.16725-7.7973-2.55638-16.09371,6.36651-20.58205,10.59275-5.32835,18.10048,.97577,24.55372,7.3201,49.7888-23.90679,101.97196-31.52183,155.94276-28.42498,18.57865,1.0661,37.03757,4.22732,55.54773,6.46018,1.42695,.17211,3.40592,.07972,4.14456,.94775,4.89156,5.74875,11.68524,4.2737,17.79843,4.7728,11.78064,.96189,23.61646,1.22794,35.41138,2.04167,10.25486,.70755,12.66089,4.23724,10.62969,12.66271,6.33174,2.09714,13.39747,2.88251,18.41643,6.50519,5.87344,4.23952,5.01706,11.72766,3.11486,18.37173,.32261,.34277,.54913,.81484,.86794,.88882,14.6074,3.38708,19.888,11.94744,14.69695,25.99275-2.38497,6.45292-7.20195,11.97862-10.60871,18.09607-1.28055,2.29947-2.5069,5.13777-2.34111,7.63637,.44568,6.71554-2.08038,11.47458-7.25995,15.55001-1.59426,1.25444-2.57523,4.24648-2.53829,6.42075,.08035,4.72486,1.14661,9.42451,1.49574,14.15761,.13196,1.78874,.04584,4.43896-1.05098,5.3312-5.711,4.6462-3.15713,10.57968-2.91753,16.05736,1.44079,32.93579,4.9618,65.92698,3.92769,98.77811-.82142,26.09392-6.15569,52.21802-11.37373,77.94567-4.05821,20.00886-9.98494,39.8036-16.93467,59.0229-11.32287,31.31384-29.59868,57.03632-63.43465,68.17729Zm228.50912,113.14638c-3.52671-5.74069-6.84066-10.60462-13.33506-13.36965-4.39374-1.87071-8.2749-6.34168-10.91445-10.56865-2.97256-4.76006-4.29378-10.55192-5.50811-13.73341-4.41723-2.03745-9.67183-2.94745-10.1093-4.92407-1.92865-8.71467,6.87479-5.25049,12.04106-8.38118-5.85596-.80248-10.34966-.93934-14.51383-2.18161-2.23963-.6682-5.38353-3.10362-5.54665-4.96711-.37384-4.27001,3.37597-4.09672,6.66901-4.14577,4.94211-.07353,10.06848,.1615,14.77228-1.0607,7.26687-1.88789,9.09442-9.23712,3.98272-13.70748-12.13524-10.61268-30.44662-6.7566-37.13228,7.92535-4.52532,9.93786-4.9174,20.50491-3.81937,31.12109,2.17114,20.98964,8.37441,40.94619,16.24377,60.41139,1.6084,3.97811,3.58996,7.91174,6.03285,11.42527,6.60539,9.5002,14.46533,18.2427,20.15649,28.23789,9.36154,16.44119,15.22472,34.23551,15.35379,54.00273,22.14831,7.22825,44.8985,4.12691,67.52258,2.08429-2.06183-25.83775-3.62393-51.00563,1.39069-75.7125,3.18761-15.70516,8.95524-30.93777,14.23432-46.15022,4.114-11.85472,6.27579-23.58261,2.82563-35.92031-.85882-3.071-2.34194-4.60259-5.83528-5.16389-7.54243-1.21178-14.91108-3.47726-22.43861-4.81891-7.93018-1.4135-15.93705-2.53016-23.95708-3.27235-9.66628-.89456-16.94957,3.25874-21.36262,11.91053-5.01212,9.82647-7.20484,19.94324-1.38225,30.27169,3.10627,5.51,8.21865,8.094,14.34773,8.5388,6.82637,.49537,9.38738-3.0047,7.52274-9.56422-.9004-3.16727-1.82261-6.46569-1.81151-9.70147,.00631-1.83261,1.47712-4.68121,2.99673-5.28341,3.59216-1.42362,7.58279-2.07919,11.46593-2.40425,1.40209-.1174,3.97299,1.39138,4.20096,2.52286,.32892,1.63279-.49356,4.126-1.72972,5.29277-1.68951,1.5947-4.22894,2.28837-6.40403,3.36823-.11288,.53742-.22569,1.07492-.33849,1.61234,1.75268,.58844,3.46932,1.5068,5.26487,1.70327,5.32538,.58259,10.72502,.61209,15.99847,1.46141,1.49172,.24027,3.68961,2.55533,3.68437,3.91143-.00608,1.51661-1.87088,3.81555-3.42249,4.35966-2.62001,.91874-5.68394,1.19368-8.46281,.87646-3.35469-.38276-6.60683-1.66472-10.18926-2.63494-.70055,8.4027-5.95698,13.03525-13.17794,13.8518-6.64188,.75123-13.54388-.80028-21.52498-1.43175-.69212,5.40986-1.49848,11.9008-2.36003,18.38443-.64027,4.81906-3.05876,8.78364-8.12538,8.5842-5.13032-.20187-6.90648-4.66137-7.47439-9.27932-1.24794-10.14696,3.37407-17.85287,14.16895-23.48072Zm78.65542,417.5853c-16.00988-10.85074-27.70013-6.75151-33.63552,11.36459-.7714,2.35452-1.27257,4.8018-1.8239,7.22339-1.4642,6.43094-2.61073,6.79333-8.32127,3.46464-5.33153-3.10758-10.61829-6.68049-16.41009-8.5198-9.05429-2.87506-18.75379,1.41092-23.86655,9.19712-4.31696,6.57419-4.37025,16.65424,.81632,22.73116,1.93047,2.26206,5.80336,2.86548,8.79044,4.2253,.80325-2.67919,1.68099-5.33983,2.36057-8.05005,.18502-.73755-.52618-1.71476-.31189-2.42736,.78698-2.617,1.08268-6.15083,2.91107-7.46929,1.83059-1.32013,5.5443-1.15164,7.94333-.28316,3.22273,1.16639,5.97895,3.62584,8.93008,5.53844,15.6951,10.17266,29.26163,4.93578,34.08356-13.06886,1.10982-4.14364,2.62099-8.17946,3.83571-11.92102,4.54432,2.55936,8.22428,5.61706,12.4298,6.79166,8.30212,2.31909,15.76716-3.07123,20.08329-13.75363,1.56393-3.87052,3.0038-8.28165-1.58833-11.1374-4.62946-2.87886-9.10788-2.10695-12.77742,2.14314-1.08116,1.25231-2.17555,2.49306-3.44918,3.95112Zm-658.47996-315.50341c.42652-6.16277,.72484-10.01298,.95376-13.86731,.68645-11.55993-3.98443-20.00772-12.81242-23.23391-8.44153-3.08507-20.89463,.7634-26.75614,8.54892-1.07287,1.42491-1.1311,3.61413-1.65769,5.45046,1.86582,.08052,3.85456,.6165,5.57345,.15238,4.36671-1.17886,8.51808-3.32907,12.92979-4.12653,6.14523-1.11088,9.46062,1.99464,9.55648,8.19756,.03805,2.46462-.63491,4.93928-.60835,7.40526,.06191,5.75073-.21231,11.59186,.71291,17.22147,.87079,5.29847,4.75279,7.79373,10.42172,7.66112,10.80924-.25267,20.77848-3.26763,30.33378-8.13217,2.58682-1.31686,5.47642-2.03859,8.22702-3.03352,.52503,.52662,1.05003,1.05332,1.57503,1.57994-1.66283,4.07034-3.62557,8.04807-4.91611,12.2333-1.80589,5.85611-4.05038,11.81168-4.40309,17.82473-.49166,8.38118,6.01187,16.754,13.10805,17.28906,3.06511,.23115,6.78486-1.99388,9.31707-4.14934,.94342-.80309,.18487-5.37458-1.23003-6.88541-7.34281-7.84011-7.33935-8.13224-3.11798-18.10934,2.38751-5.64276,4.70726-11.61946,5.3421-17.62719,.95114-8.99996-6.05592-16.35702-15.0611-15.93913-5.59135,.25943-11.15986,2.38417-16.60363,4.10007-6.51489,2.05357-12.88585,4.56412-20.8846,7.43956Zm394.53004-65.18666c-1.74758-.84095-3.60067-1.68503-5.4115-2.61175-12.50627-6.40015-23.0956-3.09655-29.42719,9.51982-2.21591,4.41524-3.7432,9.18199-5.49998,13.82039-1.79555,4.74082-4.81874,6.33468-9.74017,4.47728-4.82976-1.8228-9.68567-3.80999-14.71147-4.83655-17.77114-3.63009-34.55675,13.53625-28.94427,29.65695,1.09294,3.13928,4.26185,5.55547,6.47328,8.30515,1.55663-2.8175,3.77855-5.46575,4.54615-8.48391,2.37851-9.35231,7.76986-14.7903,14.89215-13.63814,3.21672,.52039,6.34147,1.83907,9.4016,3.06203,17.53701,7.00813,27.90111,2.40546,34.47359-15.40528q4.86701-13.18907,17.95054-8.50824c8.17517,2.92479,15.12818,1.56253,19.25526-3.77251,3.94821-5.10382,3.90428-11.75428-.10087-15.22036-3.79717-3.28611-7.99107-2.18914-13.15711,3.63511Zm-49.8717,428.49034c.31022-.23449,.83844-.42337,.89834-.71002,1.13718-5.44948,2.14978-10.92541,3.32816-16.36561,2.04024-9.41975,7.09721-12.42499,16.32496-9.51784,5.51564,1.73741,10.8379,4.10425,16.37855,5.74313,9.22509,2.72862,18.08713,2.20412,25.68003-4.51713,6.49821-5.75225,9.17773-13.55351,11.37008-21.64492,1.18066-4.3573,2.33791-8.86713,4.46732-12.78509,2.81293-5.17544,6.33204-5.58299,11.11292-2.08186,4.74766,3.47681,9.77247,4.69262,15.06113,1.68906,5.61005-3.1862,6.21285-11.3614,.93757-13.73615-5.5012-2.47663-11.25537-4.65718-17.12007-6.00089-10.57489-2.42295-20.94393,4.03749-26.17497,16.3609-2.5687,6.05153-3.8405,12.64214-5.92703,18.91296-2.88423,8.66806-7.91224,11.31076-16.71157,8.84371-5.36969-1.50551-10.56827-3.78855-16.01451-4.81671-9.20837-1.73848-17.95928-.58487-24.01956,7.67793-5.85254,7.97949-5.48873,24.36258,.40866,32.94853Zm-430.23982-160.10463c-2.47102,7.72294-5.40002,14.16605-6.4954,20.90737-1.85328,11.40596,8.66323,19.97898,19.78994,16.88676,6.46742-1.79718,10.78081-9.2435,8.70465-15.02677-1.59308-4.43759-4.75625-4.99493-12.50912-1.68662,1.85115-4.75132,3.64735-8.85542,5.05556-13.08847,2.44072-7.33683,2.23643-14.51384-3.58376-20.23917-5.62898-5.53707-12.3517-3.44594-18.72049-1.39693-5.19737,1.67233-10.25441,3.78095-16.32625,6.05244,.99675-4.19778,1.77746-7.349,2.48801-10.51604,.72495-3.23121,1.4959-6.45862,2.04655-9.72161,1.95149-11.56335-4.9033-17.71076-15.48648-13.15257-8.1228,3.4987-15.64442,8.40331-23.37562,12.78471-.63731,.36132-.83073,1.50611-2.08114,3.94899,10.66101-2.84495,19.80942-5.28615,29.34887-7.83167-2.75773,9.00277-5.26403,17.07639-7.69837,25.1716-1.50899,5.01805-1.72717,10.11609,2.35642,13.93931,4.21105,3.9429,9.29495,2.43497,14.07636,.80826,7.16227-2.43649,14.28476-4.98992,22.41025-7.83958Zm301.34214-86.01442c.41033,.60448,.82066,1.20897,1.23099,1.81353,2.81247-1.56086,5.46471-3.65146,8.47384-4.56176,4.8572-1.46931,9.95521-3.00645,14.9408-2.97193,6.4862,.04479,9.29092,3.64196,8.93183,10.0913-.25146,4.51469-1.37207,8.97441-1.94286,13.47914-1.3029,10.28185,3.94624,18.91402,14.03676,20.97854,5.43506,1.11202,11.48684,.61787,17.00712-.45515,6.84514-1.33047,13.3454-4.38148,20.16941-5.90584,2.36923-.52921,6.09267,.54077,7.62832,2.27255,1.07151,1.20828-.19847,4.89852-1.01024,7.2795-1.25964,3.69396-3.56092,7.08804-4.45607,10.83957-1.90463,7.98139,1.6233,15.99433,8.00688,17.37726,3.22174,.69801,7.33893-.27935,10.30139-1.88416,1.48054-.80187,2.60473-5.66785,1.60794-7.05641-4.54888-6.33651-1.82892-12.03606,.01315-18.19183,3.53165-11.80157-1.69741-21.94381-13.76113-23.95541-6.95369-1.15947-14.58087,.83039-21.75599,2.18945-5.23081,.9909-10.13294,3.62074-15.33638,4.87951-6.24006,1.50923-9.69532-1.43989-9.43824-7.73009,.17696-4.33228,1.18363-8.63491,1.30031-12.96476,.40432-15.01172-13.38508-24.91749-27.09543-18.69724-6.86346,3.11389-12.60403,8.70403-18.85238,13.17424Zm-333.20836,272.89972c-4.87729-2.10436-9.63637-4.73504-14.72851-6.2334-10.35815-3.04781-20.67713,2.76161-21.49135,12.79315-.47994,5.91314,1.56423,12.11385,3.04006,18.04402,.36147,1.45228,3.13788,3.44776,4.45717,3.21631,1.5164-.26612,3.32729-2.54278,3.80107-4.27685,.91733-3.35743,1.07337-6.93856,1.38872-10.44122,.47754-5.30425,3.37652-6.27233,7.69909-4.2583,3.55672,1.65712,6.86257,3.86079,10.43979,5.46483,10.17642,4.5632,17.49498,1.11347,20.40232-9.61486,.91708-3.38419,1.30768-6.91027,1.95583-10.36837,1.89813-10.12673,4.47009-11.3471,12.96719-5.88835,9.25709,5.9469,19.35883,8.88872,30.14249,6.77493,3.01175-.59064,6.316-4.41843,7.60099-7.53802,.96197-2.33536-.22307-6.76733-2.08182-8.68768-1.6222-1.67598-6.47084-2.53701-8.23401-1.33062-5.12143,3.50433-9.56951,1.58671-14.08111-.24529-3.81549-1.54945-7.26353-3.97834-10.99962-5.75392-12.22426-5.80912-22.81097-1.97343-27.75684,10.60196-2.22135,5.64793-3.06359,11.83845-4.52146,17.7417Zm648.22196-351.29521c-2.56315-1.59888-4.44178-2.86609-6.40737-3.97971-6.83807-3.87417-11.8638-1.57386-13.76576,6.14452-.98941,4.01461-1.86312,8.10304-3.35112,11.94003-3.16898,8.17193-8.70165,10.51984-16.82977,7.49088-4.64489-1.73095-9.14345-3.93644-13.88807-5.30143-11.03843-3.17555-20.78262,.33669-25.10361,10.37453-3.12953,7.26977-4.28078,15.44558-5.81385,23.31481-.43443,2.22967,.47213,4.99676,1.4924,7.17594,2.05172,4.38239,5.26988,4.52876,7.86891,.45591,1.20157-1.8831,1.89133-4.11908,2.65155-6.25272,1.80262-5.05888,3.37955-10.20132,5.29102-15.21724,1.84207-4.83404,5.37342-6.73296,10.40287-4.89099,4.06566,1.48893,8.10015,3.08325,12.06926,4.81268,12.75727,5.55919,27.04192,.98132,33.937-11.06266,1.80817-3.15845,3.30193-6.49694,5.00117-9.87414,2.14651,.55506,3.90397,1.1622,5.71214,1.45008,7.15855,1.13985,13.01793-1.65948,15.65033-7.36109,2.38132-5.15788,1.09743-10.76057-3.20357-13.19485-4.83751-2.73804-8.68326-1.384-11.71351,3.97545Zm-459.8366,280.07961c-1.36363-4.409-2.4557-7.48951-3.25317-10.64454-.80762-3.19517-1.72326-6.44326-1.89239-9.70443-.49391-9.52499,4.80019-13.85263,14.03349-11.42694,5.99491,1.57531,11.77835,3.95766,17.77555,5.52186,10.8268,2.82381,19.58797-.92262,24.07411-11.11717,2.36547-5.37542,3.37822-11.48214,4.20457-17.37065,1.61045-11.47637,3.41375-12.92317,14.67631-10.11685,6.26161,1.5601,13.75512-.74637,16.81392-5.22852,2.54502-3.72879,2.40287-7.47856-.56924-10.81242-2.7281-3.06044-5.84931-3.01147-9.52174-1.09278-1.85313,.96839-4.64873,1.09385-6.72234,.52389-14.75726-4.05802-24.70457,1.61485-28.18872,16.78548-1.19712,5.21255-1.41042,10.64819-2.12712,15.97463-1.22034,9.06908-4.49917,11.1634-13.57474,8.83002-6.60429-1.69803-13.16004-3.7262-19.86394-4.85564-6.62029-1.11529-12.18948,1.54854-16.29448,6.9457-8.59816,11.30498-4.43323,28.229,10.42993,37.78835Zm500.66754-437.69301c0-1.63758,.04181-3.00797-.00616-4.37532-.99595-28.37673,17.24337-44.83784,45.15771-40.95197,13.31279,1.85329,26.30153,4.59362,38.59793,12.46734-.53727-1.65606-.6012-2.27704-.90747-2.73637-14.97432-22.46359-36.5434-35.03259-62.44631-40.17017-9.49867-1.88386-18.88636,.30985-25.4868,9.00559,1.73633,2.27575,3.19529,4.18797,4.62786,6.06552,2.33001-.9011,4.21138-1.81315,6.19301-2.3644,11.01881-3.06538,22.00403-4.1755,32.19307,2.43154,1.64359,1.06579,3.49015,4.93289,2.88864,5.7318-1.47727,1.96233-4.21784,3.18468-6.67517,4.10152-1.10571,.41272-2.75622-.58852-4.14654-.99287-14.14614-4.11246-28.046,.62136-34.85275,11.87935-6.84818,11.3265-4.68905,29.97934,4.86298,39.90845Zm92.31598,312.75761c4.09986-17.65152-5.2803-28.07457-21.3408-25.21859-2.84273,.50556-5.60108,1.46787-8.4226,2.11372-9.43976,2.16063-14.34675-1.51159-14.54621-11.28643-.07085-3.47065,.87888-6.96061,1.34364-10.44426,.27761-2.07988,.51842-4.16462,.863-6.953-12.23444,8.5217-16.15347,23.18487-9.81375,33.8294,4.90349,8.23314,13.22119,11.00373,25.11289,8.69164,4.06436-.79031,8.25073-.95242,13.39603-1.51174-3.02433,7.43127-4.78027,13.4504-.38965,19.13331,4.43121,5.73552,10.47402,7.67626,17.57548,6.99422,4.38811-.42124,9.03566-2.22952,12.64979,2.30038,2.96352,3.71434,6.77893,3.94047,10.4782,1.34203,4.13741-2.90608,3.99747-6.89628,1.87027-11.03673-3.07359-5.98279-10.57618-9.61866-18.47968-8.94423-3.22622,.27525-6.44659,.61771-10.2966,.99029Zm-499.23006-301.29964c-13.26806-.56951-19.66015,3.66469-20.49396,14.43537-.26324,3.40009,.50052,7.02486,1.46838,10.35043,4.49723,15.45273,4.57648,15.50945-11.36966,14.4505-8.32557-.55286-15.19519,1.58443-19.34222,9.38721-3.7765,7.10561-2.69192,17.85059,2.81171,23.88485,1.5797,1.73224,4.39233,2.33939,6.6396,3.46251,.52576-2.27134,1.96308-4.78508,1.4341-6.77607-4.52996-17.04917,2.23537-18.48989,16.86329-16.63873,12.40491,1.56991,20.5271-7.56159,18.55957-20.01851-.51511-3.26163-1.47461-6.45109-2.05875-9.70443-.45571-2.53799-.64601-5.12374-1.01624-8.20409,3.66627,0,6.51508,.05163,9.36146-.0095,8.99583-.19328,13.71366-5.24851,13.3039-14.11108-.0846-1.83056,.47361-3.77304,.03824-5.48666-.72127-2.83856-1.45899-7.34368-3.18529-7.86809-2.65395-.80636-7.14943,.2148-9.03232,2.1991-2.25798,2.37976-2.59291,6.5853-3.98181,10.6472Zm5.22663,161.39366c.2049,10.42715-3.96239,14.14012-11.67627,12.52703-2.96743-.62053-5.77459-2.17781-8.54689-3.52965-7.43897-3.62736-13.70989-3.23942-18.04396,3.65374-3.92548,6.24352-6.03349,13.801-8.05739,21.02713-2.56223,9.14838-5.86364,11.16629-14.80781,7.96785-4.84295-1.73186-9.76423-3.53802-14.80489-4.35167-6.93275-1.11917-11.86376,2.73462-15.48454,8.29062-2.89244,4.43835-3.85859,9.3171-1.1425,14.08667,.96064,1.68685,3.31915,2.57738,5.03948,3.83144,.6679-1.59736,1.68248-3.13951,1.94735-4.8012,1.69745-10.64895,5.74555-12.98514,15.84842-8.95768,1.52706,.60874,3.13903,1.05119,4.58339,1.81383,15.89156,8.39031,26.74873-1.4852,29.89962-16.40028,.81085-3.8382,1.34543-7.77335,2.57675-11.47431,1.59677-4.79922,4.71178-6.60446,9.57712-3.60348,2.09866,1.29451,4.36842,2.46082,6.71554,3.17624,8.41375,2.56468,16.00212,.83229,22.48361-5.12169,4.92371-4.52275,7.21951-10.10605,5.61951-16.80639-.87432-3.6615-2.78728-7.22476-7.14555-5.82137-2.33233,.75108-3.92351,3.8052-4.581,4.49317Zm399.40723,5.66473c0,.71915,.0653-.11633-.01171-.93858-.28688-3.06203,1.4379-7.66226-3.43101-7.93881-5.03188-.28574-3.67312,4.4017-4.0389,7.45993-1.86753,15.61316-2.4793,31.50005-5.83194,46.78611-6.99641,31.89848-15.77438,63.40195-23.13802,95.22568-3.49311,15.09642-5.49443,30.54352-7.95093,45.86729-.28042,1.74867,.62203,3.85516,1.49529,5.52384,.28194,.53894,2.88081,.70865,3.28833,.17792,1.16569-1.51752,2.2879-3.4248,2.48394-5.27855,3.30171-31.21522,11.5817-61.34344,19.64947-91.53218,8.23355-30.80919,16.02052-61.71844,17.48548-95.35266Zm23.15398-349.50587c3.2938,28.45566,7.19587,56.75643,.38775,84.91183,8.22169,2.49967,15.83512,4.81443,24.33221,7.39781-6.226-31.63-7.01488-64.07768-24.71997-92.30964Z"/><path d="M810.28815,739.26364c-9.117,2.55138-17.2366,4.8237-26.47196,7.40823,1.50342,11.46678,3.09305,23.59059,4.75253,36.24749,2.72088-.79374,4.46481-1.7511,6.17659-1.69658,2.55684,.08128,6.72146,.18788,7.2804,1.51501,1.02483,2.43299,.66825,6.12239-.51842,8.61933-1.13695,2.39254-3.74183,4.78295-6.24592,5.72191-25.09761,9.41078-50.71691,15.94643-77.58505,8.81702-20.38066-5.40796-33.7725-21.59618-34.45572-40.13109-.68049-18.46267,12.21704-33.72554,30.83453-37.10738,12.14155-2.20549,23.95936-1.03857,35.6145,2.33969,18.08577,5.24213,36.35268,8.30013,55.23538,5.90462,1.00241-.12728,2.05696,.02882,3.0688,.17846,.31501,.04653,.56882,.50647,2.31435,2.18329Zm-102.98269,43.44723c11.52013,13.92616,42.01419,13.85225,66.18951,5.1667-3.38281-14.0796-15.60449-17.17471-27.8175-7.0447-7.26056-8.24447-25.01133-7.46837-38.37201,1.878Zm67.01252-35.54195c-13.30435-1.53257-25.79383-3.13389-38.31994-4.36072-9.3734-.91805-18.65504-.43812-27.06875,4.57134-4.63258,2.75819-8.40018,6.23051-9.22304,12.00618,24.89336-2.419,49.33678-4.7942,74.10068-7.20058,.1588-1.55911,.34328-3.36944,.51105-5.01622Z"/><path d="M800.25684,687.23708c-.23618,18.78529-17.88547,29.59483-37.16109,22.43196-4.79373-1.78152-9.20981-4.70014-13.59526-7.42496-4.03989-2.51009-5.63012-6.14589-2.76732-10.52136,2.90346-4.43752,6.50535-4.04517,10.55588-1.30188,4.27523,2.89551,8.58862,5.86531,13.24278,8.0359,5.40428,2.52051,10.95352,2.56377,15.29344-2.54803,4.07827-4.80378,4.31673-10.82147-.00372-16.59258-2.56155-3.42176-6.25367-5.97488-9.11753-9.2026-1.15011-1.29626-1.44284-3.3537-2.12583-5.06473,1.80786-.6111,3.72937-1.96864,5.40542-1.71346,11.92886,1.81528,20.42277,12.01242,20.27325,23.90173Z"/><path d="M704.78017,597.47924c-16.85797-.2037-27.49671,7.61919-33.19304,24.23884-.41481,1.21053-1.635,3.09058-2.37524,3.0423-1.43866-.0939-3.39224-1.0012-4.06254-2.18025-1.07523-1.89139-1.9025-4.32092-1.7548-6.44798,1.17131-16.86794,16.83243-38.58517,39.95761-35.48949,3.82796,.51237,7.87826,2.66433,10.83372,5.21061,1.90113,1.63807,3.10878,5.66314,2.50157,8.08506-.41519,1.65598-4.41814,2.62715-6.96365,3.45209-1.5,.48617-3.2862,.08881-4.94363,.08881Z"/><path d="M796.19841,600.29092c-2.3348-2.73782-.3648-6.07685,2.36345-8.19957,3.16351-2.46127,7.00021-4.47227,10.85964-5.54608,12.29108-3.41986,29.82467,3.12267,37.07869,13.44253,1.05326,1.49847,1.86244,3.23707,2.45718,4.97657,1.67902,4.91129,1.80551,9.70082-3.67388,12.24626-5.18718,2.40972-8.84821-.53814-11.30843-4.79667-6.14246-10.63252-15.00861-16.45666-27.45384-15.5924-3.16632,.21986-6.22159,2.03829-10.32282,3.46935Z"/><path d="M830.45201,644.02024c-2.89229,6.39361-4.6721,12.44422-8.09825,17.34274-3.89812,5.57341-10.3771,4.9668-13.80012-.24734-5.39584-8.21945-4.71718-27.37679,1.24011-34.99944,3.2545-4.16447,8.28912-4.91164,11.55297-.3238,3.80888,5.35378,6.01734,11.84662,9.10529,18.22784Z"/><path d="M714.24098,646.87934c-1.14167,5.06724-1.67468,9.64626-3.2298,13.84647-2.73304,7.38185-9.9521,8.56975-15.21719,2.86677-7.99-8.65445-7.90167-26.59423,.17248-35.04392,5.1326-5.37135,10.99365-4.81192,13.81966,1.9859,2.18672,5.2603,3.06743,11.0638,4.45485,16.34478Z"/><path d="M530.24812,694.61026c-.14469-8.02526,5.53643-13.39573,12.16478-11.51332,10.52795,2.98987,18.59526,9.85947,24.71012,18.738,2.7208,3.95043,1.10233,8.09255-2.46684,11.04714-3.4082,2.8213-7.24068,2.49823-10.04476-.66075-4.36394-4.91647-8.32606-10.20733-12.23581-15.5039-3.17651-4.30324-6.38985-7.38648-12.12749-2.10718Z"/><path d="M1006.23545,987.23363c-10.79487,5.62785-15.41688,13.33376-14.16895,23.48072,.56791,4.61795,2.34407,9.07744,7.47439,9.27932,5.06662,.19944,7.48511-3.76513,8.12538-8.5842,.86155-6.48364,1.66792-12.97457,2.36003-18.38443,7.98111,.63148,14.88311,2.18298,21.52498,1.43175,7.22096-.81655,12.47739-5.4491,13.17794-13.8518,3.58243,.97021,6.83457,2.25218,10.18926,2.63494,2.77888,.31722,5.84281,.04228,8.46281-.87646,1.55162-.54411,3.41641-2.84305,3.42249-4.35966,.00525-1.3561-2.19265-3.67115-3.68437-3.91143-5.27346-.84932-10.6731-.87882-15.99847-1.46141-1.79555-.19648-3.51219-1.11483-5.26487-1.70327,.11281-.53742,.22561-1.07492,.33849-1.61234,2.17509-1.07986,4.71452-1.77353,6.40403-3.36823,1.23615-1.16677,2.05864-3.65998,1.72972-5.29277-.22797-1.13149-2.79887-2.64026-4.20096-2.52286-3.88314,.32505-7.87377,.98063-11.46593,2.40425-1.51961,.6022-2.99043,3.4508-2.99673,5.28341-.0111,3.23577,.91111,6.5342,1.81151,9.70147,1.86465,6.55952-.69637,10.05959-7.52274,9.56422-6.12908-.44481-11.24146-3.0288-14.34773-8.5388-5.82259-10.32846-3.62986-20.44523,1.38225-30.27169,4.41304-8.65179,11.69633-12.80509,21.36262-11.91053,8.02003,.74218,16.0269,1.85884,23.95708,3.27235,7.52753,1.34165,14.89618,3.60713,22.43861,4.81891,3.49334,.5613,4.97647,2.09288,5.83528,5.16389,3.45016,12.3377,1.28838,24.06559-2.82563,35.92031-5.27908,15.21245-11.04671,30.44506-14.23432,46.15022-5.01463,24.70687-3.45252,49.87475-1.39069,75.7125-22.62408,2.04262-45.37428,5.14396-67.52258-2.08429-.12907-19.76722-5.99225-37.56154-15.35379-54.00273-5.69116-9.99519-13.5511-18.73769-20.15649-28.23789-2.44289-3.51353-4.42445-7.44716-6.03285-11.42527-7.86937-19.4652-14.07264-39.42175-16.24377-60.41139-1.09804-10.61617-.70595-21.18323,3.81937-31.12109,6.68566-14.68195,24.99704-18.53802,37.13228-7.92535,5.1117,4.47036,3.28415,11.81959-3.98272,13.70748-4.7038,1.2222-9.83017,.98717-14.77228,1.0607-3.29304,.04904-7.04286-.12424-6.66901,4.14577,.16313,1.86348,3.30703,4.2989,5.54665,4.96711,4.16417,1.24227,8.65787,1.37913,14.51383,2.18161-5.16628,3.13069-13.96971-.33349-12.04106,8.38118,.43747,1.97662,5.69207,2.88662,10.1093,4.92407,1.21434,3.18148,2.53555,8.97335,5.50811,13.73341,2.63954,4.22697,6.52071,8.69795,10.91445,10.56865,6.49441,2.76504,9.80835,7.62896,13.33506,13.36965Z" style="fill:#fff;"/><path d="M1084.89087,1404.81893c1.27363-1.45806,2.36802-2.69881,3.44918-3.95112,3.66954-4.25009,8.14796-5.022,12.77742-2.14314,4.59214,2.85575,3.15226,7.26688,1.58833,11.1374-4.31613,10.6824-11.78117,16.07272-20.08329,13.75363-4.20552-1.1746-7.88548-4.2323-12.4298-6.79166-1.21472,3.74156-2.72589,7.77738-3.83571,11.92102-4.82193,18.00463-18.38846,23.24151-34.08356,13.06886-2.95113-1.9126-5.70735-4.37205-8.93008-5.53844-2.39903-.86848-6.11274-1.03697-7.94333,.28316-1.82839,1.31846-2.12408,4.85229-2.91107,7.46929-.21429,.71261,.49691,1.68982,.31189,2.42736-.67957,2.71021-1.55732,5.37085-2.36049,8.05005-2.98716-1.35982-6.86004-1.96324-8.79051-4.2253-5.18657-6.07692-5.13329-16.15697-.81632-22.73116,5.11276-7.7862,14.81226-12.07218,23.86655-9.19712,5.7918,1.8393,11.07856,5.41222,16.41009,8.5198,5.71054,3.32869,6.85708,2.9663,8.32127-3.46464,.55134-2.42158,1.0525-4.86887,1.8239-7.22339,5.93539-18.1161,17.62565-22.21534,33.63552-11.36459Z" style="fill:#fff;"/><path d="M426.41091,1089.31552c7.99874-2.87544,14.3697-5.38599,20.8846-7.43956,5.44377-1.7159,11.01228-3.84064,16.60363-4.10007,9.00518-.41789,16.01223,6.93917,15.0611,15.93913-.63484,6.00773-2.95458,11.98444-5.3421,17.62719-4.22137,9.97709-4.22483,10.26922,3.11798,18.10934,1.4149,1.51083,2.17346,6.08232,1.23003,6.88541-2.53221,2.15546-6.25196,4.38049-9.31707,4.14934-7.09618-.53506-13.59971-8.90788-13.10805-17.28906,.35271-6.01305,2.5972-11.96862,4.40309-17.82473,1.29054-4.18523,3.25329-8.16296,4.91611-12.2333-.525-.52662-1.04999-1.05332-1.57503-1.57994-2.7506,.99493-5.64019,1.71666-8.22702,3.03352-9.5553,4.86453-19.52454,7.8795-30.33378,8.13217-5.66892,.13261-9.55093-2.36266-10.42172-7.66112-.92522-5.6296-.65099-11.47074-.71291-17.22147-.02657-2.46599,.64639-4.94064,.60835-7.40526-.09585-6.20291-3.41124-9.30844-9.55648-8.19756-4.41171,.79746-8.56308,2.94767-12.92979,4.12653-1.71889,.46412-3.70763-.07185-5.57345-.1523,.52659-1.83641,.58482-4.02563,1.65769-5.45054,5.86151-7.78552,18.31461-11.63399,26.75614-8.54892,8.82799,3.22619,13.49888,11.67398,12.81242,23.23391-.22892,3.85432-.52724,7.70454-.95376,13.86731Z" style="fill:#fff;"/><path d="M820.94095,1024.12886c5.16605-5.82426,9.35994-6.92122,13.15711-3.63511,4.00515,3.46609,4.04909,10.11654,.10087,15.22036-4.12708,5.33504-11.08008,6.6973-19.25526,3.77251q-13.08353-4.68083-17.95054,8.50824c-6.57248,17.81074-16.93657,22.41341-34.47359,15.40528-3.06013-1.22296-6.18488-2.54164-9.4016-3.06203-7.12229-1.15217-12.51365,4.28583-14.89215,13.63814-.7676,3.01816-2.98951,5.66641-4.54615,8.48391-2.21143-2.74968-5.38033-5.16586-6.47328-8.30515-5.61248-16.1207,11.17312-33.28704,28.94427-29.65695,5.0258,1.02656,9.88171,3.01375,14.71147,4.83655,4.92143,1.8574,7.94462,.26354,9.74017-4.47728,1.75678-4.6384,3.28407-9.40515,5.49998-13.82039,6.33158-12.61637,16.92091-15.91997,29.42719-9.51982,1.81083,.92672,3.66392,1.77079,5.4115,2.61175Z" style="fill:#fff;"/><path d="M771.06538,1452.61403c-5.89351-8.58078-6.25732-24.96387-.40478-32.94336,6.06029-8.26279,14.8112-9.41641,24.01956-7.67793,5.44624,1.02815,10.64482,3.3112,16.01451,4.81671,8.79933,2.46705,13.82734-.17564,16.71157-8.84371,2.08653-6.27081,3.35834-12.86143,5.92703-18.91296,5.23104-12.3234,15.60008-18.78385,26.17497-16.3609,5.8647,1.3437,11.61888,3.52425,17.12007,6.00089,5.27528,2.37475,4.67248,10.54995-.93757,13.73615-5.28866,3.00356-10.31347,1.78775-15.06113-1.68906-4.78088-3.50114-8.29999-3.09359-11.11292,2.08186-2.12941,3.91797-3.28666,8.42779-4.46732,12.78509-2.19235,8.09141-4.87187,15.89267-11.37008,21.64492-7.5929,6.72125-16.45494,7.24574-25.68003,4.51713-5.54065-1.63887-10.86291-4.00571-16.37855-5.74313-9.22775-2.90715-14.28472,.09809-16.32496,9.51784-1.17838,5.4402-2.19098,10.91613-3.32816,16.36561-.0599,.28665-.58813,.47553-.90222,.70485Z" style="fill:#fff;"/><path d="M340.82943,1292.51457c-8.1255,2.84966-15.24798,5.40309-22.41025,7.83958-4.78141,1.62671-9.86531,3.13465-14.07636-.80826-4.0836-3.82322-3.86541-8.92126-2.35642-13.93931,2.43434-8.09521,4.94064-16.16883,7.69837-25.1716-9.53945,2.54552-18.68786,4.98672-29.34887,7.83167,1.25041-2.44287,1.44383-3.58767,2.08114-3.94899,7.73121-4.3814,15.25282-9.28601,23.37562-12.78471,10.58317-4.55819,17.43797,1.58922,15.48648,13.15257-.55065,3.26299-1.32159,6.4904-2.04655,9.72161-.71055,3.16704-1.49126,6.31826-2.48801,10.51604,6.07184-2.27149,11.12888-4.38011,16.32625-6.05244,6.36879-2.04901,13.09151-4.14014,18.72049,1.39693,5.82019,5.72533,6.02448,12.90234,3.58376,20.23917-1.40821,4.23306-3.20441,8.33716-5.05556,13.08847,7.75287-3.30831,10.91604-2.75097,12.50912,1.68662,2.07616,5.78327-2.23723,13.2296-8.70465,15.02677-11.12672,3.09222-21.64323-5.4808-19.78994-16.88676,1.09537-6.74132,4.02438-13.18443,6.4954-20.90737Z" style="fill:#fff;"/><path d="M642.17157,1206.50015c6.24835-4.47021,11.98892-10.06035,18.85238-13.17424,13.71035-6.22025,27.49975,3.68552,27.09543,18.69724-.11668,4.32985-1.12335,8.63248-1.30031,12.96476-.25708,6.2902,3.19817,9.23932,9.43824,7.73009,5.20345-1.25877,10.10557-3.88862,15.33638-4.87951,7.17512-1.35906,14.8023-3.34891,21.75599-2.18945,12.06371,2.0116,17.29278,12.15384,13.76113,23.95541-1.84207,6.15577-4.56203,11.85533-.01315,18.19183,.99678,1.38856-.1274,6.25454-1.60794,7.05641-2.96245,1.60481-7.07965,2.58217-10.30139,1.88416-6.38358-1.38294-9.91151-9.39588-8.00688-17.37726,.89515-3.75152,3.19643-7.1456,4.45607-10.83957,.81176-2.38098,2.08174-6.07122,1.01024-7.2795-1.53565-1.73179-5.25909-2.80176-7.62832-2.27255-6.82401,1.52436-13.32427,4.57537-20.16941,5.90584-5.52028,1.07302-11.57205,1.56717-17.00712,.45515-10.09052-2.06452-15.33965-10.6967-14.03676-20.97854,.5708-4.50473,1.69141-8.96445,1.94286-13.47914,.35909-6.44934-2.44563-10.04651-8.93183-10.0913-4.98559-.03452-10.0836,1.50262-14.9408,2.97193-3.00913,.9103-5.66136,3.0009-8.47384,4.56176-.41033-.60456-.82066-1.20904-1.23099-1.81353Z" style="fill:#fff;"/><path d="M308.96321,1479.39987c1.45787-5.90326,2.30012-12.09377,4.52146-17.7417,4.94587-12.57538,15.53258-16.41108,27.75684-10.60196,3.73609,1.77558,7.18413,4.20447,10.99962,5.75392,4.5116,1.832,8.95968,3.74962,14.08111,.24529,1.76317-1.20638,6.61181-.34535,8.23401,1.33062,1.85875,1.92036,3.04379,6.35232,2.08182,8.68768-1.28499,3.11959-4.58925,6.94738-7.60099,7.53802-10.78366,2.11379-20.88539-.82803-30.14249-6.77493-8.4971-5.45875-11.06906-4.23838-12.96719,5.88835-.64814,3.4581-1.03874,6.98418-1.95583,10.36837-2.90734,10.72833-10.2259,14.17806-20.40232,9.61486-3.57722-1.60405-6.88307-3.80771-10.43979-5.46483-4.32257-2.01403-7.22155-1.04595-7.69909,4.2583-.31535,3.50266-.47139,7.08379-1.38872,10.44122-.47378,1.73407-2.28467,4.01073-3.80107,4.27685-1.3193,.23145-4.0957-1.76403-4.45717-3.21631-1.47583-5.93017-3.52-12.13088-3.04006-18.04402,.81421-10.03154,11.1332-15.84096,21.49135-12.79315,5.09214,1.49836,9.85123,4.12904,14.72851,6.2334Z" style="fill:#fff;"/><path d="M957.18517,1128.10466c3.03026-5.35945,6.876-6.71349,11.71351-3.97545,4.301,2.43428,5.58489,8.03697,3.20357,13.19485-2.6324,5.70161-8.49178,8.50094-15.65033,7.36109-1.80817-.28787-3.56563-.89502-5.71214-1.45008-1.69924,3.3772-3.19301,6.7157-5.00117,9.87414-6.89508,12.04397-21.17972,16.62185-33.937,11.06266-3.96912-1.72943-8.00361-3.32375-12.06926-4.81268-5.02945-1.84196-8.5608,.05695-10.40287,4.89099-1.91147,5.01592-3.4884,10.15836-5.29102,15.21724-.76022,2.13364-1.44998,4.36962-2.65155,6.25272-2.59903,4.07285-5.81719,3.92648-7.86891-.45591-1.02027-2.17918-1.92683-4.94627-1.4924-7.17594,1.53307-7.86923,2.68431-16.04504,5.81385-23.31481,4.32099-10.03785,14.06519-13.55009,25.10361-10.37453,4.74462,1.36499,9.24318,3.57048,13.88807,5.30143,8.12812,3.02896,13.66079,.68105,16.82977-7.49088,1.48799-3.83699,2.36171-7.92542,3.35112-11.94003,1.90197-7.71838,6.92769-10.01869,13.76576-6.14452,1.96559,1.11362,3.84422,2.38083,6.40737,3.97971Z" style="fill:#fff;"/><path d="M497.34857,1408.18427c-14.86315-9.55935-19.02808-26.48337-10.42993-37.78835,4.10499-5.39716,9.67419-8.061,16.29448-6.9457,6.70391,1.12943,13.25966,3.15761,19.86394,4.85564,9.07557,2.33338,12.3544,.23906,13.57474-8.83002,.71671-5.32645,.93-10.76209,2.12712-15.97463,3.48414-15.17063,13.43145-20.8435,28.18872-16.78548,2.07361,.56996,4.86921,.4445,6.72234-.52389,3.67243-1.91868,6.79364-1.96765,9.52174,1.09278,2.97211,3.33386,3.11425,7.08363,.56924,10.81242-3.0588,4.48215-10.55231,6.78862-16.81392,5.22852-11.26256-2.80632-13.06586-1.35952-14.67631,10.11685-.82636,5.88851-1.8391,11.99523-4.20457,17.37065-4.48613,10.19456-13.2473,13.94099-24.07411,11.11717-5.99719-1.56421-11.78064-3.94655-17.77555-5.52186-9.2333-2.42569-14.5274,1.90196-14.03349,11.42694,.16913,3.26117,1.08477,6.50926,1.89239,9.70443,.79747,3.15502,1.88954,6.23553,3.25317,10.64454Z" style="fill:#fff;"/><path d="M998.01611,970.49126c-9.55203-9.92912-11.71116-28.58195-4.86298-39.90845,6.80675-11.25799,20.70661-15.99182,34.85275-11.87935,1.39031,.40436,3.04082,1.4056,4.14654,.99287,2.45733-.91684,5.1979-2.13919,6.67517-4.10152,.60151-.79891-1.24505-4.666-2.88864-5.7318-10.18904-6.60704-21.17425-5.49692-32.19307-2.43154-1.98163,.55126-3.863,1.46331-6.19301,2.3644-1.43258-1.87755-2.89153-3.78977-4.62786-6.06552,6.60045-8.69574,15.98814-10.88945,25.4868-9.00559,25.90291,5.13758,47.47198,17.70657,62.44631,40.17017,.30626,.45933,.37019,1.08031,.90747,2.73637-12.2964-7.87372-25.28514-10.61405-38.59793-12.46734-27.91434-3.88588-46.15366,12.57523-45.15771,40.95197,.04797,1.36735,.00616,2.73774,.00616,4.37532Z" style="fill:#fff;"/><path d="M1090.33209,1283.24887c3.85-.37257,7.07037-.71504,10.2966-.99029,7.9035-.67444,15.40609,2.96144,18.47968,8.94423,2.1272,4.14045,2.26714,8.13064-1.87027,11.03673-3.69926,2.59844-7.51468,2.37231-10.4782-1.34203-3.61413-4.5299-8.26168-2.72162-12.64979-2.30038-7.10146,.68204-13.14427-1.25869-17.57548-6.99422-4.39062-5.6829-2.63468-11.70204,.38965-19.13331-5.1453,.55932-9.33166,.72143-13.39603,1.51174-11.89169,2.31209-20.20939-.45849-25.11289-8.69164-6.33972-10.64454-2.42069-25.30771,9.81375-33.8294-.34458,2.78838-.58539,4.87313-.863,6.953-.46476,3.48365-1.41449,6.97361-1.34364,10.44426,.19946,9.77484,5.10645,13.44706,14.54621,11.28643,2.82152-.64585,5.57987-1.60815,8.4226-2.11372,16.0605-2.85598,25.44066,7.56707,21.3408,25.21859Z" style="fill:#fff;"/><path d="M591.10203,981.94923c1.38891-4.0619,1.72383-8.26743,3.98181-10.6472,1.88289-1.9843,6.37837-3.00546,9.03232-2.1991,1.7263,.52442,2.46402,5.02953,3.18529,7.86809,.43538,1.71362-.12284,3.6561-.03824,5.48666,.40976,8.86256-4.30807,13.91779-13.3039,14.11108-2.84638,.06113-5.69519,.0095-9.36146,.0095,.37023,3.08036,.56053,5.6661,1.01624,8.20409,.58414,3.25334,1.54363,6.44281,2.05875,9.70443,1.96753,12.45692-6.15466,21.58842-18.55957,20.01851-14.62793-1.85116-21.39325-.41044-16.86329,16.63873,.52899,1.99099-.90834,4.50473-1.4341,6.77607-2.24727-1.12312-5.05989-1.73027-6.6396-3.46251-5.50363-6.03427-6.58821-16.77924-2.81171-23.88485,4.14703-7.80278,11.01665-9.94006,19.34222-9.38721,15.94614,1.05895,15.86689,1.00223,11.36966-14.4505-.96786-3.32557-1.73162-6.95034-1.46838-10.35043,.83381-10.77068,7.2259-15.00488,20.49396-14.43537Z" style="fill:#fff;"/><path d="M596.32866,1143.34289c.65749-.68797,2.24867-3.74209,4.581-4.49317,4.35828-1.40339,6.27123,2.15987,7.14555,5.82137,1.6,6.70034-.6958,12.28364-5.61951,16.80639-6.48149,5.95397-14.06986,7.68637-22.48361,5.12169-2.34711-.71542-4.61688-1.88173-6.71554-3.17624-4.86533-3.00098-7.98035-1.19574-9.57712,3.60348-1.23133,3.70096-1.7659,7.63611-2.57675,11.47431-3.15089,14.91508-14.00806,24.79059-29.89962,16.40028-1.44436-.76264-3.05633-1.20509-4.58339-1.81383-10.10287-4.02746-14.15097-1.69126-15.84842,8.95768-.26487,1.66168-1.27944,3.20384-1.94735,4.8012-1.72033-1.25406-4.07884-2.14459-5.03948-3.83144-2.71609-4.76956-1.74994-9.64832,1.1425-14.08667,3.62078-5.556,8.55179-9.40979,15.48454-8.29062,5.04066,.81366,9.96194,2.61981,14.80489,4.35167,8.94418,3.19844,12.24558,1.18053,14.80781-7.96785,2.0239-7.22612,4.1319-14.78361,8.05739-21.02713,4.33406-6.89316,10.60499-7.2811,18.04396-3.65374,2.7723,1.35184,5.57945,2.90912,8.54689,3.52965,7.71388,1.6131,11.88117-2.09988,11.67627-12.52703Z" style="fill:#fff;"/><path d="M995.73589,1149.00762c-1.46496,33.63422-9.25192,64.54347-17.48548,95.35266-8.06776,30.18874-16.34776,60.31696-19.64947,91.53218-.19604,1.85375-1.31825,3.76103-2.48394,5.27855-.40752,.53073-3.00639,.36102-3.28833-.17792-.87326-1.66868-1.77571-3.77517-1.49529-5.52384,2.4565-15.32377,4.45782-30.77087,7.95093-45.86729,7.36364-31.82373,16.14161-63.32721,23.13802-95.22568,3.35264-15.28606,3.9644-31.17295,5.83194-46.78611,.36578-3.05823-.99298-7.74568,4.0389-7.45993,4.86891,.27654,3.14413,4.87677,3.43101,7.93881,.077,.82225,.01171,1.65773,.01171,.93858Z" style="fill:#fff;"/><path d="M1018.88988,799.50175c17.70508,28.23196,18.49397,60.67965,24.71997,92.30964-8.4971-2.58339-16.11052-4.89814-24.33221-7.39781,6.80812-28.15539,2.90605-56.45617-.38775-84.91183Z" style="fill:#fff;"/><path d="M707.30546,782.71087c13.36068-9.34638,31.11145-10.12247,38.37201-1.878,12.21301-10.13,24.43468-7.03489,27.8175,7.0447-24.17532,8.68555-54.66938,8.75946-66.18951-5.1667Z" style="fill:#fff;"/><path d="M774.31798,747.16892c-.16776,1.64678-.35225,3.45711-.51105,5.01622-24.7639,2.40638-49.20733,4.78158-74.10068,7.20058,.82286-5.77567,4.59046-9.24799,9.22304-12.00618,8.41371-5.00946,17.69535-5.48939,27.06875-4.57134,12.52611,1.22684,25.01559,2.82815,38.31994,4.36072Z" style="fill:#fff;"/></svg></svg>