<?xml version="1.0" encoding="UTF-8"?>
<svg id="a" xmlns="http://www.w3.org/2000/svg" viewBox="0 0 1366 1555"><svg y="-200"><path d="M965.59205,1445.58863c2.54563,.12329,4.5825,.37032,6.60764,.2961,14.60734-.5342,29.46686,.38395,43.76705-2.01607,34.01363-5.70849,57.62419-24.80748,65.31341-59.35831,9.7008-43.58946,8.58887-86.99474-6.9958-129.3748-1.28538-3.49537-1.21392-5.6286,1.29182-8.68769,9.84624-12.02123,9.72435-23.8267,.26846-36.18796-.37355-.4883-.78972-.94783-1.12617-1.46014-40.2123-61.24315-80.28809-122.57648-120.69776-183.68892-13.9302-21.06697-29.39532-40.96142-48.97817-57.29188-22.95742-19.14435-50.22699-28.73352-78.55617-36.26142-6.80138-1.80729-14.20676-3.88099-19.53114-8.10594-7.75486-6.1534-13.02033-14.67222-14.2456-25.2592-.72007-6.22171-2.849-12.2803-4.39058-18.60235,1.65901-.51511,4.82015-1.41682,7.92815-2.47446,25.05342-8.52571,49.94224-17.53335,72.00478-32.55605,22.99777-15.65965,35.67696-37.21985,33.81823-65.56306-1.25495-19.13791-3.51955-38.24189-6.12689-57.25197-4.85051-35.36432-9.89855-70.71138-15.62108-105.94257-3.16531-19.48759-7.86463-38.72588-11.93398-58.37387,10.98664-3.01472,9.07529-13.02332,10.67169-21.05303,6.78586-.55654,13.35209-.8568,19.85313-1.67574,15.55521-1.95954,26.08745-10.61156,28.91775-23.94189,.84415-3.97591,.56138-8.19125,.75315-11.56227,7.78597-4.39455,15.60738-8.09246,22.63861-12.93756,11.95003-8.23434,13.11406-16.43206,2.05345-25.93437-.60877-.52295-1.05531-1.23488-1.72578-2.03629,2.47318-1.42871,4.9073-2.5873,7.07287-4.12449,20.21259-14.34802,14.07079-34.50555-1.60139-43.01531-2.89064-1.56957-5.85721-3.04747-8.9101-4.2627-61.2374-24.37718-124.64999-33.2434-190.1853-26.17693-77.51003,8.35766-146.70602,36.09935-205.27275,88.55466-2.05796,1.84318-5.87448,2.97011-8.62237,2.59692-22.05603-2.99563-38.59428,16.72986-31.47485,37.75768,.55355,1.63492,.57187,4.06391-.2668,5.45847-5.51834,9.17558-5.27975,16.71646,1.34311,25.07764,2.43438,3.07329,5.0784,5.97964,7.59159,8.99144,3.68581,4.41704,3.64144,8.88947,.415,13.61109-11.82928,17.31143-16.34474,36.72499-16.54935,57.4355-.24348,24.64659,5.82916,48.26117,11.15494,72.03207,.63035,2.81343-.26498,6.18415-1.15634,9.08005-2.05281,6.66927-5.40943,13.04024-6.6944,19.82455-4.97108,26.24505,8.85498,49.98482,32.79321,57.2647,10.65371,3.23986,21.16179,2.6494,31.58308-1.91558,.34508,1.05128,.63183,1.7882,.83011,2.54815,7.72862,29.62334,22.14798,55.41243,43.89383,77.06713,1.09028,1.08573,1.97131,3.38761,1.60764,4.77005-3.08975,11.74557-6.29742,23.46873-9.8638,35.07738-2.56778,8.35827-8.9358,11.76769-17.40577,12.27924-9.88969,.59728-19.74293,1.93883-29.63581,2.29589-7.09608,.25612-14.34766-1.56647-21.329-.7479-30.23387,3.5452-59.7169,10.47582-88.39579,20.85614-61.4936,22.25751-107.85171,61.1609-132.98984,122.51734-8.57444,20.92831-15.392,42.68684-21.5198,64.48588-13.48244,47.96254-21.56606,97.003-26.75935,146.52284-1.39236,13.27667,3.4203,22.5237,15.45814,28.03787,10.47275,4.79731,21.4504,8.4811,32.064,12.98882,2.58213,1.09671,5.5869,3.02343,6.72802,5.37786,5.3941,11.12936,10.3313,22.48834,15.12814,33.89305,.969,2.30384,1.00613,5.18838,.81614,7.75667-.60809,8.22029-2.31147,16.43073-2.17829,24.62194,.44328,27.26142,1.44297,54.51496,2.34372,81.76774,.88742,26.85081,1.83511,53.70026,2.92706,80.54334,.33509,8.23695,.50293,16.59037,2.04115,24.64314,2.38055,12.46281,14.49094,16.95811,25.37158,10.39236,2.19696-1.32572,5.34902-2.06378,7.86755-1.70709,27.58459,3.90567,55.0482,8.78462,82.70441,12.0419,60.40532,7.11388,121.14467,9.09784,181.90953,9.54253,37.39956,.27384,74.82623,.00833,112.20648-1.13413,36.74672-1.12322,73.49905-3.01025,110.15848-5.7665,34.14817-2.56769,68.17823-6.7107,102.25508-10.21061,1.35458-.13889,2.8945-.47467,3.94443-1.25923,7.71965-5.76756,9.85146-17.5126,5.99357-26.36357-3.08559-7.07904-6.24848-14.58763-6.993-22.14074-2.65147-26.90109-4.28451-53.90261-6.35697-81.58553Z" style="fill:#fff;"/><path d="M965.59205,1445.58863c2.07245,27.68293,3.70549,54.68444,6.35697,81.58553,.74452,7.55311,3.90741,15.06169,6.993,22.14074,3.8579,8.85096,1.72609,20.59601-5.99357,26.36357-1.04993,.78456-2.58985,1.12034-3.94443,1.25923-34.07685,3.49992-68.10691,7.64293-102.25508,10.21061-36.65943,2.75625-73.41176,4.64328-110.15848,5.7665-37.38026,1.14246-74.80692,1.40796-112.20648,1.13413-60.76486-.44468-121.50421-2.42865-181.90953-9.54253-27.65621-3.25728-55.11982-8.13623-82.70441-12.0419-2.51853-.35669-5.67059,.38137-7.86755,1.70709-10.88065,6.56575-22.99103,2.07045-25.37158-10.39236-1.53821-8.05277-1.70606-16.40619-2.04115-24.64314-1.09195-26.84309-2.03963-53.69253-2.92706-80.54334-.90075-27.25278-1.90044-54.50632-2.34372-81.76774-.13317-8.19121,1.5702-16.40165,2.17829-24.62194,.18999-2.56829,.15286-5.45283-.81614-7.75667-4.79684-11.40471-9.73404-22.76369-15.12814-33.89305-1.14112-2.35443-4.14589-4.28114-6.72802-5.37786-10.6136-4.50772-21.59125-8.19151-32.064-12.98882-12.03784-5.51417-16.8505-14.7612-15.45814-28.03787,5.19329-49.51984,13.27691-98.56031,26.75935-146.52284,6.1278-21.79905,12.94536-43.55758,21.5198-64.48588,25.13814-61.35644,71.49625-100.25983,132.98984-122.51734,28.67889-10.38032,58.16192-17.31094,88.39579-20.85614,6.98134-.81856,14.23292,1.00402,21.329,.7479,9.89287-.35706,19.74611-1.69861,29.63581-2.29589,8.46996-.51155,14.83799-3.92097,17.40577-12.27924,3.56638-11.60865,6.77405-23.33181,9.8638-35.07738,.36367-1.38244-.51736-3.68432-1.60764-4.77005-21.74585-21.65471-36.1652-47.44379-43.89383-77.06713-.19828-.75995-.48503-1.49687-.83011-2.54815-10.42128,4.56498-20.92937,5.15544-31.58308,1.91558-23.93823-7.27988-37.76429-31.01965-32.79321-57.2647,1.28497-6.7843,4.6416-13.15528,6.6944-19.82455,.89136-2.8959,1.78669-6.26662,1.15634-9.08005-5.32578-23.77089-11.39842-47.38548-11.15494-72.03207,.2046-20.71051,4.72007-40.12408,16.54935-57.4355,3.22645-4.72162,3.27081-9.19406-.415-13.61109-2.51319-3.0118-5.15721-5.91815-7.59159-8.99144-6.62286-8.36118-6.86145-15.90206-1.34311-25.07764,.83866-1.39456,.82034-3.82355,.2668-5.45847-7.11943-21.02782,9.41882-40.75331,31.47485-37.75768,2.74789,.3732,6.56441-.75374,8.62237-2.59692,58.56673-52.4553,127.76272-80.197,205.27275-88.55466,65.53531-7.06647,128.9479,1.79975,190.1853,26.17693,3.05288,1.21523,6.01946,2.69313,8.9101,4.2627,15.67218,8.50976,21.81399,28.6673,1.60139,43.01531-2.16558,1.5372-4.59969,2.69578-7.07287,4.12449,.67048,.80141,1.11701,1.51334,1.72578,2.03629,11.06061,9.50231,9.89658,17.70003-2.05345,25.93437-7.03123,4.8451-14.85264,8.54301-22.63861,12.93756-.19177,3.37102,.091,7.58636-.75315,11.56227-2.8303,13.33033-13.36253,21.98235-28.91775,23.94189-6.50104,.81894-13.06727,1.11921-19.85313,1.67574-1.5964,8.02971,.31495,18.03832-10.67169,21.05303,4.06935,19.64799,8.76867,38.88628,11.93398,58.37387,5.72253,35.23119,10.77057,70.57825,15.62108,105.94257,2.60734,19.01008,4.87194,38.11406,6.12689,57.25197,1.85873,28.34321-10.82046,49.90341-33.81823,65.56306-22.06254,15.02269-46.95137,24.03034-72.00478,32.55605-3.108,1.05764-6.26915,1.95935-7.92815,2.47446,1.54158,6.32205,3.67052,12.38064,4.39058,18.60235,1.22527,10.58699,6.49075,19.1058,14.2456,25.2592,5.32438,4.22495,12.72976,6.29865,19.53114,8.10594,28.32919,7.52789,55.59875,17.11707,78.55617,36.26142,19.58285,16.33047,35.04797,36.22491,48.97817,57.29188,40.40967,61.11244,80.48546,122.44578,120.69776,183.68892,.33645,.51231,.75262,.97184,1.12617,1.46014,9.45588,12.36125,9.57777,24.16673-.26846,36.18796-2.50574,3.05909-2.5772,5.19232-1.29182,8.68769,15.58466,42.38006,16.6966,85.78534,6.9958,129.3748-7.68922,34.55084-31.29978,53.64982-65.31341,59.35831-14.30019,2.40002-29.15971,1.48188-43.76705,2.01607-2.02514,.07421-4.06201-.17281-6.60764-.2961Zm-111.08561-920.1979c-1.59761,.25846-2.81834,.43783-4.03225,.65498-42.12864,7.5363-84.58994,9.47361-127.17056,6.02269-33.09612-2.6823-66.01031-7.23058-98.24384-15.59456-4.59337-1.19187-6.97479-.35165-9.10804,4.05728-6.58163,13.6028-8.52921,27.44941-3.8493,42.01811,1.57743,4.91068,3.22539,9.82132,4.39611,14.83594,3.58508,15.35613-1.82526,25.77939-16.3265,31.71473-3.04811,1.24753-6.23508,2.16939-9.38782,3.14486-11.0603,3.42222-11.72544,4.34665-11.23913,16.22956,.70981,17.34316,1.48821,34.68378,2.11936,52.02978,.20256,5.56657,.03168,11.1467,.03168,16.19052-1.77923,.19243-3.70277-.01628-5.25836,.64325-5.77197,2.44728-10.29508,1.74435-13.04092-3.88076-2.16879-4.44298-5.12413-4.24123-8.57762-3.49098-10.93576,2.37556-19.04058,8.74532-24.33801,18.48595-.87981,1.61766-.12394,4.12544-.12394,5.14718-1.3988,1.31724-3.13722,2.16071-3.3176,3.26-.83121,5.06593-1.89374,10.23416-1.65787,15.30918,.7516,16.17037,9.86494,26.86323,24.66583,28.67733,4.72575,.57918,9.73956-.58766,14.54431-1.40827,6.38816-1.09104,12.36961,2.36435,12.78264,7.23217,.28985,3.41593,1.18564,7.01195,2.75917,10.03333,2.37253,4.55566,5.4214,8.78977,8.44691,12.96929,15.85752,21.9059,30.94092,44.52358,55.92093,57.70862,2.41299,1.27377,5.08604,6.0988,4.40194,8.24127-.99845,3.12672-4.61302,6.95326-7.68225,7.55031-5.69792,1.10845-6.45077,4.13483-6.96824,8.84506-1.38699,12.62176-4.56396,24.7915-11.44623,35.65899-6.65924,10.51535-15.86153,17.13827-28.64705,18.19682-8.02128,.66422-16.05697,1.38373-24.01094,2.57912-12.36927,1.85901-12.9121,3.25554-6.4005,13.57936,.65995,1.04643,1.30416,2.10422,2.00242,3.12468,35.29501,51.58703,83.38265,80.22361,146.62769,80.5772,27.79491,.15547,50.77216-9.95745,62.85022-36.79523,5.72336-12.71718,9.4044-26.34206,14.36553-39.421,1.71973-4.53347,1.06204-7.79211-1.5833-11.8809-10.99171-16.98977-16.16482-35.09208-8.02589-55.47854-1.68467,.29588-3.04304,.57047-4.41239,.76956-18.1362,2.63645-36.21381,5.88615-54.43503,7.64505-10.13257,.9782-20.08434-2.01228-28.70062-8.07103-5.32491-3.74422-9.15555-8.72306-9.2972-15.30471-.06019-2.79222,1.49358-6.77688,3.64493-8.18523,3.15229-2.06333,6.08131,.47997,7.96313,3.66538,3.77136,6.38362,9.23345,10.73723,16.63618,11.7096,5.90105,.77509,12.03672,1.52148,17.8635,.74457,13.05796-1.7411,26.14264-3.7964,38.94046-6.87276,32.59167-7.83422,63.18183-20.26439,90.07058-40.9028,16.55359-12.70567,25.08135-29.2372,23.08802-49.95369-3.93459-40.89061-8.54412-81.71942-13.19461-122.53726-4.85233-42.58964-12.01878-84.93638-13.15736-127.90807-.01037-.39122-.23492-.77676-.48817-1.56594Zm130.43793,721.81116c2.97233,.30973,5.95102,.5688,8.9157,.9398,6.33168,.79243,12.71348,1.34783,18.96522,2.56397,4.91668,.95631,8.02317,4.40594,8.37733,9.50405,.3413,4.91379-1.66855,9.26566-6.24537,11.18056-3.47829,1.45552-7.62751,2.34549-11.34898,2.01789-32.89019-2.89332-65.91265-4.95529-98.58533-9.49853-56.14189-7.80688-112.10995-16.91707-168.05651-26.05853-45.51456-7.43687-91.01384-13.91606-137.34889-10.82357-25.09245,1.67461-49.1163,7.89541-73.46873,15.61868,4.78007,11.17488,9.43968,21.89553,13.95696,32.67562,4.86997,11.62176,5.75187,11.31157,17.92301,11.26234,18.92994-.07664,38.01564-.01681,56.76732,2.22645,38.45543,4.59996,72.82944,20.50816,105.01395,41.49342,28.20003,18.38743,56.87445,35.88277,87.89872,49.2775,42.96045,18.54828,87.97193,29.25507,134.07574,36.02014,21.71761,3.18655,43.45453,5.39755,65.39972,2.55133,28.2503-3.66395,43.98668-18.21371,48.71129-46.28179,1.94602-11.56147,2.8568-23.38391,3.16539-35.11593,.59439-22.60072-1.01715-45.07103-9.47784-66.36935-4.09585-10.31065-9.13934-20.24962-13.94527-30.26508-.4544-.94692-2.2643-1.71073-3.47519-1.75632-16.27006-.6128-31.914,2.55027-47.21824,8.83733Zm-642.73288,20.54095c6.01121,16.93206,10.81353,32.74832,17.16543,47.91513,17.95753,42.87775,41.8813,81.97206,75.82937,114.26949,9.59651,9.12965,19.94875,17.23271,32.79094,21.72316,17.64436,6.16938,35.08113,3.48644,52.45457-.66218,65.71039-15.69101,129.62186-36.92405,191.96711-62.90503,9.55567-3.98216,19.00421-8.2215,29.51343-12.78057-15.63986-9.79743-30.1378-18.84681-44.60326-27.94783-30.8883-19.43356-64.14333-32.19413-100.74223-34.99779-15.6349-1.19774-31.35171-1.28483-47.01659-2.14451-12.91157-.70837-22.34039-6.63966-26.46259-19.39903-3.9888-12.34649-7.96158-24.70782-11.44949-37.20016-1.08824-3.89757-2.86668-5.12878-6.64557-5.72576-36.4914-5.76544-72.49844-2.4625-108.17847,5.81413-17.82383,4.13445-35.45831,9.08565-54.62264,14.04093Zm522.62338-34.43951c.18874,.71155,.37741,1.42311,.56615,2.13466,19.91862,2.36973,39.83731,4.73946,59.75593,7.10918,.41466-.60561,.82924-1.21114,1.24382-1.81675-5.32392-5.515-10.41466-11.28279-16.03748-16.47397-5.63069-5.19853-12.66435-6.32016-19.61843-3.38572-8.81561,3.72006-17.28902,8.25126-25.90999,12.43259Z"/><path d="M854.50644,525.39073c.25325,.78918,.4778,1.17472,.48817,1.56594,1.13859,42.97169,8.30503,85.31843,13.15736,127.90807,4.65049,40.81783,9.26002,81.64665,13.19461,122.53726,1.99334,20.71649-6.53443,37.24802-23.08802,49.95369-26.88875,20.63842-57.47891,33.06858-90.07058,40.9028-12.79782,3.07636-25.88251,5.13166-38.94046,6.87276-5.82678,.77691-11.96245,.03052-17.8635-.74457-7.40273-.97237-12.86482-5.32598-16.63618-11.7096-1.88182-3.18541-4.81084-5.72871-7.96313-3.66538-2.15134,1.40834-3.70511,5.393-3.64493,8.18523,.14165,6.58165,3.97229,11.56049,9.2972,15.30471,8.61627,6.05874,18.56805,9.04922,28.70062,8.07103,18.22122-1.75889,36.29883-5.0086,54.43503-7.64505,1.36935-.19909,2.72771-.47369,4.41239-.76956-8.13893,20.38646-2.96582,38.48877,8.02589,55.47854,2.64534,4.08879,3.30303,7.34743,1.5833,11.8809-4.96112,13.07894-8.64216,26.70382-14.36553,39.421-12.07806,26.83779-35.05531,36.95071-62.85022,36.79523-63.24504-.35358-111.33269-28.99017-146.62769-80.5772-.69826-1.02046-1.34247-2.07825-2.00242-3.12468-6.5116-10.32383-5.96877-11.72036,6.4005-13.57936,7.95397-1.19539,15.98967-1.9149,24.01094-2.57912,12.78552-1.05855,21.98782-7.68147,28.64705-18.19682,6.88227-10.86749,10.05924-23.03722,11.44623-35.65899,.51747-4.71022,1.27032-7.7366,6.96824-8.84506,3.06924-.59705,6.6838-4.42359,7.68225-7.55031,.68411-2.14246-1.98895-6.96749-4.40194-8.24127-24.98002-13.18504-40.06341-35.80272-55.92093-57.70862-3.02551-4.17951-6.07439-8.41363-8.44691-12.96929-1.57353-3.02138-2.46932-6.6174-2.75917-10.03333-.41303-4.86782-6.39448-8.3232-12.78264-7.23217-4.80475,.82061-9.81857,1.98745-14.54431,1.40827-14.80089-1.8141-23.91423-12.50696-24.66583-28.67733-.23587-5.07501,.82666-10.24325,1.65787-15.30918,.18038-1.09929,1.9188-1.94277,3.3176-3.26,0-1.02174-.75588-3.52953,.12394-5.14718,5.29742-9.74063,13.40224-16.1104,24.33801-18.48595,3.4535-.75025,6.40883-.952,8.57762,3.49098,2.74585,5.62511,7.26896,6.32803,13.04092,3.88076,1.55559-.65953,3.47912-.45082,5.25836-.64325,0-5.04381,.17087-10.62394-.03168-16.19052-.63115-17.346-1.40955-34.68662-2.11936-52.02978-.48632-11.88291,.17882-12.80734,11.23913-16.22956,3.15274-.97547,6.33971-1.89733,9.38782-3.14486,14.50123-5.93534,19.91158-16.3586,16.3265-31.71473-1.17072-5.01462-2.81868-9.92526-4.39611-14.83594-4.6799-14.56869-2.73233-28.41531,3.8493-42.01811,2.13325-4.40893,4.51467-5.24915,9.10804-4.05728,32.23353,8.36398,65.14772,12.91226,98.24384,15.59456,42.58062,3.45092,85.04192,1.51361,127.17056-6.02269,1.21392-.21715,2.43464-.39652,4.03225-.65498Zm-195.98967,110.07044c1.18992-1.53875,2.2484-2.72278,3.10126-4.03994,6.3472-9.80247,14.70417-17.4109,25.65417-21.45584,6.30753-2.33001,13.13677-3.25883,19.74441-4.76005,6.29928-1.43117,10.51149-5.75843,10.27301-10.66529-.23757-4.88796-4.87262-9.18273-10.99595-10.03772-1.62259-.22658-3.30719-.23393-4.94379-.10148-18.81069,1.52231-40.31352,18.41901-45.64637,36.30008-1.39335,4.67202-3.53121,10.0473,2.81326,14.76025Zm174.05886-1.7623c4.64466-4.74998,5.24004-9.70129,4.53882-14.84272-2.60575-19.10652-26.86006-38.5425-46.38272-37.28679-5.13881,.33052-9.39781,2.1113-10.40754,7.78549-1.00299,5.63579,1.59602,9.89618,6.65481,11.89109,4.14922,1.63617,8.7611,2.11641,13.18167,3.04293,14.84703,3.11188,26.74566,9.62647,30.30367,25.95039,.19783,.90754,1.00254,1.68286,2.11129,3.45963Zm-30.69986,135.00718c.2425-4.9256-1.43408-8.59227-6.48598-9.91065-4.27467-1.11557-7.75607,.14177-9.94519,4.10469-.78487,1.42099-1.27274,3.02335-1.77068,4.58307-3.76826,11.80646-14.37469,14.60414-23.39108,6.08956-1.63569-1.54466-2.74573-3.71749-4.52315-5.02079-1.78733-1.3105-4.10448-1.89786-6.18958-2.80214-.74187,2.18881-2.28103,4.45297-2.0829,6.5531,.73029,7.74062,5.20218,13.24418,11.7569,17.12987,9.09513,5.39164,18.4834,5.55885,27.54855,.38872,8.11879-4.63063,14.45751-10.96829,15.08309-21.11544Zm-22.43563-28.97563c15.69724-.35351,25.73192-9.17842,24.83379-22.67607-.88897-13.35891-14.09668-23.28342-28.74763-22.11173-1.25026,.10004-3.15206,1.6581-3.32778,2.76488-.16088,1.01349,1.37056,2.71937,2.56577,3.4494,4.5476,2.77783,9.52251,4.91742,13.83799,7.99628,4.21872,3.00972,5.90945,7.81839,3.88197,12.67031-2.09865,5.02215-6.94515,6.53584-11.9704,5.52-6.01779-1.21644-11.91809-3.08181-17.79408-4.90848-4.05686-1.26112-7.92316-2.0787-9.92732,2.81699-2.01825,4.93022,1.24867,7.59151,5.19681,8.82847,7.04849,2.20842,14.29004,3.80033,21.45089,5.64995Zm-107.93249-72.22279c.1175,.73177-.03187,2.58768,.73559,3.91204,1.07931,1.86249,2.83901,3.33043,4.30761,4.96718,1.21861-1.72095,2.71976-3.31021,3.59579-5.1908,1.70875-3.66788,2.441-7.93055,4.68244-11.18578,8.5766-12.45584,16.65345-11.85364,23.99879,1.41455,.39694,.71708,.78692,1.43818,1.19279,2.15011,2.48302,4.35558,7.54022,5.91788,11.46694,3.30908,4.19139-2.78465,4.68494-6.66223,2.06329-10.6943-2.57455-3.95944-5.27797-7.91639-8.46243-11.37988-5.66544-6.16219-12.77617-8.80734-21.2277-7.23187-10.76678,2.00706-21.45134,15.87321-22.35311,29.92967Zm-135.86012,56.41153c4.03804,0,6.99557-.06634,9.94932,.01151,11.96362,.31519,21.62718,5.63814,30.1978,13.62011,3.74914,3.49159,7.98861,3.21464,11.52996-.46763,3.4901-3.62903,3.50574-7.61324,.33444-11.65394-11.58553-14.76173-38.37882-16.05776-52.01152-1.51005Zm258.58445-63.52488c1.63425-1.81622,2.97937-3.92536,4.86747-5.27373,3.30704-2.36163,7.02722-5.97763,10.42329-5.81959,2.88216,.13404,6.24802,4.44222,8.13143,7.64876,2.16913,3.69287,4.4429,6.12765,8.66881,4.76384,4.2372-1.3676,5.12344-4.87145,4.25681-8.99917-1.75334-8.35077-9.21096-15.31296-17.87183-16.59878-8.24227-1.22379-17.81353,3.7368-21.56854,11.33194-2.34735,4.74779-2.07351,9.08504,3.09255,12.94672Z" style="fill:#fff;"/><path d="M984.94437,1247.2019c15.30424-6.28706,30.94818-9.45014,47.21824-8.83733,1.21089,.04559,3.02078,.8094,3.47519,1.75632,4.80592,10.01546,9.84942,19.95443,13.94527,30.26508,8.46069,21.29832,10.07223,43.76863,9.47784,66.36935-.30859,11.73202-1.21937,23.55446-3.16539,35.11593-4.72461,28.06809-20.461,42.61785-48.71129,46.28179-21.94519,2.84622-43.68211,.63522-65.39972-2.55133-46.10381-6.76507-91.11529-17.47186-134.07574-36.02014-31.02427-13.39473-59.69869-30.89007-87.89872-49.2775-32.18451-20.98526-66.55852-36.89345-105.01395-41.49342-18.75168-2.24326-37.83739-2.30309-56.76732-2.22645-12.17114,.04922-13.05304,.35941-17.92301-11.26234-4.51728-10.7801-9.1769-21.50075-13.95696-32.67562,24.35243-7.72328,48.37628-13.94408,73.46873-15.61868,46.33506-3.09249,91.83433,3.3867,137.34889,10.82357,55.94656,9.14146,111.91462,18.25165,168.05651,26.05853,32.67268,4.54324,65.69513,6.6052,98.58533,9.49853,3.72147,.32761,7.87069-.56237,11.34898-2.01789,4.57683-1.9149,6.58667-6.26677,6.24537-11.18056-.35417-5.09811-3.46065-8.54774-8.37733-9.50405-6.25173-1.21614-12.63353-1.77154-18.96522-2.56397-2.96468-.371-5.94337-.63007-8.9157-.9398Z" style="fill:#fff;"/><path d="M342.21149,1267.74285c19.16433-4.95529,36.79881-9.90648,54.62264-14.04093,35.68002-8.27663,71.68707-11.57957,108.17847-5.81413,3.77889,.59698,5.55733,1.82819,6.64557,5.72576,3.48791,12.49234,7.46069,24.85367,11.44949,37.20016,4.12219,12.75936,13.55101,18.69065,26.46259,19.39903,15.66488,.85968,31.38169,.94677,47.01659,2.14451,36.5989,2.80366,69.85393,15.56423,100.74223,34.99779,14.46546,9.10102,28.9634,18.1504,44.60326,27.94783-10.50922,4.55907-19.95776,8.79841-29.51343,12.78057-62.34525,25.98098-126.25672,47.21402-191.96711,62.90503-17.37344,4.14861-34.81021,6.83156-52.45457,.66218-12.84219-4.49046-23.19443-12.59352-32.79094-21.72316-33.94807-32.29743-57.87184-71.39173-75.82937-114.26949-6.3519-15.16681-11.15422-30.98307-17.16543-47.91513Z" style="fill:#fff;"/><path d="M864.83487,1233.30333c8.62097-4.18133,17.09437-8.71253,25.90999-12.43259,6.95408-2.93444,13.98774-1.81281,19.61843,3.38572,5.62282,5.19118,10.71356,10.95897,16.03748,16.47397-.41458,.60561-.82916,1.21114-1.24382,1.81675-19.91862-2.36973-39.83731-4.73946-59.75593-7.10918-.18874-.71155-.37741-1.42311-.56615-2.13466Z" style="fill:#fff;"/><path d="M658.51677,635.46117c-6.34448-4.71295-4.20661-10.08823-2.81326-14.76025,5.33285-17.88107,26.83568-34.77776,45.64637-36.30008,1.6366-.13245,3.3212-.12511,4.94379,.10148,6.12333,.85499,10.75838,5.14976,10.99595,10.03772,.23848,4.90686-3.97373,9.23412-10.27301,10.66529-6.60764,1.50122-13.43688,2.43005-19.74441,4.76005-10.95,4.04494-19.30697,11.65337-25.65417,21.45584-.85286,1.31716-1.91135,2.50119-3.10126,4.03994Z"/><path d="M832.57563,633.69887c-1.10876-1.77677-1.91347-2.55208-2.11129-3.45963-3.55801-16.32391-15.45664-22.83851-30.30367-25.95039-4.42056-.92651-9.03244-1.40675-13.18167-3.04293-5.05879-1.9949-7.6578-6.2553-6.65481-11.89109,1.00973-5.67419,5.26873-7.45497,10.40754-7.78549,19.52266-1.25571,43.77697,18.18027,46.38272,37.28679,.70122,5.14143,.10584,10.09274-4.53882,14.84272Z"/><path d="M801.87578,768.70605c-.62558,10.14715-6.9643,16.4848-15.08309,21.11544-9.06515,5.17013-18.45342,5.00292-27.54855-.38872-6.55472-3.88568-11.02661-9.38925-11.7569-17.12987-.19813-2.10013,1.34103-4.36429,2.0829-6.5531,2.0851,.90429,4.40224,1.49164,6.18958,2.80214,1.77742,1.30331,2.88746,3.47614,4.52315,5.02079,9.01639,8.51457,19.62282,5.7169,23.39108-6.08956,.49794-1.55973,.9858-3.16209,1.77068-4.58307,2.18912-3.96293,5.67052-5.22026,9.94519-4.10469,5.0519,1.31838,6.72847,4.98505,6.48598,9.91065Z"/><path d="M779.44014,739.73042c-7.16084-1.84962-14.4024-3.44153-21.45089-5.64995-3.94814-1.23697-7.21505-3.89825-5.19681-8.82847,2.00416-4.89569,5.87046-4.07811,9.92732-2.81699,5.87599,1.82667,11.77628,3.69204,17.79408,4.90848,5.02525,1.01584,9.87175-.49785,11.9704-5.52,2.02748-4.85191,.33675-9.66059-3.88197-12.67031-4.31548-3.07886-9.29038-5.21845-13.83799-7.99628-1.19522-.73003-2.72665-2.43592-2.56577-3.4494,.17572-1.10679,2.07753-2.66485,3.32778-2.76488,14.65095-1.17169,27.85866,8.75282,28.74763,22.11173,.89813,13.49765-9.13654,22.32256-24.83379,22.67607Z"/><path d="M671.50765,667.50763c.90177-14.05646,11.58633-27.92261,22.35311-29.92967,8.45153-1.57548,15.56225,1.06968,21.2277,7.23187,3.18447,3.46349,5.88788,7.42043,8.46243,11.37988,2.62165,4.03207,2.1281,7.90965-2.06329,10.6943-3.92671,2.60881-8.98391,1.04651-11.46694-3.30908-.40588-.71193-.79585-1.43303-1.19279-2.15011-7.34535-13.26819-15.42219-13.87039-23.99879-1.41455-2.24144,3.25523-2.97369,7.5179-4.68244,11.18578-.87603,1.88059-2.37718,3.46985-3.59572,5.1908-1.46868-1.63674-3.22838-3.10468-4.30768-4.96718-.76746-1.32436-.61809-3.18026-.73559-3.91204Z"/><path d="M535.64753,723.91916c13.6327-14.54772,40.42598-13.25168,52.01152,1.51005,3.17129,4.0407,3.15566,8.02491-.33444,11.65394-3.54136,3.68227-7.78082,3.95922-11.52996,.46763-8.57062-7.98197-18.23417-13.30492-30.1978-13.62011-2.95374-.07785-5.91127-.01151-9.94932-.01151Z"/><path d="M794.23198,660.39428c-5.16607-3.86168-5.43991-8.19893-3.09255-12.94672,3.75501-7.59514,13.32627-12.55573,21.56854-11.33194,8.66086,1.28581,16.11849,8.24801,17.87183,16.59878,.86664,4.12771-.01961,7.63157-4.25681,8.99917-4.22592,1.36381-6.49968-1.07097-8.66881-4.76384-1.88341-3.20654-5.24927-7.51472-8.13143-7.64876-3.39607-.15805-7.11625,3.45796-10.42329,5.81959-1.8881,1.34836-3.23322,3.45751-4.86747,5.27373Z"/></svg></svg>